<svg id="Capa_1" enable-background="new 0 0 512 512" height="512" viewBox="0 0 512 512" width="512" xmlns="http://www.w3.org/2000/svg"><g><path d="m511.27 196.577c-1.802-5.537-6.621-9.521-12.393-10.254l-159.982-20.405-69.316-147.03c-2.475-5.259-8.027-7.888-13.579-7.888s-11.104 2.629-13.579 7.888l-69.316 147.03-159.982 20.405c-5.771.732-10.591 4.717-12.393 10.254-1.787 5.522-.234 11.587 3.999 15.557l117.15 111.445-30.498 159.609c-1.084 5.713 1.216 11.528 5.918 14.941 2.622 1.904 5.713 2.871 8.818 2.871 2.476 0 4.966-.615 7.222-1.86l142.661-78.119 142.661 78.119c5.068 2.798 11.323 2.417 16.04-1.011 4.702-3.413 7.002-9.229 5.918-14.941l-30.513-159.608 117.164-111.445c4.234-3.971 5.787-10.035 4-15.558z" fill="#f3f5f9"/><path d="m414.701 498.129c4.702-3.413 7.002-9.229 5.918-14.941l-30.513-159.608 117.164-111.445c4.233-3.97 5.786-10.034 3.999-15.557-1.802-5.537-6.621-9.521-12.393-10.254l-159.982-20.405-69.316-147.03c-2.474-5.26-8.026-7.889-13.578-7.889v410.021l142.661 78.119c5.068 2.798 11.323 2.417 16.04-1.011z" fill="#e1e6f0"/><path d="m363.563 307.363 99.938-95.273-136.544-17.446c-5.098-.645-9.507-3.853-11.704-8.496l-59.253-125.644-59.253 125.643c-2.197 4.644-6.606 7.852-11.704 8.496l-136.544 17.447 99.923 95.273c3.75 3.516 5.435 8.687 4.468 13.74l-26.074 136.391 121.963-66.737c2.241-1.245 4.731-1.868 7.222-1.868s4.98.623 7.222 1.868l121.948 66.737-26.074-136.391c-.968-5.039.716-10.224 4.466-13.74z" fill="#ff7f40"/><path d="m385.17 457.494-26.074-136.391c-.967-5.039.718-10.225 4.468-13.74l99.938-95.273-136.544-17.446c-5.098-.645-9.507-3.853-11.704-8.496l-59.254-125.644v328.385c2.49 0 4.98.623 7.222 1.868z" fill="#f25a3c"/><path d="m378.769 240.112c-1.802-5.537-6.621-9.521-12.393-10.254l-67.72-8.555-29.092-61.787c-2.461-5.259-8.013-7.888-13.564-7.888s-11.104 2.629-13.564 7.888l-29.092 61.787-67.72 8.555c-5.771.732-10.591 4.717-12.393 10.254-1.787 5.522-.234 11.587 3.999 15.557l49.775 46.758-12.788 67.046c-1.084 5.713 1.216 11.528 5.918 14.941 4.702 3.428 10.942 3.838 16.04 1.011l59.825-32.871 59.824 32.871c4.969 2.743 11.219 2.49 16.04-1.011 4.702-3.413 7.002-9.229 5.918-14.941l-12.788-67.046 49.775-46.758c4.234-3.97 5.787-10.034 4-15.557z" fill="#ffdf40"/><path d="m331.864 384.414c4.702-3.413 7.002-9.229 5.918-14.941l-12.788-67.046 49.775-46.758c4.233-3.97 5.786-10.034 3.999-15.557-1.802-5.537-6.621-9.521-12.393-10.254l-67.72-8.555-29.092-61.787c-2.461-5.259-8.013-7.888-13.564-7.888v200.925l59.824 32.871c4.971 2.744 11.22 2.491 16.041-1.01z" fill="#ff9f40"/></g></svg>