<svg id="Capa_1" enable-background="new 0 0 512 512" height="512" viewBox="0 0 512 512" width="512" xmlns="http://www.w3.org/2000/svg"><g><path d="m419.33 279.13c-2.563-4.995-7.706-8.13-13.33-8.13h-45v-256c0-8.291-6.709-15-15-15h-90-90c-8.291 0-15 6.709-15 15v256h-45c-5.626 0-10.767 3.135-13.33 8.13-2.578 4.995-2.139 11.016 1.128 15.586l150 211c2.812 3.94 7.353 6.284 12.202 6.284s9.39-2.344 12.202-6.284l150-211c3.267-4.57 3.706-10.591 1.128-15.586z" fill="#f3f5f9"/><path d="m418.202 294.716c3.267-4.57 3.706-10.591 1.128-15.586-2.563-4.995-7.706-8.13-13.33-8.13h-45v-256c0-8.291-6.709-15-15-15h-90v512c4.849 0 9.39-2.344 12.202-6.284z" fill="#e1e6f0"/><path d="m256 30h-75v91l22.736 15h52.264 49.105l25.895-15v-91z" fill="#ff7f40"/><path d="m331 121v-91h-75v106h49.105z" fill="#f25a3c"/><path d="m256 121h-75v90l34.105 15h40.895 49.105l25.895-15v-90z" fill="#ffdf40"/><path d="m331 211v-90h-75v105h49.105z" fill="#ffbe40"/><path d="m331 286v-75h-75-75v75c0 8.291-6.709 15-15 15l30 15h60 60.474l29.526-15c-8.291 0-15-6.709-15-15z" fill="#79cc52"/><path d="m346 301c-8.291 0-15-6.709-15-15v-75h-75v105h60.474z" fill="#59b348"/><path d="m346 301h-90-90-30.85l53.572 75 67.278 30 67.278-30 53.572-75z" fill="#6cf"/><path d="m376.85 301h-30.85-90v105l67.278-30z" fill="#59abff"/><path d="m256 376h-67.278l67.278 95.189 67.278-95.189z" fill="#ffbfff"/><path d="m256 376v95.189l67.278-95.189z" fill="#ff8fb8"/></g></svg>