<svg id="Capa_1" enable-background="new 0 0 512 512" height="512" viewBox="0 0 512 512" width="512" xmlns="http://www.w3.org/2000/svg"><g><path d="m505.716 243.805-211-150c-4.585-3.281-10.605-3.735-15.586-1.128-4.995 2.563-8.13 7.705-8.13 13.33v45h-256c-8.291 0-15 6.709-15 15v90 90c0 8.291 6.709 15 15 15h256v45c0 5.625 3.135 10.767 8.13 13.33 4.814 2.505 10.887 2.243 15.586-1.128l211-150c3.94-2.813 6.284-7.354 6.284-12.202 0-4.849-2.344-9.39-6.284-12.202z" fill="#f3f5f9"/><path d="m15 361.007h256v45c0 5.625 3.135 10.767 8.13 13.33 4.814 2.505 10.887 2.243 15.586-1.128l211-150c3.94-2.813 6.284-7.354 6.284-12.202h-512v90c0 8.291 6.709 15 15 15z" fill="#e1e6f0"/><path d="m471.189 256.007-170.189-120.85v30.85c0 8.291-6.709 15-15 15h-256v75 75h256c8.291 0 15 6.709 15 15v30.85z" fill="#6cf"/><path d="m286 331.007c8.291 0 15 6.709 15 15v30.85l170.189-120.85h-441.189v75z" fill="#59abff"/></g></svg>