<svg id="Capa_1" enable-background="new 0 0 512 512" height="512" viewBox="0 0 512 512" width="512" xmlns="http://www.w3.org/2000/svg"><g><path d="m419.491 151.015c-6.167-30.205-30.703-53.848-62.446-58.872-11.884-47.839-52.518-84.573-101.045-90.843-4.951-.639-9.904-1.3-15-1.3-54.917 0-102.305 38.837-115.737 91.117-1.407-.073-2.827-.117-4.263-.117-66.167 0-121 53.833-121 120s54.833 120 121 120h135 165c49.629 0 91-40.371 91-90 .015-50.127-41.444-91.23-92.509-89.985z" fill="#f3f5f9"/><path d="m512 241c.015-50.127-41.444-91.23-92.509-89.985-6.167-30.205-30.703-53.848-62.446-58.872-11.884-47.839-52.518-84.573-101.045-90.843v329.7h165c49.629 0 91-40.371 91-90z" fill="#e1e6f0"/><path d="m359.418 369.291c-2.549-5.083-7.734-8.291-13.418-8.291h-30v-135c0-8.291-6.709-15-15-15h-45-45c-8.291 0-15 6.709-15 15v135h-30c-5.684 0-10.869 3.208-13.418 8.291-2.534 5.083-1.992 11.162 1.421 15.703l90 121c2.827 3.779 7.28 6.006 11.997 6.006s9.17-2.227 11.997-6.006l90-121c3.413-4.541 3.955-10.62 1.421-15.703z" fill="#a0e65c"/><path d="m357.997 384.994c3.413-4.541 3.955-10.62 1.421-15.703-2.549-5.083-7.734-8.291-13.418-8.291h-30v-135c0-8.291-6.709-15-15-15h-45v301c4.717 0 9.17-2.227 11.997-6.006z" fill="#79cc52"/></g></svg>