<svg id="Capa_1" enable-background="new 0 0 512.001 512.001" height="512" viewBox="0 0 512.001 512.001" width="512" xmlns="http://www.w3.org/2000/svg"><g><path d="m375.999 302h-63.501l76.362-128.28c2.783-4.644 2.856-10.415.19-15.117s-7.646-7.603-13.051-7.603h-93.501l76.362-128.28c2.783-4.644 2.856-10.415.19-15.117s-7.646-7.603-13.051-7.603h-90-60c-6.885 0-12.876 4.688-14.546 11.367l-60 242c-1.128 4.482-.117 9.229 2.725 12.861 2.842 3.647 7.207 5.771 11.821 5.771h65.728l-49.146 98.291c-2.329 4.644-2.08 10.166.659 14.59s7.559 7.12 12.759 7.12h70.781l-25.327 101.367c-1.699 6.782 1.523 13.843 7.749 17.007 6.282 3.184 13.859 1.571 18.325-3.765l18.472-22.167 131.528-157.833c3.721-4.482 4.526-10.708 2.051-15.967-2.461-5.273-7.764-8.642-13.579-8.642z" fill="#f3f5f9"/><path d="m389.578 310.643c-2.461-5.273-7.764-8.643-13.579-8.643h-63.501l76.362-128.28c2.783-4.644 2.856-10.415.19-15.117s-7.646-7.603-13.051-7.603h-93.501l76.362-128.28c2.783-4.644 2.856-10.415.19-15.117s-7.646-7.603-13.051-7.603h-90v484.443l131.528-157.833c3.721-4.483 4.526-10.709 2.051-15.967z" fill="#e1e6f0"/><path d="m272.947 324.397c-2.666-4.702-2.593-10.474.19-15.117l76.363-128.28h-93.501c-5.405 0-10.386-2.9-13.052-7.603s-2.593-10.474.19-15.117l12.861-21.438 63.502-106.842h-63.501-48.281l-52.5 212h70.781c5.2 0 10.02 2.695 12.759 7.119s2.988 9.946.659 14.59l-49.146 98.291h65.728c4.614 0 8.979 2.124 11.821 5.771 2.842 3.633 3.853 8.379 2.725 12.861l-14.092 56.396 87.524-105.028h-57.979c-5.405 0-10.385-2.9-13.051-7.603z" fill="#ffdf40"/><g fill="#ffbe40"><path d="m319.5 30h-63.501v106.842z"/><path d="m270.545 380.633-14.092 56.396 87.524-105.029h-57.979c-5.405 0-10.386-2.9-13.052-7.603s-2.593-10.474.19-15.117l76.364-128.28h-93.501v181c4.614 0 8.979 2.124 11.821 5.771 2.842 3.633 3.853 8.379 2.725 12.862z"/></g></g></svg>