<svg id="Capa_1" enable-background="new 0 0 512 512" height="512" viewBox="0 0 512 512" width="512" xmlns="http://www.w3.org/2000/svg"><g><path d="m391 0h-135-135c-8.291 0-15 6.709-15 15v392c0 5.01 2.505 9.697 6.68 12.48l135 90c2.52 1.685 5.42 2.52 8.32 2.52s5.801-.835 8.32-2.52l135-90c4.175-2.783 6.68-7.471 6.68-12.48v-392c0-8.291-6.709-15-15-15z" fill="#f3f5f9"/><path d="m399.32 419.48c4.175-2.783 6.68-7.471 6.68-12.48v-392c0-8.291-6.709-15-15-15h-135v512c2.9 0 5.801-.835 8.32-2.52z" fill="#e1e6f0"/><path d="m301 30h-45-45l-15 27.079v348.026l15 43.865 45 29.998 45-29.998 15-39.602v-353.709z" fill="#ff7f40"/><path d="m316 409.368v-353.709l-15-25.659h-45v448.968l45-29.998z" fill="#f25a3c"/><path d="m136 30v368.973l75 49.997v-418.97z" fill="#f25a3c"/><path d="m376 30h-75v418.97l75-49.997z" fill="#e63a3a"/></g></svg>