<svg id="Capa_1" enable-background="new 0 0 512 512" height="512" viewBox="0 0 512 512" width="512" xmlns="http://www.w3.org/2000/svg"><g><path d="m376 0h-120-120c-8.291 0-15 6.709-15 15v482c0 5.2 2.695 10.02 7.119 12.759 4.38 2.725 9.902 2.959 14.59.659l113.291-56.646 113.291 56.646c4.746 2.357 10.259 2.034 14.59-.659 4.424-2.739 7.119-7.559 7.119-12.759v-482c0-8.291-6.709-15-15-15z" fill="#f3f5f9"/><path d="m383.881 509.759c4.424-2.739 7.119-7.559 7.119-12.759v-482c0-8.291-6.709-15-15-15h-120v453.772l113.291 56.646c4.746 2.357 10.259 2.034 14.59-.659z" fill="#e1e6f0"/><path d="m331 151h-75-75l-30 30v150l30 30h75 75l30-30v-150z" fill="#ffbe40"/><path d="m361 331v-150l-30-30h-75v210h75z" fill="#ff9f40"/><path d="m256 30h-105v151h105 105v-151z" fill="#6cf"/><path d="m256 30h105v151h-105z" fill="#59abff"/><path d="m256 331h-105v141.728l98.291-49.146c2.109-1.055 4.409-1.582 6.709-1.582s4.6.527 6.709 1.582l98.291 49.146v-141.728z" fill="#a0e65c"/><path d="m361 472.728v-141.728h-105v91c2.3 0 4.6.527 6.709 1.582z" fill="#79cc52"/></g></svg>