<svg id="Capa_1" enable-background="new 0 0 512.004 512.004" height="512" viewBox="0 0 512.004 512.004" width="512" xmlns="http://www.w3.org/2000/svg"><g><path d="m510.83 250.201c-2.344-5.581-7.793-9.199-13.828-9.199-4.612 0-7.687-4.51-6.284-8.716l20.508-61.538c1.802-5.391.396-11.338-3.618-15.352s-9.961-5.449-15.352-3.618l-62.538 20.508c-4.177 1.392-8.716-1.675-8.716-6.284 0-4.819-2.314-9.346-6.226-12.173-3.94-2.842-8.965-3.604-13.521-2.051l-38.159 12.715c-7.573 2.476-12.964-1.406-14.927-3.223s-6.299-6.885-4.365-14.663l16.743-67.973c1.128-4.482.117-9.229-2.725-12.861-2.842-3.647-7.207-5.771-11.821-5.771-23.481 0-45.908-11.221-60-30.015l-18.002-24.338c-2.827-3.765-7.412-5.647-11.997-5.647s-9.17 1.882-11.997 5.647l-18.003 24.353c-14.092 18.779-36.519 30-60 30-4.614 0-8.979 2.124-11.821 5.771-2.842 3.633-3.853 8.379-2.725 12.861l16.743 67.973c1.934 7.778-2.402 12.847-4.365 14.663s-7.324 5.742-14.927 3.223l-38.159-12.715c-4.585-1.553-9.609-.791-13.521 2.051-3.911 2.827-6.226 7.354-6.226 12.173 0 4.422-5.334 7.745-9.716 6.284l-61.538-20.508c-5.42-1.831-11.353-.396-15.352 3.618-4.014 4.014-5.42 9.961-3.618 15.352l20.508 61.538c1.41 4.232-1.688 8.716-6.284 8.716-6.035 0-11.484 3.618-13.828 9.199-2.344 5.566-1.113 11.997 3.12 16.304 1.509 1.538 37.529 38.086 74.502 60.264 11.016 6.606 24.643 12.861 38.529 18.574 5.951 2.455 6.81 10.518 1.392 14.15l-51.035 34.028c-4.761 3.179-7.31 8.789-6.548 14.473s4.688 10.43 10.122 12.231c3.558 1.19 83.804 27.589 169.746 30.485v46.291c0 8.291 6.709 15 15 15s15-6.709 15-15v-46.291c85.942-2.897 166.188-29.295 169.746-30.485 5.435-1.802 9.36-6.548 10.122-12.231s-1.787-11.294-6.548-14.473l-51.035-34.028c-5.44-3.647-4.528-11.693 1.362-14.15 13.916-5.713 26.543-11.968 37.559-18.574 36.973-22.178 73.993-58.726 75.502-60.264 4.234-4.307 5.465-10.738 3.121-16.304z" fill="#f3f5f9"/><path d="m271.002 497.002v-46.291c85.942-2.897 166.188-29.295 169.746-30.485 5.435-1.802 9.36-6.548 10.122-12.231s-1.787-11.294-6.548-14.473l-51.035-34.028c-5.44-3.647-4.528-11.693 1.362-14.15 13.916-5.713 26.543-11.968 37.559-18.574 36.973-22.178 73.993-58.726 75.502-60.264 4.233-4.307 5.464-10.737 3.12-16.304-2.344-5.581-7.793-9.199-13.828-9.199-4.612 0-7.687-4.51-6.284-8.716l20.508-61.538c1.802-5.391.396-11.338-3.618-15.352s-9.961-5.449-15.352-3.618l-62.538 20.508c-4.177 1.392-8.716-1.675-8.716-6.284 0-4.819-2.314-9.346-6.226-12.173-3.94-2.842-8.965-3.604-13.521-2.051l-38.159 12.715c-7.573 2.476-12.964-1.406-14.927-3.223s-6.299-6.885-4.365-14.663l16.743-67.973c1.128-4.482.117-9.229-2.725-12.861-2.842-3.647-7.207-5.771-11.821-5.771-23.481 0-45.908-11.221-60-30.015l-18.002-24.339c-2.827-3.765-7.412-5.647-11.997-5.647v512c8.291 0 15-6.709 15-15z" fill="#e1e6f0"/><path d="m462.27 222.794 11.016-33.076-33.076 11.016c-11.162 3.721-24.481 1.816-34.003-5.039-4.014-2.886-7.354-6.533-9.858-10.664l-23.76 7.91c-15.835 5.273-32.578 1.685-44.795-9.668-12.246-11.323-17.139-27.759-13.081-43.931l12.51-51.054c-25.767-4.731-49.307-19.058-65.215-40.298l-6.006-7.998-6.006 8.013c-15.923 21.226-39.448 35.552-65.215 40.283l12.51 51.054c4.058 16.172-.835 32.607-13.081 43.931-12.202 11.338-28.916 14.956-44.795 9.668l-23.76-7.91c-2.505 4.131-5.845 7.793-9.873 10.679-9.507 6.841-22.812 8.716-33.988 5.024l-33.076-11.016 11.016 33.076c3.721 11.133 1.846 23.467-5.01 32.988-1.113 1.538-2.329 2.988-3.647 4.321 13.257 12.056 34.369 29.077 54.159 40.942 9.727 5.845 21.006 11.411 33.516 16.553 13.052 5.391 22.017 17.432 23.394 31.465 1.377 14.004-5.054 27.554-16.787 35.391l-24.067 16.055c30.313 7.835 79.413 18.272 129.712 20.112l15-20.347 15 20.347c50.299-1.84 99.399-12.277 129.712-20.112l-24.067-16.055c-11.733-7.837-18.164-21.387-16.787-35.391 1.377-14.033 10.342-26.074 23.364-31.465 12.539-5.142 23.818-10.708 33.545-16.553 19.79-11.865 40.902-28.872 54.159-40.942-1.304-1.333-2.534-2.769-3.633-4.307-6.872-9.535-8.747-21.869-5.027-33.002z" fill="#ff7f40"/><path d="m400.714 400.509-24.067-16.055c-11.733-7.837-18.164-21.387-16.787-35.391 1.377-14.033 10.342-26.074 23.364-31.465 12.539-5.142 23.818-10.708 33.545-16.553 19.79-11.865 40.902-28.872 54.159-40.942-1.304-1.333-2.534-2.769-3.633-4.307-6.87-9.536-8.745-21.87-5.024-33.003l11.016-33.076-33.076 11.016c-11.162 3.721-24.481 1.816-34.003-5.039-4.014-2.886-7.354-6.533-9.858-10.664l-23.76 7.91c-15.835 5.273-32.578 1.685-44.795-9.668-12.246-11.323-17.139-27.759-13.081-43.931l12.51-51.054c-25.767-4.731-49.307-19.058-65.215-40.298l-6.006-7.998v360.282l15 20.347c50.298-1.839 99.398-12.276 129.711-20.111z" fill="#f25a3c"/><path d="m389.42 249.293c-3.706-7.412-12.729-10.4-20.127-6.709l-98.291 49.146v-71.455l21.709-10.854c7.412-3.706 10.415-12.715 6.709-20.127-3.721-7.412-12.715-10.386-20.127-6.709l-8.291 4.146v-81.728c0-8.291-6.709-15-15-15s-15 6.709-15 15v81.728l-8.291-4.146c-7.412-3.677-16.392-.703-20.127 6.709-3.706 7.412-.703 16.421 6.709 20.127l21.709 10.854v71.455l-98.291-49.146c-7.397-3.691-16.421-.703-20.127 6.709s-.703 16.421 6.709 20.127l111.709 55.854v95.347c4.997.183 9.996.381 15 .381s10.003-.198 15-.381v-95.347l111.709-55.854c7.412-3.706 10.415-12.715 6.709-20.127z" fill="#f25a3c"/><path d="m271.002 325.274 111.709-55.854c7.412-3.706 10.415-12.715 6.709-20.127s-12.729-10.4-20.127-6.709l-98.291 49.146v-71.455l21.709-10.854c7.412-3.706 10.415-12.715 6.709-20.127-3.721-7.412-12.715-10.386-20.127-6.709l-8.291 4.146v-81.728c0-8.291-6.709-15-15-15v331c5.004 0 10.003-.198 15-.381z" fill="#e63a3a"/></g></svg>