<svg id="Capa_1" enable-background="new 0 0 512 512" height="512" viewBox="0 0 512 512" width="512" xmlns="http://www.w3.org/2000/svg"><g><path d="m507.165 155.138c-69.448-63.94-156.961-99.14-251.165-99.14s-181.717 35.2-251.165 99.14c-5.654 5.215-6.46 13.872-1.831 20.024l36.196 48.267c5.447 7.273 15.965 8.022 22.368 1.831 3.208-3.073 6.66-5.79 9.985-8.694l172.45 233.43c2.827 3.779 7.28 6.006 11.997 6.006s9.17-2.227 11.997-6.006l172.452-233.428c3.323 2.904 6.777 5.621 9.983 8.692 6.378 6.143 16.89 5.484 22.368-1.831l36.196-48.267c4.629-6.152 3.823-14.809-1.831-20.024z" fill="#f3f5f9"/><path d="m440.449 216.568c3.323 2.904 6.777 5.621 9.983 8.692 6.378 6.143 16.89 5.484 22.368-1.831l36.196-48.267c4.629-6.152 3.823-14.81-1.831-20.024-69.448-63.94-156.961-99.14-251.165-99.14v400.005c4.717 0 9.17-2.227 11.997-6.006z" fill="#e1e6f0"/><path d="m291.737 103.257-35.737.542-44.839.681c-52.295 7.484-98.982 27.894-141.348 59.78l186.187 251.738 186.188-251.735c-44.82-33.734-94.78-54.692-150.451-61.006z" fill="#ffdf40"/><path d="m291.737 103.257-35.737.542v312.198l186.188-251.735c-44.82-33.733-94.78-54.691-150.451-61.005z" fill="#ffbe40"/><g><circle cx="180.999" cy="220.996" fill="#a0e65c" r="15"/></g><g><circle cx="330.999" cy="220.996" fill="#79cc52" r="15"/></g><path d="m256 85.998c-82.148 0-158.294 29.106-220.711 82.236l18.018 24.023c57.202-49.292 126.858-76.26 202.693-76.26s145.491 26.968 202.693 76.26l18.018-24.023c-62.417-53.13-138.563-82.236-220.711-82.236z" fill="#ffbe40"/><path d="m476.711 168.234c-62.417-53.13-138.563-82.236-220.711-82.236v30c75.835 0 145.491 26.968 202.693 76.26z" fill="#ff9f40"/><circle cx="256" cy="280.998" fill="#ff7f40" r="45"/><path d="m301 280.998c0-24.814-20.186-45-45-45v90c24.814 0 45-20.186 45-45z" fill="#f25a3c"/></g></svg>