<svg id="Capa_1" enable-background="new 0 0 512 512" height="512" viewBox="0 0 512 512" width="512" xmlns="http://www.w3.org/2000/svg"><g><path d="m497 196c8.291 0 15-6.709 15-15v-30c0-8.291-6.709-15-15-15-8.276 0-15-6.724-15-15 0-8.291-6.709-15-15-15h-211-211c-8.291 0-15 6.709-15 15 0 8.276-6.724 15-15 15-8.291 0-15 6.709-15 15v30c0 8.291 6.709 15 15 15 8.276 0 15 6.724 15 15s-6.724 15-15 15c-8.291 0-15 6.709-15 15v30c0 8.291 6.709 15 15 15 8.276 0 15 6.724 15 15s-6.724 15-15 15c-8.291 0-15 6.709-15 15v30c0 8.291 6.709 15 15 15 8.276 0 15 6.724 15 15 0 8.291 6.709 15 15 15h211 211c8.291 0 15-6.709 15-15 0-8.276 6.724-15 15-15 8.291 0 15-6.709 15-15v-30c0-8.291-6.709-15-15-15-8.276 0-15-6.724-15-15s6.724-15 15-15c8.291 0 15-6.709 15-15v-30c0-8.291-6.709-15-15-15-8.276 0-15-6.724-15-15s6.724-15 15-15z" fill="#f3f5f9"/><path d="m482 391c0-8.276 6.724-15 15-15 8.291 0 15-6.709 15-15v-30c0-8.291-6.709-15-15-15-8.276 0-15-6.724-15-15s6.724-15 15-15c8.291 0 15-6.709 15-15v-30c0-8.291-6.709-15-15-15-8.276 0-15-6.724-15-15s6.724-15 15-15c8.291 0 15-6.709 15-15v-30c0-8.291-6.709-15-15-15-8.276 0-15-6.724-15-15 0-8.291-6.709-15-15-15h-211v300h211c8.291 0 15-6.709 15-15z" fill="#e1e6f0"/><path d="m482 168.699v-5.4c-12.9-4.499-22.8-14.399-27.299-27.299h-198.701-198.701c-4.499 12.9-14.399 22.8-27.299 27.299v5.4c17.401 6 30 22.8 30 42.301 0 19.499-12.599 36.299-30 42.299v5.4c17.401 6 30 22.8 30 42.301 0 19.499-12.599 36.299-30 42.299v5.4c12.9 4.501 22.8 14.401 27.299 27.301h198.701 198.701c4.499-12.9 14.399-22.8 27.299-27.301v-5.4c-17.401-6-30-22.8-30-42.299 0-19.501 12.599-36.301 30-42.301v-5.4c-17.401-6-30-22.8-30-42.299 0-19.501 12.599-36.301 30-42.301z" fill="#ff7f40"/><path d="m452 211c0 19.499 12.599 36.299 30 42.299v5.4c-17.401 6-30 22.8-30 42.301 0 19.499 12.599 36.299 30 42.299v5.4c-12.9 4.501-22.8 14.401-27.299 27.301h-198.701v-240h198.701c4.499 12.9 14.399 22.8 27.299 27.299v5.4c-17.401 6-30 22.8-30 42.301z" fill="#f25a3c"/><path d="m377 166h-121-121c-8.401 0-15 6.599-15 15v150c0 8.399 6.599 15 15 15h121 121c8.401 0 15-6.601 15-15v-150c0-8.401-6.599-15-15-15z" fill="#ffdf40"/><path d="m392 181v150c0 8.399-6.599 15-15 15h-121v-180h121c8.401 0 15 6.599 15 15z" fill="#ffbe40"/></g></svg>