<svg id="Capa_1" enable-background="new 0 0 512 512" height="512" viewBox="0 0 512 512" width="512" xmlns="http://www.w3.org/2000/svg"><g><path d="m406 362c57.891 0 106-61.557 106-136s-48.109-135-106-135c-9.565 0-18.787 2.148-27.805 5.316-21.546-56.203-68.144-96.316-122.195-96.316s-100.649 40.113-122.195 96.316c-9.018-3.168-18.24-5.316-27.805-5.316-57.891 0-106 60.557-106 135 0 68 40.439 124.842 91.368 134.098-.035.662-.368 1.23-.368 1.902 0 18.75 12.642 28.228 21.006 34.497 7.558 5.684 8.994 7.354 8.994 10.503s-1.436 4.819-8.994 10.503c-8.364 6.269-21.006 15.747-21.006 34.497s12.642 28.228 21.006 34.497c7.558 5.684 8.994 7.354 8.994 10.503 0 8.291 6.709 15 15 15s15-6.709 15-15c0-18.75-12.642-28.228-21.006-34.497-7.558-5.684-8.994-7.354-8.994-10.503s1.436-4.819 8.994-10.503c8.364-6.269 21.006-15.747 21.006-34.497s-12.642-28.228-21.006-34.497c-7.558-5.684-8.994-7.354-8.994-10.503 0-.56.148-1.027.256-1.516 26.794-5.043 51.013-23.201 67.592-50.55 12.665 8.925 26.574 15.456 41.387 18.972-8.272 6.276-19.235 15.562-19.235 33.094 0 18.75 12.642 28.228 21.006 34.497 7.558 5.684 8.994 7.354 8.994 10.503s-1.436 4.819-8.994 10.503c-8.364 6.269-21.006 15.747-21.006 34.497s12.642 28.228 21.006 34.497c7.558 5.684 8.994 7.354 8.994 10.503 0 8.291 6.709 15 15 15s15-6.709 15-15c0-14.617-7.65-23.518-15-29.738-2.078-1.758-4.162-3.376-6.006-4.759-7.558-5.684-8.994-7.354-8.994-10.503s1.436-4.819 8.994-10.503c1.844-1.382 3.928-3.001 6.006-4.759 7.35-6.22 15-15.121 15-29.738s-7.65-23.518-15-29.738c-2.078-1.758-4.162-3.376-6.006-4.759-7.558-5.684-8.994-7.354-8.994-10.503s1.436-4.819 8.994-10.503c1.844-1.382 3.953-3.334 6.006-5.123 4.475-3.898 8.969-8.494 11.873-15.108 20.001-2.144 38.719-9.664 55.28-21.332 10.609 17.501 24.351 31.19 39.91 40.133-1.223 3.483-2.063 7.397-2.063 11.933 0 18.75 12.642 28.228 21.006 34.497 7.558 5.684 8.994 7.354 8.994 10.503s-1.436 4.819-8.994 10.503c-8.364 6.269-21.006 15.747-21.006 34.497s12.642 28.228 21.006 34.497c7.558 5.684 8.994 7.354 8.994 10.503 0 8.291 6.709 15 15 15s15-6.709 15-15c0-18.75-12.642-28.228-21.006-34.497-7.558-5.684-8.994-7.354-8.994-10.503s1.436-4.819 8.994-10.503c8.364-6.269 21.006-15.747 21.006-34.497s-12.642-28.228-21.006-34.497c-7.558-5.684-8.994-7.354-8.994-10.503 0-.461.222-.925.302-1.37 4.832.876 9.736 1.37 14.698 1.37z" fill="#f3f5f9"/><g fill="#e1e6f0"><path d="m271 407c0-14.617-7.65-23.518-15-29.738v59.476c7.35-6.22 15-15.121 15-29.738z"/><path d="m267.873 331.266c20.001-2.144 38.719-9.664 55.28-21.332 10.609 17.501 24.351 31.19 39.91 40.133-1.223 3.483-2.063 7.397-2.063 11.933 0 18.75 12.642 28.228 21.006 34.497 7.558 5.684 8.994 7.354 8.994 10.503s-1.436 4.819-8.994 10.503c-8.364 6.269-21.006 15.747-21.006 34.497s12.642 28.228 21.006 34.497c7.558 5.684 8.994 7.354 8.994 10.503 0 8.291 6.709 15 15 15s15-6.709 15-15c0-18.75-12.642-28.228-21.006-34.497-7.558-5.684-8.994-7.354-8.994-10.503s1.436-4.819 8.994-10.503c8.364-6.269 21.006-15.747 21.006-34.497s-12.642-28.228-21.006-34.497c-7.558-5.684-8.994-7.354-8.994-10.503 0-.461.222-.925.302-1.37 4.832.875 9.736 1.37 14.698 1.37 57.891 0 106-61.557 106-136s-48.109-135-106-135c-9.565 0-18.787 2.148-27.805 5.316-21.546-56.203-68.144-96.316-122.195-96.316v346.374c4.475-3.899 8.969-8.494 11.873-15.108z"/><path d="m271 497c0-14.617-7.65-23.518-15-29.738v44.738c8.291 0 15-6.709 15-15z"/></g><path d="m181 226c0 57.99-33.579 106-75 106s-76-48.01-76-106 34.579-105 76-105 75 47.01 75 105z" fill="#ffdf40"/><path d="m482 226c0 57.99-34.579 106-76 106s-75-48.01-75-106 33.579-105 75-105 76 47.01 76 105z" fill="#6cf"/><ellipse cx="256" cy="166" fill="#ff7f40" rx="105" ry="136"/><path d="m361 166c0-74.559-47.01-136-105-136v272c57.99 0 105-61.441 105-136z" fill="#f25a3c"/><path d="m327.323 142.812c-1.758-5.391-6.416-9.346-12.026-10.195l-31.597-4.747-14.282-28.579c-2.549-5.083-7.983-7.625-13.418-7.625s-10.869 2.542-13.418 7.625l-14.282 28.579-31.597 4.746c-5.625.85-10.283 4.805-12.041 10.21-1.758 5.391-.308 11.323 3.735 15.322l22.778 22.412-5.244 31.523c-.938 5.61 1.377 11.25 5.977 14.59 4.585 3.34 10.649 3.794 15.732 1.187l28.36-14.721 28.359 14.722c5.156 2.664 11.241 2.095 15.732-1.187 4.6-3.34 6.914-8.979 5.977-14.59l-5.244-31.523 22.764-22.427c4.043-3.985 5.493-9.917 3.735-15.322z" fill="#ffdf40"/><path d="m300.092 226.674c4.6-3.34 6.914-8.979 5.977-14.59l-5.244-31.523 22.764-22.427c4.043-3.984 5.493-9.917 3.735-15.322-1.758-5.391-6.416-9.346-12.026-10.195l-31.598-4.747-14.282-28.579c-2.549-5.083-7.983-7.625-13.418-7.625v121.472l28.359 14.722c5.157 2.665 11.241 2.095 15.733-1.186z" fill="#ffbe40"/></g></svg>