<svg id="Capa_1" enable-background="new 0 0 512 512" height="512" viewBox="0 0 512 512" width="512" xmlns="http://www.w3.org/2000/svg"><g><path d="m497 466h-15v-435c0-8.291-6.709-15-15-15h-106c-8.291 0-15 6.709-15 15v75h-90c-8.291 0-15 6.709-15 15v75h-90c-8.291 0-15 6.709-15 15v75h-91c-8.291 0-15 6.709-15 15v165h-15c-8.291 0-15 6.709-15 15s6.709 15 15 15h241 241c8.291 0 15-6.709 15-15s-6.709-15-15-15z" fill="#f3f5f9"/><path d="m512 481c0-8.291-6.709-15-15-15h-15v-435c0-8.291-6.709-15-15-15h-106c-8.291 0-15 6.709-15 15v75h-90v390h241c8.291 0 15-6.709 15-15z" fill="#e1e6f0"/><path d="m376 46h76v420h-76z" fill="#f25a3c"/><path d="m271 136h75v330h-75z" fill="#ff9f40"/><path d="m166 226h75v240h-75z" fill="#a0e65c"/><path d="m60 316h76v150h-76z" fill="#6cf"/></g></svg>