<svg id="Capa_1" enable-background="new 0 0 512 512" height="512" viewBox="0 0 512 512" width="512" xmlns="http://www.w3.org/2000/svg"><g><path d="m512 226c0-107.52-115.39-195-256-195s-256 87.48-256 195 115.39 195 256 195c14.355 0 28.887-.967 43.33-2.871 26.309 36.416 67.822 60.19 112.91 62.842.293.015.586.029.879.029 5.61 0 10.781-3.135 13.359-8.174 2.71-5.303 2.021-11.689-1.743-16.304-15.322-18.809-25.752-42.231-30.439-66.782 72.29-35.713 117.704-97.617 117.704-163.74z" fill="#f3f5f9"/><path d="m412.24 480.971c.293.015.586.029.879.029 5.61 0 10.781-3.135 13.359-8.174 2.71-5.303 2.021-11.689-1.743-16.304-15.322-18.809-25.752-42.231-30.439-66.782 72.29-35.713 117.704-97.617 117.704-163.74 0-107.52-115.39-195-256-195v390c14.355 0 28.887-.967 43.33-2.871 26.309 36.416 67.822 60.19 112.91 62.842z" fill="#e1e6f0"/><path d="m371.664 367.211c67.441-29.883 110.336-83.994 110.336-141.211 0-90.981-101.928-165-226-165s-226 74.019-226 165 101.928 165 226 165c15.923 0 32.109-1.304 48.105-3.882 5.865-.959 11.871 1.692 15.103 6.855 14.619 23.35 36.68 41.514 62.08 50.449-9.551-18.735-15.806-40.122-18.442-61.685-.791-6.561 2.783-12.86 8.818-15.526z" fill="#6cf"/><path d="m319.208 393.974c14.619 23.35 36.68 41.514 62.08 50.449-9.551-18.735-15.806-40.122-18.442-61.685-.791-6.563 2.783-12.861 8.818-15.527 67.441-29.883 110.336-83.994 110.336-141.211 0-90.981-101.928-165-226-165v330c15.923 0 32.109-1.304 48.105-3.882 5.865-.959 11.871 1.692 15.103 6.856z" fill="#59abff"/><g><path d="m136 271c-24.814 0-45-20.186-45-45s20.186-45 45-45 45 20.186 45 45-20.186 45-45 45z" fill="#f3f5f9"/></g><g><path d="m376 271c-24.814 0-45-20.186-45-45s20.186-45 45-45 45 20.186 45 45-20.186 45-45 45z" fill="#e1e6f0"/></g><circle cx="256" cy="226" fill="#f3f5f9" r="45"/><path d="m301 226c0 24.899-20.099 45-45 45v-90c24.901 0 45 20.099 45 45z" fill="#e1e6f0"/></g></svg>