<svg id="Capa_1" enable-background="new 0 0 512 512" height="512" viewBox="0 0 512 512" width="512" xmlns="http://www.w3.org/2000/svg"><g><circle cx="256" cy="256" fill="#f3f5f9" r="225"/><path d="m481 256c0-124.072-100.928-225-225-225v450c124.072 0 225-100.928 225-225z" fill="#e1e6f0"/><circle cx="256" cy="256" fill="#ffdf40" r="195"/><path d="m451 256c0-107.52-87.48-195-195-195v390c107.52 0 195-87.48 195-195z" fill="#ffbe40"/><g><path d="m337.68 238.48-45-30c-4.175-2.783-6.68-7.471-6.68-12.48s2.505-9.697 6.68-12.48l45-30c6.914-4.614 16.216-2.739 20.801 4.16 4.6 6.899 2.739 16.201-4.16 20.801l-26.28 17.519 26.279 17.52c6.899 4.6 8.76 13.901 4.16 20.801-4.521 6.793-13.785 8.81-20.8 4.159z" fill="#331e1e"/></g><g><path d="m153.52 234.32c-4.6-6.899-2.739-16.201 4.16-20.801l26.279-17.519-26.279-17.52c-6.899-4.6-8.76-13.901-4.16-20.801 4.556-6.899 13.857-8.774 20.801-4.16l45 30c4.175 2.783 6.68 7.471 6.68 12.48s-2.505 9.697-6.68 12.48l-45 30c-7.02 4.654-16.281 2.633-20.801-4.159z" fill="#4d3535"/></g><g><path d="m451.092 288.432c-18.076-6.401-43.594-39.639-53.716-53.643-2.9-3.984-3.647-9.141-1.992-13.784 1.641-4.644 5.449-8.188 10.21-9.478 16.699-4.526 57.422-14.312 75.498-7.969 23.416 8.289 36.737 33.978 28.422 57.437-8.313 23.539-35.186 35.642-58.422 27.437z" fill="#59abff"/></g><g><path d="m2.596 260.995c-8.3-23.415 3.96-49.146 27.422-57.422 18.018-6.431 59.813 3.428 76.498 7.954 4.761 1.289 8.569 4.834 10.21 9.478 1.655 4.644.908 9.8-1.992 13.784-10.122 14.004-35.64 47.241-53.73 53.643-23.497 8.276-50.147-4.013-58.408-27.437z" fill="#6cf"/></g><path d="m406 307.797c-2.769-4.248-7.485-6.797-12.554-6.797h-137.446-137.461c-5.068 0-9.785 2.549-12.554 6.797-2.769 4.233-3.223 9.58-1.187 14.224 26.353 60.131 85.709 98.979 151.202 98.979 67.581 0 125.707-40.809 151.187-98.979 2.036-4.644 1.582-9.991-1.187-14.224z" fill="#ff7f40"/><path d="m407.187 322.021c2.036-4.644 1.582-9.99-1.187-14.224-2.769-4.248-7.485-6.797-12.554-6.797h-137.446v120c67.581 0 125.707-40.809 151.187-98.979z" fill="#f25a3c"/></g></svg>