<svg id="Capa_1" enable-background="new 0 0 511.933 511.933" height="512" viewBox="0 0 511.933 511.933" width="512" xmlns="http://www.w3.org/2000/svg"><g><path d="m480.967 111.939c0-47.036-27.847-91.252-70.928-110.617-5.127-2.271-11.104-1.553-15.498 1.948s-6.46 9.155-5.361 14.663c1.187 5.962 1.787 12.205 1.787 18.006 0 20.552-6.899 41.02-19.644 56.913-34.845-20.905-75.097-32.362-115.356-32.364-40.248-.002-80.504 11.448-115.371 32.364-12.729-15.894-19.629-36.361-19.629-56.913 0-5.801.601-12.044 1.787-18.006 1.099-5.508-.967-11.162-5.361-14.663-4.409-3.516-10.356-4.248-15.498-1.948-43.082 19.365-70.928 63.581-70.928 110.617 0 26.016 8.657 51.27 24.565 72.173-16.099 31.538-24.565 66.519-24.565 101.821 0 124.072 100.928 226 225 226s225-101.928 225-226c0-35.273-8.467-70.254-24.565-101.821 15.908-20.903 24.565-46.157 24.565-72.173z" fill="#f3f5f9"/><path d="m480.967 285.933c0-35.273-8.467-70.254-24.565-101.821 15.908-20.903 24.565-46.157 24.565-72.173 0-47.036-27.847-91.252-70.928-110.617-5.127-2.271-11.104-1.553-15.498 1.948s-6.46 9.155-5.361 14.663c1.187 5.962 1.787 12.205 1.787 18.006 0 20.552-6.899 41.02-19.644 56.913-34.845-20.905-75.097-32.362-115.356-32.364v451.445c124.072 0 225-101.927 225-226z" fill="#e1e6f0"/><path d="m427.295 172.232c15.264-16.787 23.672-38.203 23.672-60.293 0-25.986-11.338-51.288-30.249-68.09-1.934 29.663-14.692 58.187-36.416 79.208-5.142 4.922-13.008 5.61-18.867 1.611-32.415-22.073-70.941-33.104-109.468-33.102-38.531.002-77.064 11.039-109.482 33.102-5.859 4.014-13.74 3.311-18.867-1.611-21.724-21.021-34.468-49.545-36.401-79.208-18.911 16.802-30.249 42.104-30.249 68.09 0 22.09 8.408 43.506 23.672 60.293 4.365 4.805 5.142 11.88 1.919 17.52-16.743 29.355-25.591 62.607-25.591 96.182 0 107.52 87.48 196 195 196s195-88.48 195-196c0-33.545-8.848-66.812-25.605-96.182-3.21-5.64-2.433-12.715 1.932-17.52z" fill="#ff7f40"/><path d="m450.967 285.933c0-33.545-8.848-66.812-25.605-96.182-3.208-5.64-2.432-12.715 1.934-17.52 15.264-16.787 23.672-38.203 23.672-60.293 0-25.986-11.338-51.288-30.249-68.09-1.934 29.663-14.692 58.187-36.416 79.208-5.142 4.922-13.008 5.61-18.867 1.611-32.415-22.073-70.941-33.104-109.468-33.102v390.366c107.518.002 194.999-88.478 194.999-195.998z" fill="#f25a3c"/><path d="m405.967 337.73c-2.769-4.248-7.485-6.797-12.554-6.797h-62.446l-15 30-15-30h-45-45l-15 30-15-30h-62.461c-5.068 0-9.785 2.549-12.554 6.797-2.769 4.233-3.223 9.58-1.187 14.224 26.353 60.132 85.708 99.979 151.201 99.979 67.581 0 125.707-41.809 151.187-99.979 2.036-4.644 1.582-9.99-1.186-14.224z" fill="#4d3535"/><path d="m407.153 351.954c2.036-4.644 1.582-9.99-1.187-14.224-2.769-4.248-7.485-6.797-12.554-6.797h-62.446l-15 30-15-30h-45v121c67.581 0 125.708-41.808 151.187-99.979z" fill="#331e1e"/><path d="m215.136 215.383c-.251-.13-73.002-33.116-73.002-33.116-7.573-3.442-16.421-.029-19.834 7.5-3.413 7.544-.059 16.436 7.5 19.834l33.774 15.238c-7.767 8.09-12.607 19.019-12.607 31.095 0 24.814 20.186 45 45 45s45-20.186 45-45c0-17.934-10.619-33.324-25.831-40.551z" fill="#4d3535"/><path d="m389.634 189.766c-3.413-7.544-12.231-10.942-19.834-7.5 0 0-72.751 32.986-73.002 33.116-15.212 7.227-25.831 22.617-25.831 40.551 0 24.814 20.186 45 45 45s45-20.186 45-45c0-12.076-4.839-23.005-12.607-31.095l33.774-15.238c7.558-3.398 10.913-12.29 7.5-19.834z" fill="#331e1e"/><g><path d="m195.967 270.933c-8.276 0-15-6.724-15-15s6.724-15 15-15 15 6.724 15 15c0 8.277-6.724 15-15 15z" fill="#ffbe40"/><path d="m315.967 270.933c-8.276 0-15-6.724-15-15s6.724-15 15-15 15 6.724 15 15c0 8.277-6.724 15-15 15z" fill="#ff9f40"/></g><path d="m195.967 390.933c8.291 0 15-6.709 15-15v-45h-30v45c0 8.291 6.709 15 15 15z" fill="#f3f5f9"/><path d="m315.967 390.933c8.291 0 15-6.709 15-15v-45h-30v45c0 8.291 6.709 15 15 15z" fill="#e1e6f0"/></g></svg>