<svg id="Capa_1" enable-background="new 0 0 512 512" height="512" viewBox="0 0 512 512" width="512" xmlns="http://www.w3.org/2000/svg"><g><ellipse cx="256" cy="286" fill="#f3f5f9" rx="225" ry="226"/><path d="m481 286c0-124.072-100.928-226-225-226v452c124.072 0 225-101.928 225-226z" fill="#e1e6f0"/><ellipse cx="256" cy="286" fill="#ffdf40" rx="195" ry="196"/><path d="m451 286c0-107.52-87.48-196-195-196v392c107.52 0 195-88.48 195-196z" fill="#ffbe40"/><path d="m406 337.797c-2.769-4.248-7.485-6.797-12.554-6.797h-137.446-137.461c-5.068 0-9.785 2.549-12.554 6.797-2.769 4.233-3.223 9.58-1.187 14.224 26.353 60.131 85.709 99.979 151.202 99.979 67.581 0 125.707-41.809 151.187-99.979 2.036-4.644 1.582-9.991-1.187-14.224z" fill="#ff7f40"/><path d="m407.187 352.021c2.036-4.644 1.582-9.99-1.187-14.224-2.769-4.248-7.485-6.797-12.554-6.797h-137.446v121c67.581 0 125.707-41.809 151.187-99.979z" fill="#f25a3c"/><g><g><path d="m61 331c-33.647 0-61-19.761-61-45s27.353-45 61-45 60 19.761 60 45-26.353 45-60 45z" fill="#ffbfff"/></g></g><g><g><path d="m451 331c-33.647 0-60-19.761-60-45s26.353-45 60-45 61 19.761 61 45-27.353 45-61 45z" fill="#ff8fb8"/></g></g><g><path d="m196 271c-24.814 0-45-20.186-45-45 0-8.291 6.709-15 15-15s15 6.709 15 15c0 8.276 6.724 15 15 15s15-6.724 15-15c0-8.291 6.709-15 15-15s15 6.709 15 15c0 24.814-20.186 45-45 45z" fill="#4d3535"/></g><g><path d="m316 271c-24.814 0-45-20.186-45-45 0-8.291 6.709-15 15-15s15 6.709 15 15c0 8.276 6.724 15 15 15s15-6.724 15-15c0-8.291 6.709-15 15-15s15 6.709 15 15c0 24.814-20.186 45-45 45z" fill="#331e1e"/></g><path d="m256 0c-79.995 0-165 26.279-165 75s85.005 75 165 75 165-26.279 165-75-85.005-75-165-75zm0 120c-82.412 0-135-26.646-135-45s52.588-45 135-45 135 26.646 135 45-52.588 45-135 45z" fill="#f3f5f9"/><path d="m421 75c0-48.721-85.005-75-165-75v30c82.412 0 135 26.646 135 45s-52.588 45-135 45v30c79.995 0 165-26.279 165-75z" fill="#e1e6f0"/></g></svg>