<svg id="Capa_1" enable-background="new 0 0 512 512" height="512" viewBox="0 0 512 512" width="512" xmlns="http://www.w3.org/2000/svg"><g><circle cx="256" cy="256" fill="#f3f5f9" r="225"/><path d="m481 256c0-124.072-100.928-225-225-225v450c124.072 0 225-100.928 225-225z" fill="#e1e6f0"/><circle cx="256" cy="256" fill="#ffdf40" r="195"/><path d="m451 256c0-107.52-87.48-195-195-195v390c107.52 0 195-87.48 195-195z" fill="#ffbe40"/><g><path d="m346 241c-8.291 0-15-6.709-15-15 0-8.276-6.724-15-15-15s-15 6.724-15 15c0 8.291-6.709 15-15 15s-15-6.709-15-15c0-24.814 20.186-45 45-45s45 20.186 45 45c0 8.291-6.709 15-15 15z" fill="#331e1e"/></g><g><path d="m226 241c-8.291 0-15-6.709-15-15 0-8.276-6.724-15-15-15s-15 6.724-15 15c0 8.291-6.709 15-15 15s-15-6.709-15-15c0-24.814 20.186-45 45-45s45 20.186 45 45c0 8.291-6.709 15-15 15z" fill="#4d3535"/></g><g><path d="m76 181c-2.3 0-4.6-.527-6.709-1.582-11.396-5.698-69.291-36.035-69.291-73.418 0-24.814 21.186-45 46-45 11.514 0 22.031 4.351 30 11.484 7.969-7.133 18.486-11.484 30-11.484 24.814 0 45 20.186 45 45 0 37.383-56.895 67.72-68.291 73.418-2.109 1.055-4.409 1.582-6.709 1.582z" fill="#ffbfff"/></g><g><path d="m436 451c-2.3 0-4.6-.527-6.709-1.582-11.396-5.698-68.291-36.035-68.291-73.418 0-24.814 20.186-45 45-45 11.514 0 22.031 4.351 30 11.484 7.969-7.134 18.486-11.484 30-11.484 24.814 0 46 20.186 46 45 0 37.383-57.895 67.72-69.291 73.418-2.109 1.055-4.409 1.582-6.709 1.582z" fill="#ff8fb8"/></g><path d="m346 271c-8.291 0-15 6.709-15 15 0 41.353-33.647 75-75 75s-75-33.647-75-75c0-8.291-6.709-15-15-15s-15 6.709-15 15c0 57.891 47.109 105 105 105s105-47.109 105-105c0-8.291-6.709-15-15-15z" fill="#ff7f40"/><path d="m361 286c0-8.291-6.709-15-15-15s-15 6.709-15 15c0 41.353-33.647 75-75 75v30c57.891 0 105-47.109 105-105z" fill="#f25a3c"/></g></svg>