<svg id="Capa_1" enable-background="new 0 0 512 512" height="512" viewBox="0 0 512 512" width="512" xmlns="http://www.w3.org/2000/svg"><g><path d="m446.605 426.395c-35.859-35.86-55.605-84.541-55.605-135.253v-95.142c0-60.69-40.512-112.548-95.722-129.489 3.532-6.421 5.722-13.68 5.722-21.511 0-24.814-20.186-45-45-45s-45 20.186-45 45c0 7.831 2.19 15.09 5.722 21.511-55.21 16.941-95.722 68.799-95.722 129.489v95.142c0 50.713-19.746 99.394-55.605 135.253-4.292 4.292-5.581 10.737-3.252 16.348 2.314 5.61 7.793 9.257 13.857 9.257h106.518c6.969 34.191 37.266 60 73.482 60s66.513-25.809 73.482-60h106.518c6.064 0 11.543-3.647 13.857-9.258 2.33-5.61 1.04-12.055-3.252-16.347z" fill="#f3f5f9"/><path d="m329.482 452h106.518c6.064 0 11.543-3.647 13.857-9.258 2.329-5.61 1.04-12.056-3.252-16.348-35.859-35.859-55.605-84.54-55.605-135.252v-95.142c0-60.69-40.512-112.548-95.722-129.489 3.532-6.421 5.722-13.68 5.722-21.511 0-24.814-20.186-45-45-45v512c36.216 0 66.513-25.809 73.482-60z" fill="#e1e6f0"/><path d="m256 362h-45v75c0 24.853 20.147 45 45 45s45-20.147 45-45v-75z" fill="#ffbe40"/><path d="m301 437v-75h-45v120c24.853 0 45-20.147 45-45z" fill="#ff9f40"/><path d="m361 291.142v-95.142c0-57.891-47.109-106-105-106s-105 48.109-105 106v95.142c0 47.344-14.868 93.417-42.393 130.858h147.393 147.393c-27.525-37.441-42.393-83.515-42.393-130.858z" fill="#ffdf40"/><path d="m361 291.142v-95.142c0-57.891-47.109-106-105-106v332h147.393c-27.525-37.441-42.393-83.515-42.393-130.858z" fill="#ffbe40"/><path d="m327.323 232.812c-1.758-5.391-6.416-9.346-12.026-10.195l-31.597-4.747-14.282-28.579c-2.549-5.083-7.983-7.625-13.418-7.625s-10.869 2.542-13.418 7.625l-14.282 28.579-31.597 4.746c-5.625.85-10.283 4.805-12.041 10.21-1.758 5.391-.308 11.323 3.735 15.322l22.778 22.412-5.244 31.523c-.938 5.61 1.377 11.25 5.977 14.59 4.57 3.325 10.664 3.779 15.732 1.187l28.36-14.721 28.359 14.722c5.156 2.664 11.241 2.095 15.732-1.187 4.6-3.34 6.914-8.979 5.977-14.59l-5.244-31.523 22.764-22.427c4.043-3.985 5.493-9.917 3.735-15.322z" fill="#ffbe40"/><path d="m300.092 316.674c4.6-3.34 6.914-8.979 5.977-14.59l-5.244-31.523 22.764-22.427c4.043-3.984 5.493-9.917 3.735-15.322-1.758-5.391-6.416-9.346-12.026-10.195l-31.598-4.747-14.282-28.579c-2.549-5.083-7.983-7.625-13.418-7.625v121.472l28.359 14.722c5.157 2.665 11.241 2.095 15.733-1.186z" fill="#ff9f40"/><circle cx="256" cy="45" fill="#ffbe40" r="15"/><path d="m271 45c0-8.276-6.724-15-15-15v30c8.276 0 15-6.724 15-15z" fill="#ff9f40"/></g></svg>