<svg id="Capa_1" enable-background="new 0 0 512 512" height="512" viewBox="0 0 512 512" width="512" xmlns="http://www.w3.org/2000/svg"><g><path d="m467 46h-211-211c-24.814 0-45 20.186-45 45v330c0 24.814 20.186 45 45 45h211 211c24.814 0 45-20.186 45-45v-330c0-24.814-20.186-45-45-45z" fill="#f3f5f9"/><path d="m512 421v-330c0-24.814-20.186-45-45-45h-211v420h211c24.814 0 45-20.186 45-45z" fill="#e1e6f0"/><path d="m467 76h-211-211c-8.276 0-15 6.724-15 15v330c0 8.276 6.724 15 15 15h211 211c8.276 0 15-6.724 15-15v-330c0-8.276-6.724-15-15-15z" fill="#ff7f40"/><path d="m482 421v-330c0-8.276-6.724-15-15-15h-211v360h211c8.276 0 15-6.724 15-15z" fill="#f25a3c"/><g><path d="m105 376h-30c-8.291 0-15-6.709-15-15s6.709-15 15-15h30c8.291 0 16 6.709 16 15s-7.709 15-16 15z" fill="#4d3535"/></g><g><path d="m437 346h-181-90c-8.291 0-15 6.709-15 15s6.709 15 15 15h90 181c8.291 0 15-6.709 15-15s-6.709-15-15-15z" fill="#4d3535"/><path d="m452 361c0-8.291-6.709-15-15-15h-181v30h181c8.291 0 15-6.709 15-15z" fill="#331e1e"/><path d="m322.709 197.582-66.709-33.354-53.291-26.646c-4.644-2.3-10.166-2.08-14.59.659s-7.119 7.559-7.119 12.759v120c0 5.2 2.695 10.02 7.119 12.759 4.34 2.699 9.855 3.01 14.59.659l53.291-26.646 66.709-33.354c5.083-2.549 8.291-7.734 8.291-13.418s-3.208-10.869-8.291-13.418z" fill="#f3f5f9"/><path d="m331 211c0-5.684-3.208-10.869-8.291-13.418l-66.709-33.354v93.545l66.709-33.354c5.083-2.55 8.291-7.735 8.291-13.419z" fill="#e1e6f0"/></g><g><path d="m136 406c-24.814 0-46-20.186-46-45s21.186-45 46-45 45 20.186 45 45-20.186 45-45 45z" fill="#f3f5f9"/></g></g></svg>