<svg id="Capa_1" enable-background="new 0 0 512 512" height="512" viewBox="0 0 512 512" width="512" xmlns="http://www.w3.org/2000/svg"><g><path d="m497 30h-181-256v-15c0-8.291-6.709-15-15-15h-30c-8.291 0-15 6.709-15 15v482c0 8.291 6.709 15 15 15h30c8.291 0 15-6.709 15-15v-136h256 181c8.291 0 15-6.709 15-15v-301c0-8.291-6.709-15-15-15zm-407 301h-30v-271h30z" fill="#f3f5f9"/><path d="m512 346v-301c0-8.291-6.709-15-15-15h-181v331h181c8.291 0 15-6.709 15-15z" fill="#e1e6f0"/><path d="m316 60h-196v271h196 166v-271z" fill="#ff7f40"/><path d="m316 60h166v271h-166z" fill="#f25a3c"/><path d="m415.858 163.539c-1.553-4.761-5.391-8.438-10.21-9.8l-48.955-13.74-28.213-42.319c-2.783-4.175-7.632-6.262-12.48-6.262s-9.697 2.087-12.48 6.262l-28.213 42.319-48.955 13.74c-4.819 1.362-8.657 5.039-10.21 9.8-1.553 4.775-.615 10.005 2.49 13.945l31.538 39.902-2.051 50.83c-.205 5.01 2.109 9.785 6.167 12.744 4.087 2.944 9.331 3.677 14.033 1.919l47.681-17.65 47.681 17.651c4.737 1.756 9.966 1.005 14.033-1.919 4.058-2.959 6.372-7.734 6.167-12.744l-2.051-50.83 31.538-39.902c3.106-3.941 4.043-9.171 2.49-13.946z" fill="#ffdf40"/><path d="m377.714 280.961c4.058-2.959 6.372-7.734 6.167-12.744l-2.051-50.83 31.538-39.902c3.105-3.94 4.043-9.17 2.49-13.945-1.553-4.761-5.391-8.438-10.21-9.8l-48.955-13.74-28.213-42.32c-2.783-4.175-7.632-6.262-12.48-6.262v173.811l47.681 17.651c4.737 1.756 9.966 1.005 14.033-1.919z" fill="#ffbe40"/></g></svg>