<svg id="Capa_1" enable-background="new 0 0 512 512" height="512" viewBox="0 0 512 512" width="512" xmlns="http://www.w3.org/2000/svg"><g><path d="m497 30h-181-256v-15c0-8.291-6.709-15-15-15h-30c-8.291 0-15 6.709-15 15v482c0 8.291 6.709 15 15 15h30c8.291 0 15-6.709 15-15v-136h256 181c8.291 0 15-6.709 15-15v-301c0-8.291-6.709-15-15-15zm-407 301h-30v-271h30z" fill="#f3f5f9"/><path d="m512 346v-301c0-8.291-6.709-15-15-15h-181v331h181c8.291 0 15-6.709 15-15z" fill="#e1e6f0"/><path d="m316 60h-196v271h196 166v-271z" fill="#ff7f40"/><path d="m316 60h166v271h-166z" fill="#f25a3c"/><path d="m361 106c-17.9 0-33.999 7.881-45 20.361-11.001-12.48-27.1-20.361-45-20.361-33.091 0-60 26.909-60 60 0 84.829 96.167 117.861 100.254 119.224 1.538.513 3.149.776 4.746.776s3.208-.264 4.746-.776c4.087-1.363 100.254-34.395 100.254-119.224 0-33.091-26.909-60-60-60z" fill="#ffbfff"/><path d="m421 166c0-33.091-26.909-60-60-60-17.9 0-33.999 7.881-45 20.361v159.639c1.597 0 3.208-.264 4.746-.776 4.087-1.363 100.254-34.395 100.254-119.224z" fill="#ff8fb8"/></g></svg>