<svg id="Capa_1" enable-background="new 0 0 511.921 511.921" height="512" viewBox="0 0 511.921 511.921" width="512" xmlns="http://www.w3.org/2000/svg"><g><path d="m420.221 127.862c-1.58-9.531-6.174-18.289-13.513-25.109-1.626-7.266-4.248-14.092-7.852-20.332-7.295-12.627-17.988-22.632-31.187-29.209-6.577-13.198-16.582-23.892-29.194-31.172-9.507-5.508-20.054-8.716-31.421-9.565-15.051-9.681-32.085-14.577-51.094-11.616-7.485 1.166-14.828 4.131-21.812 7.588-14.487-2.71-29.048-1.157-42.48 4.512-13.418 5.669-24.668 15.073-32.827 27.349-13.901 4.922-25.752 13.535-34.541 25.166-7.163 9.492-11.865 20.552-13.828 32.388-10.122 6.92-16.675 17.765-18.635 29.929-18.323 10.28-30.877 29.663-30.877 52.132 0 22.39 12.464 41.715 30.681 52.026l29.407 266.63c.85 7.603 7.266 13.345 14.912 13.345h120 120c7.646 0 14.063-5.742 14.912-13.345l29.407-266.63c18.217-10.309 30.681-29.636 30.681-52.026 0-22.414-12.491-41.759-30.739-52.061z" fill="#f3f5f9"/><path d="m390.873 498.576 29.407-266.63c18.217-10.309 30.681-29.636 30.681-52.026 0-22.412-12.491-41.757-30.74-52.059-1.58-9.531-6.174-18.289-13.513-25.109-1.626-7.266-4.248-14.092-7.852-20.332-7.295-12.627-17.988-22.632-31.187-29.209-6.577-13.198-16.582-23.892-29.194-31.172-9.507-5.508-20.054-8.716-31.421-9.565-15.051-9.68-32.085-14.575-51.094-11.615v511.062h120c7.647 0 14.063-5.742 14.913-13.345z" fill="#e1e6f0"/><path d="m317.103 203.921h-61.143-61.142l-28.781 21.952 12.825 232.751 31.295 23.297h45.803 45.804l31.566-28.176 12.028-218.411z" fill="#ff7f40"/><path d="m333.33 453.745 12.028-218.411-28.255-31.413h-61.143v278h45.804z" fill="#f25a3c"/><path d="m118.719 203.921 30.674 278h60.764l-15.339-278z" fill="#f25a3c"/><path d="m393.213 203.921h-76.11l-15.339 278h60.764z" fill="#e63a3a"/><path d="m384.295 123.114c-3.369-2.373-5.61-6.035-6.196-10.122-.82-5.728-2.578-10.972-5.229-15.571-4.937-8.555-12.598-15.103-22.148-18.955-3.779-1.523-6.782-4.526-8.306-8.306-3.853-9.551-10.4-17.212-18.955-22.148-6.357-3.677-13.623-5.61-21.621-5.757-3.076-.059-6.064-1.055-8.555-2.871-6.475-4.702-13.433-7.529-20.698-8.437-5.649-.703-11.201.002-16.626 1.472-4.072 1.104-8.101 2.509-11.895 4.783-3.486 2.095-7.72 2.651-11.602 1.611-9.628-2.598-19.735-2.186-29.106 1.772-9.082 3.838-16.538 10.635-21.548 19.644-1.978 3.56-5.303 6.152-9.229 7.207-9.976 2.666-18.398 8.247-24.346 16.128-5.244 6.929-8.262 15.381-8.716 24.419-.308 5.786-3.911 10.898-9.258 13.11-5.654 2.329-9.302 7.749-9.302 13.828 0 8.276 6.724 15 15 15l24.868 15h95.132 93.159l26.841-15c8.276 0 15-6.724 15-15 .001-6.182-4.173-10.049-6.664-11.807z" fill="#ffdf40"/><path d="m375.96 149.921c8.276 0 15-6.724 15-15 0-6.182-4.175-10.049-6.665-11.807-3.369-2.373-5.61-6.035-6.196-10.122-.82-5.728-2.578-10.972-5.229-15.571-4.937-8.555-12.598-15.103-22.148-18.955-3.779-1.523-6.782-4.526-8.306-8.306-3.853-9.551-10.4-17.212-18.955-22.148-6.357-3.677-13.623-5.61-21.621-5.757-3.076-.059-6.064-1.055-8.555-2.871-6.475-4.702-13.433-7.529-20.698-8.437-5.649-.703-11.201.002-16.626 1.472v132.502h93.159z" fill="#ffbe40"/><g><circle cx="195.96" cy="104.92" fill="#ffbe40" r="15"/></g><g><circle cx="315.96" cy="104.92" fill="#ff9f40" r="15"/></g><circle cx="255.96" cy="74.919" fill="#ffbe40" r="15"/><path d="m270.96 74.919c0-8.284-6.716-15-15-15v30c8.284 0 15-6.716 15-15z" fill="#ff9f40"/><path d="m390.96 149.921h-135-135c-16.569 0-30 13.431-30 30 0 16.567 13.431 30 30 30h135 135c16.569 0 30-13.433 30-30 0-16.569-13.43-30-30-30z" fill="#4d3535"/><path d="m420.96 179.921c0-16.569-13.431-30-30-30h-135v60h135c16.57 0 30-13.433 30-30z" fill="#331e1e"/></g></svg>