<svg id="Capa_1" enable-background="new 0 0 512 512" height="512" viewBox="0 0 512 512" width="512" xmlns="http://www.w3.org/2000/svg"><g><path d="m467 211h-15v-75c0-8.401-6.599-15-15-15h-90c-8.401 0-15 6.599-15 15v75h-152v-75c0-8.401-6.599-15-15-15h-90c-8.401 0-15 6.599-15 15v75h-15c-24.901 0-45 20.099-45 45 0 24.899 20.099 45 45 45h15v75c0 8.399 6.599 15 15 15h90c8.401 0 15-6.601 15-15v-75h152v75c0 8.399 6.599 15 15 15h90c8.401 0 15-6.601 15-15v-75h15c24.901 0 45-20.101 45-45 0-24.901-20.099-45-45-45z" fill="#f3f5f9"/><path d="m512 256c0 24.899-20.099 45-45 45h-15v75c0 8.399-6.599 15-15 15h-90c-8.401 0-15-6.601-15-15v-75h-76v-90h76v-75c0-8.401 6.599-15 15-15h90c8.401 0 15 6.599 15 15v75h15c24.901 0 45 20.099 45 45z" fill="#e1e6f0"/><path d="m482 256c0 8.399-6.599 15-15 15h-422c-8.401 0-15-6.601-15-15 0-8.401 6.599-15 15-15h422c8.401 0 15 6.599 15 15z" fill="#4d3535"/><path d="m482 256c0 8.399-6.599 15-15 15h-211v-30h211c8.401 0 15 6.599 15 15z" fill="#331e1e"/><path d="m90 151h60v210h-60z" fill="#6cf"/><path d="m362 151h60v210h-60z" fill="#59abff"/></g></svg>