<svg id="Capa_1" enable-background="new 0 0 512 512" height="512" viewBox="0 0 512 512" width="512" xmlns="http://www.w3.org/2000/svg"><g><path d="m497 151h-106v-45c0-41.353-33.647-75-75-75h-60-60c-41.353 0-75 33.647-75 75v45h-106c-8.291 0-15 6.709-15 15v300c0 8.291 6.709 15 15 15h241 241c8.291 0 15-6.709 15-15v-300c0-8.291-6.709-15-15-15zm-196 0h-45-45v-30h45 45z" fill="#f3f5f9"/><path d="m512 466v-300c0-8.291-6.709-15-15-15h-106v-45c0-41.353-33.647-75-75-75h-60v90h45v30h-45v330h241c8.291 0 15-6.709 15-15z" fill="#e1e6f0"/><path d="m316 61h-60-60c-24.814 0-45 20.186-45 45v105h30v-105c0-8.291 6.709-15 15-15h60 60c8.291 0 15 6.709 15 15v105h30v-105c0-24.814-20.186-45-45-45z" fill="#4d3535"/><path d="m331 106v105h30v-105c0-24.814-20.186-45-45-45h-60v30h60c8.291 0 15 6.709 15 15z" fill="#331e1e"/><path d="m256 298.861-226-36.432v188.571h226 226v-188.571z" fill="#a65342"/><path d="m482 262.429-226 36.432v152.139h226z" fill="#803b2d"/><g><path d="m437 421h-61c-8.291 0-15-6.709-15-15s6.709-15 15-15h61c8.291 0 15 6.709 15 15s-6.709 15-15 15z" fill="#331e1e"/></g><path d="m256 181h-226v81.429l226 96.432 226-96.432v-81.429z" fill="#cc6e5c"/><path d="m482 181h-226v177.861l226-96.432z" fill="#a65342"/><path d="m286 331h-30-30c-8.291 0-15 6.709-15 15v30c0 24.814 20.186 45 45 45s45-20.186 45-45v-30c0-8.291-6.709-15-15-15z" fill="#ffdf40"/><path d="m301 376v-30c0-8.291-6.709-15-15-15h-30v90c24.814 0 45-20.186 45-45z" fill="#ffbe40"/></g></svg>