<svg id="Capa_1" enable-background="new 0 0 512 512" height="512" viewBox="0 0 512 512" width="512" xmlns="http://www.w3.org/2000/svg"><g><path d="m497 196.001h-112.508l-85.631-142.72c-4.248-7.104-13.477-9.404-20.581-5.142s-9.404 13.477-5.142 20.581l76.368 127.28h-93.506-93.506l76.368-127.28c4.263-7.104 1.963-16.318-5.142-20.581-7.119-4.263-16.318-1.963-20.581 5.142l-85.631 142.72h-112.508c-8.291 0-15 6.709-15 15v60c0 8.291 6.709 15 15 15h17.296l20.559 117.319c6.05 36.328 37.163 62.681 73.975 62.681h129.17 129.17c36.812 0 67.925-26.353 73.975-62.681l20.559-117.319h17.296c8.291 0 15-6.709 15-15v-60c0-8.291-6.709-15-15-15z" fill="#f3f5f9"/><path d="m459.145 403.321 20.559-117.319h17.296c8.291 0 15-6.709 15-15v-60c0-8.291-6.709-15-15-15h-112.508l-85.631-142.72c-4.248-7.104-13.477-9.404-20.581-5.142s-9.404 13.477-5.142 20.581l76.368 127.28h-93.506v270h129.17c36.811 0 67.925-26.352 73.975-62.68z" fill="#e1e6f0"/><path d="m256 226.001h-226v30h27.708l24.738 142.397c3.633 21.782 22.295 37.603 44.385 37.603h129.169 129.17c22.09 0 40.752-15.82 44.385-37.603l24.738-142.397h27.707v-30z" fill="#a0e65c"/><path d="m429.555 398.399 24.738-142.397h27.707v-30h-226v210h129.17c22.09-.001 40.752-15.821 44.385-37.603z" fill="#79cc52"/><g><path d="m146.063 392.246-5.01-60c-.703-8.247 5.435-15.498 13.696-16.187 8.423-.923 15.498 5.449 16.187 13.696l5.01 60c.703 8.247-5.435 15.498-13.696 16.187-7.842.812-15.487-5.187-16.187-13.696z" fill="#79cc52"/></g><g><path d="m349.75 405.943c-8.262-.688-14.399-7.939-13.696-16.187l5.01-60c.674-8.247 7.661-14.604 16.187-13.696 8.262.688 14.399 7.939 13.696 16.187l-5.01 60c-.698 8.485-8.329 14.509-16.187 13.696z" fill="#59b348"/></g><path d="m256 316.001c-8.291 0-15 6.709-15 15v60c0 8.291 6.709 15 15 15s15-6.709 15-15v-60c0-8.291-6.709-15-15-15z" fill="#79cc52"/><path d="m271 391.001v-60c0-8.291-6.709-15-15-15v90c8.291 0 15-6.709 15-15z" fill="#59b348"/></g></svg>