<svg id="Capa_1" enable-background="new 0 0 512 512" height="512" viewBox="0 0 512 512" width="512" xmlns="http://www.w3.org/2000/svg"><g><path d="m266.313 94.116c-2.886-2.739-6.599-4.109-10.313-4.109s-7.427 1.37-10.313 4.109c-12.773 12.085-124.687 121.205-124.687 191.884 0 74.443 60.557 136 135 136s135-61.557 135-136c0-70.679-111.914-179.799-124.687-191.884z" fill="#f3f5f9"/><path d="m391 286c0-70.679-111.914-179.799-124.688-191.884-2.886-2.739-6.599-4.109-10.313-4.109v331.993c74.444 0 135.001-61.557 135.001-136z" fill="#e1e6f0"/><g fill="#f3f5f9"><path d="m324.086 471.526c-21.973 6.944-44.868 10.474-68.086 10.474-124.072 0-226-101.928-226-226 0-46.412 15.562-92.17 41.651-129.6-.601 6.766 3.186 13.314 9.901 15.544 7.912 2.637 16.366-1.666 18.97-9.478l21.211-63.633c1.802-5.391.396-11.338-3.618-15.352s-9.961-5.435-15.352-3.618l-63.648 21.211c-7.852 2.607-12.1 11.104-9.478 18.97 2.607 7.852 11.03 12.158 18.97 9.478l7.696-2.563c-35.359 44.713-56.303 101.233-56.303 159.041 0 140.61 115.39 256 256 256 26.294 0 52.236-3.999 77.139-11.88 7.896-2.49 12.275-10.928 9.771-18.823-2.491-7.881-10.826-12.276-18.824-9.771z"/><path d="m463.393 412.479-7.753 2.582c35.369-44.743 56.36-101.346 56.36-159.061 0-140.61-115.39-256-256-256-26.338 0-52.295 3.999-77.153 11.88-7.896 2.505-12.261 10.928-9.756 18.838 2.505 7.896 10.913 12.29 18.838 9.756 21.914-6.944 44.809-10.474 68.071-10.474 124.072 0 226 101.928 226 226 0 46.34-15.546 92.198-41.66 129.672.635-6.791-3.153-13.378-9.891-15.615-7.925-2.651-16.348 1.626-18.97 9.478l-21.211 63.633c-1.802 5.391-.396 11.338 3.618 15.352 4.059 4.058 10.063 5.414 15.352 3.618l63.647-21.211c7.852-2.607 12.1-11.104 9.478-18.97-2.623-7.853-11.031-12.13-18.97-9.478z"/></g><path d="m342.909 481.297c-2.49-7.881-10.825-12.275-18.823-9.771-21.973 6.944-44.868 10.474-68.086 10.474v30c26.294 0 52.236-3.999 77.139-11.88 7.895-2.49 12.275-10.928 9.77-18.823z" fill="#e1e6f0"/><path d="m482 256c0 46.34-15.546 92.198-41.66 129.672.635-6.791-3.153-13.378-9.891-15.615-7.925-2.651-16.348 1.626-18.97 9.478l-21.211 63.633c-1.802 5.391-.396 11.338 3.618 15.352 4.059 4.058 10.063 5.414 15.352 3.618l63.647-21.211c7.852-2.607 12.1-11.104 9.478-18.97-2.622-7.852-11.03-12.129-18.97-9.478l-7.753 2.582c35.369-44.743 56.36-101.346 56.36-159.061 0-140.61-115.39-256-256-256v30c124.072 0 226 101.928 226 226z" fill="#e1e6f0"/><path d="m256 125.977c-36.709 36.87-105 115.624-105 160.023 0 57.891 47.109 106 105 106s105-48.109 105-106c0-44.443-68.291-123.183-105-160.023z" fill="#ff7f40"/><path d="m361 286c0-44.443-68.291-123.183-105-160.023v266.023c57.891 0 105-48.109 105-106z" fill="#f25a3c"/></g></svg>