<svg id="Capa_1" enable-background="new 0 0 512 512" height="512" viewBox="0 0 512 512" width="512" xmlns="http://www.w3.org/2000/svg"><g><path d="m466 424.763v-168.763c0-8.291-6.709-15-15-15h-75v-121c0-66.167-53.833-120-120-120s-120 53.833-120 120v121h-75c-8.291 0-15 6.709-15 15v168.763c-17.422 6.213-30 22.707-30 42.237v30c0 8.291 6.709 15 15 15h225 225c8.291 0 15-6.709 15-15v-30c0-19.53-12.578-36.024-30-42.237zm-120-183.763h-45c-8.291 0-15 6.709-15 15v15h-30-30v-15c0-8.291-6.709-15-15-15h-45v-121c0-49.629 40.371-90 90-90s90 40.371 90 90z" fill="#f3f5f9"/><path d="m496 497v-30c0-19.53-12.578-36.024-30-42.237v-168.763c0-8.291-6.709-15-15-15h-75v-121c0-66.167-53.833-120-120-120v30c49.629 0 90 40.371 90 90v121h-45c-8.291 0-15 6.709-15 15v15h-30v241h225c8.291 0 15-6.709 15-15z" fill="#e1e6f0"/><path d="m376 271-15 30-15-30h-30v15c0 8.291-6.709 15-15 15h-45-45c-8.291 0-15-6.709-15-15v-15h-30l-15 30-15-30h-60v196h180 180v-196z" fill="#4d3535"/><path d="m436 271h-60l-15 30-15-30h-30v15c0 8.291-6.709 15-15 15h-45v166h180z" fill="#331e1e"/><path d="m136 271h30v196h-30z" fill="#f3f5f9"/><path d="m346 271h30v196h-30z" fill="#e1e6f0"/><path d="m451 452h-195-195c-8.276 0-15 6.724-15 15v15h210 210v-15c0-8.276-6.724-15-15-15z" fill="#665151"/><path d="m466 467c0-8.276-6.724-15-15-15h-195v30h210z" fill="#4d3535"/></g></svg>