<svg id="Capa_1" enable-background="new 0 0 512 512" height="512" viewBox="0 0 512 512" width="512" xmlns="http://www.w3.org/2000/svg"><g><path d="m331 302c-16.165 0-31.307 3.977-45 10.532v-207.532c0-57.891-47.109-105-105-105s-105 47.109-105 105v302c0 57.891 47.109 105 105 105 29.392 0 55.92-12.217 75-31.749 19.08 19.532 45.608 31.749 75 31.749 57.891 0 105-47.109 105-105s-47.109-105-105-105z" fill="#f3f5f9"/><path d="m331 512c57.891 0 105-47.109 105-105s-47.109-105-105-105c-16.165 0-31.307 3.977-45 10.532v-207.532c0-57.891-47.109-105-105-105v512c29.392 0 55.92-12.217 75-31.749 19.08 19.532 45.608 31.749 75 31.749z" fill="#e1e6f0"/><path d="m181 30c-41.353 0-75 33.647-75 75v151l31.578 31h43.422 46.816l28.184-31v-151c0-41.353-33.647-75-75-75z" fill="#6cf"/><path d="m256 256v-151c0-41.353-33.647-75-75-75v257h46.816z" fill="#59abff"/><path d="m181 256h-75v151c0 41.353 33.647 75 75 75s75-33.647 75-75v-151z" fill="#ff7f40"/><path d="m256 407v-151h-75v226c41.353 0 75-33.647 75-75z" fill="#f25a3c"/><path d="m384.007 353.993c-13.581-13.581-32.331-21.993-53.007-21.993s-39.426 8.412-53.007 21.993l23.007 53.007 15 15 25.997 25.995 42.01 12.012c13.581-13.581 21.993-32.331 21.993-53.007s-8.412-39.426-21.993-53.007z" fill="#ffdf40"/><path d="m384.007 460.007c13.581-13.581 21.993-32.331 21.993-53.007s-8.412-39.426-21.993-53.007l-68.007 68.007 25.997 25.995z" fill="#ffbe40"/><path d="m331 407-53.007-53.007c-13.581 13.581-21.993 32.331-21.993 53.007s8.412 39.426 21.993 53.007 32.331 21.993 53.007 21.993 39.426-8.412 53.007-21.993z" fill="#ffbe40"/><path d="m384.007 460.007-53.007-53.007-53.007 53.007c13.581 13.581 32.331 21.993 53.007 21.993s39.426-8.412 53.007-21.993z" fill="#ff9f40"/></g></svg>