<svg id="Capa_1" enable-background="new 0 0 512 512" height="512" viewBox="0 0 512 512" width="512" xmlns="http://www.w3.org/2000/svg"><g><path d="m256 0c-74.443 0-135 60.557-135 135v126.127c0 8.291 6.709 15 15 15h60c8.291 0 15-6.709 15-15v-126.127c0-24.814 20.186-45 45-45s45 20.186 45 45v126.127c0 8.291 6.709 15 15 15h60c8.291 0 15-6.709 15-15v-126.127c0-74.443-60.557-135-135-135z" fill="#f3f5f9"/><path d="m301 135v126.127c0 8.291 6.709 15 15 15h60c8.291 0 15-6.709 15-15v-126.127c0-74.443-60.557-135-135-135v90c24.814 0 45 20.186 45 45z" fill="#e1e6f0"/><path d="m256 30c-57.891 0-105 47.109-105 105v141.127h30v-141.127c0-41.353 33.647-75 75-75s75 33.647 75 75v141.127h30v-141.127c0-57.891-47.109-105-105-105z" fill="#e1e6f0"/><path d="m331 135v141.127h30v-141.127c0-57.891-47.109-105-105-105v30c41.353 0 75 33.647 75 75z" fill="#cfd7e6"/><path d="m346 211c-38.145 0-71.616 20.449-90 50.962-18.384-30.513-51.855-50.962-90-50.962-57.891 0-105 47.109-105 105 0 129.331 182.49 192.646 190.254 195.224 1.538.513 3.149.776 4.746.776s3.208-.264 4.746-.776c7.764-2.578 190.254-65.893 190.254-195.224 0-57.891-47.109-105-105-105z" fill="#f3f5f9"/><path d="m451 316c0-57.891-47.109-105-105-105-38.145 0-71.616 20.449-90 50.962v250.038c1.597 0 3.208-.264 4.746-.776 7.764-2.578 190.254-65.893 190.254-195.224z" fill="#e1e6f0"/><path d="m346 241c-41.353 0-75 33.647-75 75 0 8.291-6.709 15-15 15s-15-6.709-15-15c0-41.353-33.647-75-75-75s-75 33.647-75 75c0 97.617 137.461 154.794 164.985 165.063.004-.002.011-.004.015-.005 27.539-10.308 165-67.646 165-165.058 0-41.353-33.647-75-75-75z" fill="#ff7f40"/><path d="m421 316c0-41.353-33.647-75-75-75s-75 33.647-75 75c0 8.291-6.709 15-15 15v150.057c27.539-10.307 165-67.645 165-165.057z" fill="#f25a3c"/><path d="m301 361h-45-45c-8.291 0-15 6.709-15 15s6.709 15 15 15h45 45c8.291 0 15-6.709 15-15s-6.709-15-15-15z" fill="#4d3535"/><path d="m316 376c0-8.291-6.709-15-15-15h-45v30h45c8.291 0 15-6.709 15-15z" fill="#331e1e"/></g></svg>