<svg id="Capa_1" enable-background="new 0 0 512 512" height="512" viewBox="0 0 512 512" width="512" xmlns="http://www.w3.org/2000/svg"><g><path d="m421 300h-42.343c5.12-9.661 9.829-19.603 13.607-30h13.736c8.291 0 15-6.709 15-15s-6.709-15-15-15h-5.244c2.179-9.959 3.539-19.971 4.297-30h15.947c8.291 0 15-6.709 15-15s-6.709-15-15-15h-15.692c-.98-11.9-3.058-23.45-6.222-34.49l21.855-12.488c7.192-4.116 9.697-13.271 5.581-20.464s-13.301-9.712-20.464-5.581l-17.855 10.203c-7.513-15.381-17.228-29.229-28.601-41.21l12.354-13.231c5.654-6.05 5.332-15.542-.718-21.196-6.064-5.669-15.557-5.347-21.196.718l-13.109 14.037c-19.408-13.753-41.805-22.815-65.933-25.463v-15.835c0-8.291-6.709-15-15-15s-15 6.709-15 15v15.835c-24.128 2.648-46.525 11.71-65.934 25.463l-13.109-14.037c-5.64-6.064-15.176-6.387-21.196-.718-6.05 5.654-6.372 15.146-.718 21.196l12.354 13.231c-11.373 11.981-21.088 25.829-28.601 41.21l-17.855-10.203c-7.222-4.131-16.377-1.611-20.464 5.581-4.116 7.192-1.611 16.348 5.581 20.464l21.855 12.488c-3.164 11.039-5.242 22.59-6.222 34.49h-15.691c-8.291 0-15 6.709-15 15s6.709 15 15 15h15.996c.764 10.032 2.173 20.037 4.367 30h-5.363c-8.291 0-15 6.709-15 15s6.709 15 15 15h13.934c3.777 10.36 8.26 20.376 13.361 30h-42.295c-8.291 0-15 6.709-15 15v60c0 8.291 6.709 15 15 15h18.296l27.158 110.633c1.67 6.68 7.661 11.367 14.546 11.367h105 105c6.885 0 12.876-4.688 14.546-11.367l27.158-110.633h18.296c8.291 0 15-6.709 15-15v-60c0-8.291-6.709-15-15-15z" fill="#f3f5f9"/><path d="m375.546 500.633 27.158-110.633h18.296c8.291 0 15-6.709 15-15v-60c0-8.291-6.709-15-15-15h-42.343c5.12-9.661 9.829-19.603 13.607-30h13.736c8.291 0 15-6.709 15-15s-6.709-15-15-15h-5.244c2.179-9.959 3.539-19.971 4.297-30h15.947c8.291 0 15-6.709 15-15s-6.709-15-15-15h-15.692c-.98-11.9-3.058-23.45-6.222-34.49l21.855-12.488c7.192-4.116 9.697-13.271 5.581-20.464s-13.301-9.712-20.464-5.581l-17.855 10.203c-7.513-15.381-17.228-29.229-28.601-41.21l12.354-13.231c5.654-6.05 5.332-15.542-.718-21.196-6.064-5.669-15.557-5.347-21.196.718l-13.109 14.037c-19.408-13.753-41.805-22.815-65.933-25.463v-15.835c0-8.291-6.709-15-15-15v512h105c6.885 0 12.876-4.687 14.546-11.367z" fill="#e1e6f0"/><path d="m256 60c-66.301 0-120 60.599-120 135 0 54.3 27.9 114 66.599 144.3l53.401.599 52.2.601c39.3-30.301 67.8-90.601 67.8-145.5 0-74.401-53.699-135-120-135z" fill="#a0e65c"/><path d="m376 195c0 54.899-28.5 115.199-67.8 145.499l-52.2-.601v-279.898c66.301 0 120 60.599 120 135z" fill="#79cc52"/><g><circle cx="210.999" cy="239.999" fill="#f3f5f9" r="15"/></g><g><circle cx="300.999" cy="239.999" fill="#e1e6f0" r="15"/></g><g><circle cx="330.999" cy="179.999" fill="#e1e6f0" r="15"/></g><g><circle cx="300.999" cy="119.999" fill="#e1e6f0" r="15"/></g><g><circle cx="210.999" cy="119.999" fill="#f3f5f9" r="15"/></g><g><circle cx="180.999" cy="179.999" fill="#f3f5f9" r="15"/></g><circle cx="256" cy="180" fill="#f3f5f9" r="15"/><path d="m256 195v-30c8.401 0 15 6.599 15 15 0 8.399-6.599 15-15 15z" fill="#e1e6f0"/><path d="m256 330h-150v30h26.7l30 122h93.3 93.3l30-122h26.7v-30z" fill="#ff7f40"/><path d="m406 330v30h-26.7l-30 122h-93.3v-152z" fill="#f25a3c"/></g></svg>