<svg id="Capa_1" enable-background="new 0 0 512 512" height="512" viewBox="0 0 512 512" width="512" xmlns="http://www.w3.org/2000/svg"><g><g><path d="m481 407v45c0 32.999-27.001 60-60 60h-330c-32.999 0-60-27.001-60-60v-437c0-8.401 6.599-15 15-15h360c8.401 0 15 6.599 15 15v377h45c8.401 0 15 6.599 15 15z" fill="#f3f5f9"/></g><path d="m481 407v45c0 32.999-27.001 60-60 60h-195v-512h180c8.401 0 15 6.599 15 15v377h45c8.401 0 15 6.599 15 15z" fill="#e1e6f0"/><g><g><path d="m391 30v422h-240c0 16.5-43.5 30-60 30s-30-13.5-30-30v-422z" fill="#6cf"/></g></g><path d="m226 30h165v422h-165z" fill="#59abff"/><g><path d="m196 241h-90c-8.291 0-15-6.709-15-15s6.709-15 15-15h90c8.291 0 15 6.709 15 15s-6.709 15-15 15z" fill="#f3f5f9"/></g><g><path d="m346 241h-90c-8.291 0-15-6.709-15-15s6.709-15 15-15h90c8.291 0 15 6.709 15 15s-6.709 15-15 15z" fill="#e1e6f0"/></g><g><path d="m346 301h-90c-8.291 0-15-6.709-15-15s6.709-15 15-15h90c8.291 0 15 6.709 15 15s-6.709 15-15 15z" fill="#e1e6f0"/></g><g><path d="m196 301h-90c-8.291 0-15-6.709-15-15s6.709-15 15-15h90c8.291 0 15 6.709 15 15s-6.709 15-15 15z" fill="#f3f5f9"/></g><g><path d="m196 361h-90c-8.291 0-15-6.709-15-15s6.709-15 15-15h90c8.291 0 15 6.709 15 15s-6.709 15-15 15z" fill="#f3f5f9"/></g><g><path d="m346 361h-90c-8.291 0-15-6.709-15-15s6.709-15 15-15h90c8.291 0 15 6.709 15 15s-6.709 15-15 15z" fill="#e1e6f0"/></g><g><path d="m451 422v30c0 16.5-13.5 30-30 30h-330c16.5 0 30-13.5 30-30v-15c0-8.401 6.599-15 15-15z" fill="#59abff"/></g><path d="m451 422v30c0 16.5-13.5 30-30 30h-195v-60z" fill="#4d87ff"/><g><path d="m346 60h-240c-8.401 0-15 6.599-15 15v91c0 8.399 6.599 15 15 15h240c8.401 0 15-6.601 15-15v-91c0-8.401-6.599-15-15-15z" fill="#f3f5f9"/></g><path d="m346 181h-120v-121h120c8.401 0 15 6.599 15 15v91c0 8.399-6.599 15-15 15z" fill="#e1e6f0"/></g></svg>