<svg id="Capa_1" enable-background="new 0 0 511.99 511.99" height="512" viewBox="0 0 511.99 511.99" width="512" xmlns="http://www.w3.org/2000/svg"><g><path d="m413.934 113.607c-3.75-4.541-9.785-6.431-15.498-4.937-5.698 1.538-9.946 6.27-10.884 12.1-6.753 42.041-20.845 60.22-26.558 60.22-23.613 0-65.933-88.519-90.645-170.301-1.919-6.313-8.335-11.074-14.355-10.664-6.548 0-12.349 4.263-14.312 10.518-25.093 80.156-68.511 170.448-90.688 170.448-5.713 0-19.805-18.179-26.558-60.22-.938-5.83-5.186-10.562-10.884-12.1-5.713-1.509-11.763.396-15.498 4.937-46.375 56.278-67.059 109.438-67.059 172.382 0 126.167 98.833 226 225 226s225-99.833 225-226c0-62.08-21.313-116.851-67.061-172.383z" fill="#f3f5f9"/><path d="m480.995 285.99c0-62.08-21.313-116.851-67.061-172.383-3.75-4.541-9.785-6.431-15.498-4.937-5.698 1.538-9.946 6.27-10.884 12.1-6.753 42.041-20.845 60.22-26.558 60.22-23.613 0-65.933-88.519-90.645-170.301-1.919-6.313-8.335-11.074-14.355-10.664v511.965c126.168 0 225.001-99.833 225.001-226z" fill="#e1e6f0"/><path d="m409.73 157.758c-10.708 33.853-28.022 53.232-48.735 53.232-44.286 0-83.306-88.048-105-148.294-.07-.194-.15-.403-.22-.597-22.178 60.22-61.846 148.891-104.78 148.891-20.713 0-38.027-19.38-48.735-53.232-28.374 41.47-41.265 82.002-41.265 128.232 0 109.351 85.649 196 195 196s195-86.649 195-196c0-46.23-12.891-86.763-41.265-128.232z" fill="#ffdf40"/><path d="m450.995 285.99c0-46.23-12.891-86.763-41.265-128.232-10.708 33.853-28.022 53.232-48.735 53.232-44.286 0-83.306-88.048-105-148.294v419.294c109.351 0 195-86.649 195-196z" fill="#ffbe40"/><path d="m267.157 215.97c-2.842-3.164-7.002-4.746-11.162-4.746s-8.32 1.582-11.162 4.746c-9.609 10.708-93.838 106.128-93.838 160.02 0 57.891 47.109 106 105 106s105-48.109 105-106c0-53.892-84.229-149.312-93.838-160.02z" fill="#ffbe40"/><path d="m360.995 375.99c0-53.892-84.229-149.312-93.838-160.02-2.842-3.164-7.002-4.746-11.162-4.746v270.766c57.891 0 105-48.109 105-106z" fill="#ff9f40"/></g></svg>