<svg id="Capa_1" enable-background="new 0 0 512 512" height="512" viewBox="0 0 512 512" width="512" xmlns="http://www.w3.org/2000/svg"><g><path d="m491.095 450.306-57.631-95.999 44.776-44.776c5.863-5.863 5.863-15.351 0-21.213l-42.426-42.426c-5.863-5.863-15.351-5.863-21.213 0l-28.883 28.883-15.915-26.511 66.012-66.012c56.565-56.565 98.09-135.255 63.64-169.706s-113.141 7.075-169.706 63.64l-66.012 66.012-26.511-15.915 28.883-28.883c5.863-5.863 5.863-15.351 0-21.213l-42.426-42.426c-5.863-5.863-15.351-5.863-21.213 0l-44.776 44.776-96-57.632c-5.894-3.553-13.455-2.621-18.323 2.248l-31.82 31.82c-5.863 5.863-5.863 15.351 0 21.213l161.144 161.144c-25.534 28.147-36.148 43.008-60.223 72.435l-72.599-18.24c-5.117-1.284-10.534.217-14.263 3.946l-21.213 21.213c-5.863 5.863-5.863 15.351 0 21.213l48.299 48.299c-9.575 12.806-19.402 25.448-28.681 38.439-4.267 5.966-3.594 14.139 1.595 19.328l21.213 21.213 21.213 21.213c5.189 5.189 13.362 5.863 19.328 1.595 12.99-9.279 25.633-19.105 38.44-28.68l48.298 48.298c5.863 5.863 15.351 5.863 21.213 0l21.213-21.213c3.729-3.729 5.231-9.146 3.946-14.263l-18.24-72.599c29.426-24.073 44.29-34.688 72.436-60.222l161.143 161.143c5.863 5.863 15.351 5.863 21.213 0l31.82-31.82c4.87-4.867 5.802-12.428 2.249-18.322z" fill="#f3f5f9"/><path d="m87.365 487.985c12.99-9.279 25.633-19.105 38.44-28.68l48.298 48.298c5.863 5.863 15.351 5.863 21.213 0l21.213-21.213c3.729-3.729 5.231-9.146 3.946-14.263l-18.24-72.599c29.426-24.073 44.29-34.688 72.436-60.222l161.143 161.143c5.863 5.863 15.351 5.863 21.213 0l31.82-31.82c4.868-4.868 5.8-12.43 2.248-18.323l-57.631-95.999 44.776-44.776c5.863-5.863 5.863-15.351 0-21.213l-42.426-42.426c-5.863-5.863-15.351-5.863-21.213 0l-28.883 28.883-15.915-26.511 66.012-66.012c56.565-56.565 98.09-135.255 63.64-169.706l-452.632 452.631 21.213 21.213c5.19 5.189 13.362 5.862 19.329 1.595z" fill="#e1e6f0"/><g><path d="m138.83 139.825 21.213 21.213 74.246-74.246-21.213-21.213z" fill="#e1e6f0"/></g><g><path d="m368.125 334.794 10.607 31.82 67.69-67.69-21.213-21.213z" fill="#cfd7e6"/></g><path d="m316.109 217.105-60.606 60.606 190.918 190.918 12.927-12.926z" fill="#4d87ff"/><path d="m294.901 195.886-238.604-143.234-12.926 12.927 190.918 190.918z" fill="#59abff"/><path d="m163.75 369.463-42.68 42.681 63.639 63.639 4.589-4.588z" fill="#4d87ff"/><path d="m142.537 348.25-101.732-25.548-4.588 4.589 63.639 63.639z" fill="#59abff"/><path d="m478.241 33.759c-12.979-12.979-69.005 5.365-127.279 63.64l-83.092 83.091c-82.046 82.046-144.014 157.21-212.035 251.271l12.202 12.202 12.202 12.202c94.061-68.021 169.226-129.989 251.271-212.035l83.092-83.092c58.274-58.274 76.618-114.301 63.639-127.279z" fill="#6cf"/><path d="m331.51 244.13 83.092-83.092c58.274-58.274 76.618-114.301 63.64-127.279l-410.205 410.204 12.202 12.202c94.06-68.021 169.225-129.989 251.271-212.035z" fill="#59abff"/></g></svg>