<svg id="Capa_1" enable-background="new 0 0 512 512" height="512" viewBox="0 0 512 512" width="512" xmlns="http://www.w3.org/2000/svg"><g><path d="m256 66.636c-63.162-32.13-134.383-50.636-210-50.636h-31c-8.401 0-15 6.599-15 15v210c0 8.399 6.599 15 15 15h31c95.909 0 177.638 60.216 210 144.791 9.545 24.948 16 51.918 16 80.209 0 8.399 6.599 15 15 15h210c8.401 0 15-6.601 15-15 0-180.883-104.911-337.509-256-414.364z" fill="#f3f5f9"/><path d="m287 496h210c8.401 0 15-6.601 15-15 0-180.883-104.911-337.509-256-414.364v334.155c9.545 24.948 16 51.918 16 80.209 0 8.399 6.599 15 15 15z" fill="#e1e6f0"/><g><path d="m256 100.47c-62.333-34.541-133.83-54.47-210-54.47h-16v45l16 15c79.629 0 151.133 21.931 210 60.244 90.037 58.599 151.222 155.883 163.457 274.493l16.783 25.263h45.511c-5.365-157.386-95.904-293.578-225.751-365.53z" fill="#ff7f40"/><path d="m419.457 440.737 16.783 25.263h45.511c-5.365-157.386-95.904-293.578-225.751-365.53v65.773c90.037 58.6 151.222 155.884 163.457 274.494z" fill="#f25a3c"/></g><g><path d="m256 152.813c-60.624-39.022-132.64-61.813-210-61.813h-16v45l16 15c82.143 0 154.208 26.16 210 71.005 65.623 52.745 109.653 130.429 118.903 224.132l16.337 19.863h45c-5.033-131.418-76.306-246.288-180.24-313.187z" fill="#ffdf40"/><path d="m374.903 446.136 16.337 19.864h45c-5.033-131.418-76.306-246.288-180.24-313.187v69.192c65.623 52.745 109.653 130.429 118.903 224.131z" fill="#ffbe40"/></g><path d="m256 207.88c-58.163-44.947-130.911-71.88-210-71.88h-16v45l16 15c86.62 0 159.52 32.693 210 87.598 36.923 40.159 62.921 92.133 72.182 152.223l18.058 30.179h45c-4.546-104.989-57.221-197.827-135.24-258.12z" fill="#a0e65c"/><path d="m346.24 466h45c-4.546-104.989-57.221-197.827-135.24-258.12v75.718c36.923 40.159 62.921 92.133 72.182 152.223z" fill="#79cc52"/><path d="m256 267.448c-54.082-53.352-128.15-86.448-210-86.448h-16v45h16c87.259 0 164.103 44.224 210 111.282 25.399 37.11 42.45 81.118 45.24 128.718h45c-3.863-77.571-38.363-147.376-90.24-198.552z" fill="#6cf"/><path d="m346.24 466c-3.864-77.571-38.363-147.376-90.24-198.552v69.835c25.399 37.11 42.45 81.118 45.24 128.718h45z" fill="#59abff"/></g></svg>