<svg id="Capa_1" enable-background="new 0 0 512 512" height="512" viewBox="0 0 512 512" width="512" xmlns="http://www.w3.org/2000/svg"><g><path d="m256 0c-124.072 0-225 101.928-225 226 0 103.975 72.349 196.044 172.91 219.906l39.609 59.414c2.783 4.175 7.471 6.68 12.48 6.68s9.697-2.505 12.48-6.68l39.609-59.414c100.563-23.862 172.912-115.931 172.912-219.906 0-124.072-100.928-226-225-226z" fill="#f3f5f9"/><path d="m308.09 445.906c100.561-23.862 172.91-115.931 172.91-219.906 0-124.072-100.928-226-225-226v512c5.01 0 9.697-2.505 12.48-6.68z" fill="#e1e6f0"/><path d="m256 30c-107.52 0-195 88.48-195 196 0 91.919 65.229 173.207 155.098 191.884 3.867.806 7.251 3.091 9.434 6.372l30.468 45.703 30.469-45.703c2.183-3.281 5.566-5.566 9.434-6.372 89.868-18.677 155.097-99.965 155.097-191.884 0-107.52-87.48-196-195-196z" fill="#ff7f40"/><path d="m295.902 417.884c89.869-18.677 155.098-99.965 155.098-191.884 0-107.52-87.48-196-195-196v439.959l30.469-45.703c2.182-3.281 5.566-5.567 9.433-6.372z" fill="#f25a3c"/><path d="m412.929 175.023c-1.626-5.01-5.771-8.804-10.898-9.99l-87.158-20.068-46.012-77.685c-2.71-4.512-7.786-6.768-12.861-6.768s-10.151 2.256-12.861 6.768l-46.011 77.685-87.158 20.068c-5.127 1.187-9.272 4.98-10.898 9.99s-.513 10.503 2.959 14.473l58.711 67.456-7.852 89.077c-.469 5.244 1.86 10.356 6.123 13.447 4.263 3.12 9.858 3.75 14.692 1.67l82.295-34.98 82.295 34.98c4.885 2.082 10.468 1.415 14.692-1.67 4.263-3.091 6.592-8.203 6.123-13.447l-7.852-89.077 58.711-67.456c3.472-3.97 4.586-9.463 2.96-14.473z" fill="#ffdf40"/><path d="m352.987 359.477c4.263-3.091 6.592-8.203 6.123-13.447l-7.852-89.077 58.711-67.456c3.472-3.97 4.585-9.463 2.959-14.473s-5.771-8.804-10.898-9.99l-87.158-20.068-46.011-77.686c-2.71-4.512-7.786-6.768-12.861-6.768v265.653l82.295 34.98c4.885 2.083 10.468 1.417 14.692-1.668z" fill="#ffbe40"/></g></svg>