<svg id="Capa_1" enable-background="new 0 0 512 512" height="512" viewBox="0 0 512 512" width="512" xmlns="http://www.w3.org/2000/svg"><g><path d="m256 0c-124.072 0-225 101.928-225 226 0 103.975 72.349 196.044 172.91 219.906l39.609 59.414c2.783 4.175 7.471 6.68 12.48 6.68s9.697-2.505 12.48-6.68l39.609-59.414c100.563-23.862 172.912-115.931 172.912-219.906 0-124.072-100.928-226-225-226z" fill="#f3f5f9"/><path d="m308.09 445.906c100.561-23.862 172.91-115.931 172.91-219.906 0-124.072-100.928-226-225-226v512c5.01 0 9.697-2.505 12.48-6.68z" fill="#e1e6f0"/><path d="m256 30c-107.52 0-195 88.48-195 196 0 91.919 65.229 173.207 155.098 191.884 3.867.806 7.251 3.091 9.434 6.372l30.468 45.703 30.469-45.703c2.183-3.281 5.566-5.566 9.434-6.372 89.868-18.677 155.097-99.965 155.097-191.884 0-107.52-87.48-196-195-196z" fill="#ff7f40"/><path d="m295.902 417.884c89.869-18.677 155.098-99.965 155.098-191.884 0-107.52-87.48-196-195-196v439.959l30.469-45.703c2.182-3.281 5.566-5.567 9.433-6.372z" fill="#f25a3c"/><path d="m331 121c-31.274 0-58.857 16.025-75 40.298-16.143-24.273-43.726-40.298-75-40.298-49.629 0-90 40.371-90 90 0 113.848 152.915 176.323 159.434 178.931 1.787.717 3.676 1.069 5.566 1.069s3.779-.352 5.566-1.069c6.519-2.608 159.434-65.083 159.434-178.931 0-49.629-40.371-90-90-90z" fill="#ffbfff"/><path d="m421 211c0-49.629-40.371-90-90-90-31.274 0-58.857 16.025-75 40.298v229.702c1.89 0 3.779-.352 5.566-1.069 6.519-2.608 159.434-65.083 159.434-178.931z" fill="#ff8fb8"/></g></svg>