<svg id="Capa_1" enable-background="new 0 0 512 512" height="512" viewBox="0 0 512 512" width="512" xmlns="http://www.w3.org/2000/svg"><g><path d="m421 60h-20.728l-25.854-51.709c-2.549-5.083-7.734-8.291-13.418-8.291h-105-105c-5.684 0-10.869 3.208-13.418 8.291l-25.854 51.709h-20.728c-8.291 0-15 6.709-15 15v60c0 8.291 6.709 15 15 15h16.207l28.852 348.245c.644 7.778 7.133 13.755 14.941 13.755h105 105c7.808 0 14.297-5.977 14.941-13.755l28.851-348.245h16.208c8.291 0 15-6.709 15-15v-60c0-8.291-6.709-15-15-15z" fill="#f3f5f9"/><path d="m375.941 498.245 28.851-348.245h16.208c8.291 0 15-6.709 15-15v-60c0-8.291-6.709-15-15-15h-20.728l-25.854-51.709c-2.549-5.083-7.734-8.291-13.418-8.291h-105v512h105c7.808 0 14.297-5.977 14.941-13.755z" fill="#e1e6f0"/><path d="m332.736 196h-76.736-75.315l-37.132 30 14.996 180 37.055 15h60.396 63.948l33.501-15 14.994-180z" fill="#ffbe40"/><path d="m353.449 406 14.994-180-35.707-30h-76.736v225h63.948z" fill="#ff9f40"/><g fill="#a65342"><path d="m158.549 406 6.25 76h91.201 91.201l6.248-76h-97.449z"/><path d="m256 114h-121.696l9.249 112h112.447 112.443l9.247-112z"/><ellipse cx="256" cy="316" rx="60" ry="45"/></g><path d="m353.449 406h-97.449v76h91.201z" fill="#803b2d"/><path d="m377.69 114h-121.69v112h112.443z" fill="#803b2d"/><path d="m316 316c0-25.239-26.353-45-60-45v90c33.647 0 60-19.761 60-45z" fill="#803b2d"/><path d="m391 90c-5.684 0-10.869-3.208-13.418-8.291l-25.854-51.709h-95.728-95.728l-25.854 51.709c-2.549 5.083-7.734 8.291-13.418 8.291h-15v30h150 150v-30z" fill="#4d3535"/><path d="m406 90h-15c-5.684 0-10.869-3.208-13.418-8.291l-25.854-51.709h-95.728v90h150z" fill="#331e1e"/></g></svg>