<svg id="Capa_1" enable-background="new 0 0 512 512" height="512" viewBox="0 0 512 512" width="512" xmlns="http://www.w3.org/2000/svg"><g><path d="m502.742 197.143c-5.596-2.344-12.041-1.055-16.348 3.252-23.716 23.716-37.837 28.696-45.498 28.696-13.052 0-24.214-15.615-37.134-33.706-18.896-26.455-43.421-59.385-87.762-59.385-13.726 0-34.219 4.995-50.596 19.043-2.681 2.3-6.042 3.45-9.404 3.45s-6.724-1.15-9.404-3.45c-16.377-14.048-36.87-19.043-50.596-19.043-44.341 0-67.866 32.93-86.763 59.385-12.935 18.091-25.082 33.706-38.148 33.706-7.661 0-21.768-4.98-45.483-28.696-4.277-4.307-10.708-5.581-16.348-3.252-5.611 2.314-9.258 7.793-9.258 13.857 0 98.701 86.313 165 166 165 35.83 0 63.208-8.188 90-46.465 26.792 38.277 54.17 46.465 90 46.465 79.688 0 166-66.299 166-165 0-6.064-3.647-11.543-9.258-13.857z" fill="#f3f5f9"/><path d="m346 376c79.688 0 166-66.299 166-165 0-6.064-3.647-11.543-9.258-13.857-5.596-2.344-12.041-1.055-16.348 3.252-23.716 23.716-37.837 28.696-45.498 28.696-13.052 0-24.214-15.615-37.134-33.706-18.896-26.455-43.421-59.385-87.762-59.385-13.726 0-34.219 4.995-50.596 19.043-2.681 2.3-6.042 3.45-9.404 3.45v171.042c26.792 38.277 54.17 46.465 90 46.465z" fill="#e1e6f0"/><path d="m440.896 259.091c-28.491 0-45.293-23.525-61.538-46.26-17.197-24.082-34.457-46.831-63.358-46.831-6.416 0-20.186 2.49-31.055 11.807-8.394 7.192-18.669 10.789-28.945 10.789s-20.552-3.596-28.945-10.789c-9.449-8.116-22.72-11.807-31.055-11.807-28.901 0-45.161 22.749-62.358 46.816-16.245 22.749-34.062 46.274-62.553 46.274-11.514 0-23.452-3.984-36.416-12.275 17.681 64.937 82.958 99.185 131.327 99.185 33.267 0 52.251-7.544 76.86-52.236 2.637-4.79 7.676-7.764 13.14-7.764s10.503 2.974 13.14 7.764c24.609 44.692 43.593 52.236 76.86 52.236 48.369 0 113.646-34.248 131.327-99.185-12.964 8.291-24.902 12.276-36.431 12.276z" fill="#a65342"/><path d="m269.14 293.764c24.609 44.692 43.593 52.236 76.86 52.236 48.369 0 113.646-34.248 131.327-99.185-12.964 8.291-24.902 12.275-36.431 12.275-28.491 0-45.293-23.525-61.538-46.26-17.197-24.081-34.457-46.83-63.358-46.83-6.416 0-20.186 2.49-31.055 11.807-8.394 7.192-18.669 10.789-28.945 10.789v97.404c5.464 0 10.503 2.974 13.14 7.764z" fill="#803b2d"/></g></svg>