<svg id="Capa_1" enable-background="new 0 0 512 512" height="512" viewBox="0 0 512 512" width="512" xmlns="http://www.w3.org/2000/svg"><g><path d="m467 211c-19.53 0-36.024 12.578-42.237 30h-42.552l4.395-4.395c5.859-5.859 5.859-15.352 0-21.211s-15.352-5.859-21.211 0l-21.302 21.302-15.905-10.609 5.262-26.342 55.759-55.745h36.213c8.291 0 15-6.709 15-15s-6.709-15-15-15h-27.422v-27.422c0-8.291-6.709-15-15-15s-15 6.709-15 15v36.209l-55.759 55.746-26.343 5.264-10.596-15.888 21.304-21.304c5.859-5.859 5.859-15.352 0-21.211s-15.352-5.859-21.211 0l-4.395 4.395v-41.552c17.422-6.213 30-22.707 30-42.237 0-24.814-20.186-46-45-46s-45 21.186-45 46c0 19.53 12.578 36.024 30 42.237v41.552l-4.395-4.395c-5.859-5.859-15.352-5.859-21.211 0s-5.859 15.352 0 21.211l21.304 21.304-10.596 15.888-26.358-5.264-55.744-55.744v-36.211c0-8.291-6.709-15-15-15s-15 6.709-15 15v27.422h-27.422c-8.291 0-15 6.709-15 15s6.709 15 15 15h36.211l55.745 55.745 5.264 26.358-15.888 10.596-21.304-21.304c-5.859-5.859-15.352-5.859-21.211 0s-5.859 15.352 0 21.211l4.395 4.395h-42.553c-6.213-17.423-22.707-30.001-42.237-30.001-24.814 0-45 20.186-45 45s20.186 45 45 45c19.53 0 36.024-12.578 42.237-30h42.552l-4.395 4.395c-5.859 5.859-5.859 15.352 0 21.211s15.352 5.859 21.211 0l21.304-21.304 15.888 10.596-5.264 26.343-55.746 55.759h-36.209c-8.291 0-15 6.709-15 15s6.709 15 15 15h27.422v27.422c0 8.291 6.709 15 15 15s15-6.709 15-15v-36.213l55.746-55.759 26.342-5.262 10.609 15.905-21.302 21.302c-5.859 5.859-5.859 15.352 0 21.211s15.352 5.859 21.211 0l4.395-4.395v42.552c-17.422 6.213-30 22.707-30 42.237 0 24.814 20.186 45 45 45s45-20.186 45-45c0-19.53-12.578-36.024-30-42.237v-42.552l4.395 4.395c5.859 5.859 15.352 5.859 21.211 0s5.859-15.352 0-21.211l-21.302-21.302 10.609-15.905 26.327 5.262 55.759 55.761v36.211c0 8.291 6.709 15 15 15s15-6.709 15-15v-27.422h27.422c8.291 0 15-6.709 15-15s-6.709-15-15-15h-36.211l-55.761-55.761-5.262-26.327 15.905-10.609 21.302 21.302c5.859 5.859 15.352 5.859 21.211 0s5.859-15.352 0-21.211l-4.395-4.394h42.552c6.213 17.422 22.707 30 42.237 30 24.814 0 45-20.186 45-45s-20.186-45-45-45z" fill="#f3f5f9"/><path d="m301 467c0-19.53-12.578-36.024-30-42.237v-42.552l4.395 4.395c5.859 5.859 15.352 5.859 21.211 0s5.859-15.352 0-21.211l-21.302-21.302 10.609-15.905 26.327 5.262 55.76 55.761v36.211c0 8.291 6.709 15 15 15s15-6.709 15-15v-27.422h27.422c8.291 0 15-6.709 15-15s-6.709-15-15-15h-36.211l-55.761-55.761-5.262-26.327 15.905-10.609 21.302 21.302c5.859 5.859 15.352 5.859 21.211 0s5.859-15.352 0-21.211l-4.395-4.394h42.552c6.213 17.422 22.707 30 42.237 30 24.814 0 45-20.186 45-45s-20.186-45-45-45c-19.53 0-36.024 12.578-42.237 30h-42.552l4.395-4.395c5.859-5.859 5.859-15.352 0-21.211s-15.352-5.859-21.211 0l-21.302 21.302-15.905-10.609 5.262-26.342 55.759-55.745h36.213c8.291 0 15-6.709 15-15s-6.709-15-15-15h-27.422v-27.422c0-8.291-6.709-15-15-15s-15 6.709-15 15v36.209l-55.759 55.746-26.343 5.264-10.596-15.888 21.304-21.304c5.859-5.859 5.859-15.352 0-21.211s-15.352-5.859-21.211 0l-4.395 4.395v-41.552c17.422-6.213 30-22.707 30-42.237 0-24.814-20.186-46-45-46v512c24.814 0 45-20.186 45-45z" fill="#e1e6f0"/></g></svg>