<svg id="Capa_1" enable-background="new 0 0 512 512" height="512" viewBox="0 0 512 512" width="512" xmlns="http://www.w3.org/2000/svg"><g><path d="m436 91c-24.814 0-45 20.186-45 45v271c0 1.611.264 3.208.776 4.746l30 90c2.037 6.123 7.764 10.254 14.224 10.254s12.188-4.131 14.224-10.254l30-90c.513-1.538.776-3.135.776-4.746v-271c0-24.814-20.186-45-45-45z" fill="#f3f5f9"/><path d="m450.224 501.746 30-90c.513-1.538.776-3.135.776-4.746v-271c0-24.814-20.186-45-45-45v421c6.46 0 12.188-4.131 14.224-10.254z" fill="#e1e6f0"/><g><path d="m361 45v452c0 8.399-6.599 15-15 15h-300c-8.401 0-15-6.601-15-15v-452c0-8.401 6.599-15 15-15h300c8.401 0 15 6.599 15 15z" fill="#f3f5f9"/></g><path d="m361 45v452c0 8.399-6.599 15-15 15h-150v-482h150c8.401 0 15 6.599 15 15z" fill="#e1e6f0"/><g><path d="m331 151v331h-270v-331l30-30h215.4z" fill="#6cf"/></g><path d="m331 151v331h-135v-361h110.4z" fill="#59abff"/><path d="m61 60h270v91h-270z" fill="#4d3535"/><path d="m196 60h135v91h-135z" fill="#331e1e"/><g><path d="m301 227c0 8.399-6.599 15-15 15h-120c-8.401 0-15-6.601-15-15 0-8.401 6.599-15 15-15h120c8.401 0 15 6.599 15 15z" fill="#f3f5f9"/></g><g><path d="m301 287c0 8.399-6.599 15-15 15h-180c-8.401 0-15-6.601-15-15 0-8.401 6.599-15 15-15h180c8.401 0 15 6.599 15 15z" fill="#f3f5f9"/></g><g><path d="m301 347c0 8.399-6.599 15-15 15h-180c-8.401 0-15-6.601-15-15 0-8.401 6.599-15 15-15h180c8.401 0 15 6.599 15 15z" fill="#f3f5f9"/></g><g><path d="m241 407c0 8.399-6.599 15-15 15h-120c-8.401 0-15-6.601-15-15 0-8.401 6.599-15 15-15h120c8.401 0 15 6.599 15 15z" fill="#f3f5f9"/></g><path d="m106 90c-8.284 0-15-6.716-15-15v-60c0-8.284 6.716-15 15-15 8.284 0 15 6.716 15 15v60c0 8.284-6.716 15-15 15z" fill="#f3f5f9"/><path d="m166 90c-8.284 0-15-6.716-15-15v-60c0-8.284 6.716-15 15-15 8.284 0 15 6.716 15 15v60c0 8.284-6.716 15-15 15z" fill="#f3f5f9"/><g fill="#e1e6f0"><path d="m226 90c-8.284 0-15-6.716-15-15v-60c0-8.284 6.716-15 15-15 8.284 0 15 6.716 15 15v60c0 8.284-6.716 15-15 15z"/><path d="m286 90c-8.284 0-15-6.716-15-15v-60c0-8.284 6.716-15 15-15 8.284 0 15 6.716 15 15v60c0 8.284-6.716 15-15 15z"/><path d="m241 407c0 8.399-6.599 15-15 15h-30v-30h30c8.401 0 15 6.599 15 15z"/><path d="m301 347c0 8.399-6.599 15-15 15h-90v-30h90c8.401 0 15 6.599 15 15z"/><path d="m301 287c0 8.399-6.599 15-15 15h-90v-30h90c8.401 0 15 6.599 15 15z"/><path d="m301 227c0 8.399-6.599 15-15 15h-90v-30h90c8.401 0 15 6.599 15 15z"/></g><path d="m436 121c-8.276 0-15 6.724-15 15v45l15 31 15-31v-45c0-8.276-6.724-15-15-15z" fill="#ff7f40"/><path d="m451 136c0-8.276-6.724-15-15-15v91l15-31z" fill="#f25a3c"/><path d="m436 181h-15v226l15 15 15-15v-226z" fill="#ffdf40"/><path d="m451 181h-15v241l15-15z" fill="#ffbe40"/><path d="m436 407h-15l15 42.568 15-42.568z" fill="#ffd9b3"/><path d="m436 407v42.568l15-42.568z" fill="#fb9"/></g></svg>