<svg id="Capa_1" enable-background="new 0 0 511.971 511.971" height="512" viewBox="0 0 511.971 511.971" width="512" xmlns="http://www.w3.org/2000/svg"><g><path d="m511.971 256c0-4.014-1.611-7.881-4.468-10.693-3.001-1.879-42.404-44.562-113.628-46.421 49.087-51.709 46.124-109.587 46.813-112.588-.029-8.247-6.753-14.971-15-15-2.999.688-60.829-2.318-112.592 46.818-1.853-71.168-44.539-110.83-46.417-113.831-2.813-2.857-6.753-4.285-10.694-4.285s-7.881 1.428-10.693 4.285c-1.879 2.999-44.573 42.594-46.425 113.82-51.707-49.089-109.583-46.119-112.584-46.807-8.247.029-14.971 6.753-15 15 .688 2.999-2.318 60.829 46.818 112.592-71.167 1.849-110.632 44.538-113.633 46.417-2.857 2.812-4.468 6.679-4.468 10.693s1.611 7.881 4.468 10.693c3.001 1.862 42.071 44.372 113.941 46.13-49.482 51.867-46.434 109.876-47.126 112.879.029 8.247 6.753 14.971 15 15 3.001-.69 60.85 2.298 112.592-46.815 1.853 71.166 44.539 110.629 46.417 113.63 2.813 2.856 6.68 4.453 10.693 4.453s7.881-1.597 10.693-4.453c1.879-3.001 44.564-42.455 46.419-113.626 51.711 49.083 109.589 46.121 112.59 46.811 8.247-.029 14.971-6.753 15-15-.692-3.001 2.347-61.02-47.131-112.881 71.863-1.763 110.946-44.266 113.947-46.128 2.856-2.812 4.468-6.679 4.468-10.693z" fill="#f3f5f9"/><path d="m313.098 393.891c51.711 49.083 109.589 46.121 112.59 46.811 8.247-.029 14.971-6.753 15-15-.692-3.001 2.347-61.02-47.131-112.881 71.863-1.763 110.946-44.266 113.947-46.128 2.856-2.813 4.468-6.68 4.468-10.693s-1.611-7.881-4.468-10.693c-3.001-1.879-42.404-44.562-113.628-46.421 49.087-51.709 46.124-109.587 46.813-112.588-.029-8.247-6.753-14.971-15-15-2.999.688-60.829-2.318-112.592 46.818-1.853-71.168-44.539-110.83-46.417-113.831-2.814-2.857-6.754-4.285-10.695-4.285v511.971c4.014 0 7.881-1.597 10.693-4.453 1.879-3.002 44.565-42.455 46.42-113.627z" fill="#e1e6f0"/><path d="m409.237 102.982c-7.222 47.959-39.873 89.824-86.133 108.984l-39.404 16.319 16.318-39.404c18.912-45.645 59.913-78.047 109.219-85.899z" fill="#f25a3c"/><g fill="#ff7f40"><path d="m102.968 102.748c47.959 7.222 89.824 39.873 108.984 86.133l16.318 39.404-39.404-16.318c-45.644-18.911-78.047-59.912-85.898-109.219z"/><path d="m38.188 256c39.053-28.975 92.831-35.552 139.193-16.318l39.414 16.318-39.413 16.318c-46.333 19.161-100.155 12.627-139.194-16.318z"/><path d="m102.733 409.018c7.207-47.959 39.873-89.824 86.133-108.984l39.404-16.318-16.318 39.404c-18.911 45.629-59.912 78.031-109.219 85.898z"/></g><path d="m409.003 409.252c-47.959-7.222-89.824-39.873-108.984-86.133l-16.319-39.404 39.404 16.318c45.645 18.911 78.047 59.912 85.899 109.219z" fill="#f25a3c"/><path d="m334.589 272.318-39.399-16.318 39.399-16.318c46.348-19.219 100.17-12.627 139.179 16.318-39.024 28.945-92.846 35.537-139.179 16.318z" fill="#f25a3c"/><g fill="#ff7f40"><path d="m255.985 216.79 16.318-39.393c19.189-46.333 12.627-100.141-16.318-139.193-28.945 39.023-35.522 92.831-16.318 139.193z"/><path d="m255.987 295.197-.002.004-16.318 39.402c-19.189 46.333-12.627 100.126 16.318 139.179 28.945-39.053 35.508-92.846 16.318-139.179z"/></g><path d="m255.985 38.203v178.587l16.318-39.393c19.19-46.334 12.628-100.141-16.318-139.194z" fill="#f25a3c"/><path d="m272.304 334.604-16.317-39.406-.002.004v178.581c28.946-39.054 35.508-92.846 16.319-139.179z" fill="#f25a3c"/><circle cx="255.985" cy="256" fill="#ffdf40" r="45"/><path d="m300.985 256c0-24.814-20.186-45-45-45v90c24.815 0 45-20.186 45-45z" fill="#ffbe40"/></g></svg>