<svg id="Capa_1" enable-background="new 0 0 512 512" height="512" viewBox="0 0 512 512" width="512" xmlns="http://www.w3.org/2000/svg"><g><path d="m256 0c-107.52 0-195 88.48-195 196 0 124.775 176.865 304.076 184.395 311.605 2.812 2.813 6.621 4.395 10.605 4.395s7.793-1.582 10.605-4.395c7.53-7.529 184.395-186.83 184.395-311.605 0-107.52-87.48-196-195-196z" fill="#f3f5f9"/><path d="m451 196c0-107.52-87.48-196-195-196v512c3.984 0 7.793-1.582 10.605-4.395 7.53-7.529 184.395-186.83 184.395-311.605z" fill="#e1e6f0"/><path d="m256 30c-90.981 0-165 75.019-165 166 0 96.05 126.987 239.022 165 279.364 38.013-40.342 165-183.314 165-279.364 0-90.981-74.019-166-165-166z" fill="#ff7f40"/><path d="m256 30v445.364c38.013-40.342 165-183.314 165-279.364 0-90.981-74.019-166-165-166z" fill="#f25a3c"/><path d="m301 121c-17.9 0-33.999 7.881-45 20.361-11.001-12.48-27.1-20.361-45-20.361-33.091 0-60 26.909-60 60 0 84.829 96.167 117.861 100.254 119.224 1.538.513 3.149.776 4.746.776s3.208-.264 4.746-.776c4.087-1.363 100.254-34.395 100.254-119.224 0-33.091-26.909-60-60-60z" fill="#ffbfff"/><path d="m361 181c0-33.091-26.909-60-60-60-17.9 0-33.999 7.881-45 20.361v159.639c1.597 0 3.208-.264 4.746-.776 4.087-1.363 100.254-34.395 100.254-119.224z" fill="#ff8fb8"/></g></svg>