<svg id="Capa_1" enable-background="new 0 0 512 512" height="512" viewBox="0 0 512 512" width="512" xmlns="http://www.w3.org/2000/svg"><g><path d="m256 0c-107.52 0-195 88.48-195 196 0 124.775 176.865 304.076 184.395 311.605 2.812 2.813 6.621 4.395 10.605 4.395s7.793-1.582 10.605-4.395c7.53-7.529 184.395-186.83 184.395-311.605 0-107.52-87.48-196-195-196z" fill="#f3f5f9"/><path d="m451 196c0-107.52-87.48-196-195-196v512c3.984 0 7.793-1.582 10.605-4.395 7.53-7.529 184.395-186.83 184.395-311.605z" fill="#e1e6f0"/><path d="m256 30c-90.981 0-165 75.019-165 166 0 96.05 126.987 239.022 165 279.364 38.013-40.342 165-183.314 165-279.364 0-90.981-74.019-166-165-166z" fill="#ff7f40"/><path d="m256 30v445.364c38.013-40.342 165-183.314 165-279.364 0-90.981-74.019-166-165-166z" fill="#f25a3c"/><path d="m355.858 163.539c-1.553-4.761-5.391-8.438-10.21-9.8l-48.955-13.74-28.213-42.319c-2.783-4.175-7.632-6.262-12.48-6.262s-9.697 2.087-12.48 6.262l-28.213 42.319-48.955 13.74c-4.819 1.362-8.657 5.039-10.21 9.8-1.553 4.775-.615 10.005 2.49 13.945l31.538 39.902-2.051 50.83c-.205 5.01 2.109 9.785 6.167 12.744 4.072 2.93 9.316 3.647 14.033 1.919l47.681-17.65 47.681 17.651c4.737 1.756 9.966 1.005 14.033-1.919 4.058-2.959 6.372-7.734 6.167-12.744l-2.051-50.83 31.538-39.902c3.106-3.941 4.043-9.171 2.49-13.946z" fill="#ffdf40"/><path d="m317.714 280.961c4.058-2.959 6.372-7.734 6.167-12.744l-2.051-50.83 31.538-39.902c3.105-3.94 4.043-9.17 2.49-13.945-1.553-4.761-5.391-8.438-10.21-9.8l-48.955-13.74-28.213-42.32c-2.783-4.175-7.632-6.262-12.48-6.262v173.811l47.681 17.651c4.737 1.756 9.966 1.005 14.033-1.919z" fill="#ffbe40"/></g></svg>