<svg id="Capa_1" enable-background="new 0 0 512 512" height="512" viewBox="0 0 512 512" width="512" xmlns="http://www.w3.org/2000/svg"><g><path d="m419.491 151.015c-6.167-30.205-30.703-53.848-62.446-58.872-11.884-47.839-52.518-84.573-101.045-90.843-4.951-.639-9.904-1.3-15-1.3-54.917 0-102.305 38.837-115.737 91.117-1.407-.073-2.827-.117-4.263-.117-66.167 0-121 53.833-121 120s54.833 120 121 120h135 165c49.629 0 91-40.371 91-90 0-50.127-41.913-90.908-92.509-89.985z" fill="#f3f5f9"/><path d="m512 241c0-50.127-41.913-90.908-92.509-89.985-6.167-30.205-30.703-53.848-62.446-58.872-11.884-47.839-52.518-84.573-101.045-90.843v329.7h165c49.629 0 91-40.371 91-90z" fill="#e1e6f0"/><g><path d="m136 481c-24.814 0-45-20.186-45-45 0-19.175 22.837-54.302 32.651-68.525 5.625-8.115 19.072-8.115 24.697 0 9.815 14.223 32.652 49.35 32.652 68.525 0 24.814-20.186 45-45 45z" fill="#6cf"/></g><g><path d="m376 481c-24.814 0-45-20.186-45-45 0-19.175 22.837-54.302 32.651-68.525 5.625-8.115 19.072-8.115 24.697 0 9.815 14.223 32.652 49.35 32.652 68.525 0 24.814-20.186 45-45 45z" fill="#59abff"/></g><path d="m268.349 397.475c-2.813-4.058-7.581-6.086-12.349-6.086s-9.536 2.029-12.349 6.086c-9.814 14.223-32.651 49.35-32.651 68.525 0 24.814 20.186 46 45 46s45-21.186 45-46c0-19.175-22.837-54.302-32.651-68.525z" fill="#6cf"/><path d="m301 466c0-19.175-22.837-54.302-32.651-68.525-2.813-4.058-7.581-6.086-12.349-6.086v120.611c24.814 0 45-21.186 45-46z" fill="#59abff"/></g></svg>