<svg id="Capa_1" enable-background="new 0 0 512.001 512.001" height="512" viewBox="0 0 512.001 512.001" width="512" xmlns="http://www.w3.org/2000/svg"><g><path d="m419.492 151.015c-6.167-30.205-30.703-53.848-62.446-58.872-11.884-47.839-52.519-84.573-101.046-90.843-4.951-.639-9.904-1.3-15-1.3-54.917 0-102.305 38.837-115.737 91.117-1.406-.073-2.827-.117-4.263-.117-66.166 0-121 53.833-121 120s54.833 120 121 120h135 165c49.629 0 91-40.371 91-90 0-50.127-41.913-90.908-92.508-89.985z" fill="#f3f5f9"/><path d="m512 241c0-50.127-41.913-90.908-92.509-89.985-6.167-30.205-30.703-53.848-62.446-58.872-11.883-47.839-52.518-84.573-101.045-90.843v329.7h165c49.629 0 91-40.371 91-90z" fill="#e1e6f0"/><g><path d="m341.65 511.355c-6.328-1.918-10.65-7.749-10.65-14.355v-51.728l-51.709-25.854c-8.056-4.013-10.782-14.238-5.771-21.738l60-90c3.662-5.508 10.532-7.939 16.831-6.035 6.328 1.918 10.649 7.749 10.649 14.355v50.728l51.709 25.854c8.056 4.013 10.782 14.238 5.771 21.738l-60 91c-3.748 5.634-10.698 7.913-16.83 6.035z" fill="#ffbe40"/></g><g><path d="m161.65 511.355c-6.328-1.919-10.649-7.749-10.649-14.355v-51.728l-51.709-25.854c-8.056-4.013-10.782-14.238-5.771-21.738l60-90c3.662-5.508 10.503-7.939 16.831-6.035 6.328 1.919 10.649 7.749 10.649 14.355v50.728l51.709 25.854c8.056 4.013 10.782 14.238 5.771 21.738l-60 91c-3.749 5.634-10.699 7.913-16.831 6.035z" fill="#ffdf40"/></g></g></svg>