<svg id="Capa_1" enable-background="new 0 0 512 512" height="512" viewBox="0 0 512 512" width="512" xmlns="http://www.w3.org/2000/svg"><g><path d="m376 46c-52.178 0-97.529 29.751-120 73.184-22.471-43.433-67.822-73.184-120-73.184-74.443 0-136 60.557-136 135 0 158.569 240.531 280.225 250.727 284.048 1.699.63 3.486.952 5.273.952s3.574-.322 5.273-.952c10.196-3.823 250.727-125.479 250.727-284.048 0-74.443-61.557-135-136-135z" fill="#f3f5f9"/><path d="m512 181c0-74.443-61.557-135-136-135-52.178 0-97.529 29.751-120 73.184v346.816c1.787 0 3.574-.322 5.273-.952 10.196-3.823 250.727-125.479 250.727-284.048z" fill="#e1e6f0"/><path d="m40.532 136 41.889 15h107.579l40.468-15c-16.921-35.345-52.742-60-94.468-60s-78.547 24.655-95.468 60z" fill="#ff7f40"/><path d="m281.532 136 36.836 15h115.579l37.521-15c-16.921-35.345-53.742-60-95.468-60s-77.547 24.655-94.468 60z" fill="#f25a3c"/><path d="m241 181c0-16.165-3.977-31.307-10.532-45h-189.936c-6.555 13.693-10.532 28.835-10.532 45 0 5.035.789 10.01 1.373 15l34.706 15h135.29l54.631-15c-8.291 0-15-6.709-15-15z" fill="#ff9f40"/><path d="m271 181c0 8.291-6.709 15-15 15l41.526 15h154.474l28.625-15c.586-4.99 1.375-9.965 1.375-15 0-16.165-3.977-31.307-10.532-45h-189.936c-6.555 13.693-10.532 28.835-10.532 45z" fill="#ff7f40"/><path d="m256 196h-224.627c2.413 20.574 9.391 40.682 19.828 60l44.724 15h160.075 159.985l44.771-15c10.455-19.321 17.452-39.432 19.869-60z" fill="#ffdf40"/><path d="m460.756 256c10.455-19.321 17.452-39.432 19.869-60h-224.625v75h159.985z" fill="#ffbe40"/><path d="m256 256h-204.798c11.428 21.154 27.55 41.325 44.724 60l47.574 15h112.5 120l39.985-15c17.188-18.68 33.327-38.849 44.771-60z" fill="#a0e65c"/><path d="m415.985 316c17.188-18.68 33.327-38.849 44.771-60h-204.756v75h120z" fill="#79cc52"/><path d="m256 316h-160.074c20.689 22.502 43.954 42.728 66.489 60l55.532 15h38.053 38.685l54.807-15c22.531-17.276 45.797-37.505 66.493-60z" fill="#6cf"/><path d="m349.492 376c22.531-17.276 45.797-37.505 66.493-60h-159.985v75h38.685z" fill="#59abff"/><path d="m256 376h-93.585c41.351 31.692 79.88 53.262 93.585 58.857 13.685-5.603 52.17-27.178 93.492-58.857z" fill="#ffbfff"/><path d="m256 376v58.857c13.685-5.603 52.17-27.178 93.492-58.857z" fill="#ff8fb8"/></g></svg>