<svg id="Capa_1" enable-background="new 0 0 512 512" height="512" viewBox="0 0 512 512" width="512" xmlns="http://www.w3.org/2000/svg"><g><circle cx="256" cy="256" fill="#f3f5f9" r="256"/><path d="m512 256c0-140.61-115.39-256-256-256v512c140.61 0 256-115.39 256-256z" fill="#e1e6f0"/><path d="m160.584 351.416-32.864 1.864-31.747 62.747c40.741 40.741 97.991 65.973 160.027 65.973l30-45-30-45c-37.222 0-70.972-16.139-95.416-40.584z" fill="#4d3535"/><path d="m160.584 351.416c-24.445-24.444-40.584-58.194-40.584-95.416l-45.001-30-44.999 30c0 62.036 25.232 119.286 65.973 160.027z" fill="#ff7f40"/><path d="m160.584 160.584-32.974-62.974-31.637-1.637c-40.741 40.741-65.973 97.991-65.973 160.027h90c0-37.222 16.139-70.972 40.584-95.416z" fill="#4d3535"/><path d="m256 392v90c62.036 0 119.286-25.232 160.027-65.973l-24.185-54.185-40.426-10.426c-24.444 24.445-58.194 40.584-95.416 40.584z" fill="#f25a3c"/><path d="m392 256c0 37.222-16.139 70.972-40.584 95.416l64.611 64.611c40.741-40.741 65.973-97.991 65.973-160.027l-45.001-30z" fill="#331e1e"/><path d="m392 256h90c0-62.036-25.232-119.286-65.973-160.027l-39.026 9.026-25.585 55.585c24.445 24.444 40.584 58.194 40.584 95.416z" fill="#f25a3c"/><path d="m416.027 95.973c-40.741-40.741-97.991-65.973-160.027-65.973l-30 44.998 30 45.002c37.222 0 70.972 16.139 95.416 40.584z" fill="#331e1e"/><path d="m256 120v-90c-62.036 0-119.286 25.232-160.027 65.973l64.611 64.611c24.444-24.445 58.194-40.584 95.416-40.584z" fill="#ff7f40"/><circle cx="256" cy="256" fill="#e1e6f0" r="166"/><path d="m422 256c0-90.981-75.019-166-166-166v332c90.981 0 166-75.019 166-166z" fill="#cfd7e6"/><path d="m301 166c-17.9 0-33.999 7.881-45 20.361-11.001-12.48-27.1-20.361-45-20.361-33.091 0-60 26.909-60 60 0 84.829 96.167 117.861 100.254 119.224 1.538.513 3.149.776 4.746.776s3.208-.264 4.746-.776c4.087-1.363 100.254-34.395 100.254-119.224 0-33.091-26.909-60-60-60z" fill="#ffbfff"/><path d="m361 226c0-33.091-26.909-60-60-60-17.9 0-33.999 7.881-45 20.361v159.639c1.597 0 3.208-.264 4.746-.776 4.087-1.363 100.254-34.395 100.254-119.224z" fill="#ff8fb8"/></g></svg>