<svg id="Capa_1" enable-background="new 0 0 512 512" height="512" viewBox="0 0 512 512" width="512" xmlns="http://www.w3.org/2000/svg"><g><circle cx="256" cy="256" fill="#f3f5f9" r="256"/><path d="m512 256c0-140.61-115.39-256-256-256v512c140.61 0 256-115.39 256-256z" fill="#e1e6f0"/><path d="m160.584 351.416-32.864 2.864-31.747 61.747c40.741 40.741 97.991 65.973 160.027 65.973l30-45-30-45c-37.222 0-70.972-16.139-95.416-40.584z" fill="#4d3535"/><path d="m160.584 351.416c-24.445-24.444-40.584-58.194-40.584-95.416l-45.001-30-44.999 30c0 62.036 25.232 119.286 65.973 160.027z" fill="#6cf"/><path d="m160.584 160.584-32.974-62.974-31.637-1.637c-40.741 40.741-65.973 97.991-65.973 160.027h90c0-37.222 16.139-70.972 40.584-95.416z" fill="#4d3535"/><path d="m256 392v90c62.036 0 119.286-25.232 160.027-65.973l-24.185-54.185-40.426-10.426c-24.444 24.445-58.194 40.584-95.416 40.584z" fill="#59abff"/><path d="m392 256c0 37.222-16.139 70.972-40.584 95.416l64.611 64.611c40.741-40.741 65.973-97.991 65.973-160.027l-45.001-30z" fill="#331e1e"/><path d="m392 256h90c0-62.036-25.232-119.286-65.973-160.027l-39.026 9.026-25.585 55.585c24.445 24.444 40.584 58.194 40.584 95.416z" fill="#59abff"/><path d="m416.027 95.973c-40.741-40.741-97.991-65.973-160.027-65.973l-30 44.998 30 45.002c37.222 0 70.972 16.139 95.416 40.584z" fill="#331e1e"/><path d="m256 120v-90c-62.036 0-119.286 25.232-160.027 65.973l64.611 64.611c24.444-24.445 58.194-40.584 95.416-40.584z" fill="#6cf"/><circle cx="256" cy="256" fill="#e1e6f0" r="166"/><path d="m422 256c0-90.981-75.019-166-166-166v332c90.981 0 166-75.019 166-166z" fill="#cfd7e6"/><path d="m355.858 223.539c-1.553-4.761-5.391-8.438-10.21-9.8l-48.955-13.74-28.213-42.319c-2.783-4.175-7.632-6.262-12.48-6.262s-9.697 2.087-12.48 6.262l-28.213 42.319-48.955 13.74c-4.819 1.362-8.657 5.039-10.21 9.8-1.553 4.775-.615 10.005 2.49 13.945l31.538 39.902-2.051 50.83c-.205 5.01 2.109 9.785 6.167 12.744 4.072 2.915 9.316 3.677 14.033 1.919l47.681-17.65 47.681 17.651c4.737 1.756 9.966 1.005 14.033-1.919 4.058-2.959 6.372-7.734 6.167-12.744l-2.051-50.83 31.538-39.902c3.106-3.941 4.043-9.171 2.49-13.946z" fill="#ffdf40"/><path d="m317.714 340.961c4.058-2.959 6.372-7.734 6.167-12.744l-2.051-50.83 31.538-39.902c3.105-3.94 4.043-9.17 2.49-13.945-1.553-4.761-5.391-8.438-10.21-9.8l-48.955-13.74-28.213-42.32c-2.783-4.175-7.632-6.262-12.48-6.262v173.811l47.681 17.651c4.737 1.756 9.966 1.005 14.033-1.919z" fill="#ffbe40"/></g></svg>