<svg id="Capa_1" enable-background="new 0 0 512 512" height="512" viewBox="0 0 512 512" width="512" xmlns="http://www.w3.org/2000/svg"><g><path d="m474.196 234.503c4.237-6.861 6.804-14.862 6.804-23.503 0-115.796-94.204-211-210-211h-15-15c-115.796 0-210 95.204-210 211 0 8.641 2.567 16.642 6.804 23.503-4.233 8.821-6.804 18.576-6.804 28.997 0 13.872 4.224 26.766 11.426 37.5-7.202 10.734-11.426 23.628-11.426 37.5 0 10.421 2.571 20.176 6.804 28.997-4.237 6.861-6.804 14.862-6.804 23.503 0 66.167 53.833 121 120 121h105 105c66.167 0 120-54.833 120-121 0-8.641-2.567-16.642-6.804-23.503 4.233-8.82 6.804-18.576 6.804-28.997 0-13.872-4.224-26.766-11.426-37.5 7.202-10.734 11.426-23.628 11.426-37.5 0-10.421-2.571-20.176-6.804-28.997z" fill="#f3f5f9"/><path d="m481 391c0-8.641-2.567-16.642-6.804-23.503 4.233-8.82 6.804-18.576 6.804-28.997 0-13.872-4.224-26.766-11.426-37.5 7.202-10.734 11.426-23.628 11.426-37.5 0-10.421-2.571-20.176-6.804-28.997 4.237-6.861 6.804-14.862 6.804-23.503 0-115.796-94.204-211-210-211h-15v512h105c66.167 0 120-54.833 120-121z" fill="#e1e6f0"/><path d="m436 376h-22.5l-37.5-15h-120-120l-37.5 15h-22.5c-8.284 0-15 6.714-15 15 0 49.706 40.294 91 90 91h105 105c49.706 0 90-41.294 90-91 0-8.286-6.716-15-15-15z" fill="#ffdf40"/><path d="m451 391c0-8.286-6.716-15-15-15h-22.5l-37.5-15h-120v121h105c49.706 0 90-41.294 90-91z" fill="#ffbe40"/><path d="m413.5 301-19.579-15h-137.921-129.948l-27.552 15c-20.7 0-37.5 16.8-37.5 37.5s16.8 37.5 37.5 37.5h37.5c16.5 0 30 13.5 30 30s13.5 30 30 30 30-13.5 30-30 13.5-30 30-30 30 13.5 30 30 13.5 30 30 30 30-13.5 30-30 13.5-30 30-30h37.5c20.7 0 37.5-16.8 37.5-37.5s-16.8-37.5-37.5-37.5z" fill="#f25a3c"/><path d="m286 406c0 16.5 13.5 30 30 30s30-13.5 30-30 13.5-30 30-30h37.5c20.7 0 37.5-16.8 37.5-37.5s-16.8-37.5-37.5-37.5l-19.579-15h-137.921v90c16.5 0 30 13.5 30 30z" fill="#e63a3a"/><path d="m413.5 226-25.263-15h-132.237-124.973l-32.527 15c-20.7 0-37.5 16.8-37.5 37.5s16.8 37.5 37.5 37.5h37.5c16.5 0 30 13.5 30 30s13.5 30 30 30 30-13.5 30-30 13.5-30 30-30 30 13.5 30 30 13.5 30 30 30 30-13.5 30-30 13.5-30 30-30h37.5c20.7 0 37.5-16.8 37.5-37.5s-16.8-37.5-37.5-37.5z" fill="#a0e65c"/><path d="m286 331c0 16.5 13.5 30 30 30s30-13.5 30-30 13.5-30 30-30h37.5c20.7 0 37.5-16.8 37.5-37.5s-16.8-37.5-37.5-37.5l-25.263-15h-132.237v90c16.5 0 30 13.5 30 30z" fill="#79cc52"/><path d="m271 30h-15-15c-99.412 0-180 81.588-180 181 0 8.284 6.716 15 15 15h180 180c8.284 0 15-6.716 15-15 0-99.412-80.588-181-180-181z" fill="#ffdf40"/><path d="m451 211c0-99.412-80.588-181-180-181h-15v196h180c8.284 0 15-6.716 15-15z" fill="#ffbe40"/><g><circle cx="165.999" cy="150.999" fill="#ffbe40" r="15"/></g><g><circle cx="345.999" cy="150.999" fill="#ff9f40" r="15"/></g><g><circle cx="300.999" cy="90.999" fill="#ff9f40" r="15"/></g><g><circle cx="210.999" cy="90.999" fill="#ffbe40" r="15"/></g><circle cx="256" cy="150.998" fill="#ffbe40" r="15"/><path d="m271 150.998c0-8.284-6.716-15-15-15v30c8.284 0 15-6.716 15-15z" fill="#ff9f40"/></g></svg>