<svg id="Capa_1" enable-background="new 0 0 512 512" height="512" viewBox="0 0 512 512" width="512" xmlns="http://www.w3.org/2000/svg"><g><path d="m468.102 294.145c-30.954-30.969-90.024-51.396-137.701-63.647 47.677-12.25 106.747-33.488 137.701-64.45 23.394-23.394 23.394-61.465 0-84.858-12.202-12.232-28.901-18.648-46.172-17.462 1.051-17.88-5.513-34.239-17.461-46.172-23.423-23.423-61.465-23.394-84.858 0-30.961 30.954-51.383 89.841-63.633 137.518-12.252-47.677-32.679-107.113-63.647-138.067-22.632-22.661-62.153-22.69-84.844 0-11.97 11.953-18.501 28.302-17.461 46.201-16.802-1.128-33.56 4.775-46.187 17.432-23.379 23.394-23.379 61.465 0 84.858 30.961 30.961 90.035 52.749 137.714 64.999-47.679 12.252-106.752 32.679-137.714 63.647-23.379 23.379-23.379 61.436 0 84.844 12.671 12.671 29.546 18.34 46.216 17.432-1.04 16.597 4.775 33.56 17.432 46.216 23.394 23.364 61.45 23.394 84.844 0 20.684-20.678 36.652-53.925 48.647-87.925v81.289c0 16.732 5.7 33.045 15 45.537 13.682 18.378 35.38 30.463 60 30.463 8.291 0 15-6.709 15-15s-6.709-15-15-15c-24.814 0-45-21.186-45-46v-81.279c11.992 33.997 27.957 67.238 48.633 87.914 23.406 23.375 61.448 23.381 84.858 0 12.656-12.656 18.457-29.59 17.432-46.187 17.373 1.143 33.999-5.229 46.201-17.461 23.483-23.482 23.43-61.443 0-84.842z" fill="#f3f5f9"/><path d="m315.978 512c8.291 0 15-6.709 15-15s-6.709-15-15-15c-24.814 0-45-21.186-45-46v-81.279c11.992 33.997 27.957 67.238 48.633 87.914 23.406 23.375 61.448 23.381 84.858 0 12.656-12.656 18.457-29.59 17.432-46.187 17.373 1.143 33.999-5.229 46.201-17.461 23.483-23.483 23.43-61.445 0-84.844-30.954-30.969-90.024-51.396-137.701-63.647 47.677-12.25 106.747-33.488 137.701-64.45 23.394-23.394 23.394-61.465 0-84.858-12.202-12.23-28.901-18.646-46.172-17.46 1.051-17.88-5.513-34.239-17.461-46.172-23.423-23.423-61.465-23.394-84.858 0-30.961 30.954-51.383 89.841-63.633 137.518v326.463c13.682 18.378 35.38 30.463 60 30.463z" fill="#e1e6f0"/><path d="m340.822 38.767c11.685-11.685 30.724-11.712 42.437 0 11.725 11.725 11.731 30.691 0 42.422-5.859 5.859-5.86 15.351 0 21.211 5.859 5.859 15.352 5.859 21.211 0 11.338-11.338 31.084-11.338 42.422 0 11.704 11.704 11.704 30.732 0 42.437-37.646 37.646-131.03 59.528-172.573 67.306 7.777-41.514 28.812-135.685 66.503-173.376z" fill="#79cc52"/><path d="m65.05 101.851c11.683-11.683 30.723-11.713 42.437 0 5.859 5.859 15.352 5.859 21.211 0s5.86-15.351 0-21.211c-11.725-11.725-11.731-30.691 0-42.422 11.338-11.338 31.084-11.338 42.422 0 37.661 37.646 58.726 132.396 66.504 173.925-41.528-7.778-134.912-30.209-172.573-67.855-11.69-11.705-11.69-30.733-.001-42.437z" fill="#a0e65c"/><path d="m171.12 421.425c-11.689 11.675-30.732 11.704-42.422 0-11.704-11.704-11.704-30.732 0-42.437 5.859-5.859 5.86-15.351 0-21.211-5.859-5.859-15.352-5.859-21.211 0-11.704 11.689-30.762 11.66-42.437 0-11.689-11.704-11.689-30.732 0-42.422 37.661-37.661 131.045-58.726 172.573-66.504-7.778 41.529-28.842 134.913-66.503 172.574z" fill="#a0e65c"/><path d="m446.891 357.777c-11.338 11.338-31.084 11.338-42.422 0-5.859-5.859-15.352-5.859-21.211 0s-5.86 15.351 0 21.211c11.704 11.704 11.704 30.732 0 42.437-11.704 11.675-30.732 11.704-42.437 0-37.646-37.661-58.711-131.045-66.489-172.588 41.514 7.778 134.868 28.813 172.559 66.519 11.726 11.725 11.731 30.69 0 42.421z" fill="#79cc52"/></g></svg>