<svg id="Capa_1" enable-background="new 0 0 512 512" height="512" viewBox="0 0 512 512" width="512" xmlns="http://www.w3.org/2000/svg"><g><g><path d="m502.972 287.846c-6.46-2.886-14.004-.762-18.105 4.937-31.055 42.714-86.382 68.217-138.867 68.217-33.203 0-64.089-9.944-90-26.887-45.092-29.482-75-80.334-75-138.113 0-57.334 29.138-109.572 75-139.235 15.608-10.095 33.113-17.737 52.119-22.209 6.841-1.611 11.66-7.778 11.558-14.81-.103-7.046-5.083-13.066-11.968-14.487-16.948-3.487-34.351-5.259-51.709-5.259-140.61 0-256 115.39-256 256s115.39 256 256 256c121.978 0 232.689-87.88 255.731-207.558 1.319-6.914-2.314-13.798-8.759-16.596z" fill="#f3f5f9"/><g fill="#e1e6f0"><path d="m511.731 304.442c1.318-6.914-2.314-13.799-8.76-16.597-6.46-2.886-14.004-.762-18.105 4.937-31.054 42.715-86.381 68.218-138.866 68.218-33.203 0-64.089-9.944-90-26.887v177.887c121.978 0 232.689-87.88 255.731-207.558z"/><path d="m308.119 34.556c6.841-1.611 11.66-7.778 11.558-14.81-.103-7.046-5.083-13.066-11.968-14.487-16.948-3.487-34.351-5.259-51.709-5.259v56.765c15.608-10.095 33.113-17.738 52.119-22.209z"/></g></g><g><path d="m376.981 282.133-45.981-23.877-45.981 23.877c-5.068 2.593-11.133 2.139-15.732-1.187-4.6-3.34-6.914-8.979-5.977-14.59l8.496-51.123-36.929-36.372c-4.043-3.984-5.493-9.917-3.735-15.308 1.758-5.405 6.416-9.36 12.026-10.21l51.24-7.705 23.174-46.348c5.098-10.166 21.738-10.166 26.836 0l23.174 46.348 51.24 7.705c5.61.85 10.269 4.805 12.026 10.21 1.758 5.391.308 11.323-3.735 15.308l-36.929 36.372 8.496 51.123c.938 5.61-1.377 11.25-5.977 14.59-4.492 3.281-10.576 3.851-15.732 1.187z" fill="#ffbe40"/></g><path d="m346 391c-32.468 0-63.045-8.09-90-22.187-62.311-32.585-105-97.762-105-172.813 0-68.467 35.098-130.639 90.264-165.517-117.232 7.618-211.264 106.411-211.264 225.517 0 124.072 101.928 226 226 226 87.158 0 170.082-51.259 207.187-126.449-32.432 22.734-76.874 35.449-117.187 35.449z" fill="#ffdf40"/><path d="m463.187 355.551c-32.432 22.734-76.874 35.449-117.187 35.449-32.468 0-63.045-8.09-90-22.187v113.187c87.158 0 170.082-51.259 207.187-126.449z" fill="#ffbe40"/></g></svg>