<svg id="Capa_1" enable-background="new 0 0 512 512" height="512" viewBox="0 0 512 512" width="512" xmlns="http://www.w3.org/2000/svg"><g><path d="m485.893 255.983c0-19.717 7.749-38.467 21.812-52.793 3.735-3.794 5.171-9.287 3.765-14.429-1.392-5.142-5.42-9.17-10.562-10.547-19.248-5.215-37.303-17.549-47.22-34.731-9.99-17.3-13.671-37.324-8.515-56.396 1.392-5.186-.088-10.723-3.882-14.517-3.809-3.809-9.287-5.273-14.531-3.867-19.043 5.142-40.961 2.476-58.261-7.515-17.183-9.932-29.517-25.986-34.731-45.22-1.377-5.142-5.405-9.17-10.547-10.562-5.039-1.333-10.62.059-14.429 3.765-14.325 14.063-33.559 21.095-52.792 21.095s-38.467-7.031-52.793-21.094c-3.794-3.706-9.302-5.098-14.429-3.765-5.142 1.392-9.17 5.42-10.547 10.562-5.215 19.233-17.549 35.288-34.731 45.22-17.314 9.99-39.188 12.656-58.29 7.515-5.215-1.421-10.723.059-14.517 3.867-3.794 3.794-5.273 9.331-3.867 14.517 5.142 19.072 2.49 39.097-7.515 56.396-9.931 17.182-28.986 29.516-48.219 34.731-5.142 1.377-9.17 5.405-10.562 10.547-1.406 5.142.029 10.635 3.765 14.429 14.063 14.326 21.812 33.076 21.812 52.793s-7.749 38.467-21.812 52.793c-3.735 3.794-5.171 9.287-3.765 14.429 1.392 5.142 5.42 9.17 10.562 10.547 19.233 5.215 38.288 17.549 48.22 34.731 10.005 17.3 12.671 37.324 7.515 56.367-1.406 5.186.073 10.723 3.867 14.531 3.794 3.794 9.316 5.2 14.517 3.882 19.028-5.156 40.975-2.476 58.29 7.515 17.183 9.917 29.517 25.972 34.731 45.22 1.377 5.142 5.405 9.17 10.547 10.562 5.127 1.406 10.635-.044 14.429-3.765 14.326-14.063 33.56-21.094 52.793-21.094s38.467 7.031 52.793 21.094c3.805 3.726 9.291 5.165 14.429 3.765 5.142-1.392 9.17-5.42 10.547-10.562 5.215-19.248 17.549-35.303 34.731-45.22 17.285-10.02 39.188-12.671 58.275-7.515 5.156 1.304 10.723-.088 14.517-3.882s5.273-9.331 3.882-14.517c-5.156-19.058-1.476-39.082 8.515-56.382 9.917-17.183 27.972-29.517 47.22-34.731 5.142-1.377 9.17-5.405 10.562-10.547 1.406-5.142-.029-10.635-3.765-14.429-14.065-14.326-21.814-33.076-21.814-52.793z" fill="#f3f5f9"/><path d="m323.222 506.56c5.142-1.392 9.17-5.42 10.547-10.562 5.215-19.248 17.549-35.303 34.731-45.22 17.285-10.02 39.188-12.671 58.275-7.515 5.156 1.304 10.723-.088 14.517-3.882s5.273-9.331 3.882-14.517c-5.156-19.058-1.476-39.082 8.515-56.382 9.917-17.183 27.972-29.517 47.22-34.731 5.142-1.377 9.17-5.405 10.562-10.547 1.406-5.142-.029-10.635-3.765-14.429-14.063-14.326-21.812-33.076-21.812-52.793s7.749-38.467 21.812-52.793c3.735-3.794 5.171-9.287 3.765-14.429-1.392-5.142-5.42-9.17-10.562-10.547-19.248-5.215-37.303-17.549-47.22-34.731-9.99-17.3-13.671-37.324-8.515-56.396 1.392-5.186-.088-10.723-3.882-14.517-3.809-3.809-9.287-5.273-14.531-3.867-19.043 5.142-40.961 2.476-58.261-7.515-17.183-9.932-29.517-25.986-34.731-45.22-1.377-5.142-5.405-9.17-10.547-10.562-5.039-1.333-10.62.059-14.429 3.765-14.326 14.064-33.56 21.096-52.793 21.096v451.436c19.233 0 38.467 7.031 52.793 21.094 3.805 3.726 9.291 5.165 14.429 3.764z" fill="#e1e6f0"/><path d="m472.593 199.294c-17.842-9.097-35.681-23.115-45.891-40.811-10.239-17.71-14.985-37.5-13.975-57.334-19.79 1.084-41.517-3.75-59.227-13.975-17.695-10.225-31.714-25.063-40.796-42.891-16.86 10.87-36.782 16.305-56.704 16.305s-39.844-5.435-56.704-16.304c-9.082 17.827-23.101 32.666-40.796 42.891-17.725 10.239-39.423 15.103-59.227 13.975 1.011 19.834-3.735 39.609-13.975 57.334-10.225 17.695-28.063 31.714-45.891 40.796 10.869 16.86 16.699 36.401 16.699 56.704s-5.83 39.844-16.699 56.704c17.827 9.082 35.666 23.101 45.891 40.796 10.239 17.725 14.985 37.5 13.975 57.334 19.893-1.011 41.532 3.765 59.227 13.975s31.714 25.049 40.811 42.891c16.846-10.869 36.387-16.699 56.689-16.699s39.844 5.83 56.689 16.699c9.097-17.842 23.115-32.681 40.811-42.891 17.725-10.225 39.467-14.956 59.227-13.975-1.011-19.834 3.75-39.624 13.975-57.334 10.21-17.695 28.049-31.714 45.891-40.811-10.869-16.846-16.699-36.387-16.699-56.689s5.829-39.844 16.699-56.69z" fill="#ffbe40"/><path d="m353.5 424.792c17.725-10.225 39.467-14.956 59.227-13.975-1.011-19.834 3.75-39.624 13.975-57.334 10.21-17.695 28.049-31.714 45.891-40.811-10.869-16.846-16.699-36.387-16.699-56.689s5.83-39.844 16.699-56.689c-17.842-9.097-35.681-23.115-45.891-40.811-10.239-17.71-14.985-37.5-13.975-57.334-19.79 1.084-41.517-3.75-59.227-13.975-17.695-10.225-31.714-25.063-40.796-42.891-16.86 10.87-36.782 16.305-56.704 16.305v390.396c20.303 0 39.844 5.83 56.689 16.699 9.097-17.842 23.116-32.681 40.811-42.891z" fill="#ff9f40"/><circle cx="256" cy="255.983" fill="#ffdf40" r="165"/><path d="m421 255.983c0-90.981-74.019-165-165-165v330c90.981 0 165-74.018 165-165z" fill="#ffbe40"/></g></svg>