<svg id="Capa_1" enable-background="new 0 0 511.995 511.995" height="512" viewBox="0 0 511.995 511.995" width="512" xmlns="http://www.w3.org/2000/svg"><g><path d="m413.937 113.612c-3.75-4.541-9.785-6.431-15.498-4.937-5.698 1.538-9.946 6.27-10.884 12.1-6.753 42.041-20.845 60.22-26.558 60.22-23.613 0-65.933-88.524-90.645-170.306-1.919-6.313-8.335-11.074-14.355-10.664-6.548 0-12.349 4.263-14.312 10.518-25.093 80.156-68.511 170.452-90.688 170.452-5.713 0-19.805-18.179-26.558-60.22-.938-5.83-5.186-10.562-10.884-12.1-5.713-1.509-11.763.396-15.498 4.937-46.376 56.279-67.06 109.438-67.06 172.383 0 126.167 98.833 226 225 226s225-99.833 225-226c0-62.08-21.313-116.851-67.06-172.383z" fill="#f3f5f9"/><path d="m480.997 285.995c0-62.08-21.313-116.851-67.061-172.383-3.75-4.541-9.785-6.431-15.498-4.937-5.698 1.538-9.946 6.27-10.884 12.1-6.753 42.041-20.845 60.22-26.558 60.22-23.613 0-65.933-88.524-90.645-170.306-1.919-6.313-8.335-11.074-14.355-10.664v511.97c126.168 0 225.001-99.833 225.001-226z" fill="#e1e6f0"/><path d="m409.733 157.762c-10.708 33.853-28.022 53.232-48.735 53.232-44.286 0-83.306-88.048-105-148.294-.07-.194-.15-.403-.22-.597-22.178 60.22-61.846 148.891-104.78 148.891-20.713 0-38.027-19.38-48.735-53.232-28.374 41.47-41.265 82.002-41.265 128.232 0 109.351 85.649 196 195 196s195-86.649 195-196c-.001-46.23-12.891-86.762-41.265-128.232z" fill="#ff7f40"/><path d="m450.997 285.995c0-46.23-12.891-86.763-41.265-128.232-10.708 33.853-28.022 53.232-48.735 53.232-44.286 0-83.306-88.048-105-148.294v419.294c109.351 0 195-86.65 195-196z" fill="#f25a3c"/><path d="m300.997 270.995c-17.9 0-33.999 7.881-45 20.361-11.001-12.48-27.1-20.361-45-20.361-33.091 0-60 26.909-60 60 0 84.829 96.167 118.861 100.254 120.224 1.538.513 3.149.776 4.746.776s3.208-.264 4.746-.776c4.087-1.362 100.254-35.395 100.254-120.224 0-33.091-26.909-60-60-60z" fill="#ffbfff"/><path d="m360.997 330.995c0-33.091-26.909-60-60-60-17.9 0-33.999 7.881-45 20.361v160.639c1.597 0 3.208-.264 4.746-.776 4.087-1.363 100.254-35.395 100.254-120.224z" fill="#ff8fb8"/></g></svg>