<svg height="512pt" viewBox="-132 0 512 512" width="512pt" xmlns="http://www.w3.org/2000/svg"><path d="m17.292969 123.589844c-9.550781 0-17.292969 7.742187-17.292969 17.292968v224.28125c0 12.078126 9.789062 21.867188 21.855469 21.867188h203.464843c12.070313 0 21.859376-9.789062 21.859376-21.867188v-224.28125c0-9.550781-7.742188-17.292968-17.292969-17.292968zm0 0" fill="#ff71bf"/><path d="m210.976562 36.203125c-22.359374-22.375-53.253906-36.203125-87.386718-36.203125-12.625 0-24.804688 1.898438-36.277344 5.414062 19.535156 5.992188 37.015625 16.691407 51.101562 30.789063 22.363282 22.359375 36.203126 53.257813 36.203126 87.386719v241.574218c0 12.078126-9.789063 21.867188-21.855469 21.867188h72.5625c12.066406 0 21.855469-9.789062 21.855469-21.867188v-241.574218c0-34.128906-13.839844-65.027344-36.203126-87.386719zm0 0" fill="#f75c9b"/><path d="m123.589844 512c-17.292969 0-31.3125-14.019531-31.3125-31.3125v-100.570312h62.625v100.570312c0 17.292969-14.019532 31.3125-31.3125 31.3125zm0 0" fill="#d2b393"/><path d="m92.277344 380.117188v25.714843c21.828125 0 39.527344 17.695313 39.527344 39.527344v61.039063c0 1.566406-.117188 3.097656-.339844 4.601562 13.480468-3.492188 23.4375-15.738281 23.4375-30.3125v-100.570312zm0 0" fill="#bf9984"/><path d="m247.179688 123.589844v49.363281c-24.722657 0-24.722657-20.609375-49.445313-20.609375-24.710937 0-24.710937 20.609375-49.433594 20.609375-24.722656 0-24.722656-20.609375-49.433593-20.609375-24.722657 0-24.722657 20.609375-49.433594 20.609375-24.710938 0-24.710938-20.609375-49.433594-20.609375v-28.753906c0-68.261719 55.339844-123.589844 123.589844-123.589844 34.132812 0 65.027344 13.828125 87.386718 36.203125 22.363282 22.359375 36.203126 53.257813 36.203126 87.386719zm0 0" fill="#ffe170"/><path d="m210.976562 36.203125c-22.359374-22.375-53.253906-36.203125-87.386718-36.203125-12.625 0-24.804688 1.898438-36.277344 5.414062 19.535156 5.992188 37.015625 16.691407 51.101562 30.789063 22.363282 22.359375 36.203126 53.257813 36.203126 87.386719v37.734375c5.691406-4.675781 11.820312-8.984375 23.117187-8.984375 24.722656 0 24.722656 20.609375 49.445313 20.609375v-49.359375c0-34.128906-13.839844-65.027344-36.203126-87.386719zm0 0" fill="#ffc661"/><path d="m247.179688 285.144531v80.019531c0 12.078126-9.789063 21.867188-21.855469 21.867188h-203.46875c-12.066407 0-21.855469-9.789062-21.855469-21.867188v-100.628906c24.722656 0 24.722656 20.609375 49.433594 20.609375 24.710937 0 24.710937-20.609375 49.433594-20.609375 24.710937 0 24.710937 20.609375 49.433593 20.609375 24.722657 0 24.722657-20.609375 49.433594-20.609375 24.722656 0 24.722656 20.609375 49.445313 20.609375zm0 0" fill="#e55045"/><path d="m174.617188 273.519531v91.644531c0 12.078126-9.789063 21.867188-21.855469 21.867188h72.5625c12.066406 0 21.855469-9.789062 21.855469-21.867188v-80.019531c-24.722657 0-24.722657-20.609375-49.445313-20.609375-11.296875 0-17.425781 4.308594-23.117187 8.984375zm0 0" fill="#c43730"/></svg>