<svg height="512pt" viewBox="-139 0 512 512" width="512pt" xmlns="http://www.w3.org/2000/svg"><path d="m116.640625 512c-17.292969 0-31.3125-14.019531-31.3125-31.3125v-106.671875h62.625v106.671875c0 17.292969-14.019531 31.3125-31.3125 31.3125zm0 0" fill="#d2b393"/><path d="m85.328125 374.015625v34.867187c20.867187 0 37.785156 16.917969 37.785156 37.78125v64.664063c14.1875-2.984375 24.839844-15.566406 24.839844-30.640625v-106.671875zm0 0" fill="#bf9984"/><path d="m193.589844 387.03125h-153.898438c-24.453125 0-43.085937-21.910156-39.167968-46.042969l11.445312-70.558593 20.519531-126.507813 16.261719-100.269531c4.089844-25.164063 25.816406-43.652344 51.308594-43.652344h33.164062c25.492188 0 47.21875 18.488281 51.308594 43.652344l16.25 100.1875 20.53125 126.589844 11.445312 70.558593c3.917969 24.132813-14.714843 46.042969-39.167968 46.042969zm0 0" fill="#ffe170"/><path d="m232.757812 340.988281-11.445312-70.558593-20.53125-126.589844-16.25-100.1875c-4.089844-25.164063-25.816406-43.652344-51.308594-43.652344h-33.164062c-5.359375 0-10.550782.828125-15.449219 2.351562 18.394531 5.726563 32.625 21.425782 35.855469 41.300782l16.253906 100.1875 20.527344 126.589844 11.449218 70.558593c3.914063 24.136719-14.714843 46.042969-39.171874 46.042969h64.066406c24.453125 0 43.085937-21.910156 39.167968-46.042969zm0 0" fill="#ffc661"/><path d="m221.3125 270.429688h-209.34375l20.519531-126.507813h168.058594l.234375-.082031zm0 0" fill="#ff71bf"/><path d="m136.730469 143.921875 20.515625 126.507813h64.066406l-20.53125-126.589844-.234375.082031zm0 0" fill="#f75c9b"/></svg>