<svg height="511pt" viewBox="-145 0 511 511.999" width="511pt" xmlns="http://www.w3.org/2000/svg"><path d="m196.949219 196.484375-22.824219 102.238281-3.671875 16.480469-8.929687 40.011719-4.824219 21.617187-12.746094 57.089844-3.671875 16.476563-10.332031 46.292968c-4.550781 20.410156-33.640625 20.410156-38.199219 0l-10.332031-46.292968-3.671875-16.476563-12.746094-57.101563-4.816406-21.605468-8.929688-40.011719-3.683594-16.46875-22.8125-102.25zm0 0" fill="#f0dbbd"/><path d="m152.039062 196.484375-40.1875 315.476563c8.066407-.386719 15.910157-5.46875 18.097657-15.265626l10.332031-46.292968 3.671875-16.480469 12.746094-57.089844 4.824219-21.613281 8.929687-40.015625 3.671875-16.476563 22.824219-102.242187zm0 0" fill="#eac9a2"/><g fill="#d2b393"><path d="m174.125 298.722656-3.667969 16.480469c-1.394531-.300781-2.714843-.988281-3.785156-2.074219l-55.824219-55.820312-50.902344-50.902344c-2.699218-2.703125-2.988281-6.898438-.84375-9.921875.234376-.359375.523438-.691406.84375-1.011719 3.023438-3.019531 7.921876-3.019531 10.933594 0l1.007813 1.011719 38.964843 38.960937 10.929688 10.933594zm0 0"/><path d="m143.953125 433.921875-3.671875 16.476563c-1.394531-.296876-2.710938-.988282-3.785156-2.070313l-36.578125-36.578125-34.917969-34.929688-4.816406-21.605468c2.496094-.566406 5.207031.132812 7.148437 2.074218l43.519531 43.527344zm0 0"/><path d="m161.523438 355.214844-4.824219 21.617187-71.496094 71.496094c-1.074219 1.082031-2.394531 1.773437-3.785156 2.074219l-3.671875-16.480469 76.632812-76.632813c1.9375-1.9375 4.648438-2.640624 7.144532-2.074218zm0 0"/><path d="m161.597656 206.558594-39.816406 39.820312-10.933594 10.929688-55.808594 55.820312c-1.074218 1.085938-2.394531 1.773438-3.785156 2.074219l-3.683594-16.46875 52.347657-52.355469 50.746093-50.75c3.023438-3.023437 7.910157-3.023437 10.929688 0 .269531.269532.519531.558594.722656.855469 2.28125 3.023437 2.035156 7.324219-.71875 10.074219zm0 0"/><path d="m110.847656 302.386719c-14.476562 0-26.265625 11.773437-26.265625 26.265625 0 14.488281 11.789063 26.265625 26.265625 26.265625 14.488282 0 26.277344-11.777344 26.277344-26.265625 0-14.492188-11.789062-26.265625-26.277344-26.265625zm0 37.0625c-5.949218 0-10.796875-4.847657-10.796875-10.796875 0-5.960938 4.847657-10.796875 10.796875-10.796875 5.960938 0 10.808594 4.835937 10.808594 10.796875 0 5.949218-4.847656 10.796875-10.808594 10.796875zm0 0"/></g><path d="m199.730469 88.914062c0 49.109376-39.808594 88.917969-88.914063 88.917969-49.109375 0-88.917968-39.808593-88.917968-88.917969 0-49.105468 39.808593-88.914062 88.917968-88.914062 49.105469 0 88.914063 39.808594 88.914063 88.914062zm0 0" fill="#ffe170"/><path d="m110.816406 0c-7.160156 0-14.117187.871094-20.789062 2.46875 39.078125 9.363281 68.128906 44.5 68.128906 86.445312 0 41.949219-29.050781 77.085938-68.128906 86.449219 6.671875 1.601563 13.628906 2.46875 20.789062 2.46875 49.105469 0 88.914063-39.808593 88.914063-88.917969 0-49.105468-39.808594-88.914062-88.914063-88.914062zm0 0" fill="#ffc661"/><path d="m64.40625 123.128906c-7.226562-3.691406-15.605469-5.441406-24.453125-4.558594-21.039063 2.097657-37.769531 19.300782-39.328125 40.386719-1.910156 25.789063 18.449219 47.304688 43.832031 47.304688 8.25 0 15.960938-2.277344 22.554688-6.230469 6.449219-3.867188 14.609375-3.867188 21.058593 0 6.59375 3.957031 14.304688 6.230469 22.554688 6.230469 8.246094 0 15.960938-2.277344 22.550781-6.230469 6.453125-3.867188 14.609375-3.867188 21.058594 0 6.59375 3.953125 14.308594 6.230469 22.554687 6.230469 25.382813 0 45.742188-21.515625 43.835938-47.304688-1.5625-21.085937-18.289062-38.292969-39.328125-40.386719-8.851563-.882812-17.230469.867188-24.453125 4.558594-13.441406 6.867188-28.394531 10.246094-43.484375 10.246094h-5.464844c-15.097656 0-30.050781-3.378906-43.488281-10.246094zm0 0" fill="#b971ff"/><path d="m42.859375 200.03125c-6.433594-3.855469-14.558594-3.867188-21-.03125 6.605469 3.96875 14.332031 6.261719 22.597656 6.261719 3.613281 0 7.117188-.460938 10.476563-1.285157-4.304688-1.054687-8.371094-2.722656-12.074219-4.945312zm0 0" fill="#a066e2"/><path d="m62.679688 133.375h5.464843c6.691407 0 13.355469-.667969 19.871094-2.003906-8.179687-1.679688-16.128906-4.421875-23.613281-8.242188-7.222656-3.691406-15.601563-5.441406-24.453125-4.558594-6.496094.648438-12.578125 2.738282-17.929688 5.9375 12.695313 5.9375 26.613281 8.867188 40.660157 8.867188zm0 0" fill="#a066e2"/><path d="m220.621094 158.957031c-1.558594-21.085937-18.289063-38.292969-39.324219-40.386719-8.851563-.882812-17.230469.867188-24.457031 4.558594-.933594.476563-1.875.933594-2.820313 1.378906 11.984375 7.15625 20.3125 19.875 21.394531 34.449219 1.285157 17.390625-7.558593 32.824219-21.238281 41.042969.019531.011719.039063.019531.058594.03125 6.59375 3.957031 14.308594 6.230469 22.554687 6.230469 25.382813 0 45.742188-21.515625 43.832032-47.304688zm0 0" fill="#a066e2"/><path d="m109.023438 200.03125c-6.433594-3.855469-14.5625-3.867188-21.007813-.027344.019531.007813.035156.015625.054687.027344 6.589844 3.953125 14.304688 6.230469 22.550782 6.230469 3.617187 0 7.121094-.460938 10.480468-1.285157-4.308593-1.054687-8.375-2.722656-12.078124-4.945312zm0 0" fill="#a066e2"/><path d="m150.421875 48.875c0 4.273438-3.460937 7.734375-7.734375 7.734375-4.269531 0-7.734375-3.460937-7.734375-7.734375 0-4.269531 3.464844-7.734375 7.734375-7.734375 4.273438 0 7.734375 3.464844 7.734375 7.734375zm0 0" fill="#ff9a2d"/><path d="m134.953125 71.984375c0 4.269531-3.460937 7.734375-7.734375 7.734375-4.269531 0-7.734375-3.464844-7.734375-7.734375 0-4.273437 3.464844-7.734375 7.734375-7.734375 4.273438 0 7.734375 3.460938 7.734375 7.734375zm0 0" fill="#ff9a2d"/><path d="m165.890625 71.984375c0 4.269531-3.460937 7.734375-7.734375 7.734375-4.269531 0-7.734375-3.464844-7.734375-7.734375 0-4.273437 3.464844-7.734375 7.734375-7.734375 4.273438 0 7.734375 3.460938 7.734375 7.734375zm0 0" fill="#ff9a2d"/></svg>