<svg height="512pt" viewBox="-132 0 512 512" width="512pt" xmlns="http://www.w3.org/2000/svg"><path d="m235.785156 226.925781-10.164062 114.664063-3.851563 43.414062-8.589843 96.875c-1.515626 17.046875-15.800782 30.121094-32.917969 30.121094h-113.390625c-17.117188 0-31.402344-13.074219-32.910156-30.121094l-8.59375-96.875-3.851563-43.417968-10.167969-114.660157zm0 0" fill="#d2b393"/><path d="m242.074219 191.023438h-.058594c-12.011719 0-23.367187-5.503907-30.808594-14.933594l-26.9375-34.121094c-3.953125-5.011719-9.988281-7.9375-16.375-7.9375h-88.839843c-6.402344 0-12.453126 2.941406-16.40625 7.976562l-26.71875 34.011719c-7.445313 9.472657-18.820313 15.003907-30.867188 15.003907-2.796875 0-5.0625 2.265624-5.0625 5.0625v27.273437c0 2.796875 2.265625 5.0625 5.0625 5.0625h237.011719c2.792969 0 5.0625-2.265625 5.0625-5.0625v-27.273437c-.003907-2.796876-2.269531-5.0625-5.0625-5.0625zm0 0" fill="#876954"/><path d="m211.207031 176.089844-26.9375-34.121094c-3.953125-5.015625-9.988281-7.9375-16.375-7.9375h-29.054687c11.621094 14.71875 2.875 36.601562-15.714844 39.0625-35.3125 4.675781-84.507812-.5-84.507812-.5l-2.6875 3.421875c-7.445313 9.472656-18.820313 15.003906-30.867188 15.003906h236.953125c-12.011719.003907-23.367187-5.5-30.808594-14.929687zm0 0" fill="#705245"/><path d="m11.347656 226.925781 3.546875 40h65.777344c61.859375 0 110.410156 53.042969 104.949219 114.664063l-3.851563 43.414062-7.710937 86.996094h6.203125c17.117187 0 31.402343-13.074219 32.917969-30.121094l8.589843-96.875 3.851563-43.417968 10.164062-114.660157zm0 0" fill="#bf9984"/><path d="m225.621094 341.589844-3.851563 43.414062h-51.757812c-3.808594 0-7.34375 1.886719-9.582031 4.972656-8.265626 11.40625-21.699219 18.824219-36.859376 18.824219-15.171874 0-28.605468-7.414062-36.871093-18.824219-2.234375-3.085937-5.765625-4.972656-9.582031-4.972656h-51.75l-3.851563-43.414062h55.601563c3.820312 0 7.347656-1.878906 9.582031-4.96875 8.265625-11.40625 21.699219-18.828125 36.871093-18.828125 15.160157 0 28.59375 7.421875 36.859376 18.828125 2.234374 3.089844 5.773437 4.96875 9.582031 4.96875zm0 0" fill="#f0dbbd"/><path d="m181.492188 341.589844c3.828124 12.550781 5.367187 26.050781 4.128906 40l-.300782 3.414062h36.449219l3.851563-43.414062zm0 0" fill="#d2b393"/><path d="m123.570312 108.039062c-4.199218 0-7.597656-3.402343-7.597656-7.597656v-13.128906c0-14.535156 11.820313-26.355469 26.351563-26.355469h21.398437c6.148438 0 11.15625-5.007812 11.15625-11.15625 0-6.152343-5.007812-11.160156-11.15625-11.160156h-51.578125c-14.535156 0-26.355469-11.820313-26.355469-26.355469v-4.6875c0-4.195312 3.402344-7.597656 7.597657-7.597656 4.199219 0 7.597656 3.402344 7.597656 7.597656v4.691406c0 6.152344 5.007813 11.15625 11.160156 11.15625h51.578125c14.53125 0 26.351563 11.824219 26.351563 26.355469s-11.820313 26.355469-26.351563 26.355469h-21.398437c-6.148438 0-11.15625 5.003906-11.15625 11.15625v13.128906c0 4.195313-3.402344 7.597656-7.597657 7.597656zm0 0" fill="#ededed"/></svg>