<svg height="512pt" viewBox="-129 0 512 512.00063" width="512pt" xmlns="http://www.w3.org/2000/svg"><path d="m19.160156 194.789062c.199219-7.46875 7.820313-18.019531 14.765625-26.953124 14.039063-18.058594 41.175781-17.855469 56.339844-18.417969 27.777344-1.03125 67.382813-6.550781 119.457031-26.546875 3.601563 1.429687 20.648438 8.640625 27.628906 26.816406.757813 1.976562 7.070313 19.023438.132813 31.238281-11.320313 19.929688-50.203125 13.453125-121.214844 12.234375-37.507812-.636718-74.882812.445313-97.109375 1.628906zm0 0" fill="#f0dbbd"/><path d="m241.683594 221.457031-10.519532 115.945313-3.949218 44.480468-8.800782 99.253907c-1.554687 17.46875-16.1875 30.863281-33.726562 30.863281h-116.175781c-17.539063 0-32.171875-13.394531-33.71875-30.859375l-8.800781-99.253906-3.945313-44.480469-10.285156-115.949219zm0 0" fill="#d9fcff"/><path d="m237.351562 149.6875c-6.980468-18.175781-24.03125-25.382812-27.628906-26.816406-12.160156 4.671875-23.628906 8.542968-34.4375 11.757812 3.820313 3.867188 7.40625 8.816406 9.804688 15.0625.761718 1.976563 7.070312 19.023438.132812 31.238282-4.675781 8.230468-14.0625 11.949218-28.457031 13.402343 45.605469 1.605469 71.773437 2.34375 80.71875-13.402343 6.9375-12.21875.625-29.265626-.132813-31.242188zm0 0" fill="#eac9a2"/><path d="m64.011719 193.164062c-15.253907-.261718-30.488281-.238281-44.6875-.035156-.089844.566406-.152344 1.121094-.164063 1.660156 12.070313-.640624 28.617188-1.253906 47.226563-1.578124-.796875-.015626-1.574219-.035157-2.375-.046876zm0 0" fill="#eac9a2"/><path d="m40.160156 130.628906c-3.03125-3.839844-8.332031-11.753906-8.839844-22.429687-.714843-15.097657 8.644532-26.132813 11.816407-29.867188 25.175781-29.675781 65.632812-11.652343 90.605469-37.789062 5.902343-6.175781 12.578124-16.535157 14.78125-34.753907.539062-4.445312 5.277343-7.023437 9.363281-5.195312 8.273437 3.695312 20.035156 11.097656 26.101562 24.917969 6.195313 14.121093 3.070313 27.25.949219 36.160156-1.316406 5.527344-6.804688 25.675781-25.296875 40.015625-3.996094 3.097656-7.347656 4.949219-25.898437 12.398438-52.882813 21.234374-67.789063 23.191406-82.484376 19.910156-4.761718-1.0625-8.582031-2.390625-11.097656-3.367188zm0 0" fill="#f0dbbd"/><path d="m183.988281 25.511719c-6.0625-13.816407-17.828125-21.222657-26.101562-24.917969-4.085938-1.824219-8.824219.753906-9.363281 5.195312-.652344 5.40625-1.707032 10.105469-3.011719 14.222657 1.066406 1.714843 2.054687 3.535156 2.917969 5.5 6.195312 14.121093 3.070312 27.25.949218 36.160156-1.316406 5.527344-6.804687 25.675781-25.296875 40.015625-3.996093 3.097656-7.347656 4.949219-25.902343 12.398438-24.332032 9.773437-40.613282 15.453124-52.542969 18.429687 1.679687.511719 3.558593 1.019531 5.625 1.480469 14.691406 3.28125 29.601562 1.324218 82.480469-19.90625 18.550781-7.453125 21.902343-9.304688 25.898437-12.402344 18.492187-14.339844 23.980469-34.488281 25.296875-40.011719 2.121094-8.917969 5.25-22.046875-.949219-36.164062zm0 0" fill="#eac9a2"/><path d="m198.378906 221.457031-10.277344 115.945313-3.945312 44.480468-8.800781 99.253907c-1.554688 17.46875-16.191407 30.863281-33.730469 30.863281h43.308594c17.539062 0 32.171875-13.394531 33.726562-30.859375l8.800782-99.253906 3.949218-44.480469 10.273438-115.949219zm0 0" fill="#b0dee2"/><path d="m20.789062 190.472656c-3.699218-4.03125-12.816406-15.078125-11.25-28.546875.398438-3.441406 1.980469-11.144531 10.960938-19.984375 26.761719-26.335937 72.867188-17.117187 116.042969-38.582031 12.667969-6.296875 30.71875-18.039063 48.394531-41.6875 3.207031 1.226563 7.644531 3.367187 12.339844 6.894531 5.632812 4.230469 11.757812 10.632813 15.289062 19.921875.566406 1.484375 6.484375 17.601563.132813 31.242188-13.0625 28.039062-72.019531 32.78125-121.375 36.75-19.574219 1.574219-47.039063 2.65625-63.355469 22.34375-3.628906 4.378906-5.847656 8.640625-7.179688 11.648437zm0 0" fill="#d2b393"/><path d="m212.566406 88.488281c-3.535156-9.289062-9.660156-15.691406-15.292968-19.921875-4.691407-3.527344-9.132813-5.667968-12.335938-6.894531-5.515625 7.382813-11.070312 13.601563-16.484375 18.859375 1.535156 2.378906 2.914063 5.023438 4.027344 7.957031.566406 1.488281 6.484375 17.605469.132812 31.242188-13.0625 28.039062-72.019531 32.78125-121.375 36.75-12.394531 1-27.949219 1.804687-41.839843 7.253906-.601563 12.640625 7.859374 22.886719 11.390624 26.738281 1.332032-3.007812 3.550782-7.269531 7.179688-11.648437 16.316406-19.6875 43.78125-20.769531 63.355469-22.34375 49.355469-3.96875 108.3125-8.710938 121.375-36.75 6.351562-13.636719.433593-29.753907-.132813-31.242188zm0 0" fill="#bf9984"/><path d="m248.015625 223.949219h-242.828125c-2.863281 0-5.1875-2.320313-5.1875-5.183594v-27.949219c0-2.863281 2.324219-5.183594 5.1875-5.183594h242.828125c2.867187 0 5.1875 2.320313 5.1875 5.183594v27.949219c0 2.863281-2.324219 5.183594-5.1875 5.183594zm0 0" fill="#b0dee2"/><path d="m248.015625 185.632812h-54.4375c2.863281 0 5.1875 2.320313 5.1875 5.183594v27.949219c0 2.863281-2.324219 5.183594-5.1875 5.183594h54.4375c2.863281 0 5.1875-2.320313 5.1875-5.183594v-27.949219c0-2.863281-2.324219-5.183594-5.1875-5.183594zm0 0" fill="#85c9c9"/><path d="m157.328125 388.882812c-18.621094 18.636719-44.90625 23.328126-62.472656 12.363282-2.261719-1.410156-4.378907-3.082032-6.320313-5.023438-2.035156-2.035156-3.777344-4.277344-5.242187-6.675781-10.691407-17.550781-5.925781-43.621094 12.570312-62.128906 18.40625-18.394531 44.285157-23.199219 61.828125-12.757813 2.511719 1.503906 4.859375 3.3125 6.976563 5.429688 2.292969 2.292968 4.226562 4.847656 5.792969 7.597656 9.964843 17.535156 5.054687 43.019531-13.132813 61.195312zm0 0" fill="#876954"/><path d="m170.460938 327.6875c-1.070313.789062-2.367188 1.308594-3.789063 1.441406-15.375 1.558594-25.464844 6.054688-29.992187 13.371094-2.105469 3.398438-2.460938 6.519531-2.957032 10.851562-.488281 4.234376-1.089844 9.496094-3.613281 15.640626-5.480469 13.363281-17.328125 24.210937-35.253906 32.253906-2.261719-1.410156-4.382813-3.082032-6.320313-5.023438-2.035156-2.035156-3.78125-4.277344-5.242187-6.675781.539062-.425781 1.140625-.777344 1.804687-1.046875 16.089844-6.5625 26.386719-15.117188 30.601563-25.414062 1.703125-4.152344 2.117187-7.722657 2.554687-11.511719.582032-5.117188 1.246094-10.921875 5.179688-17.273438 6.300781-10.171875 17.816406-16.765625 34.257812-19.640625 2.511719 1.503906 4.859375 3.3125 6.976563 5.429688 2.292969 2.292968 4.226562 4.847656 5.792969 7.597656zm0 0" fill="#705245"/></svg>