<svg height="512pt" viewBox="-132 0 512 512" width="512pt" xmlns="http://www.w3.org/2000/svg"><path d="m109.4375 236.800781c-.375 0-.753906-.027343-1.136719-.085937-4.167969-.621094-7.042969-4.503906-6.421875-8.675782l33.019532-221.53125c.558593-3.738281 3.769531-6.507812 7.550781-6.507812h69.730469c4.214843 0 7.632812 3.417969 7.632812 7.632812 0 4.21875-3.414062 7.636719-7.632812 7.636719h-63.152344l-32.050782 215.023438c-.566406 3.785156-3.824218 6.507812-7.539062 6.507812zm0 0" fill="#e55045"/><path d="m233.992188 189.558594c0 60.675781-49.1875 109.863281-109.863282 109.863281-60.675781 0-109.863281-49.1875-109.863281-109.863281 0-60.675782 49.1875-109.863282 109.863281-109.863282 60.675782 0 109.863282 49.1875 109.863282 109.863282zm0 0" fill="#d9fcff"/><path d="m124.128906 79.695312c-7.976562 0-15.75.859376-23.242187 2.472657 49.511719 10.667969 86.617187 54.691406 86.617187 107.390625 0 52.703125-37.109375 96.726562-86.617187 107.390625 7.492187 1.617187 15.265625 2.472656 23.242187 2.472656 60.675782 0 109.863282-49.1875 109.863282-109.863281 0-60.675782-49.1875-109.863282-109.863282-109.863282zm0 0" fill="#b0dee2"/><path d="m237.039062 223.582031-10.386718 117.230469-3.871094 43.613281-8.628906 97.316407c-1.523438 17.125-15.875 30.257812-33.070313 30.257812h-113.902343c-17.199219 0-31.546876-13.132812-33.0625-30.257812l-8.628907-97.316407-3.871093-43.613281-10.175782-114.734375zm0 0" fill="#f0dbbd"/><path d="m124.128906 79.695312c-.046875 0-.09375.003907-.140625.003907l-22.113281 148.339843c-.621094 4.171876 2.257812 8.054688 6.425781 8.675782.382813.058594.761719.085937 1.136719.085937 3.714844 0 6.972656-2.722656 7.539062-6.511719l22.292969-149.550781c-4.949219-.679687-10.003906-1.042969-15.140625-1.042969zm0 0" fill="#85c9c9"/><path d="m243.175781 227.132812h-238.089843c-2.808594 0-5.085938-2.277343-5.085938-5.085937v-27.402344c0-2.808593 2.277344-5.085937 5.085938-5.085937h238.089843c2.808594 0 5.085938 2.277344 5.085938 5.085937v27.402344c0 2.808594-2.277344 5.085937-5.085938 5.085937zm0 0" fill="#b0dee2"/><path d="m243.175781 189.558594h-64.566406c2.804687 0 5.082031 2.277344 5.082031 5.085937v27.402344c0 2.808594-2.273437 5.085937-5.082031 5.085937h64.566406c2.808594 0 5.085938-2.277343 5.085938-5.085937v-27.402344c0-2.808593-2.277344-5.085937-5.085938-5.085937zm0 0" fill="#85c9c9"/><path d="m11.535156 227.128906 2.777344 31.3125h60.828125c61.332031 0 109.46875 52.589844 104.054687 113.683594l-3.871093 43.609375-8.535157 96.265625h14.292969c17.195313 0 31.546875-13.132812 33.070313-30.257812l8.628906-97.316407 3.871094-43.613281 10.074218-113.683594zm0 0" fill="#eac9a2"/></svg>