<svg height="512pt" viewBox="-88 0 512 512" width="512pt" xmlns="http://www.w3.org/2000/svg"><path d="m170.074219 88.851562c0 44.855469-36.367188 81.222657-81.222657 81.222657-44.859374 0-81.222656-36.367188-81.222656-81.222657 0-44.859374 36.363282-81.222656 81.222656-81.222656 44.855469 0 81.222657 36.363282 81.222657 81.222656zm0 0" fill="#ffe170"/><g fill="#ff9a2d"><path d="m88.851562 177.703125c-48.992187 0-88.851562-39.859375-88.851562-88.851563 0-48.992187 39.859375-88.851562 88.851562-88.851562 48.992188 0 88.851563 39.859375 88.851563 88.851562 0 48.992188-39.859375 88.851563-88.851563 88.851563zm0-162.445313c-40.578124 0-73.59375 33.015626-73.59375 73.59375 0 40.578126 33.015626 73.59375 73.59375 73.59375 40.578126 0 73.59375-33.015624 73.59375-73.59375 0-40.578124-33.015624-73.59375-73.59375-73.59375zm0 0"/><path d="m88.851562 177.703125c-4.214843 0-7.628906-3.417969-7.628906-7.628906v-162.445313c0-4.214844 3.414063-7.628906 7.628906-7.628906 4.214844 0 7.628907 3.414062 7.628907 7.628906v162.445313c0 4.210937-3.414063 7.628906-7.628907 7.628906zm0 0"/><path d="m170.074219 96.480469h-162.445313c-4.214844 0-7.628906-3.417969-7.628906-7.628907 0-4.214843 3.414062-7.628906 7.628906-7.628906h162.445313c4.214843 0 7.628906 3.414063 7.628906 7.628906 0 4.210938-3.417969 7.628907-7.628906 7.628907zm0 0"/><path d="m31.417969 153.914062c-1.949219 0-3.902344-.746093-5.394531-2.234374-2.976563-2.980469-2.976563-7.8125 0-10.789063l114.867187-114.867187c2.976563-2.976563 7.808594-2.976563 10.789063 0 2.976562 2.980468 2.976562 7.8125 0 10.789062l-114.867188 114.867188c-1.488281 1.488281-3.441406 2.234374-5.394531 2.234374zm0 0"/><path d="m146.285156 153.914062c-1.953125 0-3.90625-.746093-5.394531-2.234374l-114.867187-114.867188c-2.976563-2.976562-2.976563-7.808594 0-10.789062 2.980468-2.976563 7.8125-2.976563 10.789062 0l114.867188 114.867187c2.976562 2.976563 2.976562 7.808594 0 10.789063-1.492188 1.488281-3.445313 2.234374-5.394532 2.234374zm0 0"/></g><path d="m298.984375 475.101562-171.882813-1.667968-36.566406-367.636719c-.902344-9.074219 6.226563-16.945313 15.347656-16.945313h214.402344c9.117188 0 16.246094 7.871094 15.347656 16.945313zm0 0" fill="#d9fcff"/><path d="m320.285156 88.851562h-48.394531c9.117187 0 16.246094 7.871094 15.34375 16.945313l-36.375 366.089844h48.394531l36.378906-366.089844c.898438-9.074219-6.226562-16.945313-15.347656-16.945313zm0 0" fill="#b0dee2"/><path d="m282.210938 156.367188h-157.382813l27.46875 276.464843c.476563 4.777344 4.496094 8.421875 9.296875 8.425781l92.300781.089844 10.644531.011719c4.808594.003906 8.839844-3.640625 9.316407-8.425781l27.480469-276.570313h-19.125zm0 0" fill="#ff9a2d"/><path d="m273.851562 432.933594 27.484376-276.566406h-19.125l-28.316407 284.980468 10.644531.011719c4.808594.003906 8.839844-3.640625 9.3125-8.425781zm0 0" fill="#ff7611"/><path d="m301.785156 512h-177.277344c-5.027343 0-8.605468-4.886719-7.089843-9.679688l9.625-30.433593h172.207031l9.625 30.433593c1.515625 4.792969-2.0625 9.679688-7.089844 9.679688zm0 0" fill="#b0dee2"/><path d="m308.875 502.320312-9.625-30.433593h-48.070312l9.625 30.433593c1.515624 4.792969-2.066407 9.679688-7.09375 9.679688h48.074218c5.027344 0 8.605469-4.886719 7.089844-9.679688zm0 0" fill="#85c9c9"/><path d="m238.429688 340.753906c0 3.976563-3.226563 7.199219-7.199219 7.199219-3.976563 0-7.199219-3.222656-7.199219-7.199219 0-3.976562 3.222656-7.199218 7.199219-7.199218 3.972656 0 7.199219 3.222656 7.199219 7.199218zm0 0" fill="#ff7611"/><path d="m252.824219 366.121094c0 3.976562-3.222657 7.199218-7.195313 7.199218-3.976562 0-7.199218-3.222656-7.199218-7.199218 0-3.976563 3.222656-7.199219 7.199218-7.199219 3.972656 0 7.195313 3.222656 7.195313 7.199219zm0 0" fill="#ff7611"/><path d="m224.03125 366.121094c0 3.976562-3.222656 7.199218-7.199219 7.199218-3.976562 0-7.199219-3.222656-7.199219-7.199218 0-3.976563 3.222657-7.199219 7.199219-7.199219 3.976563 0 7.199219 3.222656 7.199219 7.199219zm0 0" fill="#ff7611"/></svg>