<svg height="512pt" viewBox="-119 0 512 512.00063" width="512pt" xmlns="http://www.w3.org/2000/svg"><path d="m104.183594 438.164062 87.070312-398.03125c.488282-2.222656 1.953125-4.109374 3.992188-5.128906l68.410156-34.207031c3.722656-1.859375 8.25-.351563 10.109375 3.371094 1.863281 3.722656.355469 8.25-3.367187 10.113281l-65.1875 32.59375-86.300782 394.507812c-.769531 3.527344-15.617187.847657-14.726562-3.21875zm0 0" fill="#ffefc7"/><path d="m195.367188 475.949219-80.5625 9.714843-80.546876-10.21875-34.1835932-343.65625c-.8476568-8.496093 5.8281252-15.863281 14.3632812-15.863281h200.683594c8.539062 0 15.210937 7.367188 14.367187 15.863281zm0 0" fill="#d9fcff"/><path d="m215.121094 115.925781h-42.925782c8.539063 0 15.210938 7.367188 14.363282 15.863281l-34.046875 342.667969h42.925781l34.050781-342.667969c.839844-8.496093-5.832031-15.863281-14.367187-15.863281zm0 0" fill="#b0dee2"/><path d="m197.804688 512h-165.933594c-4.707032 0-8.058594-4.574219-6.636719-9.058594l9.007813-28.488281h161.1875l9.011718 28.488281c1.417969 4.484375-1.929687 9.058594-6.636718 9.058594zm0 0" fill="#b0dee2"/><path d="m204.441406 502.941406-9.011718-28.488281h-42.710938l9.007812 28.488281c1.417969 4.484375-1.929687 9.058594-6.636718 9.058594h42.714844c4.707031 0 8.054687-4.574219 6.636718-9.058594zm0 0" fill="#85c9c9"/><path d="m174.671875 115.925781-70.488281 322.238281c-.890625 4.066407 13.957031 6.746094 14.726562 3.21875l71.195313-325.457031zm0 0" fill="#85c9c9"/><path d="m167.84375 445.886719-106.15625-.105469c-1.714844-.003906-3.152344-1.304688-3.320312-3.011719l-26.199219-263.648437h165.214843l-26.207031 263.753906c-.171875 1.707031-1.613281 3.011719-3.332031 3.011719zm0 0" fill="#876954"/><g fill="#705245"><path d="m181.855469 179.121094-26.503907 266.75 12.492188.011718c1.71875.003907 3.160156-1.300781 3.332031-3.011718l26.207031-263.75zm0 0"/><path d="m111.546875 358.511719c0 3.722656-3.015625 6.738281-6.738281 6.738281s-6.738282-3.015625-6.738282-6.738281c0-3.722657 3.015626-6.738281 6.738282-6.738281s6.738281 3.015624 6.738281 6.738281zm0 0"/><path d="m88.003906 374.769531c0 3.722657-3.019531 6.738281-6.738281 6.738281-3.722656 0-6.738281-3.015624-6.738281-6.738281 0-3.722656 3.015625-6.738281 6.738281-6.738281 3.71875 0 6.738281 3.015625 6.738281 6.738281zm0 0"/><path d="m94.742188 408.605469c0 3.722656-3.015626 6.738281-6.738282 6.738281s-6.738281-3.015625-6.738281-6.738281c0-3.71875 3.015625-6.738281 6.738281-6.738281s6.738282 3.019531 6.738282 6.738281zm0 0"/><path d="m160.851562 179.121094-56.667968 259.042968c-.652344 2.988282.570312 5.949219 2.878906 7.660157l8.9375.007812c1.425781-1.046875 2.503906-2.582031 2.914062-4.449219l57.371094-262.261718zm0 0"/></g></svg>