<svg height="511pt" viewBox="-167 0 511 511.99894" width="511pt" xmlns="http://www.w3.org/2000/svg"><path d="m177.585938 105.171875c-.441407 12.742187-1.019532 25.28125-1.71875 37.589844 0 .011719-.011719.011719-.011719.011719-8.011719 141.148437-32.34375 252.585937-63.332031 290.597656h-46.953126c-30.953124-37.980469-55.265624-149.257813-63.308593-290.21875-.722657-12.433594-1.300781-25.101563-1.753907-37.980469-.316406-8.972656 6.871094-16.421875 15.855469-16.421875h145.371094c8.984375.003906 16.171875 7.449219 15.851563 16.421875zm0 0" fill="#d9fcff"/><path d="m161.734375 88.753906h-29.460937c8.980468 0 16.171874 7.445313 15.851562 16.417969-.441406 12.742187-1.019531 25.28125-1.71875 37.589844 0 .011719-.011719.011719-.011719.011719-8.015625 141.148437-32.34375 252.585937-63.332031 290.597656h29.460938c30.988281-38.011719 55.320312-149.453125 63.332031-290.597656 0 0 .011719 0 .011719-.011719.699218-12.308594 1.277343-24.847657 1.71875-37.589844.320312-8.972656-6.867188-16.417969-15.851563-16.417969zm0 0" fill="#b0dee2"/><path d="m162.773438 174.878906c-7.664063 115.996094-30.667969 212.761719-56.398438 244.324219h-35.148438c-25.710937-31.546875-48.238281-128.234375-55.890624-244.128906-.210938-3.222657 3.515624-5.0625 6.015624-3.019531 4.597657 3.761718 10.492188 6.019531 16.917969 6.019531 9.195313 0 17.300781-4.609375 22.070313-11.628907 1.351562-1.976562 4.308594-1.976562 5.660156 0 4.777344 7.019532 12.875 11.628907 22.070312 11.628907 9.742188 0 18.261719-5.183594 22.890626-12.917969 1.296874-2.171875 4.53125-2.171875 5.828124 0 4.636719 7.734375 13.152344 12.917969 22.894532 12.917969 6.515625 0 12.484375-2.316407 17.101562-6.164063 2.472656-2.058594 6.199219-.238281 5.988282 2.96875zm0 0" fill="#ff71bf"/><g fill="#f75c9b"><path d="m106.375 419.203125c25.730469-31.5625 48.734375-128.328125 56.398438-244.324219.210937-3.207031-3.515626-5.027344-5.988282-2.96875-3.566406 2.972656-7.945312 5.015625-12.753906 5.800782-8.683594 110.324218-27.589844 198.625-51.546875 241.492187zm0 0"/><path d="m102.148438 406.355469c-.394532 0-.789063-.03125-1.191407-.089844-4.214843-.652344-7.105469-4.601563-6.453125-8.816406 6.699219-43.375 12.035156-121.148438 14.640625-213.382813.121094-4.261718 3.632813-7.613281 7.941407-7.503906 4.265624.121094 7.625 3.675781 7.503906 7.941406-2.660156 94.210938-7.921875 170.675782-14.816406 215.304688-.589844 3.816406-3.878907 6.546875-7.625 6.546875zm0 0"/><path d="m75.980469 406.355469c-3.75 0-7.039063-2.730469-7.628907-6.546875-6.894531-44.628906-12.15625-121.089844-14.816406-215.304688-.121094-4.265625 3.242188-7.820312 7.507813-7.941406 4.316406-.121094 7.820312 3.242188 7.941406 7.503906 2.601563 92.234375 7.9375 170.007813 14.640625 213.382813.652344 4.21875-2.242188 8.164062-6.457031 8.816406-.398438.058594-.796875.089844-1.1875.089844zm0 0"/></g><path d="m107.171875 464.136719h-36.246094c-8.496093 0-15.382812-6.886719-15.382812-15.378907v-1.101562c0-8.496094 6.886719-15.382812 15.382812-15.382812h36.246094c8.496094 0 15.378906 6.886718 15.378906 15.382812v1.101562c.003907 8.492188-6.882812 15.378907-15.378906 15.378907zm0 0" fill="#b0dee2"/><path d="m107.171875 432.273438h-21.65625c8.496094 0 15.382813 6.886718 15.382813 15.378906v1.105468c0 8.492188-6.886719 15.378907-15.382813 15.378907h21.65625c8.496094 0 15.378906-6.886719 15.378906-15.378907v-1.105468c.003907-8.492188-6.882812-15.378906-15.378906-15.378906zm0 0" fill="#85c9c9"/><path d="m108.550781 463.148438h-39.007812c-24.722657 0-44.765625 20.042968-44.765625 44.765624 0 2.257813 1.828125 4.085938 4.082031 4.085938h120.378906c2.253907 0 4.082031-1.828125 4.082031-4.085938 0-24.722656-20.042968-44.765624-44.769531-44.765624zm0 0" fill="#d9fcff"/><path d="m108.550781 463.148438h-24.277343c24.726562 0 44.769531 20.042968 44.769531 44.765624 0 2.257813-1.828125 4.085938-4.082031 4.085938h24.277343c2.253907 0 4.082031-1.828125 4.082031-4.085938 0-24.722656-20.042968-44.765624-44.769531-44.765624zm0 0" fill="#b0dee2"/><path d="m54.015625 88.886719h-28.578125l-23.40625-78.558594c-.582031-1.945313.535156-3.988281 2.484375-4.558594l19.3125-5.621093c1.933594-.566407 3.957031.539062 4.53125 2.46875zm0 0" fill="#ffefc7"/><path d="m36.820312 31.40625-20.105468 28.511719 8.722656 28.96875h28.578125zm0 0" fill="#e55045"/></svg>