<svg height="512pt" viewBox="0 0 512 512" width="512pt" xmlns="http://www.w3.org/2000/svg"><path d="m512 256c0 22.035156-22.367188 40.835938-27.796875 61.15625-5.621094 21.023438 4.183594 48.457031-6.46875 66.867188-10.800781 18.675781-39.566406 23.835937-54.71875 38.992187-15.15625 15.152344-20.316406 43.917969-38.992187 54.71875-18.410157 10.652344-45.84375.847656-66.867188 6.46875-20.320312 5.429687-39.121094 27.796875-61.15625 27.796875s-40.835938-22.367188-61.15625-27.796875c-21.023438-5.621094-48.457031 4.183594-66.867188-6.46875-18.675781-10.800781-23.835937-39.566406-38.992187-54.71875-15.152344-15.15625-43.917969-20.316406-54.71875-38.992187-10.652344-18.410157-.847656-45.84375-6.46875-66.867188-5.429687-20.320312-27.796875-39.121094-27.796875-61.15625s22.367188-40.835938 27.796875-61.15625c5.621094-21.023438-4.183594-48.457031 6.46875-66.867188 10.800781-18.675781 39.566406-23.835937 54.71875-38.992187 15.15625-15.152344 20.316406-43.917969 38.992187-54.71875 18.410157-10.652344 45.84375-.847656 66.867188-6.46875 20.320312-5.429687 39.121094-27.796875 61.15625-27.796875s40.835938 22.367188 61.15625 27.796875c21.023438 5.621094 48.457031-4.183594 66.867188 6.46875 18.675781 10.800781 23.835937 39.566406 38.992187 54.71875 15.152344 15.15625 43.917969 20.316406 54.71875 38.992187 10.652344 18.410157.847656 45.84375 6.46875 66.867188 5.429687 20.320312 27.796875 39.121094 27.796875 61.15625zm0 0" fill="#ffe170"/><path d="m512 256c0-22.035156-22.367188-40.835938-27.796875-61.15625-5.621094-21.023438 4.183594-48.457031-6.46875-66.867188-10.800781-18.675781-39.566406-23.835937-54.71875-38.992187-15.15625-15.152344-20.316406-43.917969-38.992187-54.71875-3.667969-2.125-7.699219-3.425781-11.964844-4.207031 3.867187 3.089844 7.191406 6.589844 9.613281 10.773437 10.648437 18.410157.84375 45.84375 6.464844 66.871094 5.429687 20.320313 27.796875 39.121094 27.796875 61.152344 0 22.035156-22.367188 40.835937-27.796875 61.15625-5.621094 21.027343 4.183593 48.460937-6.464844 66.871093-10.804687 18.671876-39.570313 23.832032-54.722656 38.988282-15.15625 15.15625-20.316407 43.917968-38.992188 54.722656-18.40625 10.648438-45.84375.84375-66.867187 6.464844-20.320313 5.429687-39.121094 27.796875-61.15625 27.796875s-40.832032-22.363281-61.15625-27.796875c-16.832032-4.5-37.773438.878906-54.902344-2.257813 13.398438 10.707031 33.347656 16.453125 45.109375 28.214844 15.15625 15.152344 20.316406 43.917969 38.992187 54.71875 18.40625 10.652344 45.839844.847656 66.867188 6.46875 20.320312 5.429687 39.121094 27.796875 61.15625 27.796875s40.835938-22.367188 61.15625-27.796875c21.023438-5.621094 48.457031 4.183594 66.867188-6.46875 18.675781-10.800781 23.835937-39.566406 38.992187-54.71875 15.152344-15.15625 43.917969-20.316406 54.71875-38.992187 10.652344-18.410157.847656-45.84375 6.46875-66.867188 5.429687-20.320312 27.796875-39.121094 27.796875-61.15625zm0 0" fill="#ffd071"/><path d="m469.804688 256c0 .617188-.023438 1.226562-.0625 1.84375-.371094 5.542969-2.371094 10.847656-5.078126 16.03125-5.875 11.277344-15.082031 21.960938-18.082031 33.203125-2.253906 8.4375-1.535156 18.097656-1.164062 27.578125.246093 6.457031.339843 12.835938-.792969 18.65625-.65625 3.417969-1.730469 6.65625-3.441406 9.613281-7.898438 13.648438-27.289063 18.65625-40.484375 28.183594-1.875 1.351563-3.636719 2.800781-5.214844 4.378906-1.988281 1.988281-3.769531 4.253907-5.425781 6.707031-8.863282 13.125-13.992188 31.390626-27.136719 38.992188-3.65625 2.109375-7.738281 3.253906-12.074219 3.839844-5.964844.816406-12.414062.558594-18.894531.269531-8.601563-.359375-17.242187-.75-24.878906 1.289063-11.847657 3.160156-23.066407 13.214843-35.023438 19.007812-5.171875 2.5-10.488281 4.210938-16.050781 4.210938-.144531 0-.289062 0-.433594-.007813-.082031.007813-.164062 0-.246094 0-5.605468-.136719-10.960937-1.988281-16.183593-4.605469-11.652344-5.84375-22.632813-15.515625-34.214844-18.605468-7.984375-2.132813-17.078125-1.609376-26.0625-1.226563-6.46875.269531-12.886719.453125-18.789063-.496094-3.9375-.617187-7.644531-1.742187-10.992187-3.675781-13.363281-7.738281-18.441406-26.476562-27.589844-39.640625-1.523437-2.207031-3.164062-4.246094-4.976562-6.058594-1.761719-1.761719-3.738281-3.359375-5.859375-4.832031-13.175782-9.242188-32.070313-14.300781-39.839844-27.730469-1.882812-3.257812-2.996094-6.851562-3.625-10.664062-.988281-5.894531-.824219-12.300781-.554688-18.78125.371094-9.09375.945313-18.316407-1.21875-26.402344-3.066406-11.496094-12.636718-22.417969-18.480468-33.984375-2.675782-5.277344-4.574219-10.675781-4.726563-16.328125v-.082031c-.011719-.230469-.011719-.453125-.011719-.679688 0-5.566406 1.710938-10.882812 4.214844-16.050781 5.789063-11.960937 15.84375-23.179687 19.003906-35.027344 2.042969-7.632812 1.648438-16.277343 1.289063-24.878906-.289063-6.480469-.546875-12.929687.269531-18.894531.585938-4.335938 1.730469-8.414063 3.84375-12.074219 7.601563-13.144531 25.867188-18.273437 38.992188-27.144531 2.449218-1.648438 4.714844-3.429688 6.703125-5.417969 1.578125-1.574219 3.03125-3.335937 4.378906-5.210937 9.53125-13.199219 14.535156-32.585938 28.1875-40.488282 2.957031-1.710937 6.191406-2.78125 9.609375-3.441406 5.824219-1.132812 12.199219-1.039062 18.660156-.792969 9.476563.371094 19.140625 1.09375 27.578125-1.164062 11.238281-2.996094 21.921875-12.207031 33.203125-18.078125 5.179688-2.710938 10.484375-4.707032 16.027344-5.078125.617188-.042969 1.226562-.0625 1.84375-.0625.257812 0 .507812 0 .761719.007812 5.65625.15625 11.054687 2.050781 16.328125 4.730469 11.570312 5.839844 22.488281 15.410156 33.988281 18.480469 8.085937 2.164062 17.304687 1.585937 26.402344 1.214843 6.480469-.265624 12.886719-.433593 18.78125.558594 3.8125.625 7.40625 1.738282 10.660156 3.625 13.433594 7.769532 18.492187 26.660156 27.734375 39.835938 1.472656 2.121094 3.070312 4.101562 4.832031 5.863281 1.8125 1.8125 3.851563 3.449219 6.058594 4.964844 13.164063 9.15625 31.902344 14.238281 39.640625 27.597656 1.933594 3.347656 3.058594 7.058594 3.675781 10.992187.949219 5.902344.761719 12.320313.496094 18.789063-.382813 8.984375-.910156 18.082031 1.226563 26.066406 3.089843 11.578125 12.761718 22.558594 18.601562 34.210938 2.660156 5.296875 4.523438 10.734375 4.605469 16.429687.011719.144532.011719.289063.011719.433594zm0 0" fill="#bf9984"/><path d="m465.1875 239.136719c-5.839844-11.652344-15.511719-22.632813-18.601562-34.210938-2.132813-7.984375-1.609376-17.082031-1.226563-26.066406.265625-6.46875.453125-12.886719-.496094-18.789063-.617187-3.933593-1.742187-7.644531-3.675781-10.992187-7.738281-13.359375-26.476562-18.441406-39.640625-27.597656-2.207031-1.515625-4.246094-3.152344-6.058594-4.964844-1.761719-1.761719-3.359375-3.742187-4.832031-5.863281-1.011719-1.441406-1.96875-2.953125-2.898438-4.511719.121094.523437.242188 1.046875.378907 1.5625 5.433593 20.320313 27.800781 39.121094 27.800781 61.152344 0 22.035156-22.367188 40.835937-27.800781 61.15625-5.617188 21.027343 4.1875 48.460937-6.464844 66.871093-10.804687 18.671876-39.566406 23.832032-54.722656 38.988282-15.152344 15.15625-20.316407 43.917968-38.988281 54.722656-18.410157 10.648438-45.84375.84375-66.871094 6.464844-20.320313 5.429687-39.121094 27.796875-61.152344 27.796875-11.304688 0-21.753906-5.886719-32-12.351563 5.851562 11.101563 11.210938 22.929688 21.140625 28.683594 3.347656 1.933594 7.058594 3.058594 10.992187 3.675781 5.902344.949219 12.320313.761719 18.789063.496094 8.984375-.382813 18.082031-.90625 26.066406 1.226563 11.578125 3.089843 22.558594 12.761718 34.210938 18.605468 5.222656 2.617188 10.582031 4.46875 16.183593 4.605469.082032 0 .164063.007813.246094 0 .144532.007813.289063.007813.433594.007813 5.5625 0 10.878906-1.710938 16.050781-4.210938 11.960938-5.792969 23.179688-15.847656 35.027344-19.007812 7.632813-2.039063 16.277344-1.648438 24.878906-1.289063 6.480469.289063 12.929688.546875 18.894531-.269531 4.335938-.585938 8.414063-1.730469 12.074219-3.839844 13.144531-7.605469 18.273438-25.871094 27.132813-38.992188 1.660156-2.453124 3.441406-4.71875 5.429687-6.707031 1.574219-1.578125 3.335938-3.027343 5.210938-4.378906 13.199219-9.527344 32.585937-14.535156 40.488281-28.183594 1.710938-2.957031 2.78125-6.191406 3.441406-9.613281 1.132813-5.820312 1.039063-12.199219.792969-18.65625-.371094-9.480469-1.09375-19.140625 1.164063-27.578125 2.996093-11.238281 12.207031-21.921875 18.078124-33.203125 2.710938-5.183594 4.707032-10.488281 5.078126-16.03125.042968-.617188.0625-1.226562.0625-1.84375 0-.144531 0-.289062-.007813-.433594-.085937-5.695312-1.949219-11.136718-4.609375-16.429687zm0 0" fill="#aa7966"/><path d="m469.792969 255.566406c-.082031-5.695312-1.945313-11.136718-4.605469-16.429687-.90625.371093-1.75.925781-2.492188 1.667969l-4.996093 4.996093-39.640625-39.640625 27.300781-27.300781c.269531-6.46875.453125-12.886719-.496094-18.789063-1.75.144532-3.449219.894532-4.789062 2.234376l-32.933594 32.933593-39.640625-39.640625 33.53125-33.542968c.183594-.183594.359375-.378907.515625-.574219-2.207031-1.515625-4.246094-3.152344-6.058594-4.964844-1.761719-1.761719-3.355469-3.742187-4.832031-5.863281-.183594.144531-.371094.308594-.546875.484375l-33.53125 33.542969-39.652344-39.652344 33.101563-33.101563c1.328125-1.316406 2.070312-3.007812 2.234375-4.738281-5.894531-.988281-12.300781-.824219-18.78125-.554688l-27.472657 27.472657-39.640624-39.640625 5.085937-5.085938c.722656-.722656 1.269531-1.558594 1.640625-2.445312-5.277344-2.675782-10.671875-4.574219-16.328125-4.726563l-1.328125 1.328125-1.277344-1.277344c-5.542968.371094-10.847656 2.371094-16.03125 5.078126.371094.847656.90625 1.640624 1.597656 2.328124l4.789063 4.789063-39.640625 39.652344-27.527344-27.523438c-6.457031-.246093-12.835937-.339843-18.65625.792969.1875 1.679688.917969 3.304688 2.214844 4.605469l33.046875 33.046875-39.648437 39.640625-32.988282-32.984375c-.132812-.136719-.277344-.269532-.421875-.382813-1.347656 1.875-2.800781 3.636719-4.378906 5.214844-1.988281 1.988281-4.253906 3.769531-6.703125 5.417969.171875.238281.371094.453125.585938.667968l32.984374 32.988282-39.640624 39.652344-31.84375-31.84375c-1.378907-1.378907-3.128907-2.121094-4.921876-2.246094-.816406 5.964844-.554687 12.414062-.269531 18.894531l26.117188 26.113281-39.652344 39.640625-4.132813-4.128906c-.773437-.773437-1.667968-1.351563-2.625-1.722656-2.503906 5.171875-4.214843 10.488281-4.214843 16.050781 0 .226562 0 .453125.011719.679688l.039062.042968-.039062.039063c.152343 5.65625 2.050781 11.054687 4.726562 16.328125.886719-.371094 1.722656-.917969 2.445312-1.636719l3.800782-3.800781 39.640625 39.640625-26.191407 26.1875c-.269531 6.480469-.433593 12.886719.554688 18.78125 1.730469-.167969 3.421875-.910157 4.738281-2.238281l31.8125-31.8125 39.652344 39.652343-32.253906 32.246094c-.175781.175781-.339844.359375-.484375.546875 2.121094 1.472656 4.101562 3.070312 5.863281 4.832031 1.8125 1.8125 3.449219 3.851563 4.972656 6.054688.199219-.164063.382813-.328125.570313-.515625l32.253906-32.242188 39.640625 39.640625-31.648437 31.644531c-1.335938 1.339844-2.089844 3.039063-2.234376 4.792969 5.902344.945313 12.320313.761719 18.789063.492188l26.011719-26.011719 39.644531 39.640625-3.710937 3.710937c-.742188.742188-1.296876 1.585938-1.667969 2.492188 5.222656 2.617188 10.578125 4.472656 16.183593 4.605469l.125.125.121094-.125c.144532.011719.289063.011719.433594.011719 5.5625 0 10.878906-1.710938 16.050781-4.214844-.371093-.957032-.949219-1.855469-1.71875-2.625l-3.96875-3.96875 39.652344-39.640625 25.941406 25.941406c6.480469.289063 12.929688.546875 18.894531-.269531-.125-1.792969-.867187-3.542969-2.246093-4.921875l-31.667969-31.667969 39.640625-39.652344 32.820313 32.820313c.207031.214843.433593.414062.660156.585937 1.660156-2.449218 3.441406-4.714844 5.429687-6.703125 1.574219-1.578125 3.335938-3.03125 5.210938-4.378906-.109375-.144531-.246094-.289063-.378907-.421875l-32.824218-32.824219 39.652344-39.640625 32.875 32.875c1.289062 1.296875 2.925781 2.027344 4.605468 2.214844 1.132813-5.820312 1.039063-12.199219.792969-18.65625l-27.351563-27.351562 39.640626-39.652344 4.625 4.625c.691406.691406 1.484374 1.226562 2.328124 1.597656 2.710938-5.183594 4.707032-10.488281 5.078126-16.03125l-1.109376-1.113281zm-73.574219-49.40625-39.640625 39.652344-39.652344-39.652344 39.652344-39.640625zm-151.695312 50.570313-39.652344 39.640625-39.640625-39.640625 39.640625-39.652344zm-28.730469-50.570313 39.652343-39.640625 39.640626 39.640625-39.640626 39.652344zm39.652343 61.492188 39.640626 39.640625-39.640626 39.652343-39.652343-39.652343zm10.917969-10.921875 39.640625-39.652344 39.652344 39.652344-39.652344 39.640625zm79.292969-101.132813-39.652344 39.640625-39.640625-39.640625 39.640625-39.652344zm-90.210938-90.210937 39.640626 39.640625-39.640626 39.652344-39.640624-39.640626zm-50.5625 50.570312 39.640626 39.640625-39.652344 39.640625-39.640625-39.640625zm-50.570312 50.5625 39.640625 39.640625-39.640625 39.652344-39.640625-39.640625zm-90.214844 90.210938 39.652344-39.640625 39.640625 39.640625-39.652344 39.640625zm50.5625 50.5625 39.652344-39.640625 39.640625 39.640625-39.640625 39.652343zm50.570313 50.570312 39.640625-39.652343 39.652344 39.652343-39.652344 39.640625zm90.203125 90.203125-39.640625-39.640625 39.652343-39.640625 39.640626 39.640625zm50.570312-50.558594-39.640625-39.644531 39.640625-39.648437 39.640625 39.640625zm50.5625-50.574218-39.640625-39.640625 39.652344-39.640625 39.640625 39.640625zm50.570313-50.5625-39.640625-39.640625 39.640625-39.652344 39.640625 39.644531zm0 0" fill="#aa7966"/><g fill="#705245"><path d="m389.449219 111.785156c1.816406 4.863282 4.464843 9.65625 7.398437 14.445313l4.171875-4.175781c.183594-.183594.359375-.378907.515625-.574219-2.207031-1.515625-4.246094-3.152344-6.058594-4.964844-1.761718-1.761719-3.359374-3.742187-4.832031-5.863281-.183593.144531-.371093.308594-.546875.484375zm0 0"/><path d="m469.78125 255.566406c-.082031-5.695312-1.945312-11.136718-4.601562-16.429687-.910157.371093-1.753907.925781-2.496094 1.667969l-4.996094 4.996093-39.640625-39.640625 27.300781-27.300781c.269532-6.46875.453125-12.886719-.492187-18.789063-1.753907.144532-3.453125.894532-4.792969 2.234376l-32.933594 32.933593-.074218-.074219c-6.886719 11.726563-15.769532 23.027344-18.925782 34.847657-.644531 2.402343-1.078125 4.894531-1.371094 7.441406l20.371094-20.375 39.640625 39.644531-39.640625 39.648438-20.3125-20.3125c-.289062 6.460937-1.269531 12.605468-3.761718 18.082031l13.15625 13.152344-39.652344 39.640625-19.140625-19.140625c-3.867188 2.421875-7.449219 5.046875-10.480469 8.078125-.542969.546875-1.074219 1.113281-1.59375 1.691406l20.292969 20.292969-39.640625 39.652343-11.691406-11.691406c-1.941407 1.828125-4.042969 3.441406-6.355469 4.777344-2.371094 1.375-4.898438 2.398438-7.535157 3.171875l14.660157 14.660156-39.652344 39.640625-39.640625-39.640625 12.738281-12.734375c-2.546875.292969-5.035156.726563-7.441406 1.367188-11.691406 3.125-22.886719 11.855468-34.476563 18.707031l-24.308593 24.308594c-1.339844 1.335937-2.089844 3.039062-2.234375 4.789062 5.902344.949219 12.320312.761719 18.789062.496094l26.011719-26.011719 39.644531 39.640625-3.710937 3.707031c-.742188.742188-1.296875 1.585938-1.667969 2.492188 5.222656 2.617188 10.578125 4.472656 16.183594 4.605469.082031 0 .164062.011719.246094 0 .144531.011719.289062.011719.433593.011719 5.5625 0 10.878907-1.710938 16.050781-4.214844-.371093-.957032-.949218-1.851563-1.722656-2.625l-3.964844-3.96875 39.652344-39.640625 25.941406 25.941406c6.480469.289063 12.925782.546875 18.894532-.269531-.125-1.792969-.867188-3.542969-2.246094-4.921875l-31.667969-31.667969 39.640625-39.652344 32.820313 32.820313c.207031.21875.433593.414062.660156.589843 1.65625-2.453124 3.441406-4.71875 5.429687-6.707031 1.574219-1.578125 3.335938-3.027343 5.210938-4.378906-.113281-.144531-.246094-.289063-.378906-.421875l-32.824219-32.820312 39.652344-39.640626 32.875 32.871094c1.285156 1.296875 2.925781 2.03125 4.601562 2.214844 1.132813-5.820312 1.042969-12.195312.792969-18.65625l-27.347656-27.351562 39.640625-39.652344 4.625 4.625c.691406.691406 1.484375 1.226562 2.328125 1.597656 2.707031-5.179688 4.707031-10.484375 5.078125-16.027344l-1.113281-1.113281zm0 0"/></g></svg>