<svg height="512pt" viewBox="0 0 512 512" width="512pt" xmlns="http://www.w3.org/2000/svg"><path d="m512 256c0 22.035156-22.367188 40.835938-27.796875 61.15625-5.621094 21.023438 4.183594 48.457031-6.46875 66.867188-10.800781 18.675781-39.566406 23.835937-54.71875 38.992187-15.15625 15.152344-20.316406 43.917969-38.992187 54.71875-18.410157 10.652344-45.84375.847656-66.867188 6.46875-20.320312 5.429687-39.121094 27.796875-61.15625 27.796875s-40.835938-22.367188-61.15625-27.796875c-21.023438-5.621094-48.457031 4.183594-66.867188-6.46875-18.675781-10.800781-23.835937-39.566406-38.992187-54.71875-15.152344-15.15625-43.917969-20.316406-54.71875-38.992187-10.652344-18.410157-.847656-45.84375-6.46875-66.867188-5.429687-20.320312-27.796875-39.121094-27.796875-61.15625s22.367188-40.835938 27.796875-61.15625c5.621094-21.023438-4.183594-48.457031 6.46875-66.867188 10.800781-18.675781 39.566406-23.835937 54.71875-38.992187 15.15625-15.152344 20.316406-43.917969 38.992187-54.71875 18.410157-10.652344 45.84375-.847656 66.867188-6.46875 20.320312-5.429687 39.121094-27.796875 61.15625-27.796875s40.835938 22.367188 61.15625 27.796875c21.023438 5.621094 48.457031-4.183594 66.867188 6.46875 18.675781 10.800781 23.835937 39.566406 38.992187 54.71875 15.152344 15.15625 43.917969 20.316406 54.71875 38.992187 10.652344 18.410157.847656 45.84375 6.46875 66.867188 5.429687 20.320312 27.796875 39.121094 27.796875 61.15625zm0 0" fill="#bf9984"/><path d="m512 256c0-22.035156-22.367188-40.835938-27.796875-61.15625-5.621094-21.023438 4.183594-48.457031-6.46875-66.867188-10.800781-18.675781-39.566406-23.835937-54.71875-38.992187-15.15625-15.152344-20.316406-43.917969-38.992187-54.71875-17.300782-10.011719-42.566407-1.957031-63-5.613281 15.78125 11.035156 38.371093 17.101562 47.667968 33.171875 10.652344 18.410156.84375 45.84375 6.464844 66.871093 5.433594 20.320313 27.796875 39.121094 27.796875 61.152344 0 22.035156-22.363281 40.835938-27.796875 61.15625-5.621094 21.027344 4.1875 48.460938-6.464844 66.867188-10.804687 18.675781-39.566406 23.835937-54.722656 38.992187s-20.316406 43.917969-38.988281 54.722657c-18.410157 10.648437-45.84375.84375-66.871094 6.464843-20.320313 5.429688-39.121094 27.796875-61.15625 27.796875-22.03125 0-40.832031-22.363281-61.152344-27.796875-1.269531-.339843-2.558593-.617187-3.871093-.851562 2.558593 1.785156 4.941406 3.703125 7.054687 5.816406 15.15625 15.152344 20.316406 43.917969 38.992187 54.71875 18.410157 10.652344 45.84375.847656 66.867188 6.46875 20.320312 5.429687 39.121094 27.796875 61.15625 27.796875s40.835938-22.367188 61.15625-27.796875c21.023438-5.621094 48.457031 4.183594 66.867188-6.46875 18.675781-10.800781 23.835937-39.566406 38.992187-54.71875 15.152344-15.15625 43.917969-20.316406 54.71875-38.992187 10.652344-18.410157.847656-45.84375 6.46875-66.867188 5.429687-20.320312 27.796875-39.121094 27.796875-61.15625zm0 0" fill="#aa7966"/><g fill="#705245"><path d="m365.011719 369.902344c-.058594 11.378906-8.253907 20.917968-19.53125 22.472656-14.851563 2.050781-27.066407-9.867188-26.226563-24.027344.714844-12.019531 11.101563-26.460937 21.394532-35.785156 1.445312-1.308594 3.730468-.355469 3.84375 1.589844 1.226562 21.519531 20.609374 19.558594 20.519531 35.75zm0 0"/><path d="m192.753906 369.902344c-.0625 11.378906-8.257812 20.917968-19.53125 22.472656-14.855468 2.050781-27.066406-9.867188-26.226562-24.027344.710937-12.019531 11.101562-26.460937 21.390625-35.785156 1.445312-1.308594 3.734375-.355469 3.84375 1.589844 1.230469 21.519531 20.609375 19.558594 20.523437 35.75zm0 0"/><path d="m365.011719 158.144531c-.058594 11.378907-8.253907 20.917969-19.53125 22.472657-14.851563 2.050781-27.066407-9.867188-26.226563-24.027344.714844-12.019532 11.101563-26.460938 21.394532-35.785156 1.445312-1.308594 3.730468-.355469 3.84375 1.589843 1.226562 21.519531 20.609374 19.558594 20.519531 35.75zm0 0"/><path d="m192.753906 158.144531c-.0625 11.378907-8.257812 20.917969-19.53125 22.472657-14.855468 2.050781-27.066406-9.867188-26.226562-24.027344.710937-12.019532 11.101562-26.460938 21.390625-35.785156 1.445312-1.308594 3.734375-.355469 3.84375 1.589843 1.230469 21.519531 20.609375 19.558594 20.523437 35.75zm0 0"/><path d="m279.433594 257.988281c-.0625 11.378907-8.257813 20.917969-19.53125 22.472657-14.855469 2.050781-27.070313-9.867188-26.230469-24.027344.714844-12.019532 11.105469-26.460938 21.394531-35.785156 1.445313-1.308594 3.734375-.355469 3.84375 1.589843 1.230469 21.523438 20.609375 19.558594 20.523438 35.75zm0 0"/><path d="m117.046875 257.988281c-.058594 11.378907-8.253906 20.917969-19.53125 22.472657-14.855469 2.050781-27.066406-9.867188-26.226563-24.027344.714844-12.019532 11.101563-26.460938 21.394532-35.785156 1.445312-1.308594 3.730468-.355469 3.84375 1.589843 1.226562 21.523438 20.605468 19.558594 20.519531 35.75zm0 0"/><path d="m446.9375 257.988281c-.0625 11.378907-8.257812 20.917969-19.53125 22.472657-14.855469 2.050781-27.066406-9.867188-26.226562-24.027344.710937-12.019532 11.101562-26.460938 21.390624-35.785156 1.445313-1.308594 3.734376-.355469 3.84375 1.589843 1.230469 21.523438 20.609376 19.558594 20.523438 35.75zm0 0"/></g></svg>