<svg height="512pt" viewBox="0 0 512 511" width="512pt" xmlns="http://www.w3.org/2000/svg"><path d="m256 .5c-141.382812 0-256 114.617188-256 256 0 38.238281 8.382812 74.503906 23.40625 107.085938 40.539062 87.902343 129.449219 148.902343 232.59375 148.902343 104.523438 0 194.425781-62.636719 234.1875-152.4375v-.011719c14.03125-31.65625 21.8125-66.691406 21.8125-103.539062 0-141.382812-114.617188-256-256-256zm0 174.8125c44.839844 0 81.179688 36.351562 81.179688 81.1875s-36.339844 81.179688-81.179688 81.179688-81.179688-36.34375-81.179688-81.179688 36.339844-81.1875 81.179688-81.1875zm0 0" fill="#f0dbbd"/><path d="m211.113281 188.855469c-12.855469-8.550781-28.285156-13.542969-44.886719-13.542969-44.835937 0-81.175781 36.351562-81.175781 81.1875s36.339844 81.179688 81.175781 81.179688c16.601563 0 32.03125-4.992188 44.886719-13.542969-21.871093-14.542969-36.292969-39.398438-36.292969-67.636719s14.421876-53.097656 36.292969-67.644531zm0 0" fill="#eac9a2"/><path d="m256 .5c-15.3125 0-30.3125 1.351562-44.886719 3.925781 119.980469 21.222657 211.113281 126.003907 211.113281 252.074219 0 36.847656-7.78125 71.882812-21.8125 103.539062v.011719c-33.933593 76.640625-104.394531 133.488281-189.296874 148.507813 14.574218 2.578125 29.570312 3.929687 44.882812 3.929687 104.523438 0 194.425781-62.640625 234.1875-152.4375v-.011719c14.03125-31.65625 21.8125-66.691406 21.8125-103.539062 0-141.382812-114.617188-256-256-256zm0 0" fill="#eac9a2"/><path d="m256 .5c-141.382812 0-256 114.617188-256 256 0 38.238281 8.382812 74.503906 23.40625 107.085938.800781-1.617188 3.027344-5.597657 7.773438-8.332032 3.9375-2.269531 7.660156-2.582031 9.460937-2.613281 36.289063 0 36.289063 40.746094 72.578125 40.746094 36.277344 0 36.277344-40.746094 72.566406-40.746094 36.289063 0 36.289063 40.746094 72.578125 40.746094 36.277344 0 36.277344-40.746094 72.566407-40.746094 36.289062 0 36.289062 40.746094 72.578124 40.746094 36.285157 0 36.289063-40.746094 72.574219-40.746094 1.636719.085937 4.382813.414063 7.410157 1.898437 3.523437 1.730469 5.667968 4.152344 6.695312 5.5 14.03125-31.65625 21.8125-66.691406 21.8125-103.539062 0-141.382812-114.617188-256-256-256zm0 337.179688c-44.839844 0-81.179688-36.34375-81.179688-81.179688s36.339844-81.1875 81.179688-81.1875 81.179688 36.351562 81.179688 81.1875-36.339844 81.179688-81.179688 81.179688zm0 0" fill="#ff71bf"/><path d="m256 .5c-15.3125 0-30.3125 1.351562-44.886719 3.925781 119.980469 21.222657 211.113281 126.003907 211.113281 252.074219 0 36.847656-7.78125 71.882812-21.8125 103.539062v.011719c-4.433593 10.015625-9.496093 19.6875-15.128906 28.976563 4.984375 2.679687 10.855469 4.359375 18.222656 4.359375 36.289063 0 36.289063-40.746094 72.578126-40.746094 1.636718.082031 4.382812.414063 7.40625 1.894531 3.523437 1.734375 5.667968 4.15625 6.695312 5.503906 14.03125-31.65625 21.8125-66.691406 21.8125-103.539062 0-141.382812-114.617188-256-256-256zm0 0" fill="#f75c9b"/><path d="m128.71875 247.019531c-1.523438 0-3.058594-.445312-4.40625-1.375l-14.144531-9.757812c-3.53125-2.4375-4.421875-7.277344-1.984375-10.808594 2.4375-3.535156 7.277344-4.425781 10.808594-1.984375l14.144531 9.753906c3.535156 2.4375 4.421875 7.277344 1.984375 10.808594-1.507813 2.1875-3.933594 3.363281-6.402344 3.363281zm0 0" fill="#b971ff"/><path d="m143.722656 153.054688c-3.957031 0-7.339844-3.007813-7.726562-7.027344l-1.648438-17.101563c-.410156-4.273437 2.71875-8.070312 6.992188-8.480469 4.28125-.40625 8.070312 2.71875 8.480468 6.992188l1.648438 17.101562c.410156 4.273438-2.722656 8.070313-6.992188 8.480469-.253906.023438-.503906.035157-.753906.035157zm0 0" fill="#fff"/><path d="m157.636719 77.761719c-4.160157 0-7.605469-3.292969-7.761719-7.488281-.15625-4.289063 3.195312-7.890626 7.484375-8.050782l17.171875-.625c4.265625-.164062 7.890625 3.191406 8.046875 7.480469s-3.191406 7.894531-7.480469 8.050781l-17.171875.628906c-.09375.003907-.191406.003907-.289062.003907zm0 0" fill="#b971ff"/><path d="m265.175781 69.761719c-1.679687 0-3.371093-.542969-4.792969-1.660157-3.378906-2.648437-3.96875-7.535156-1.316406-10.910156l10.605469-13.519531c2.648437-3.375 7.535156-3.964844 10.914063-1.316406 3.375 2.648437 3.964843 7.535156 1.316406 10.914062l-10.609375 13.515625c-1.53125 1.953125-3.8125 2.976563-6.117188 2.976563zm0 0" fill="#fff"/><g fill="#ffe170"><path d="m245.726562 141.792969c-1.992187 0-3.980468-.757813-5.496093-2.277344l-12.152344-12.148437c-3.03125-3.035157-3.03125-7.957032 0-10.992188 3.035156-3.035156 7.957031-3.035156 10.992187 0l12.152344 12.152344c3.035156 3.035156 3.035156 7.953125 0 10.988281-1.519531 1.519531-3.507812 2.277344-5.496094 2.277344zm0 0"/><path d="m66.019531 197.542969c-2.46875 0-4.898437-1.171875-6.40625-3.359375-2.4375-3.53125-1.546875-8.371094 1.984375-10.808594l14.144532-9.757812c3.535156-2.4375 8.371093-1.546876 10.808593 1.984374 2.4375 3.535157 1.550781 8.375-1.984375 10.8125l-14.144531 9.753907c-1.347656.929687-2.882813 1.375-4.402344 1.375zm0 0"/><path d="m115.164062 336.632812c-2.175781 0-4.339843-.910156-5.878906-2.683593-2.808594-3.242188-2.460937-8.148438.785156-10.960938l12.984376-11.253906c3.246093-2.808594 8.15625-2.457031 10.964843.785156 2.808594 3.246094 2.460938 8.152344-.785156 10.964844l-12.984375 11.25c-1.472656 1.273437-3.285156 1.898437-5.085938 1.898437zm0 0"/></g><path d="m41.847656 288.21875c-2.683594 0-5.296875-1.394531-6.738281-3.886719-2.144531-3.714843-.871094-8.46875 2.847656-10.613281l14.878907-8.59375c3.71875-2.144531 8.472656-.871094 10.617187 2.847656 2.144531 3.714844.871094 8.46875-2.84375 10.613282l-14.882813 8.59375c-1.222656.703124-2.558593 1.039062-3.878906 1.039062zm0 0" fill="#fff"/><path d="m383.953125 251.972656c-2.53125 0-5.011719-1.234375-6.503906-3.507812l-9.429688-14.367188c-2.355469-3.589844-1.355469-8.40625 2.234375-10.761718 3.589844-2.351563 8.40625-1.355469 10.761719 2.234374l9.425781 14.363282c2.355469 3.589844 1.355469 8.40625-2.230468 10.761718-1.316407.863282-2.796876 1.277344-4.257813 1.277344zm0 0" fill="#fff"/><path d="m366.464844 168.679688c-1.847656 0-3.703125-.65625-5.1875-1.984376-3.195313-2.867187-3.464844-7.78125-.597656-10.976562l11.46875-12.792969c2.863281-3.195312 7.777343-3.464843 10.972656-.601562 3.195312 2.867187 3.464844 7.78125.601562 10.976562l-11.46875 12.792969c-1.535156 1.714844-3.660156 2.585938-5.789062 2.585938zm0 0" fill="#ffe170"/><path d="m341.050781 104.714844c-.097656 0-.191406-.003906-.289062-.007813l-17.171875-.625c-4.289063-.15625-7.640625-3.761719-7.480469-8.050781.15625-4.289062 3.746094-7.636719 8.046875-7.484375l17.171875.628906c4.289063.15625 7.640625 3.761719 7.484375 8.050781-.15625 4.191407-3.601562 7.488282-7.761719 7.488282zm0 0" fill="#fff"/><path d="m456.277344 172.039062c-1.519532 0-3.058594-.445312-4.40625-1.375l-14.140625-9.757812c-3.535157-2.4375-4.421875-7.277344-1.988281-10.808594 2.4375-3.535156 7.277343-4.421875 10.8125-1.984375l14.144531 9.753907c3.53125 2.4375 4.421875 7.277343 1.984375 10.8125-1.507813 2.183593-3.9375 3.359374-6.40625 3.359374zm0 0" fill="#b971ff"/><path d="m453.113281 270.523438c-2.6875 0-5.296875-1.390626-6.738281-3.886719-2.144531-3.714844-.871094-8.46875 2.84375-10.613281l14.882812-8.59375c3.714844-2.144532 8.46875-.871094 10.613282 2.847656 2.148437 3.714844.875 8.46875-2.84375 10.613281l-14.878906 8.59375c-1.222657.703125-2.558594 1.039063-3.878907 1.039063zm0 0" fill="#fff"/><path d="m415.992188 347.414062c-1.320313 0-2.65625-.335937-3.878907-1.042968l-14.882812-8.589844c-3.714844-2.144531-4.988281-6.898438-2.84375-10.617188 2.144531-3.714843 6.898437-4.992187 10.617187-2.84375l14.878906 8.589844c3.71875 2.148438 4.992188 6.898438 2.84375 10.617188-1.4375 2.492187-4.050781 3.886718-6.734374 3.886718zm0 0" fill="#ffe170"/></svg>