<svg height="512pt" viewBox="0 -128 512.001 512" width="512pt" xmlns="http://www.w3.org/2000/svg"><path d="m405.789062 255.039062h-299.578124c-46.675782 0-84.511719-37.835937-84.511719-84.507812v-13.484375c0-10.503906 8.515625-19.019531 19.019531-19.019531h430.5625c10.503906 0 19.019531 8.515625 19.019531 19.019531v13.484375c0 46.671875-37.835937 84.507812-84.511719 84.507812zm0 0" fill="#d9fcff"/><path d="m471.28125 138.027344h-430.5625c-10.503906 0-19.019531 8.511718-19.019531 19.015625v13.488281c0 9.074219 1.445312 17.808594 4.09375 26h379.355469c10.503906 0 19.019531 8.515625 19.019531 19.019531v13.484375c0 8.597656-1.292969 16.886719-3.675781 24.703125 39.660156-6.960937 69.808593-41.550781 69.808593-83.210937v-13.484375c0-10.503907-8.515625-19.015625-19.019531-19.015625zm0 0" fill="#b0dee2"/><path d="m487.683594 105.121094c-13.40625-5.796875-26.21875-12.890625-37.691406-21.929688-10.210938-8.042968-22.289063-17.027344-36.113282-26.386718-68.113281-46.097657-110.226562-56.8554692-163.613281-56.804688-53.796875.0546875-96.1875 11.328125-162.625 56.804688-23.480469 16.070312-42.019531 31.1875-55.207031 42.691406-2.996094 2.613281-6.320313 4.792968-9.839844 6.632812-13.882812 7.265625-22.59375 20.082032-22.59375 33.632813 0 21.246093 19.269531 38.472656 43.042969 38.472656 17.441406 0 32.457031-9.277344 39.214843-22.609375 1.238282-2.441406 4.800782-2.441406 6.039063 0 6.757813 13.332031 21.769531 22.609375 39.214844 22.609375 20.847656 0 38.226562-13.253906 42.1875-30.84375h1.285156c3.960937 17.589844 21.335937 30.84375 42.1875 30.84375 20.386719 0 37.457031-12.675781 41.902344-29.6875h1.851562c4.445313 17.011719 21.515625 29.6875 41.902344 29.6875 21.039063 0 38.542969-13.492187 42.292969-31.324219h1.074218c3.75 17.832032 21.253907 31.324219 42.292969 31.324219 17.441407 0 32.457031-9.277344 39.214844-22.609375 1.238281-2.441406 4.800781-2.441406 6.039063 0 6.757812 13.332031 21.773437 22.609375 39.214843 22.609375 23.773438 0 43.042969-17.226563 43.042969-38.472656 0-15.246094-9.925781-28.417969-24.316406-34.640625zm0 0" fill="#bf9984"/><path d="m487.683594 105.121094c-13.40625-5.796875-26.21875-12.890625-37.691406-21.929688-10.210938-8.042968-22.289063-17.027344-36.113282-26.386718-68.113281-46.097657-110.226562-56.8554692-163.613281-56.804688-10.78125.0117188-21.101563.484375-31.25 1.582031 39.921875 4.332031 77.59375 18.652344 131.632813 55.222657 13.824218 9.359374 25.902343 18.34375 36.113281 26.386718 11.472656 9.039063 24.285156 16.132813 37.691406 21.929688 14.390625 6.222656 24.316406 19.394531 24.316406 34.640625 0 10.066406-4.328125 19.226562-11.410156 26.082031 7.863281 7.609375 19.097656 12.390625 31.601563 12.390625 23.769531 0 43.039062-17.226563 43.039062-38.472656 0-15.246094-9.925781-28.417969-24.316406-34.640625zm0 0" fill="#aa7966"/><g fill="#876954"><path d="m247.898438 76.667969c-.015626 0-.03125 0-.046876 0-4.265624-.027344-7.703124-3.507813-7.679687-7.773438l.101563-17.066406c.027343-4.253906 3.480468-7.683594 7.726562-7.683594h.046875c4.265625.027344 7.707031 3.507813 7.679687 7.773438l-.101562 17.066406c-.023438 4.253906-3.480469 7.683594-7.726562 7.683594zm0 0"/><path d="m207.644531 75.835938c-1.117187 0-2.25-.246094-3.328125-.757813-3.847656-1.839844-5.476562-6.453125-3.640625-10.300781l7.359375-15.402344c1.835938-3.851562 6.449219-5.480469 10.300782-3.640625 3.851562 1.839844 5.480468 6.453125 3.640624 10.300781l-7.355468 15.402344c-1.324219 2.773438-4.09375 4.398438-6.976563 4.398438zm0 0"/><path d="m287.949219 75.976562c-2.996094 0-5.84375-1.753906-7.101563-4.679687l-6.746094-15.679687c-1.683593-3.917969.128907-8.460938 4.046876-10.148438 3.917968-1.6875 8.464843.125 10.152343 4.046875l6.742188 15.679687c1.683593 3.917969-.128907 8.464844-4.046875 10.148438-.996094.429688-2.03125.632812-3.046875.632812zm0 0"/><path d="m163.144531 74.390625c-1.878906 0-3.761719-.683594-5.25-2.0625-3.128906-2.902344-3.3125-7.792969-.410156-10.921875l11.605469-12.511719c2.902344-3.128906 7.792968-3.3125 10.921875-.410156 3.125 2.902344 3.308593 7.789063.410156 10.917969l-11.609375 12.515625c-1.523438 1.640625-3.589844 2.472656-5.667969 2.472656zm0 0"/><path d="m332.753906 74.390625c-2.074218 0-4.144531-.832031-5.664062-2.472656l-11.609375-12.515625c-2.902344-3.128906-2.71875-8.015625.410156-10.917969s8.015625-2.71875 10.917969.410156l11.609375 12.511719c2.902343 3.128906 2.71875 8.019531-.410157 10.921875-1.488281 1.378906-3.371093 2.0625-5.253906 2.0625zm0 0"/></g></svg>