<svg height="512pt" viewBox="0 -58 512.001 512" width="512pt" xmlns="http://www.w3.org/2000/svg"><path d="m67.449219 112.300781h387.210937v227.347657h-387.210937zm0 0" fill="#bf9984"/><path d="m67.449219 195.199219h387.210937v74.984375h-387.210937zm0 0" fill="#f0dbbd"/><path d="m353.429688 133.578125h101.230468v204.070313h-101.230468zm0 0" fill="#876954"/><path d="m464.269531 395.214844h-416.539062c-26.359375 0-47.730469-21.367188-47.730469-47.730469 0-5.929687 4.808594-10.738281 10.742188-10.738281h490.515624c5.933594 0 10.742188 4.808594 10.742188 10.738281 0 26.363281-21.367188 47.730469-47.730469 47.730469zm0 0" fill="#b0dee2"/><path d="m501.257812 336.746094h-126.507812c5.933594 0 10.742188 4.808594 10.742188 10.742187 0 26.359375-21.371094 47.730469-47.730469 47.730469h126.507812c26.359375 0 47.730469-21.371094 47.730469-47.730469 0-5.933593-4.808594-10.742187-10.742188-10.742187zm0 0" fill="#6fbcba"/><path d="m295.6875 59.652344c0 19.464844-15.777344 35.242187-35.242188 35.242187-19.460937 0-35.242187-15.777343-35.242187-35.242187s15.78125-35.242188 35.242187-35.242188c19.464844 0 35.242188 15.777344 35.242188 35.242188zm0 0" fill="#e55045"/><path d="m260.445312 24.410156c-3.71875 0-7.304687.582032-10.671874 1.648438 14.246093 4.523437 24.570312 17.851562 24.570312 33.59375 0 15.742187-10.324219 29.070312-24.570312 33.59375 3.367187 1.066406 6.953124 1.648437 10.671874 1.648437 19.464844 0 35.242188-15.777343 35.242188-35.242187s-15.777344-35.242188-35.242188-35.242188zm0 0" fill="#c43730"/><path d="m264.175781 48.230469c-.011719 0-.019531 0-.03125 0-4.265625-.015625-7.710937-3.488281-7.695312-7.753907.015625-4.15625.960937-18.570312 12.476562-29.648437 9.703125-9.339844 21.117188-10.679687 25.574219-10.8203125 4.234375-.1679685 7.832031 3.2070315 7.96875 7.4726565s-3.210938 7.832031-7.476562 7.96875c-2.671876.085937-9.511719.890625-15.351563 6.511719-7.144531 6.871093-7.730469 15.953124-7.742187 18.574218-.015626 4.253906-3.46875 7.695313-7.722657 7.695313zm0 0" fill="#876954"/><path d="m471.421875 113.949219v.472656c0 10.527344-8.527344 19.070313-19.054687 19.070313h-204.792969c-10.070313 0-18.242188 8.15625-18.242188 18.230468v23.792969c0 10.210937-7.714843 19.046875-17.910156 19.769531-5.871094.410156-11.25-1.8125-15.039063-5.605468-3.492187-3.5-5.648437-8.3125-5.648437-13.660157v-16.148437c0-5.328125-2.160156-10.148438-5.652344-13.652344-3.792969-3.789062-9.160156-6.003906-15.03125-5.589844-10.1875.710938-17.910156 9.539063-17.910156 19.753906v41.070313c0 10.609375-8.664063 19.851563-19.273437 19.871094-5.347657 0-10.167969-2.164063-13.679688-5.65625-3.492188-3.492188-5.644531-8.3125-5.644531-13.648438v-50.300781c0-10.074219-8.167969-18.230469-18.242188-18.230469h-26.773437c-10.527344 0-19.054688-8.539062-19.054688-19.066406v-.472656c0-10.519531 8.527344-19.058594 19.054688-19.058594h383.839844c10.527343 0 19.054687 8.539063 19.054687 19.058594zm0 0" fill="#ffe170"/><path d="m471.421875 113.949219v.472656c0 10.527344-8.527344 19.070313-19.054687 19.070313h-98.941407c10.527344 0 19.066407-8.539063 19.066407-19.070313v-.472656c0-10.515625-8.539063-19.054688-19.066407-19.054688h98.941407c10.527343-.003906 19.054687 8.535157 19.054687 19.054688zm0 0" fill="#ffc661"/></svg>