<svg height="512pt" viewBox="0 -73 512.001 512" width="512pt" xmlns="http://www.w3.org/2000/svg"><path d="m199.910156 309.328125h-148.550781l46.707031-254.042969c1.359375-21.375 19.089844-38.019531 40.507813-38.019531s39.152343 16.644531 40.511719 38.019531zm0 0" fill="#e55045"/><path d="m460.640625 309.328125h-148.550781l20.824218-254.042969c1.359376-21.375 19.09375-38.019531 40.511719-38.019531s39.148438 16.644531 40.511719 38.019531zm0 0" fill="#e55045"/><path d="m413.933594 55.285156c-1.359375-21.375-19.089844-38.015625-40.507813-38.015625-5.289062 0-10.355469 1.015625-15 2.867188 14.175781 5.640625 24.484375 19.050781 25.507813 35.148437l46.707031 254.042969h30zm0 0" fill="#c43730"/><path d="m364.53125 309.324219h-205.550781l20.816406-271.304688c.679687-10.679687 5.449219-20.1875 12.734375-27.027343 7.28125-6.828126 17.066406-10.992188 27.78125-10.992188 21.105469 0 38.636719 16.164062 40.441406 37.082031.039063.527344.472656.9375.996094.9375.535156 0 .960938-.410156 1.011719-.9375.894531-10.464843 5.734375-19.734375 12.976562-26.390625 7.253907-6.652344 16.90625-10.691406 27.460938-10.691406 21.417969 0 39.15625 16.648438 40.515625 38.019531zm0 0" fill="#ef6f6c"/><path d="m270.21875 76.699219v232.625h-15.449219v-232.625c0-4.265625 3.460938-7.726563 7.722657-7.726563 4.265624 0 7.726562 3.460938 7.726562 7.726563zm0 0" fill="#e55045"/><path d="m464.269531 365.851562h-416.539062c-26.359375 0-47.730469-21.367187-47.730469-47.730468 0-5.929688 4.808594-10.742188 10.742188-10.742188h490.515624c5.933594 0 10.742188 4.808594 10.742188 10.742188 0 26.363281-21.367188 47.730468-47.730469 47.730468zm0 0" fill="#b0dee2"/><path d="m501.257812 307.378906h-109.601562c5.933594 0 10.742188 4.8125 10.742188 10.742188 0 26.363281-21.371094 47.730468-47.730469 47.730468h109.601562c26.359375 0 47.730469-21.367187 47.730469-47.730468 0-5.929688-4.808594-10.742188-10.742188-10.742188zm0 0" fill="#6fbcba"/></svg>