<svg height="512pt" viewBox="-46 0 511 512" width="512pt" xmlns="http://www.w3.org/2000/svg"><path d="m416.875 160.46875v18.84375c0 7.375-5.980469 13.355469-13.359375 13.355469l-193.148437 10-193.371094-10c-7.375 0-13.355469-5.980469-13.355469-13.355469v-18.84375c0-88.625 71.847656-160.46875 160.472656-160.46875h92.277344c88.640625 0 160.484375 71.84375 160.484375 160.46875zm0 0" fill="#ff9a2d"/><path d="m256.390625 0h-72.417969c88.644532 0 160.484375 71.84375 160.484375 160.46875v18.84375c0 7.375-5.980469 13.355469-13.355469 13.355469h72.414063c7.378906 0 13.355469-5.980469 13.355469-13.355469v-18.84375c.003906-88.625-71.839844-160.46875-160.480469-160.46875zm0 0" fill="#ff8d29"/><g fill="#ff7611"><path d="m177.863281 62.449219c0 3.832031-3.109375 6.941406-6.945312 6.941406-3.835938 0-6.945313-3.109375-6.945313-6.941406 0-3.835938 3.109375-6.945313 6.945313-6.945313 3.835937 0 6.945312 3.109375 6.945312 6.945313zm0 0"/><path d="m215.230469 62.449219c0 3.832031-3.109375 6.941406-6.945313 6.941406-3.832031 0-6.941406-3.109375-6.941406-6.941406 0-3.835938 3.109375-6.945313 6.941406-6.945313 3.835938 0 6.945313 3.109375 6.945313 6.945313zm0 0"/><path d="m252.601562 62.449219c0 3.832031-3.109374 6.941406-6.945312 6.941406s-6.945312-3.109375-6.945312-6.941406c0-3.835938 3.109374-6.945313 6.945312-6.945313s6.945312 3.109375 6.945312 6.945313zm0 0"/><path d="m157.824219 93.101562c0 3.832032-3.109375 6.941407-6.941407 6.941407-3.835937 0-6.945312-3.109375-6.945312-6.941407 0-3.835937 3.109375-6.945312 6.945312-6.945312 3.832032 0 6.941407 3.109375 6.941407 6.945312zm0 0"/><path d="m195.195312 93.101562c0 3.832032-3.109374 6.941407-6.945312 6.941407s-6.945312-3.109375-6.945312-6.941407c0-3.835937 3.109374-6.945312 6.945312-6.945312s6.945312 3.109375 6.945312 6.945312zm0 0"/><path d="m232.5625 93.101562c0 3.832032-3.109375 6.941407-6.945312 6.941407-3.832032 0-6.941407-3.109375-6.941407-6.941407 0-3.835937 3.109375-6.945312 6.941407-6.945312 3.835937 0 6.945312 3.109375 6.945312 6.945312zm0 0"/><path d="m276.578125 93.101562c0 3.832032-3.109375 6.941407-6.941406 6.941407-3.835938 0-6.945313-3.109375-6.945313-6.941407 0-3.835937 3.109375-6.945312 6.945313-6.945312 3.832031 0 6.941406 3.109375 6.941406 6.945312zm0 0"/></g><path d="m391.125 361.769531h-361.734375c-10.191406 0-18.453125 8.261719-18.453125 18.453125v31.816406c0 10.191407 8.261719 18.457032 18.453125 18.457032h361.734375c10.191406 0 18.453125-8.265625 18.453125-18.457032v-31.816406c0-10.191406-8.261719-18.453125-18.453125-18.453125zm0 0" fill="#e55045"/><path d="m391.714844 361.769531h-52.964844c9.863281 0 17.863281 8.535157 17.863281 19.066407v30.59375c0 10.53125-8 19.066406-17.863281 19.066406h52.964844c9.867187 0 17.863281-8.535156 17.863281-19.066406v-30.59375c0-10.53125-7.996094-19.066407-17.863281-19.066407zm0 0" fill="#c43730"/><path d="m411.507812 428.328125c2.964844 0 5.367188 2.402344 5.367188 5.363281v39.625c0 21.351563-17.320312 38.683594-38.6875 38.683594h-335.859375c-21.367187 0-38.6875-17.332031-38.6875-38.683594v-39.625c0-2.960937 2.402344-5.363281 5.367187-5.363281zm0 0" fill="#ff9a2d"/><path d="m411.507812 428.328125h-59.46875c2.964844 0 5.367188 2.402344 5.367188 5.363281v39.625c0 21.351563-17.320312 38.683594-38.6875 38.683594h59.46875c21.367188 0 38.683594-17.332031 38.683594-38.683594v-39.625c.003906-2.960937-2.398438-5.363281-5.363282-5.363281zm0 0" fill="#ff8d29"/><path d="m388.753906 235.824219h-356.992187c-11.5 0-20.824219 9.324219-20.824219 20.828125v45.859375c0 11.5 9.324219 20.824219 20.824219 20.824219h356.992187c11.5 0 20.824219-9.324219 20.824219-20.824219v-45.859375c0-11.503906-9.324219-20.828125-20.824219-20.828125zm0 0" fill="#876954"/><path d="m389.085938 235.824219h-66.351563c11.316406 0 20.492187 9.476562 20.492187 21.164062v45.183594c0 11.6875-9.175781 21.164063-20.492187 21.164063h66.351563c11.316406 0 20.492187-9.476563 20.492187-21.164063v-45.183594c0-11.6875-9.175781-21.164062-20.492187-21.164062zm0 0" fill="#705245"/><path d="m420.015625 342.695312v.515626c0 11.460937-9.289063 20.75-20.746094 20.75h-183.117187c-10.964844 0-19.851563 8.886718-19.851563 19.851562v25.898438c0 11.117187-8.40625 20.738281-19.5 21.519531-6.394531.449219-12.246093-1.96875-16.371093-6.09375-3.800782-3.8125-6.152344-9.058594-6.152344-14.871094v-17.582031c0-5.800782-2.351563-11.042969-6.148438-14.855469-4.125-4.128906-9.976562-6.546875-16.367187-6.097656-11.085938.777343-19.492188 10.390625-19.492188 21.507812v44.714844c0 11.542969-9.4375 21.609375-20.980469 21.621094-5.820312.007812-11.074218-2.34375-14.894531-6.148438-3.796875-3.796875-6.148437-9.058593-6.148437-14.855469v-54.757812c0-10.964844-8.890625-19.851562-19.851563-19.851562h-29.148437c-11.457032 0-20.746094-9.289063-20.746094-20.75v-.511719c0-11.460938 9.289062-20.75 20.746094-20.75h378.023437c11.457031 0 20.746094 9.289062 20.746094 20.746093zm0 0" fill="#ffe170"/><path d="m105.851562 431.230469c-6.398437.449219-12.25-1.96875-16.375-6.09375-3.796874-3.8125-6.152343-9.058594-6.152343-14.871094v-17.582031c0-5.800782-2.351563-11.042969-6.148438-14.855469-2.890625-2.890625-6.625-4.9375-10.796875-5.753906 2.417969 3.289062 3.867188 7.339843 3.867188 11.738281v54.757812c0 5.800782 2.351562 11.058594 6.148437 14.855469 3.816407 3.804688 9.074219 6.15625 14.894531 6.148438 11.542969-.011719 20.980469-10.078125 20.980469-21.621094v-8.265625c-2 .835938-4.148437 1.382812-6.417969 1.542969zm0 0" fill="#ffd071"/><path d="m399.269531 321.949219h-70.953125c11.457032 0 20.746094 9.289062 20.746094 20.746093v.515626c0 11.460937-9.289062 20.75-20.746094 20.75h70.953125c11.457031 0 20.746094-9.289063 20.746094-20.75v-.515626c0-11.457031-9.289063-20.746093-20.746094-20.746093zm0 0" fill="#ffd071"/><path d="m129.203125 372.09375c.835937-.167969 1.683594-.304688 2.558594-.363281 6.390625-.449219 12.242187 1.96875 16.367187 6.09375 3.796875 3.8125 6.148438 9.058593 6.148438 14.855469v17.585937c0 5.8125 2.351562 11.058594 6.152344 14.867187 4.125 4.128907 9.976562 6.546876 16.371093 6.097657 11.09375-.78125 19.5-10.402344 19.5-21.523438v-25.898437c0-10.960938 8.886719-19.851563 19.851563-19.851563h-70.953125c-6.574219.003907-12.382813 3.210938-15.996094 8.136719zm0 0" fill="#ffd071"/><path d="m400.507812 250.460938c-5.585937 1.804687-10.238281 5.625-13.589843 10.445312-8.953125 12.875-23.882813 20.644531-39.734375 20.082031-9.71875-.34375-18.894532-3.792969-26.390625-9.542969-9.082031-6.96875-21.824219-6.671874-30.898438.308594-8.371093 6.445313-18.585937 10.339844-29.402343 10.824219-12.914063.582031-25.371094-3.746094-35.179688-11.671875-9.058594-7.316406-21.675781-7.726562-31.246094-1.09375-8.84375 6.132812-19.488281 9.585938-30.605468 9.585938-11.582032 0-22.648438-3.746094-31.703126-10.363282-8.898437-6.503906-21.105468-6.652344-29.96875-.101562-9.195312 6.792968-20.535156 10.367187-32.183593 9.667968-15.867188-.945312-26.945313-9.5-33.546875-16.699218-4.820313-5.261719-10.746094-9.449219-17.421875-11.972656-3.167969-1.199219-6.660157-3.152344-9.851563-6.339844-5.082031-5.085938-8.226562-12.113282-8.226562-19.871094v-3.820312c0-15.519532 12.578125-28.101563 28.097656-28.101563h363.203125c15.519531 0 28.097656 12.582031 28.097656 28.101563v3.820312c.003907 12.5-8.160156 23.09375-19.449219 26.742188zm0 0" fill="#74c577"/><path d="m169.46875 270.902344c-9.058594-7.3125-21.671875-7.726563-31.242188-1.09375-.878906.609375-1.78125 1.183594-2.691406 1.742187 8.277344 5.039063 17.90625 7.847657 27.925782 7.847657 5.355468 0 10.601562-.808594 15.589843-2.328126-3.394531-1.703124-6.613281-3.765624-9.582031-6.167968zm0 0" fill="#5db57f"/><path d="m75.914062 269.03125c-8.898437-6.503906-21.101562-6.652344-29.964843-.101562-.359375.265624-.730469.519531-1.097657.777343 6.328126 4.519531 14.542969 8.285157 24.757813 8.894531 6.542969.390626 12.992187-.566406 19.019531-2.6875-4.53125-1.714843-8.808594-4.027343-12.714844-6.882812zm0 0" fill="#5db57f"/><path d="m391.859375 191.796875h-55.84375c15.519531 0 28.101563 12.582031 28.101563 28.097656v3.824219c0 12.5-8.164063 23.09375-19.453126 26.742188-5.585937 1.804687-10.234374 5.625-13.589843 10.445312-2.84375 4.089844-6.292969 7.65625-10.179688 10.613281 7.476563 5.707031 16.613281 9.125 26.289063 9.46875 15.847656.5625 30.78125-7.207031 39.734375-20.082031 3.351562-4.820312 8.003906-8.640625 13.589843-10.445312 11.285157-3.648438 19.449219-14.242188 19.449219-26.742188v-3.824219c.003907-15.515625-12.578125-28.097656-28.097656-28.097656zm0 0" fill="#5db57f"/><path d="m264.949219 271.441406c-9.082031-6.964844-21.824219-6.671875-30.894531.3125-1.234376.949219-2.511719 1.835938-3.820313 2.671875 8.902344 5.65625 19.414063 8.640625 30.257813 8.152344 6.183593-.277344 12.171874-1.675781 17.730468-4.023437-4.785156-1.632813-9.269531-4.039063-13.273437-7.113282zm0 0" fill="#5db57f"/></svg>