<svg height="512pt" viewBox="0 -59 512.00015 512" width="512pt" xmlns="http://www.w3.org/2000/svg"><path d="m506.847656 364.976562-359.820312-359.824218c-4.050782-4.050782-9.160156-5.546875-14-5.0546878h-117.199219l101.375 138.9726558v255.726563h377.292969c15.5625 0 23.359375-18.816406 12.351562-29.820313zm0 0" fill="#d2b393"/><path d="m457.984375 364.976562-359.824219-359.824218c-4.046875-4.050782-9.15625-5.546875-13.996094-5.0546878h-44.15625l42.558594 138.9726558v255.726563h363.0625c15.566406 0 23.359375-18.816406 12.355469-29.820313zm0 0" fill="#e55045"/><path d="m433.804688 364.976562-359.824219-359.824218c-4.050781-4.050782-9.15625-5.546875-13.996094-5.0546878h-44.15625l42.558594 138.9726558v255.726563h363.0625c15.566406 0 23.359375-18.816406 12.355469-29.820313zm0 0" fill="#d2b393"/><path d="m377.292969 394.796875h-349.289063c-15.464844 0-28.003906-12.539063-28.003906-28.003906v-349.289063c0-15.5625 18.816406-23.355468 29.824219-12.351562l359.820312 359.820312c11.003907 11.007813 3.210938 29.824219-12.351562 29.824219zm0 0" fill="#f0dbbd"/><g fill="#876954"><path d="m31.300781 64.726562c-2.53125 0-5.007812-1.238281-6.488281-3.519531-2.324219-3.578125-1.304688-8.363281 2.273438-10.6875l2.515624-1.632812c3.582032-2.324219 8.363282-1.304688 10.6875 2.273437 2.324219 3.578125 1.308594 8.363282-2.273437 10.6875l-2.515625 1.632813c-1.300781.84375-2.757812 1.246093-4.199219 1.246093zm0 0"/><path d="m31.296875 129.710938c-2.152344 0-4.292969-.890626-5.820313-2.636719-2.808593-3.214844-2.480468-8.09375.730469-10.90625l36.882813-32.25c3.210937-2.808594 8.09375-2.480469 10.902344.730469 2.808593 3.210937 2.484374 8.09375-.730469 10.902343l-36.882813 32.253907c-1.464844 1.28125-3.277344 1.90625-5.082031 1.90625zm0 0"/><path d="m31.296875 194.691406c-2.140625 0-4.273437-.886718-5.800781-2.617187-2.820313-3.199219-2.515625-8.082031.6875-10.90625l71.261718-62.847657c3.199219-2.824218 8.082032-2.515624 10.90625.683594 2.820313 3.199219 2.515626 8.082032-.6875 10.90625l-71.261718 62.847656c-1.46875 1.296876-3.289063 1.933594-5.105469 1.933594zm0 0"/><path d="m31.296875 259.664062c-2.136719 0-4.265625-.878906-5.789063-2.605468-2.828124-3.195313-2.53125-8.078125.664063-10.90625l105.632813-93.457032c3.191406-2.828124 8.078124-2.53125 10.90625.664063 2.828124 3.199219 2.527343 8.082031-.667969 10.910156l-105.628907 93.457031c-1.472656 1.300782-3.296874 1.9375-5.117187 1.9375zm0 0"/><path d="m31.296875 324.640625c-2.136719 0-4.261719-.878906-5.785156-2.601563-2.832031-3.195312-2.535157-8.078124.65625-10.90625l140.011719-124.066406c3.191406-2.832031 8.074218-2.535156 10.90625.660156 2.828124 3.191407 2.535156 8.074219-.660157 10.90625l-140.007812 124.0625c-1.472657 1.304688-3.300781 1.945313-5.121094 1.945313zm0 0"/><path d="m50.570312 372.4375c-2.132812 0-4.257812-.878906-5.785156-2.601562-2.832031-3.191407-2.535156-8.078126.65625-10.90625l155.105469-137.484376c3.191406-2.832031 8.074219-2.535156 10.90625.65625 2.828125 3.195313 2.535156 8.078126-.65625 10.90625l-155.105469 137.484376c-1.46875 1.304687-3.296875 1.945312-5.121094 1.945312zm0 0"/><path d="m121.808594 373.984375c-2.132813 0-4.261719-.882813-5.789063-2.605469-2.828125-3.195312-2.527343-8.082031.667969-10.90625l118.238281-104.660156c3.195313-2.828125 8.078125-2.53125 10.910157.664062 2.824218 3.195313 2.527343 8.078126-.667969 10.90625l-118.238281 104.660157c-1.472657 1.300781-3.300782 1.941406-5.121094 1.941406zm0 0"/><path d="m194.78125 373.984375c-2.140625 0-4.269531-.882813-5.796875-2.617187-2.824219-3.199219-2.519531-8.082032.679687-10.90625l79.640626-70.28125c3.199218-2.824219 8.082031-2.515626 10.90625.683593 2.824218 3.199219 2.519531 8.082031-.679688 10.90625l-79.640625 70.28125c-1.46875 1.296875-3.292969 1.933594-5.109375 1.933594zm0 0"/><path d="m267.761719 373.984375c-2.152344 0-4.289063-.894531-5.816407-2.640625-2.8125-3.210938-2.488281-8.09375.722657-10.902344l41.039062-35.914062c3.210938-2.808594 8.09375-2.484375 10.902344.726562 2.8125 3.210938 2.484375 8.09375-.726563 10.902344l-41.035156 35.914062c-1.464844 1.285157-3.28125 1.914063-5.085937 1.914063zm0 0"/><path d="m340.746094 373.984375c-2.550782 0-5.050782-1.261719-6.523438-3.574219-2.292968-3.597656-1.234375-8.375 2.363282-10.667968l2.425781-1.546876c3.597656-2.292968 8.375-1.234374 10.667969 2.363282 2.292968 3.597656 1.234374 8.375-2.363282 10.667968l-2.425781 1.546876c-1.285156.816406-2.726563 1.210937-4.144531 1.210937zm0 0"/></g></svg>