<svg height="512pt" viewBox="-136 0 512 512" width="512pt" xmlns="http://www.w3.org/2000/svg"><path d="m12.742188 133.316406c0-10.488281 8.203124-10.488281 8.203124-20.96875 0-10.488281-8.203124-10.488281-8.203124-20.972656s8.203124-10.484375 8.203124-20.972656c0-10.484375-8.203124-10.488282-8.203124-20.972656 0-6.144532 9.113281-10.433594 11.328124-15.777344 2.296876-5.542969-1.027343-15 3.148438-19.171875 4.175781-4.175781 13.632812-.851563 19.171875-3.148438 5.34375-2.21875 9.632813-11.332031 15.777344-11.332031 14.445312 0 14.445312 8.203125 28.890625 8.203125 14.445312 0 14.445312-8.203125 28.890625-8.203125 14.445312 0 14.445312 8.203125 28.890625 8.203125 14.449218 0 14.449218-8.203125 28.894531-8.203125 6.148437 0 10.4375 9.113281 15.78125 11.328125 5.539063 2.300781 14.996094-1.027344 19.171875 3.148437 4.171875 4.175782.847656 13.632813 3.144531 19.171876 2.21875 5.34375 11.332031 9.632812 11.332031 15.78125 0 10.511718-8.203124 10.511718-8.203124 21.027343s8.203124 10.515625 8.203124 21.03125c0 10.519531-8.203124 10.519531-8.203124 21.035157 0 10.515624 8.203124 10.515624 8.203124 21.035156" fill="#74c577"/><path d="m223.394531 99.523438c0 34.257812-27.773437 62.03125-62.03125 62.03125-34.257812 0-62.027343-27.773438-62.027343-62.03125 0-34.257813 27.769531-62.027344 62.027343-62.027344 34.257813 0 62.03125 27.769531 62.03125 62.027344zm0 0" fill="#e55045"/><path d="m194.175781 99.523438c0 17.9375-14.539062 32.480468-32.476562 32.480468s-32.476563-14.542968-32.476563-32.480468c0-17.933594 14.539063-32.476563 32.476563-32.476563s32.476562 14.542969 32.476562 32.476563zm0 0" fill="#ffe170"/><path d="m102.785156 154.898438h-57.96875v-97.820313c0-7.140625 5.785156-12.929687 12.925782-12.929687h32.113281c7.140625 0 12.929687 5.789062 12.929687 12.929687zm0 0" fill="#ffefc7"/><path d="m167.179688 178.117188-56.003907 14.972656-25.265625-94.5c-1.84375-6.898438 2.253906-13.984375 9.152344-15.828125l31.019531-8.292969c6.898438-1.847656 13.984375 2.25 15.828125 9.148438zm0 0" fill="#fff"/><path d="m235.957031 87.035156v197.222656h-130.6875v-72.113281c0-33.71875 12.765625-64.453125 33.726563-87.628906 22.738281-25.136719 55.121094-41.394531 91.316406-42.929687 3.082031-.132813 5.644531 2.363281 5.644531 5.449218zm0 0" fill="#eac9a2"/><path d="m163.457031 229.847656v61.210938h-63.203125v-72.113282c0-33.71875 12.769532-64.453124 33.730469-87.628906 18.632813 28.273438 29.472656 62.132813 29.472656 98.53125zm0 0" fill="#d2b393"/><path d="m12.289062 78.261719c-2.136718.066406-3.832031 1.816406-3.832031 3.953125v198.847656h130.6875v-72.113281c-.003906-72.175781-54.679687-130.6875-126.855469-130.6875zm0 0" fill="#f0dbbd"/><g fill="#d2b393"><path d="m51.691406 140.433594c0 3.796875-3.078125 6.875-6.875 6.875-3.800781 0-6.878906-3.078125-6.878906-6.875s3.078125-6.875 6.878906-6.875c3.796875 0 6.875 3.078125 6.875 6.875zm0 0"/><path d="m172.472656 147.308594c0 3.800781-3.078125 6.878906-6.875 6.878906-3.800781 0-6.878906-3.078125-6.878906-6.878906 0-3.796875 3.078125-6.875 6.878906-6.875 3.796875 0 6.875 3.078125 6.875 6.875zm0 0"/><path d="m177.609375 238.292969c0 3.796875-3.078125 6.875-6.875 6.875-3.800781 0-6.878906-3.078125-6.878906-6.875s3.078125-6.875 6.878906-6.875c3.796875 0 6.875 3.078125 6.875 6.875zm0 0"/><path d="m209.910156 190.472656c0 3.800782-3.078125 6.878906-6.875 6.878906s-6.878906-3.078124-6.878906-6.878906c0-3.796875 3.082031-6.875 6.878906-6.875s6.875 3.078125 6.875 6.875zm0 0"/></g><path d="m51.691406 238.292969c0 3.796875-3.078125 6.875-6.875 6.875-3.800781 0-6.878906-3.078125-6.878906-6.875s3.078125-6.875 6.878906-6.875c3.796875 0 6.875 3.078125 6.875 6.875zm0 0"/><path d="m99.335938 194.238281c0 3.796875-3.078126 6.875-6.875 6.875-3.796876 0-6.875-3.078125-6.875-6.875s3.078124-6.878906 6.875-6.878906c3.796874 0 6.875 3.082031 6.875 6.878906zm0 0" fill="#d2b393"/><path d="m213.398438 512h-187.402344c-14.355469 0-25.996094-11.640625-25.996094-25.996094v-282.710937c0-2.90625 2.867188-4.941407 5.609375-3.980469l230.960937 80.761719c1.691407.589843 2.824219 2.1875 2.824219 3.980469v201.949218c0 14.355469-11.636719 25.996094-25.996093 25.996094zm0 0" fill="#d9fcff"/><path d="m236.570312 280.074219-230.960937-80.761719c-2.742187-.960938-5.609375 1.078125-5.609375 3.980469v45.886719l75.808594 26.507812c70.488281 24.648438 117.6875 91.160156 117.6875 165.828125v70.484375h19.902344c14.359374 0 25.996093-11.640625 25.996093-25.996094v-201.949218c0-1.792969-1.132812-3.390626-2.824219-3.980469zm0 0" fill="#b0dee2"/><path d="m157.253906 375.261719c0 20.738281-16.816406 37.554687-37.554687 37.554687-20.742188 0-37.554688-16.816406-37.554688-37.554687 0-20.742188 16.8125-37.558594 37.554688-37.558594 20.738281 0 37.554687 16.816406 37.554687 37.558594zm0 0" fill="#85c9c9"/></svg>