<svg height="512pt" viewBox="-62 0 512 512.00007" width="512pt" xmlns="http://www.w3.org/2000/svg"><path d="m379.753906 197.214844c0-10.332032 9.664063-21.308594 8.132813-31.207032-1.570313-10.160156-14.117188-17.574218-17.175781-27.148437-3.113282-9.738281 2.730468-23.226563-1.789063-32.222656-4.566406-9.09375-18.757813-12.191407-24.625-20.386719-5.894531-8.230469-4.433594-22.902344-11.5-30.085938-7.066406-7.183593-21.503906-5.699218-29.601563-11.691406-8.0625-5.960937-11.109374-20.386718-20.054687-25.027344-8.851563-4.59375-22.121094 1.34375-31.703125-1.816406-9.417969-3.109375-16.714844-15.863281-26.710938-17.460937-9.738281-1.554688-20.535156 8.269531-30.699218 8.269531-10.167969 0-20.964844-9.828125-30.703125-8.269531-9.992188 1.59375-17.289063 14.351562-26.707031 17.460937-9.585938 3.160156-22.855469-2.777344-31.707032 1.816406-8.945312 4.640626-11.992187 19.066407-20.054687 25.03125-8.097657 5.988282-22.53125 4.503907-29.597657 11.6875-7.070312 7.183594-5.609374 21.855469-11.503906 30.089844-5.863281 8.191406-20.058594 11.289063-24.625 20.382813-4.519531 8.996093 1.324219 22.484375-1.789062 32.222656-3.054688 9.574219-15.605469 16.988281-17.175782 27.148437-1.53125 9.898438 8.136719 20.875 8.136719 31.207032" fill="#fff"/><path d="m379.753906 197.214844c0-10.332032 9.664063-21.308594 8.132813-31.207032-1.570313-10.160156-14.117188-17.574218-17.175781-27.148437-3.113282-9.738281 2.730468-23.226563-1.789063-32.222656-4.566406-9.09375-18.757813-12.191407-24.625-20.386719-5.894531-8.230469-4.433594-22.902344-11.5-30.085938-7.066406-7.183593-21.503906-5.699218-29.601563-11.691406-8.0625-5.960937-11.109374-20.386718-20.054687-25.027344-8.851563-4.59375-22.121094 1.34375-31.703125-1.816406-9.417969-3.109375-16.714844-15.863281-26.710938-17.460937-9.738281-1.554688-20.535156 8.269531-30.699218 8.269531-10.167969 0-20.964844-9.828125-30.703125-8.269531-9.992188 1.59375-17.289063 14.351562-26.707031 17.460937-9.585938 3.160156-22.855469-2.777344-31.707032 1.816406-8.945312 4.640626-11.992187 19.066407-20.054687 25.03125-8.097657 5.988282-22.53125 4.503907-29.597657 11.6875-7.070312 7.183594-5.609374 21.855469-11.503906 30.089844-5.863281 8.191406-20.058594 11.289063-24.625 20.382813-4.519531 8.996093 1.324219 22.484375-1.789062 32.222656-3.054688 9.574219-15.605469 16.988281-17.175782 27.148437-1.53125 9.898438 8.136719 20.875 8.136719 31.207032l90.015625 92.503906 90.929688 13.671875 58.59375-7.8125 58.59375-22.136719zm0 0" fill="#ffe170"/><path d="m305.929688 512h-223.804688c-14.996094 0-27.789062-10.847656-30.242188-25.636719l-48.757812-293.816406c-.664062-4.011719 2.429688-7.664063 6.5-7.664063h27.9375c16.8125 0 32.140625 9.632813 39.429688 24.78125 21.105468 43.855469 65.230468 73.324219 114.558593 74.488282 51.660157 1.21875 98.886719-28.847656 120.894531-74.816406 7.203126-15.046876 22.597657-24.453126 39.277344-24.453126h26.707032c4.070312 0 7.164062 3.652344 6.5 7.664063l-48.757813 293.816406c-2.457031 14.789063-15.25 25.636719-30.242187 25.636719zm0 0" fill="#e55045"/><path d="m117.898438 284.152344c13.726562.324218 27.132812-1.582032 39.84375-5.386719-35.136719-10.527344-64.761719-35.710937-80.863282-69.332031-7.234375-15.109375-22.695312-24.550782-39.445312-24.550782h-27.808594c-4.070312 0-7.164062 3.652344-6.5 7.667969l4.0625 24.484375c22.328125 39.753906 64.203125 66.019532 110.710938 67.117188zm0 0" fill="#c43730"/><path d="m351.722656 184.882812c-16.84375 0-32.140625 9.6875-39.46875 24.851563-1.695312 3.503906-3.550781 6.90625-5.527344 10.21875l-44.210937 266.410156c-2.453125 14.789063-15.246094 25.636719-30.242187 25.636719h73.65625c14.992187 0 27.785156-10.847656 30.242187-25.636719l48.757813-293.816406c.664062-4.011719-2.429688-7.664063-6.5-7.664063zm0 0" fill="#c43730"/><path d="m241.730469 388.214844c0 26.925781-21.828125 48.75-48.75 48.75s-48.75-21.824219-48.75-48.75c0-26.921875 21.828125-48.746094 48.75-48.746094s48.75 21.824219 48.75 48.746094zm0 0" fill="#ffe170"/><g fill="#ff9a2d"><path d="m333.484375 152.519531c-4.25 0-7.695313-3.445312-7.695313-7.695312 0-9.214844-7.496093-16.710938-16.710937-16.710938-.589844 0-1.1875.03125-1.777344.097657-5.949219.628906-11.683593-2.328126-14.609375-7.542969-2.957031-5.277344-8.546875-8.554688-14.585937-8.554688-9.214844 0-16.710938 7.496094-16.710938 16.707031 0 4.25-3.445312 7.699219-7.695312 7.699219s-7.695313-3.449219-7.695313-7.699219c0-17.703124 14.398438-32.101562 32.101563-32.101562 11.5 0 22.148437 6.179688 27.863281 16.152344 1.03125-.097656 2.078125-.148438 3.109375-.148438 17.703125 0 32.101563 14.402344 32.101563 32.101563.003906 4.25-3.445313 7.695312-7.695313 7.695312zm0 0"/><path d="m70.574219 162.777344c-1.769531 0-3.550781-.605469-5-1.847656-13.453125-11.503907-15.035157-31.808594-3.53125-45.261719 7.472656-8.738281 19.09375-12.8125 30.386719-10.675781.59375-.847657 1.234374-1.675782 1.90625-2.460938 11.503906-13.453125 31.808593-15.039062 45.261718-3.53125 3.234375 2.761719 3.613282 7.621094.847656 10.851562-2.761718 3.230469-7.621093 3.613282-10.851562.847657-7.003906-5.988281-17.570312-5.164063-23.558594 1.835937-.386718.453125-.75.929688-1.082031 1.410156-3.386719 4.9375-9.363281 7.371094-15.226563 6.203126-5.933593-1.183594-12.058593.9375-15.984374 5.527343-5.988282 7-5.164063 17.566407 1.839843 23.554688 3.226563 2.765625 3.609375 7.625.84375 10.855469-1.523437 1.777343-3.679687 2.691406-5.851562 2.691406zm0 0"/><path d="m208.480469 262.40625c-.363281 0-.730469-.023438-1.101563-.078125-4.207031-.601563-7.128906-4.503906-6.527344-8.710937 1.304688-9.117188-5.050781-17.601563-14.171874-18.90625-.585938-.085938-1.179688-.140626-1.773438-.160157-5.976562-.214843-11.234375-3.957031-13.390625-9.539062-2.175781-5.644531-7.246094-9.679688-13.222656-10.535157-9.125-1.304687-17.605469 5.046876-18.910157 14.167969-.605468 4.207031-4.5 7.132813-8.714843 6.527344-4.207031-.601563-7.128907-4.5-6.527344-8.710937 1.214844-8.488282 5.664063-15.996094 12.527344-21.136719s15.320312-7.300781 23.804687-6.089844c11.382813 1.632813 21.046875 9.261719 25.292969 19.945313 1.035156.046874 2.078125.144531 3.097656.289062 17.523438 2.511719 29.738281 18.808594 27.226563 36.332031-.550782 3.839844-3.84375 6.605469-7.609375 6.605469zm0 0"/><path d="m128.089844 168.203125c-2.605469 0-5.144532-1.320313-6.589844-3.707031-6.269531-10.34375-8.136719-22.507813-5.257812-34.257813 2.878906-11.746093 10.160156-21.667969 20.503906-27.9375s22.507812-8.136719 34.253906-5.257812c11.75 2.878906 21.671875 10.160156 27.941406 20.503906 2.203125 3.636719 1.042969 8.367187-2.59375 10.570313-3.632812 2.207031-8.367187 1.042968-10.570312-2.589844-4.140625-6.828125-10.6875-11.632813-18.441406-13.535156-7.753907-1.898438-15.785157-.667969-22.609376 3.472656-6.824218 4.136718-11.632812 10.6875-13.53125 18.4375-1.902343 7.753906-.667968 15.785156 3.46875 22.609375 2.203126 3.636719 1.042969 8.371093-2.59375 10.574219-1.246093.757812-2.621093 1.117187-3.980468 1.117187zm0 0"/><path d="m242.414062 91.523438c-1.101562 0-2.21875-.234376-3.28125-.734376-3.84375-1.816406-5.492187-6.402343-3.675781-10.246093 1.777344-3.777344 1.984375-8.023438.570313-11.953125-1.410156-3.929688-4.265625-7.074219-8.046875-8.855469-3.773438-1.78125-8.019531-1.984375-11.953125-.574219-3.929688 1.410156-7.074219 4.269532-8.855469 8.046875-1.816406 3.84375-6.402344 5.488281-10.246094 3.679688-3.84375-1.816407-5.492187-6.402344-3.679687-10.246094 3.539062-7.496094 9.78125-13.167969 17.582031-15.96875s16.222656-2.398437 23.71875 1.136719 13.167969 9.78125 15.96875 17.578125c2.800781 7.800781 2.398437 16.226562-1.136719 23.722656-1.3125 2.785156-4.078125 4.414063-6.964844 4.414063zm0 0"/><path d="m231.648438 220.042969c-3.367188 0-6.460938-2.230469-7.410157-5.636719-4.59375-16.480469 5.082031-33.625 21.5625-38.21875s33.628907 5.078125 38.222657 21.5625c1.140624 4.09375-1.253907 8.339844-5.347657 9.480469-4.097656 1.144531-8.339843-1.253907-9.484375-5.347657-2.3125-8.308593-10.953125-13.175781-19.257812-10.867187-8.304688 2.316406-13.175782 10.957031-10.863282 19.261719 1.140626 4.09375-1.253906 8.339844-5.347656 9.480468-.695312.191407-1.390625.285157-2.074218.285157zm0 0"/><path d="m243.46875 190.4375c-.1875 0-.375-.007812-.5625-.019531-4.242188-.308594-7.429688-3.996094-7.121094-8.234375.621094-8.597656-5.867187-16.101563-14.464844-16.726563-8.605468-.636719-16.101562 5.867188-16.726562 14.464844-.304688 4.238281-3.988281 7.417969-8.230469 7.121094-4.242187-.308594-7.429687-3.992188-7.121093-8.234375 1.234374-17.066406 16.128906-29.945313 33.191406-28.703125 17.066406 1.234375 29.941406 16.125 28.707031 33.191406-.296875 4.050781-3.671875 7.140625-7.671875 7.140625zm0 0"/></g></svg>