<svg height="512pt" viewBox="-63 0 512 512.00084" width="512pt" xmlns="http://www.w3.org/2000/svg"><path d="m125.59375 185.644531c-.007812-.890625-.035156-1.773437-.082031-2.652343-.3125-5.832032 2.109375-11.644532 6.570312-15.660157 6.976563-6.269531 11.3125-15.410156 11.210938-25.628906-.191407-19.136719-15.855469-34.800781-34.988281-34.988281-10.222657-.101563-19.359376 4.230468-25.632813 11.207031-4.011719 4.460937-9.828125 6.882813-15.65625 6.574219-.878906-.046875-1.765625-.078125-2.652344-.085938-33.488281-.328125-60.367187 26.550782-60.039062 60.035156.332031 33.488282 40.855469 74.011719 74.339843 74.339844 33.488282.332032 47.261719-39.652344 46.929688-73.140625zm0 0" fill="#876954"/><path d="m270.644531 150.683594c-.527343.714844-1.035156 1.441406-1.523437 2.171875-3.246094 4.855469-8.667969 8.058593-14.644532 8.597656-9.339843.84375-18.285156 5.566406-24.328124 13.808594-11.3125 15.433593-8.15625 37.359375 7.050781 48.976562 8.121093 6.203125 18.039062 8.207031 27.238281 6.382813 5.882812-1.171875 11.992188.375 16.472656 4.117187.675782.566407 1.367188 1.117188 2.074219 1.65625 26.613281 20.328125 64.238281 14.910157 84.039063-12.101562 19.796874-27.007813 14.273437-65.382813-12.34375-85.710938-26.613282-20.328125-64.238282-14.910156-84.035157 12.101563zm0 0" fill="#705245"/><path d="m202.980469 192.390625c-.667969-.585937-1.34375-1.152344-2.03125-1.703125-4.554688-3.65625-7.277344-9.335938-7.296875-15.335938-.027344-9.378906-3.957032-18.699218-11.644532-25.433593-14.394531-12.609375-36.511718-11.367188-49.402343 2.773437-6.882813 7.554688-9.742188 17.257813-8.71875 26.582032.652343 5.964843-1.417969 11.914062-5.535157 16.054687-.621093.625-1.230468 1.265625-1.828124 1.921875-22.558594 24.75-20.425782 62.703125 4.761718 84.769531 25.191406 22.066407 63.902344 19.890625 86.460938-4.859375s20.425781-62.703125-4.765625-84.769531zm0 0" fill="#705245"/><path d="m289.710938 209.261719c-.347657-.820313-.710938-1.625-1.09375-2.417969-2.515626-5.269531-2.507813-11.566406.078124-16.980469 4.042969-8.464843 4.546876-18.570312.542969-27.96875-7.5-17.605469-27.96875-26.082031-45.71875-18.929687-9.476562 3.820312-16.261719 11.320312-19.386719 20.167968-1.996093 5.65625-6.441406 10.121094-11.945312 12.066407-.832031.292969-1.660156.605469-2.484375.9375-31.0625 12.515625-45.601563 47.636719-32.476563 78.445312 13.125 30.8125 48.949219 45.640625 80.007813 33.125 31.0625-12.515625 45.605469-47.636719 32.476563-78.445312zm0 0" fill="#876954"/><path d="m306.148438 512h-225.804688c-15.128906 0-28.039062-10.941406-30.515625-25.867188l-49.7773438-299.972656c-.3671872-2.199218 1.3320308-4.203125 3.5624998-4.203125h31.765625c16.964844 0 32.425782 9.71875 39.785156 25.003907 21.292969 44.246093 65.8125 73.980468 115.582032 75.152343 52.121094 1.230469 99.773437-29.105469 121.976562-75.484375 7.265625-15.179687 22.796875-24.671875 39.628906-24.671875h30.523438c2.230469 0 3.929688 2.003907 3.5625 4.203125l-49.777344 299.972656c-2.476562 14.925782-15.382812 25.867188-30.511718 25.867188zm0 0" fill="#ffe170"/><path d="m114.878906 282.113281c14.128906.332031 27.925782-1.671875 40.976563-5.667969-35.128907-10.765624-64.71875-36.078124-80.835938-69.785156-7.265625-15.195312-22.796875-24.703125-39.640625-24.703125h-31.765625c-2.230469 0-3.929687 2.003907-3.5624998 4.203125l5.3007808 31.957032c23.003907 38.019531 64.070313 62.921874 109.527344 63.996093zm0 0" fill="#ffd071"/><path d="m352.351562 181.957031c-17.03125 0-32.445312 9.839844-39.867187 25.167969-2.292969 4.730469-4.863281 9.285156-7.660156 13.660156l-44.03125 265.347656c-2.476563 14.925782-15.386719 25.867188-30.511719 25.867188h75.867188c15.128906 0 28.035156-10.941406 30.511718-25.867188l49.78125-299.972656c.363282-2.199218-1.335937-4.203125-3.566406-4.203125zm0 0" fill="#ffd071"/><path d="m241.375 387.109375c0 27.164063-22.023438 49.183594-49.1875 49.183594s-49.183594-22.019531-49.183594-49.183594 22.019532-49.183594 49.183594-49.183594 49.1875 22.019531 49.1875 49.183594zm0 0" fill="#ff9a2d"/><path d="m285.453125 15.285156c-4.90625-2.789062-10.671875-2.644531-15.296875-.148437-.21875-5.253907-3.042969-10.28125-7.949219-13.070313-7.570312-4.308594-17.203125-1.660156-21.511719 5.914063-3.90625 6.867187-2.078124 15.410156 3.9375 20.160156-.066406.109375-.144531.210937-.207031.324219-2.863281 5.035156-2.636719 10.976562.054688 15.664062l-12.734375 24.765625c-1.980469 3.804688-.5 8.496094 3.304687 10.476563 1.144531.59375 2.371094.875 3.578125.875 2.804688 0 5.511719-1.523438 6.894532-4.183594l12.351562-24.023438c5.574219.085938 11.023438-2.785156 13.976562-7.972656.0625-.117187.113282-.234375.171876-.347656 7.160156 2.746094 15.433593-.054688 19.339843-6.917969 4.308594-7.574219 1.660157-17.207031-5.910156-21.515625zm0 0" fill="#d9fcff"/><g fill="#b0dee2"><path d="m239.019531 18.285156c-.066406-.050781-.125-.109375-.191406-.164062.019531.125.039063.246094.058594.371094.046875-.066407.089843-.136719.132812-.207032zm0 0"/><path d="m264.539062 5.28125c.371094-.199219.746094-.375 1.128907-.542969-.40625-.417969-.839844-.8125-1.300781-1.183593.089843.570312.148437 1.148437.171874 1.726562zm0 0"/><path d="m287.625 16.796875c.511719 3.378906-.054688 6.945313-1.875 10.148437-3.90625 6.867188-12.183594 9.664063-19.339844 6.921876-.0625.113281-.109375.230468-.171875.34375-2.953125 5.1875-8.402343 8.0625-13.976562 7.976562l-12.351563 24.023438c-1.382812 2.660156-4.09375 4.183593-6.898437 4.183593-.597657 0-1.195313-.070312-1.789063-.210937-1.09375 3.519531.441406 7.425781 3.828125 9.1875 1.144531.59375 2.371094.875 3.578125.875 2.804688 0 5.511719-1.523438 6.894532-4.183594l12.351562-24.023438c5.574219.085938 11.023438-2.785156 13.976562-7.972656.0625-.117187.113282-.234375.171876-.347656 7.160156 2.746094 15.433593-.054688 19.339843-6.917969 3.863281-6.792969 2.121094-15.226562-3.738281-20.003906zm0 0"/></g><path d="m249.78125 140.449219c-.242188-.855469-.503906-1.699219-.78125-2.535157-1.847656-5.542968-1.050781-11.789062 2.1875-16.839843 5.0625-7.894531 6.820312-17.859375 4.011719-27.683594-5.253907-18.402344-24.507813-29.355469-43.007813-24.464844-9.882812 2.609375-17.546875 9.210938-21.746094 17.601563-2.683593 5.363281-7.648437 9.238281-13.351562 10.484375-.863281.1875-1.722656.394531-2.582031.625-32.378907 8.554687-51.171875 41.597656-41.976563 73.800781 9.191406 32.203125 42.894532 51.371094 75.269532 42.8125 32.378906-8.558594 51.171874-41.597656 41.976562-73.800781zm0 0" fill="#967a66"/></svg>