<svg height="511pt" viewBox="0 0 511.99954 511" width="511pt" xmlns="http://www.w3.org/2000/svg"><path d="m388.007812 32.320312c0 5.210938-2 10.433594-5.972656 14.410157l-4.171875 14-323.921875 319.351562-7.707031 2.449219c-7.953125 7.964844-20.859375 7.964844-28.8125 0-2.679687-2.679688-5.050781-5.554688-7.121094-8.570312-6.859375-10.054688-10.300781-21.769532-10.300781-33.460938 0-15.226562 5.808594-30.433594 17.421875-42.042969l280.539063-280.550781c20.53125-20.53125 52.363281-22.898438 75.5-7.105469 3.019531 2.058594 5.894531 4.429688 8.574218 7.105469 3.972656 3.976562 5.972656 9.199219 5.972656 14.414062zm0 0" fill="#f0dbbd"/><path d="m494.589844 214.539062-280.546875 280.550782c-21.574219 21.570312-55.609375 23.09375-78.945313 4.5625-1.78125-1.402344-3.492187-2.925782-5.128906-4.5625l-2.988281-2.988282c-7.960938-7.964843-7.960938-20.863281 0-28.824218l3.855469-14.796875 316.84375-317.605469 15.101562-3.398438c7.953125-7.960937 20.859375-7.960937 28.8125 0l3 2.988282c1.636719 1.636718 3.160156 3.347656 4.5625 5.117187 18.53125 23.335938 17.007812 57.382813-4.566406 78.957031zm0 0" fill="#f0dbbd"/><path d="m31.46875 397.039062 365.074219-365.074218c22.398437-22.398438 58.710937-22.398438 81.109375 0 22.398437 22.394531 22.398437 58.710937 0 81.109375l-365.074219 365.074219c-22.398437 22.398437-58.710937 22.398437-81.109375 0-22.398438-22.398438-22.398438-58.710938 0-81.109376zm0 0" fill="#ff9a2d"/><path d="m382.035156 46.730469-335.800781 335.800781c-7.953125 7.964844-20.859375 7.964844-28.8125 0-2.679687-2.679688-5.050781-5.554688-7.121094-8.570312 3-4.78125 6.5625-9.304688 10.726563-13.453126l338.980468-338.984374c4.152344-4.160157 8.675782-7.726563 13.453126-10.722657 3.019531 2.058594 5.894531 4.429688 8.570312 7.105469 3.976562 3.976562 5.976562 9.199219 5.976562 14.414062 0 5.210938-2 10.433594-5.972656 14.410157zm0 0" fill="#eac9a2"/><path d="m499.15625 135.585938c-3.050781 4.996093-6.75 9.703124-11.066406 14.019531l-338.972656 338.984375c-4.316407 4.316406-9.03125 8.015625-14.019532 11.0625-1.78125-1.402344-3.492187-2.925782-5.128906-4.5625l-2.988281-2.988282c-7.964844-7.964843-7.964844-20.863281 0-28.824218l335.796875-335.800782c7.953125-7.960937 20.863281-7.960937 28.816406 0l2.996094 2.988282c1.640625 1.640625 3.164062 3.347656 4.566406 5.121094zm0 0" fill="#eac9a2"/><path d="m65.242188 427.695312c-1.976563 0-3.953126-.757812-5.460938-2.265624-3.019531-3.015626-3.019531-7.910157 0-10.925782 14.855469-14.859375 29.71875-15.125 42.832031-15.363281 12.144531-.214844 21.734375-.390625 32.179688-10.835937 10.445312-10.445313 10.621093-20.039063 10.839843-32.183594.234376-13.113282.503907-27.972656 15.359376-42.832032 14.855468-14.855468 29.71875-15.125 42.832031-15.359374 12.140625-.21875 21.734375-.390626 32.179687-10.835938 10.445313-10.445312 10.617188-20.035156 10.835938-32.179688.238281-13.113281.503906-27.976562 15.359375-42.832031s29.71875-15.121093 42.828125-15.355469c12.144531-.21875 21.738281-.390624 32.179687-10.835937 10.445313-10.445313 10.617188-20.035156 10.835938-32.179687.234375-13.113282.503906-27.976563 15.359375-42.832032 14.855468-14.855468 29.71875-15.121094 42.832031-15.359375 12.140625-.214843 21.734375-.386719 32.179687-10.835937 3.015626-3.015625 7.910157-3.015625 10.925782 0 3.019531 3.019531 3.019531 7.910156 0 10.929687-14.855469 14.855469-29.71875 15.121094-42.828125 15.359375-12.144531.214844-21.738281.390625-32.183594 10.835938-10.441406 10.441406-10.617187 20.035156-10.832031 32.179687-.238282 13.113281-.503906 27.972657-15.359375 42.828125-14.855469 14.859375-29.71875 15.125-42.828125 15.359375-12.144532.21875-21.734375.390625-32.179688 10.835938-10.445312 10.441406-10.617187 20.035156-10.835937 32.179687-.238281 13.113282-.503907 27.972656-15.359375 42.832032-14.859375 14.855468-29.71875 15.121093-42.832032 15.359374-12.144531.214844-21.738281.390626-32.179687 10.835938-10.449219 10.445312-10.621094 20.035156-10.839844 32.179688-.234375 13.113281-.503906 27.976562-15.359375 42.832031-14.859375 14.859375-29.71875 15.125-42.832031 15.363281-12.144531.21875-21.738281.390625-32.183594 10.835938-1.507812 1.507812-3.488281 2.265624-5.464843 2.265624zm0 0" fill="#e55045"/></svg>