<svg height="512pt" viewBox="0 0 511 512" width="512pt" xmlns="http://www.w3.org/2000/svg"><path d="m8.152344 512c-1.957032 0-3.917969-.746094-5.410156-2.242188-2.988282-2.988281-2.988282-7.832031 0-10.820312l458.707031-458.703125c2.984375-2.988281 7.832031-2.988281 10.820312 0s2.988281 7.832031 0 10.820313l-458.707031 458.703124c-1.492188 1.496094-3.453125 2.242188-5.410156 2.242188zm0 0" fill="#3a4c68"/><path d="m96.351562 416.109375-34.933593-34.933594c-8.941407-8.941406-6.332031-22.730469 4.695312-24.816406l86.171875-16.304687c11.027344-2.085938 22.207032 9.09375 20.121094 20.121093l-16.304688 86.171875c-2.085937 11.027344-15.871093 13.636719-24.816406 4.695313zm0 0" fill="#f0dbbd"/><path d="m152.285156 340.054688-13.28125 2.511718-7.972656 42.140625-8.152344 43.085938c-.765625 4.0625-3.125 6.976562-6.242187 8.597656l14.648437 14.652344c8.945313 8.941406 22.730469 6.332031 24.816406-4.695313l16.304688-86.171875c2.085938-11.027343-9.09375-22.207031-20.121094-20.121093zm0 0" fill="#eac9a2"/><path d="m237.4375 362.507812c-1.960938 0-3.917969-.75-5.414062-2.242187l-79.828126-79.828125c-2.988281-2.988281-2.988281-7.835938 0-10.824219 2.988282-2.984375 7.835938-2.984375 10.820313 0l79.832031 79.832031c2.988282 2.988282 2.988282 7.832032 0 10.820313-1.496094 1.492187-3.453125 2.242187-5.410156 2.242187zm0 0" fill="#fff8e3"/><path d="m442.21875 157.722656c-1.957031 0-3.917969-.746094-5.410156-2.238281l-79.828125-79.832031c-2.992188-2.988282-2.992188-7.832032 0-10.820313 2.984375-2.988281 7.832031-2.988281 10.820312 0l79.828125 79.828125c2.988282 2.988282 2.988282 7.835938 0 10.824219-1.492187 1.492187-3.453125 2.238281-5.410156 2.238281zm0 0" fill="#fff8e3"/><path d="m334.707031 308.023438-24.363281 24.367187c-7.125 7.121094-18.671875 7.121094-25.792969 0l-104.476562-104.480469c-7.125-7.121094-7.125-18.667968 0-25.792968l24.363281-24.363282c7.125-7.125 18.671875-7.125 25.792969 0l104.480469 104.476563c7.117187 7.121093 7.117187 18.667969-.003907 25.792969zm0 0" fill="#e55045"/><path d="m419.300781 223.429688-28.503906 28.503906c-5.976563 5.980468-15.671875 5.980468-21.652344 0l-108.617187-108.617188c-5.980469-5.980468-5.980469-15.671875 0-21.652344l28.503906-28.503906c5.980469-5.980468 15.675781-5.980468 21.652344 0l108.617187 108.617188c5.980469 5.976562 5.980469 15.671875 0 21.652344zm0 0" fill="#74c577"/><path d="m334.707031 282.230469-104.476562-104.476563c-7.121094-7.121094-18.667969-7.121094-25.792969 0l-.855469.855469 80.578125 82.550781c19.152344 19.621094 18.945313 51.003906-.464844 70.371094l.855469.855469c7.121094 7.121093 18.671875 7.121093 25.792969 0l24.363281-24.363281c7.125-7.125 7.125-18.671876 0-25.792969zm0 0" fill="#c43730"/><path d="m419.300781 201.777344-108.617187-108.617188c-5.976563-5.980468-15.671875-5.980468-21.652344 0l-2.925781 2.925782 80.113281 80.113281c20.105469 20.105469 20.105469 52.703125 0 72.808593l2.925781 2.925782c5.980469 5.980468 15.671875 5.980468 21.652344 0l28.503906-28.503906c5.980469-5.980469 5.980469-15.675782 0-21.652344zm0 0" fill="#5db57f"/><path d="m512.460938 45.613281c0 25.191407-20.421876 45.613281-45.613282 45.613281s-45.613281-20.421874-45.613281-45.613281c0-25.191406 20.421875-45.613281 45.613281-45.613281s45.613282 20.421875 45.613282 45.613281zm0 0" fill="#f0dbbd"/><path d="m499.101562 13.359375c-13.078124-13.078125-32.121093-16.542969-48.371093-10.414063 5.878906 2.21875 11.398437 5.679688 16.132812 10.414063 17.8125 17.8125 17.8125 46.695313 0 64.507813-4.734375 4.734374-10.253906 8.195312-16.132812 10.414062 16.25 6.125 35.292969 2.664062 48.371093-10.414062 17.8125-17.8125 17.8125-46.695313 0-64.507813zm0 0" fill="#eac9a2"/></svg>