<svg height="511pt" viewBox="0 1 511 511.99975" width="511pt" xmlns="http://www.w3.org/2000/svg"><path d="m8 512c-1.917969 0-3.839844-.730469-5.304688-2.195312-2.925781-2.929688-2.925781-7.679688 0-10.609376l497-497c2.929688-2.925781 7.679688-2.925781 10.605469 0 2.929688 2.929688 2.929688 7.679688 0 10.609376l-497 497c-1.460937 1.464843-3.382812 2.195312-5.300781 2.195312zm0 0" fill="#3a4c68"/><path d="m188.941406 320.988281c-26.164062-26.125-68.582031-26.125-94.746094 0-26.164062 26.125-26.164062 68.484375 0 94.609375 26.164063 26.125 68.582032 26.125 94.746094 0 26.164063-26.125 26.164063-68.484375 0-94.609375zm0 0" fill="#f0dbbd"/><path d="m283.691406 226.378906c-26.164062-26.125-68.585937-26.125-94.75 0-26.164062 26.125-26.164062 68.484375 0 94.609375 26.164063 26.125 68.585938 26.125 94.75 0 26.164063-26.125 26.164063-68.484375 0-94.609375zm0 0" fill="#d2b393"/><path d="m378.4375 131.769531c-26.164062-26.125-68.582031-26.125-94.746094 0-26.164062 26.125-26.164062 68.484375 0 94.609375 26.164063 26.125 68.582032 26.125 94.746094 0s26.164062-68.484375 0-94.609375zm0 0" fill="#f0dbbd"/><path d="m473.183594 37.160156c-26.164063-26.125-68.582032-26.125-94.746094 0s-26.164062 68.484375 0 94.609375 68.582031 26.125 94.746094 0c26.164062-26.125 26.164062-68.484375 0-94.609375zm0 0" fill="#d2b393"/><path d="m188.941406 320.988281c-18.199218-18.171875-44.261718-23.691406-67.25-16.582031 10.058594 3.113281 19.535156 8.628906 27.5 16.582031 26.164063 26.125 26.164063 68.484375 0 94.609375-7.964844 7.949219-17.441406 13.46875-27.5 16.578125 22.988282 7.109375 49.050782 1.59375 67.25-16.578125 26.164063-26.125 26.164063-68.484375 0-94.609375zm0 0" fill="#eac9a2"/><path d="m283.691406 226.378906c-18.203125-18.171875-44.265625-23.691406-67.25-16.582031 10.058594 3.113281 19.53125 8.628906 27.496094 16.582031 26.164062 26.125 26.164062 68.484375 0 94.609375-7.964844 7.953125-17.4375 13.46875-27.496094 16.578125 22.984375 7.113282 49.046875 1.59375 67.25-16.578125 26.164063-26.125 26.164063-68.484375 0-94.609375zm0 0" fill="#bf9984"/><path d="m378.4375 131.769531c-18.199219-18.171875-44.261719-23.6875-67.25-16.578125 10.058594 3.109375 19.53125 8.625 27.496094 16.578125 26.164062 26.125 26.164062 68.484375 0 94.609375-7.964844 7.953125-17.4375 13.46875-27.496094 16.582032 22.988281 7.109374 49.050781 1.59375 67.25-16.582032 26.164062-26.125 26.164062-68.484375 0-94.609375zm0 0" fill="#eac9a2"/><path d="m473.183594 37.160156c-18.199219-18.171875-44.261719-23.6875-67.25-16.578125 10.058594 3.109375 19.535156 8.625 27.496094 16.578125 26.164062 26.125 26.164062 68.484375 0 94.609375-7.960938 7.953125-17.4375 13.46875-27.496094 16.582031 22.988281 7.109376 49.050781 1.589844 67.25-16.582031 26.164062-26.125 26.164062-68.484375 0-94.609375zm0 0" fill="#bf9984"/><path d="m173.65625 345.226562c-3.507812-3.503906-9.195312-3.503906-12.703125 0-3.511719 3.503907-3.511719 9.183594 0 12.6875 3.507813 3.503907 9.195313 3.503907 12.703125 0 3.507812-3.503906 3.507812-9.183593 0-12.6875zm0 0" fill="#d2b393"/><path d="m212.503906 266.699219c-3.507812-3.503907-9.199218-3.503907-12.707031 0-3.507813 3.503906-3.507813 9.183593 0 12.6875 3.507813 3.503906 9.199219 3.503906 12.707031 0 3.507813-3.503907 3.507813-9.183594 0-12.6875zm0 0" fill="#bf9984"/><path d="m230.503906 239.265625c-3.507812-3.503906-9.195312-3.503906-12.703125 0-3.511719 3.5-3.511719 9.183594 0 12.683594 3.507813 3.503906 9.195313 3.503906 12.703125 0 3.511719-3.5 3.511719-9.179688 0-12.683594zm0 0" fill="#bf9984"/><path d="m319.566406 195.742188c-3.507812-3.5-9.195312-3.5-12.703125 0-3.511719 3.503906-3.511719 9.1875 0 12.6875 3.507813 3.503906 9.195313 3.503906 12.703125 0 3.511719-3.5 3.511719-9.183594 0-12.6875zm0 0" fill="#d2b393"/><path d="m353.675781 199.527344c-3.507812-3.5-9.195312-3.5-12.707031 0-3.507812 3.503906-3.507812 9.183594 0 12.6875 3.511719 3.503906 9.199219 3.503906 12.707031 0 3.511719-3.503906 3.511719-9.183594 0-12.6875zm0 0" fill="#d2b393"/><path d="m413.367188 54.777344c-3.507813-3.503906-9.195313-3.503906-12.707032 0-3.507812 3.503906-3.507812 9.183594 0 12.6875 3.511719 3.5 9.199219 3.5 12.707032 0 3.507812-3.503906 3.507812-9.183594 0-12.6875zm0 0" fill="#bf9984"/><path d="m447.476562 50.992188c-3.507812-3.503907-9.195312-3.503907-12.707031 0-3.507812 3.503906-3.507812 9.183593 0 12.6875 3.511719 3.503906 9.199219 3.503906 12.707031 0 3.507813-3.503907 3.507813-9.183594 0-12.6875zm0 0" fill="#bf9984"/><path d="m170.816406 380.230469c-3.511718-3.503907-9.199218-3.503907-12.707031 0-3.507813 3.503906-3.507813 9.183593 0 12.6875 3.507813 3.503906 9.195313 3.503906 12.707031 0 3.507813-3.503907 3.507813-9.183594 0-12.6875zm0 0" fill="#d2b393"/></svg>