<svg height="511pt" viewBox="-37 0 511 511.99997" width="511pt" xmlns="http://www.w3.org/2000/svg"><path d="m149.046875 46.925781c107.601563-65.816406 217.582031-47.191406 265.425781-34.03125 13.660156 3.757813 23.082032 16.238281 23.058594 30.40625-.152344 77.132813-.304688 154.265625-.457031 231.398438l-.417969 213.953125c-.035156 17.980468-19.523438 29.179687-35.078125 20.160156l-185.078125-107.339844-200.296875-116.164062c-12.1875-7.066406-18.230469-21.378906-14.707031-35.019532 11.847656-45.882812 47.355468-142.078124 147.550781-203.363281zm0 0" fill="#ffe170"/><path d="m414.472656 12.894531c-29.273437-8.054687-81.816406-18.148437-142.835937-9.695312 19.386719 2.578125 35.78125 6.316406 48.066406 9.695312 13.660156 3.757813 23.082031 16.238281 23.054687 30.40625-.152343 77.132813-.304687 154.265625-.453124 231.398438l-.390626 199.507812 59.664063 34.605469c15.554687 9.019531 35.042969-2.179688 35.078125-20.160156l.417969-213.953125c.152343-77.132813.304687-154.265625.453125-231.398438.027344-14.167969-9.394532-26.648437-23.054688-30.40625zm0 0" fill="#ffd071"/><path d="m198.648438 117.03125c90.855468-55.574219 183.390624-43.449219 238.800781-32.738281.019531-11.171875.058593-29.835938.078125-41.003907.027344-14.167968-9.394532-26.640624-23.054688-30.394531-47.84375-13.160156-157.824218-31.785156-265.425781 34.03125-100.195313 61.285157-135.703125 157.480469-147.550781 203.363281-3.523438 13.640626 2.519531 27.953126 14.707031 35.019532l38.464844 22.308594c14.800781-49.25 52.320312-134.519532 143.980469-190.585938zm0 0" fill="#ff9a2d"/><path d="m437.523438 44.8125c.003906-.511719.003906-1.03125.003906-1.515625 0-.003906 0-.007813 0-.011719.027344-14.164062-9.394532-26.632812-23.054688-30.390625-29.273437-8.054687-81.816406-18.148437-142.835937-9.695312 19.386719 2.578125 35.78125 6.316406 48.066406 9.695312 13.660156 3.757813 23.082031 16.238281 23.054687 30.40625-.019531 10.664063-.042968 21.332031-.0625 32 36.8125-1.019531 69.605469 4.132813 94.753907 8.992188.023437-13.160157.050781-26.320313.074219-39.480469zm0 0" fill="#ff8d29"/><path d="m342.753906 316.117188c0 22.890624-18.550781 41.441406-41.441406 41.441406-22.886719 0-41.4375-18.550782-41.4375-41.441406 0-22.886719 18.550781-41.4375 41.4375-41.4375 22.890625 0 41.441406 18.550781 41.441406 41.4375zm0 0" fill="#74c577"/><path d="m387.347656 176.304688c0 28.347656-22.980468 51.328124-51.328125 51.328124-28.347656 0-51.332031-22.980468-51.332031-51.328124 0-28.351563 22.984375-51.332032 51.332031-51.332032 28.347657 0 51.328125 22.980469 51.328125 51.332032zm0 0" fill="#e55045"/><path d="m342.59375 125.410156c-.066406 33.9375-.132812 67.878906-.199219 101.816406 24.144531-2.996093 43.449219-22.875 44.871094-48.027343 1.53125-27.0625-18.195313-50.394531-44.671875-53.789063zm0 0" fill="#c43730"/><path d="m189.121094 276.539062c1.070312-18.9375-12.886719-35.125-31.167969-36.15625s-33.972656 13.480469-35.039063 32.417969c-1.070312 18.933594 12.882813 35.121094 31.164063 36.15625 18.285156 1.03125 33.972656-13.480469 35.042969-32.417969zm0 0" fill="#fff8e3"/><path d="m395.472656 402.8125c.761719-13.492188-9.179687-25.023438-22.207031-25.761719-13.023437-.734375-24.199219 9.605469-24.960937 23.09375-.761719 13.492188 9.179687 25.023438 22.203124 25.761719 13.023438.734375 24.199219-9.605469 24.964844-23.09375zm0 0" fill="#c43730"/><g fill="#ff9a2d"><path d="m238.851562 254.535156c0 3.960938-3.210937 7.171875-7.171874 7.171875-3.960938 0-7.171876-3.210937-7.171876-7.171875 0-3.957031 3.210938-7.167968 7.171876-7.167968 3.960937 0 7.171874 3.210937 7.171874 7.167968zm0 0"/><path d="m310.105469 408.667969c0 3.960937-3.210938 7.171875-7.171875 7.171875-3.960938 0-7.171875-3.210938-7.171875-7.171875 0-3.960938 3.210937-7.171875 7.171875-7.171875 3.960937 0 7.171875 3.210937 7.171875 7.171875zm0 0"/><path d="m238.851562 165.089844c0 3.960937-3.210937 7.171875-7.171874 7.171875-3.960938 0-7.171876-3.210938-7.171876-7.171875 0-3.960938 3.210938-7.171875 7.171876-7.171875 3.960937 0 7.171874 3.210937 7.171874 7.171875zm0 0"/><path d="m393.390625 267.507812c0 3.957032-3.210937 7.167969-7.171875 7.167969s-7.171875-3.210937-7.171875-7.167969c0-3.960937 3.210937-7.171874 7.171875-7.171874s7.171875 3.210937 7.171875 7.171874zm0 0"/><path d="m407.730469 117.800781c0 3.957031-3.207031 7.167969-7.167969 7.167969s-7.171875-3.210938-7.171875-7.167969c0-3.960937 3.210937-7.171875 7.171875-7.171875s7.167969 3.210938 7.167969 7.171875zm0 0"/><path d="m386.21875 349.234375c0 3.960937-3.210938 7.171875-7.171875 7.171875s-7.171875-3.210938-7.171875-7.171875 3.210938-7.171875 7.171875-7.171875 7.171875 3.210938 7.171875 7.171875zm0 0"/><path d="m407.730469 467.339844c0 3.960937-3.207031 7.171875-7.167969 7.171875s-7.171875-3.210938-7.171875-7.171875c0-3.960938 3.210937-7.171875 7.171875-7.171875s7.167969 3.210937 7.167969 7.171875zm0 0"/><path d="m200.632812 342.0625c0 3.960938-3.210937 7.171875-7.171874 7.171875-3.960938 0-7.171876-3.210937-7.171876-7.171875s3.210938-7.167969 7.171876-7.167969c3.960937 0 7.171874 3.207031 7.171874 7.167969zm0 0"/></g></svg>