<svg height="512pt" viewBox="-54 0 512 512" width="512pt" xmlns="http://www.w3.org/2000/svg"><path d="m6.757812 48.1875h390.671876v415.625h-390.671876zm0 0" fill="#e55045"/><path d="m331.730469 50.957031h65.699219v410.085938h-65.699219zm0 0" fill="#c43730"/><path d="m386.585938 512h-368.984376c-11.203124 0-19.550781-10.328125-17.203124-21.28125l6.359374-29.675781h390.671876l6.359374 29.675781c2.347657 10.953125-6.003906 21.28125-17.203124 21.28125zm0 0" fill="#ff9a2d"/><path d="m403.789062 490.71875-6.359374-29.675781h-65.699219l6.359375 29.675781c2.347656 10.953125-6.003906 21.28125-17.203125 21.28125h65.699219c11.199218 0 19.550781-10.328125 17.203124-21.28125zm0 0" fill="#ff8d29"/><path d="m397.429688 50.957031h-390.671876l-6.359374-29.675781c-2.347657-10.953125 6-21.28125 17.203124-21.28125h368.984376c11.199218 0 19.550781 10.328125 17.203124 21.28125zm0 0" fill="#ff9a2d"/><path d="m386.585938 0h-65.648438c11.203125 0 19.554688 10.328125 17.207031 21.28125l-6.359375 29.675781h65.644532l6.359374-29.675781c2.347657-10.953125-6.003906-21.28125-17.203124-21.28125zm0 0" fill="#ff8d29"/><path d="m307.128906 256c0 58.011719-47.027344 105.035156-105.035156 105.035156-58.011719 0-105.035156-47.023437-105.035156-105.035156s47.023437-105.035156 105.035156-105.035156c58.007812 0 105.035156 47.023437 105.035156 105.035156zm0 0" fill="#fff"/><path d="m198.320312 254.667969c22.109376-17.503907 37.144532-35.695313 49.011719-20.703125 11.871094 14.992187 9.667969 51.023437-12.441406 68.527344-22.105469 17.503906-55.753906 9.847656-67.621094-5.144532-11.871093-14.996094 8.945313-25.175781 31.050781-42.679687zm0 0" fill="#d2b393"/><path d="m177.421875 215.023438c22.109375-17.503907 37.140625-35.699219 49.007813-20.707032 11.871093 14.996094 9.671874 51.027344-12.4375 68.53125-22.109376 17.5-55.757813 9.847656-67.625-5.148437-11.871094-14.992188 8.945312-25.171875 31.054687-42.675781zm0 0" fill="#f0dbbd"/></svg>