<svg height="512pt" viewBox="-177 0 512 512" width="512pt" xmlns="http://www.w3.org/2000/svg"><path d="m135.058594 512h-112.375c-12.417969 0-22.523438-9.984375-22.6640628-22.402344-.0390624-3.589844-.02343745-7.414062.0703126-11.441406.9375002-40.410156 8.4648442-44.246094 8.8750002-74.5625.40625-29.921875-6.820313-33.855469-8.210938-78.339844-.441406-14.207031-.082031-25.832031.277344-33.289062h155.785156c.789063 7.507812 1.703125 19.253906 1.394532 33.621094-.863282 40-10.046876 45.625-9.878907 76.675781.144531 26.3125 6.773438 28.796875 8.878907 66.578125.417968 7.488281.550781 14.433594.507812 20.695312-.078125 12.441406-10.222656 22.464844-22.660156 22.464844zm0 0" fill="#876954"/><path d="m156.816406 291.964844h-31.046875c.789063 7.507812 1.707031 19.253906 1.394531 33.621094-.863281 40-10.042968 45.625-9.875 76.675781.144532 26.3125 6.773438 28.792969 8.875 66.574219.417969 7.488281.550782 14.433593.511719 20.699218-.078125 12.441406-10.222656 22.464844-22.664062 22.464844h31.046875c12.4375 0 22.582031-10.023438 22.664062-22.464844.039063-6.261718-.09375-13.207031-.511718-20.695312-2.105469-37.78125-8.734376-40.265625-8.878907-66.578125-.167969-31.050781 9.015625-36.675781 9.878907-76.675781.308593-14.367188-.605469-26.113282-1.394532-33.621094zm0 0" fill="#705245"/><path d="m114.167969 25.851562c-1.375 37.734376 7.300781 66.480469 15.738281 82.726563 7.59375 14.625 18.46875 28.671875 23.3125 53.222656 2.800781 14.214844 2.480469 26.375 1.773438 34.433594h-151.710938c-.710938-8.058594-1.027344-20.21875 1.773438-34.433594 4.839843-24.550781 15.714843-38.597656 23.3125-53.222656 8.433593-16.246094 17.109374-44.992187 15.738281-82.726563" fill="#876954"/><path d="m153.21875 161.800781c-4.84375-24.550781-15.71875-38.597656-23.3125-53.222656-8.4375-16.246094-17.113281-44.992187-15.738281-82.726563h-70.0625c.222656 6.125.175781 12.011719-.085938 17.652344 19.566407 0 36.113281 14.515625 38.632813 33.917969 2.753906 21.230469 8.546875 37.859375 14.234375 48.808594 7.59375 14.625 18.46875 28.671875 23.308593 53.222656 1.1875 6.015625 1.808594 11.660156 2.085938 16.785156h32.710938c.707031-8.0625 1.027343-20.222656-1.773438-34.4375zm0 0" fill="#705245"/><path d="m107.765625 29.390625h-57.257813c-8.117187 0-14.695312-6.582031-14.695312-14.695313 0-8.117187 6.578125-14.695312 14.695312-14.695312h57.257813c8.113281 0 14.695313 6.578125 14.695313 14.695312 0 8.113282-6.582032 14.695313-14.695313 14.695313zm0 0" fill="#ffe170"/><path d="m107.765625 0h-29.421875c8.117188 0 14.695312 6.578125 14.695312 14.695312 0 8.117188-6.578124 14.695313-14.695312 14.695313h29.421875c8.113281 0 14.695313-6.578125 14.695313-14.695313 0-8.117187-6.582032-14.695312-14.695313-14.695312zm0 0" fill="#f9c758"/><path d="m151.070312 297.621094h-143.871093c-3.289063 0-5.953125-2.664063-5.953125-5.953125v-91.949219c0-3.289062 2.664062-5.957031 5.953125-5.957031h143.875c3.289062 0 5.953125 2.667969 5.953125 5.957031v91.949219c0 3.289062-2.667969 5.953125-5.957032 5.953125zm0 0" fill="#e55045"/><path d="m151.070312 193.761719h-29.089843c3.289062 0 5.953125 2.667969 5.953125 5.957031v91.949219c0 3.289062-2.664063 5.957031-5.953125 5.957031h29.089843c3.289063 0 5.957032-2.667969 5.957032-5.957031v-91.949219c0-3.289062-2.667969-5.957031-5.957032-5.957031zm0 0" fill="#c43730"/><path d="m105.957031 271.355469c-10.734375 0-19.4375-6.859375-27.152343-14.722657-9.710938 8.976563-18.25 15.316407-28.953126 14.320313-12.792968-1.195313-27.140624-14.5-25.769531-29.222656 1.042969-11.171875 11.007813-21.511719 22.683594-23.542969 13.265625-2.304688 23.5625 6.703125 32.59375 16.316406 5.113281-5.289062 10.058594-10.230468 18.753906-12.652344 2.539063-.707031 9.285157-2.585937 16.96875-.0625 9.96875 3.269532 19.785157 13.714844 18.949219 25.53125-.886719 12.539063-13.25 22.085938-24.199219 23.742188-1.320312.199219-2.613281.292969-3.875.292969zm-16.078125-25.496094c6.058594 6.195313 11.886719 10.78125 17.640625 9.917969 5.214844-.789063 10.8125-5.605469 11.089844-9.546875.25-3.523438-3.808594-8.265625-8.347656-9.753907-3.230469-1.0625-6.332031-.195312-8 .265626-4.691407 1.308593-7.136719 3.691406-12.21875 8.949218-.054688.054688-.109375.113282-.164063.167969zm-39.082031-12.558594c-.464844 0-.925781.039063-1.382813.117188-5.167968.898437-9.585937 5.976562-9.9375 9.746093-.46875 5.023438 6.046876 11.859376 11.816407 12.398438 4.566406.433594 10.175781-3.957031 17-10.265625-6.148438-6.582031-12.007813-11.996094-17.496094-11.996094zm-2.707031-7.496093h.011718zm0 0" fill="#fff"/></svg>