<svg height="512pt" viewBox="-64 0 512 512" width="512pt" xmlns="http://www.w3.org/2000/svg"><path d="m82.90625 35.140625 35.140625-35.140625h136.316406l35.140625 35.140625zm0 0" fill="#705245"/><path d="m118.046875 132.34375h-35.140625v-97.203125l35.140625-35.140625zm0 0" fill="#876954"/><path d="m289.503906 132.34375h-35.140625v-132.34375l35.140625 35.140625zm0 0" fill="#876954"/><path d="m358.167969 512h-332.503907c-14.175781 0-25.664062-11.488281-25.664062-25.664062v-343.367188c0-8.652344 7.011719-15.667969 15.664062-15.667969h352.5c8.652344 0 15.664063 7.015625 15.664063 15.667969v343.367188c0 14.175781-11.488281 25.664062-25.660156 25.664062zm0 0" fill="#f0dbbd"/><path d="m368.164062 127.304688h-40.738281v45.933593c0 163.992188-132.941406 296.933594-296.933593 296.933594h-30.492188v16.164063c0 14.175781 11.488281 25.664062 25.664062 25.664062h332.503907c14.171875 0 25.660156-11.488281 25.660156-25.664062v-343.367188c0-8.652344-7.011719-15.664062-15.664063-15.664062zm0 0" fill="#eac9a2"/><path d="m100.410156 371.242188c-6.109375 6.152343-6.070312 16.09375.082032 22.199218 3.984374 3.957032 9.558593 5.316406 14.648437 4.125-1.152344 5.097656.25 10.660156 4.234375 14.617188 6.152344 6.105468 16.089844 6.070312 22.199219-.082032 5.535156-5.578124 6.003906-14.261718 1.460937-20.386718.09375-.089844.195313-.164063.285156-.257813 6.109376-6.152343 6.070313-16.089843-.082031-22.199219-6.152343-6.105468-16.089843-6.070312-22.199219.085938-.089843.089844-.167968.191406-.257812.285156-6.15625-4.496094-14.835938-3.964844-20.371094 1.613282zm0 0" fill="#fff"/><path d="m143.234375 376.988281c-1.871094 0-3.746094-.675781-5.230469-2.042969-3.140625-2.890624-3.339844-7.78125-.449218-10.917968l17.09375-18.566406c2.890624-3.140626 7.777343-3.34375 10.917968-.453126 3.136719 2.890626 3.339844 7.78125.449219 10.921876l-17.09375 18.5625c-1.523437 1.65625-3.601563 2.496093-5.6875 2.496093zm0 0" fill="#fff"/><path d="m167.308594 282.519531c.011718.882813.042968 1.761719.09375 2.640625.328125 5.800782-2.058594 11.59375-6.484375 15.601563-6.914063 6.265625-11.195313 15.375-11.054688 25.542969.257813 19.039062 15.902344 34.566406 34.941407 34.683593 10.167968.0625 19.246093-4.285156 25.460937-11.246093 3.972656-4.453126 9.75-6.886719 15.554687-6.597657.875.042969 1.753907.070313 2.640626.074219 33.316406.203125 59.964843-26.640625 59.511718-59.957031-.453125-33.320313-27.832031-60.496094-61.152344-60.699219-33.320312-.207031-59.964843 26.636719-59.511718 59.957031zm0 0" fill="#e55045"/></svg>