<svg height="512pt" viewBox="0 -113 512 512" width="512pt" xmlns="http://www.w3.org/2000/svg"><path d="m72.929688 180.472656-53.742188-28.089844c-4.484375-2.347656-9.742188 1.359376-9.042969 6.371094 1.269531 9.132813 4.152344 20.882813 10.640625 33.304688 9.601563 18.378906 22.484375 29.410156 29.695313 34.761718zm0 0" fill="#e55045"/><path d="m70.246094 261.367188h-61.277344c-4.953125 0-8.96875-4.015626-8.96875-8.96875v-22.617188c0-4.953125 4.015625-8.96875 8.96875-8.96875h61.277344zm0 0" fill="#ff9a2d"/><path d="m439.070312 181.601562 51.234376-26.78125c5.609374-2.933593 12.144531 1.824219 11.089843 8.066407-1.460937 8.640625-4.382812 19.203125-10.179687 30.300781-9.601563 18.378906-22.484375 29.410156-29.695313 34.761719zm0 0" fill="#e55045"/><path d="m441.753906 262.496094h62.59375c4.226563 0 7.652344-3.425782 7.652344-7.652344v-25.25c0-4.226562-3.425781-7.652344-7.652344-7.652344h-62.59375zm0 0" fill="#ff9a2d"/><path d="m68.277344 179.984375-14.480469-66.527344c-4.441406-20.398437 11.242187-39.625 32.117187-39.378906 14.457032.171875 27.289063-9.234375 31.472657-23.074219l2.347656-7.769531c5.699219-18.839844 26.710937-28.320313 44.605469-20.128906l10.421875 4.773437c12.164062 5.566406 26.496093 3.109375 36.105469-6.199218l10.195312-9.871094c12.664062-12.261719 32.796875-12.179688 45.363281.183594l6.527344 6.421874c11.046875 10.867188 28.234375 12.414063 41.046875 3.695313l4.660156-3.167969c15.707032-10.691406 37.203125-5.671875 46.546875 10.878906l10.578125 18.730469c5.757813 10.199219 16.5625 16.503907 28.277344 16.503907h22.027344c18.921875 0 33.839844 16.113281 32.378906 34.980468l-5.84375 75.546875c-1.308594 16.914063-15.414062 29.96875-32.378906 29.96875h-320.238282c-15.273437 0-28.484374-10.640625-31.730468-25.566406zm0 0" fill="#74c577"/><path d="m261.8125 149.246094c-3.855469 0-7.726562-.058594-11.652344-.175782-48.160156-1.433593-95.363281-11.746093-140.304687-30.652343-27.789063-11.695313-54.058594-26.394531-78.078125-43.699219-3.464844-2.496094-4.253906-7.332031-1.753906-10.800781 2.5-3.464844 7.332031-4.25 10.800781-1.753907 35.257812 25.398438 109.398437 68.453126 209.792969 71.4375 111.097656 3.316407 193.25-43.34375 232.324218-71.441406 3.46875-2.496094 8.304688-1.707031 10.800782 1.765625 2.496093 3.46875 1.703124 8.300781-1.765626 10.796875-39.285156 28.253906-120.421874 74.523438-230.164062 74.523438zm0 0" fill="#ffe170"/><path d="m283.191406 85.449219c-13.367187 0-27.414062-1.035157-42.023437-3.429688-69.0625-11.320312-116.28125-47.875-138.277344-68.65625-3.109375-2.9375-3.246094-7.832031-.3125-10.9375 2.9375-3.109375 7.832031-3.246093 10.9375-.3125 20.714844 19.566407 65.164063 53.984375 130.15625 64.632813 71.917969 11.789062 129.359375-11.40625 157.199219-26.28125 3.769531-2.011719 8.457031-.589844 10.46875 3.179687 2.015625 3.769531.589844 8.457031-3.175782 10.472657-23.914062 12.773437-68.398437 31.332031-124.972656 31.332031zm0 0" fill="#ffe170"/><path d="m255.804688 53.078125c-126.363282 0-228.804688 102.441406-228.804688 228.804687 0 2.464844 1.996094 4.460938 4.460938 4.460938h448.6875c2.464843 0 4.460937-2 4.460937-4.460938 0-126.363281-102.4375-228.804687-228.804687-228.804687zm0 0" fill="#f0dbbd"/><path d="m255.804688 53.078125c-15.125 0-29.898438 1.484375-44.203126 4.285156 105.210938 20.59375 184.601563 113.277344 184.601563 224.519531 0 2.464844-1.996094 4.460938-4.460937 4.460938h88.40625c2.464843 0 4.460937-1.996094 4.460937-4.460938 0-126.363281-102.441406-228.804687-228.804687-228.804687zm0 0" fill="#eac9a2"/><g fill="#d2b393"><path d="m188.144531 155.75c0 5.015625-4.066406 9.082031-9.082031 9.082031s-9.082031-4.066406-9.082031-9.082031c0-5.019531 4.066406-9.085938 9.082031-9.085938s9.082031 4.066407 9.082031 9.085938zm0 0"/><path d="m347.566406 155.75c0 5.015625-4.066406 9.082031-9.085937 9.082031-5.015625 0-9.082031-4.066406-9.082031-9.082031 0-5.019531 4.066406-9.085938 9.082031-9.085938 5.019531 0 9.085937 4.066407 9.085937 9.085938zm0 0"/><path d="m267.855469 155.75c0 5.015625-4.066407 9.082031-9.082031 9.082031-5.019532 0-9.085938-4.066406-9.085938-9.082031 0-5.019531 4.066406-9.085938 9.085938-9.085938 5.015624 0 9.082031 4.066407 9.082031 9.085938zm0 0"/><path d="m143.644531 201.839844c0 5.015625-4.066406 9.082031-9.085937 9.082031-5.015625 0-9.082032-4.066406-9.082032-9.082031s4.066407-9.082032 9.082032-9.082032c5.019531 0 9.085937 4.066407 9.085937 9.082032zm0 0"/><path d="m303.0625 201.839844c0 5.015625-4.066406 9.082031-9.082031 9.082031s-9.082031-4.066406-9.082031-9.082031 4.066406-9.082032 9.082031-9.082032 9.082031 4.066407 9.082031 9.082032zm0 0"/><path d="m386.132812 201.839844c0 5.015625-4.066406 9.082031-9.082031 9.082031s-9.082031-4.066406-9.082031-9.082031 4.066406-9.082032 9.082031-9.082032 9.082031 4.066407 9.082031 9.082032zm0 0"/><path d="m223.351562 201.839844c0 5.015625-4.066406 9.082031-9.082031 9.082031s-9.082031-4.066406-9.082031-9.082031 4.066406-9.082032 9.082031-9.082032 9.082031 4.066407 9.082031 9.082032zm0 0"/></g></svg>