<svg height="512pt" viewBox="0 -77 512 512" width="512pt" xmlns="http://www.w3.org/2000/svg"><path d="m408.972656 97.5v16.496094c0 3.105468-.484375 10.5625-1.371094 20.601562-.414062 4.667969-.910156 9.886719-1.5 15.496094-3.140624 30.167969-8.65625 71.347656-15.441406 95.824219-3.46875 12.570312-7.292968 20.730469-11.289062 20.730469h-93.761719c-3.996094 0-7.816406-8.160157-11.289063-20.730469-6.785156-24.476563-12.300781-65.65625-15.449218-95.824219-.578125-5.609375-1.085938-10.824219-1.5-15.496094-.886719-10.039062-1.371094-17.496094-1.371094-20.601562v-16.496094c0-11.648438 5.8125-22.535156 15.492188-29.03125l15.945312-10.679688c3.988281-2.675781 7.324219-6.09375 9.855469-10.007812 3.003906-4.617188 4.894531-9.925781 5.453125-15.496094.121094-1.164062.183594-2.34375.183594-3.53125v-22.730468c0-2.882813 3.222656-4.578126 5.597656-2.964844l7.167968 4.882812c1.210938.828125 2.8125.828125 4.03125 0l10.75-7.320312c1.207032-.828125 2.808594-.828125 4.027344 0l10.753906 7.320312c1.207032.828125 2.808594.828125 4.027344 0l7.167969-4.882812c2.375-1.613282 5.597656.082031 5.597656 2.964844v22.730468c0 11.652344 5.804688 22.546875 15.492188 29.035156l15.9375 10.679688c9.6875 6.496094 15.492187 17.382812 15.492187 29.03125zm0 0" fill="#d2b393"/><path d="m256 97.5v16.496094c0 3.210937-.507812 10.679687-1.457031 20.601562-.441407 4.679688-.980469 9.90625-1.621094 15.496094-3.59375 31.902344-10.070313 75.53125-17.929687 95.824219-2.726563 7.015625-5.609376 11.25-8.59375 11.25h-93.761719c-2.984375 0-5.867188-4.234375-8.589844-11.25-7.863281-20.292969-14.347656-63.921875-17.941406-95.824219-.628907-5.589844-1.175781-10.816406-1.621094-15.496094-.953125-9.925781-1.457031-17.390625-1.457031-20.601562v-16.496094c0-11.648438 5.816406-22.535156 15.492187-29.03125l15.949219-10.679688c3.984375-2.675781 7.3125-6.09375 9.851562-10.007812 3.003907-4.617188 4.894532-9.925781 5.453126-15.496094.125-1.164062.1875-2.34375.1875-3.53125v-22.730468c0-2.882813 3.21875-4.578126 5.597656-2.964844l7.167968 4.882812c1.207032.828125 2.808594.828125 4.027344 0l10.75-7.320312c1.210938-.828125 2.808594-.828125 4.027344 0l10.742188 7.320312c1.21875.828125 2.820312.828125 4.039062 0l7.167969-4.882812c2.375-1.613282 5.597656.082031 5.597656 2.964844v22.730468c0 11.652344 5.804687 22.546875 15.492187 29.035156l15.9375 10.679688c9.6875 6.496094 15.492188 17.382812 15.492188 29.03125zm0 0" fill="#d2b393"/><path d="m240.507812 68.46875-15.9375-10.679688c-9.6875-6.488281-15.492187-17.382812-15.492187-29.035156v-22.730468c0-2.882813-3.222656-4.578126-5.597656-2.964844l-7.167969 4.882812c-1.21875.828125-2.820312.828125-4.039062 0l-10.742188-7.320312c-1.21875-.828125-2.820312-.828125-4.027344 0l-10.753906 7.320312c-1.21875.828125-2.820312.828125-4.027344 0l-7.167968-4.882812c-2.375-1.613282-5.597657.082031-5.597657 2.964844v22.730468c0 1.1875-.0625 2.367188-.1875 3.53125-.011719.136719-.035156.269532-.050781.402344-.605469 5.421875-2.46875 10.585938-5.402344 15.09375 18.011719 0 34.25 11.164062 40.375 28.097656 2.320313 6.414063 5.160156 11.992188 8.449219 14.195313l15.933594 10.679687c9.691406 6.496094 15.496093 17.382813 15.496093 29.035156v16.492188c0 3.210938-.507812 10.679688-1.457031 20.605469-.445312 4.679687-.980469 9.90625-1.621093 15.492187-2.617188 23.230469-6.761719 52.660156-11.855469 74.789063h16.761719c2.984374 0 5.867187-4.234375 8.59375-11.25 7.859374-20.292969 14.335937-63.921875 17.929687-95.824219.640625-5.589844 1.175781-10.816406 1.621094-15.496094.949219-9.925781 1.457031-17.390625 1.457031-20.601562v-16.496094c0-11.648438-5.804688-22.535156-15.492188-29.03125zm0 0" fill="#bf9984"/><path d="m393.480469 68.46875-15.9375-10.679688c-9.6875-6.488281-15.492188-17.382812-15.492188-29.035156v-22.730468c0-2.882813-3.222656-4.578126-5.597656-2.964844l-7.167969 4.882812c-1.21875.828125-2.820312.828125-4.039062 0l-10.742188-7.320312c-1.21875-.828125-2.820312-.828125-4.027344 0l-10.75 7.320312c-1.21875.828125-2.820312.828125-4.03125 0l-7.167968-4.882812c-2.375-1.613282-5.597656.082031-5.597656 2.964844v22.730468c0 1.1875-.0625 2.367188-.183594 3.53125-.015625.136719-.039063.269532-.054688.402344-.605468 5.421875-2.464844 10.585938-5.398437 15.09375 18.007812 0 34.246093 11.164062 40.371093 28.097656 2.320313 6.414063 5.160157 11.992188 8.449219 14.195313l15.9375 10.679687c9.6875 6.496094 15.492188 17.382813 15.492188 29.035156v16.492188c0 3.210938-.507813 10.679688-1.457031 20.605469-.441407 4.679687-.980469 9.90625-1.621094 15.492187-2.617188 23.230469-6.761719 52.660156-11.855469 74.789063h16.761719c2.984375 0 5.867187-4.234375 8.59375-11.25 7.859375-20.292969 14.335937-63.921875 17.929687-95.824219.640625-5.589844 1.175781-10.816406 1.621094-15.496094.953125-9.925781 1.457031-17.390625 1.457031-20.601562v-16.496094c0-11.648438-5.800781-22.535156-15.492187-29.03125zm0 0" fill="#bf9984"/><g fill="#f0dbbd"><path d="m179.519531 199.8125v16.496094c0 16.347656-13.253906 29.609375-29.613281 29.609375l-46.882812 10-46.878907-10c-16.351562 0-29.601562-13.261719-29.601562-29.609375v-16.496094c0-11.648438 5.804687-22.535156 15.492187-29.03125l15.9375-10.679688c3.988282-2.675781 7.324219-6.09375 9.863282-10.007812 2.996093-4.617188 4.886718-9.925781 5.445312-15.496094.121094-1.164062.183594-2.34375.183594-3.53125v-22.730468c0-2.882813 3.222656-4.578126 5.609375-2.964844l7.15625 4.882812c1.21875.828125 2.820312.828125 4.039062 0l10.742188-7.320312c.609375-.414063 1.300781-.621094 2.015625-.621094.699218 0 1.414062.207031 2.023437.621094l10.742188 7.320312c1.21875.828125 2.820312.828125 4.035156 0l7.160156-4.882812c2.375-1.613282 5.597657.082031 5.597657 2.964844v22.730468c0 11.652344 5.816406 22.546875 15.492187 29.035156l15.949219 10.679688c9.675781 6.496094 15.492187 17.382812 15.492187 29.03125zm0 0"/><path d="m332.492188 199.8125v16.496094c0 16.347656-13.25 29.609375-29.613282 29.609375l-46.875 10-46.886718-10c-16.347657 0-29.597657-13.261719-29.597657-29.609375v-16.496094c0-11.648438 5.804688-22.535156 15.492188-29.03125l15.9375-10.679688c3.984375-2.675781 7.320312-6.09375 9.863281-10.007812 2.996094-4.617188 4.882812-9.925781 5.441406-15.496094.125-1.164062.1875-2.34375.1875-3.53125v-22.730468c0-2.882813 3.222656-4.578126 5.609375-2.964844l7.15625 4.882812c1.21875.828125 2.820313.828125 4.039063 0l10.742187-7.320312c1.21875-.828125 2.820313-.828125 4.035157 0l10.742187 7.320312c1.21875.828125 2.820313.828125 4.039063 0l7.160156-4.882812c2.375-1.613282 5.597656.082031 5.597656 2.964844v22.730468c0 11.652344 5.8125 22.546875 15.492188 29.035156l15.945312 10.679688c9.675781 6.496094 15.492188 17.382812 15.492188 29.03125zm0 0"/><path d="m485.464844 199.8125v16.496094c0 16.347656-13.25 29.609375-29.609375 29.609375l-43.429688 10-50.332031-10c-16.351562 0-29.601562-13.261719-29.601562-29.609375v-16.496094c0-11.648438 5.804687-22.535156 15.492187-29.03125l15.9375-10.679688c3.984375-2.675781 7.320313-6.09375 9.863281-10.007812 2.996094-4.617188 4.886719-9.925781 5.441406-15.496094.125-1.164062.1875-2.34375.1875-3.53125v-22.730468c0-2.882813 3.222657-4.578126 5.609376-2.964844l7.15625 4.882812c1.21875.828125 2.820312.828125 4.039062 0l10.742188-7.320312c1.21875-.828125 2.820312-.828125 4.035156 0l10.742187 7.320312c1.222657.828125 2.820313.828125 4.039063 0l7.160156-4.882812c2.375-1.613282 5.597656.082031 5.597656 2.964844v22.730468c0 11.652344 5.8125 22.546875 15.492188 29.035156l15.945312 10.679688c9.679688 6.496094 15.492188 17.382812 15.492188 29.03125zm0 0"/></g><path d="m164.019531 170.78125-15.945312-10.679688c-9.679688-6.488281-15.496094-17.382812-15.496094-29.035156v-22.730468c0-2.882813-3.21875-4.578126-5.597656-2.964844l-7.15625 4.882812c-1.21875.828125-2.820313.828125-4.039063 0l-10.742187-7.320312c-.609375-.414063-1.320313-.621094-2.023438-.621094-.710937 0-1.40625.207031-2.011719.621094l-10.742187 7.320312c-1.21875.828125-2.820313.828125-4.039063 0l-7.160156-4.882812c-2.382812-1.613282-5.605468.082031-5.605468 2.964844v32.375l2.648437-1.804688c.609375-.414062 1.300781-.621094 2.011719-.621094.703125 0 1.414062.207032 2.023437.621094l10.742188-3.371094c1.21875.824219 2.820312.824219 4.039062 0l7.160157 2.863282c2.375-1.609376 5.597656.082031 5.597656 2.964843v14.980469c0 11.652344 5.8125 22.546875 15.492187 29.035156l15.945313 10.679688c9.679687 6.496094 15.492187 17.382812 15.492187 29.03125v16.496094c0 1.359374-.097656 2.691406-.273437 4 14.25-2.140626 25.171875-14.4375 25.171875-29.28125v-16.492188c0-11.648438-5.8125-22.535156-15.492188-29.03125zm0 0" fill="#eac9a2"/><path d="m316.992188 170.78125-15.945313-10.679688c-9.679687-6.488281-15.492187-17.382812-15.492187-29.035156v-22.730468c0-2.882813-3.222657-4.578126-5.597657-2.964844l-7.160156 4.882812c-1.21875.828125-2.820313.828125-4.035156 0l-10.742188-7.320312c-1.21875-.828125-2.820312-.828125-4.039062 0l-10.742188 7.320312c-1.21875.828125-2.820312.828125-4.039062 0l-7.15625-4.882812c-2.386719-1.613282-5.609375.082031-5.609375 2.964844v30.847656l2.648437-1.804688c1.21875-.828125 2.820313-.828125 4.039063 0l10.742187-1.84375c1.21875.824219 2.820313.824219 4.035157 0l7.160156 3.851563c2.375-1.609375 5.597656.082031 5.597656 2.964843v13.996094c0 11.648438 5.816406 22.546875 15.492188 29.03125l15.949218 10.679688c9.675782 6.496094 15.492188 17.382812 15.492188 29.035156v16.492188c0 1.359374-.101563 2.691406-.277344 4 14.253906-2.140626 25.171875-14.433594 25.171875-29.277344v-16.496094c.003906-11.648438-5.8125-22.535156-15.492187-29.03125zm0 0" fill="#eac9a2"/><path d="m469.96875 170.78125-15.945312-10.679688c-9.679688-6.488281-15.496094-17.382812-15.496094-29.035156v-22.730468c0-2.882813-3.21875-4.578126-5.597656-2.964844l-7.15625 4.882812c-1.21875.828125-2.820313.828125-4.039063 0l-10.742187-7.320312c-1.21875-.828125-2.820313-.828125-4.039063 0l-10.738281 7.320312c-1.222656.828125-2.820313.828125-4.039063 0l-7.160156-4.882812c-2.382813-1.613282-5.605469.082031-5.605469 2.964844v32.703124l2.648438-1.804687c1.21875-.828125 2.820312-.828125 4.039062 0l10.742188-3.699219c1.21875.824219 2.816406.824219 4.035156 0l7.160156 3.851563c2.375-1.613281 5.597656.082031 5.597656 2.960937v13.996094c0 11.652344 5.8125 22.546875 15.492188 29.035156l15.945312 10.679688c9.679688 6.496094 15.496094 17.382812 15.496094 29.03125v16.496094c0 1.359374-.101562 2.691406-.277344 4 14.25-2.140626 25.171876-14.4375 25.171876-29.28125v-16.492188c0-11.648438-5.816407-22.535156-15.492188-29.03125zm0 0" fill="#eac9a2"/><path d="m512 255.289062v20.253907c0 5.171875-4.191406 9.367187-9.367188 9.367187h-4.296874c-.1875 0-.363282 0-.546876.007813-17.28125.238281-32.328124 11.972656-36.738281 28.722656l-4.058593 15.402344c-4.453126 16.9375-19.769532 28.734375-37.277344 28.734375h-327.265625c-17.246094 0-32.398438-11.453125-37.097657-28.054688l-4.742187-16.75c-2.355469-8.304687-7.3125-15.316406-13.839844-20.253906-6.394531-4.84375-14.285156-7.683594-22.722656-7.800781-.175781-.007813-.363281-.007813-.539063-.007813h-4.128906c-5.175781 0-9.378906-4.195312-9.378906-9.367187v-20.253907c0-5.175781 4.203125-9.371093 9.378906-9.371093h493.253906c5.175782 0 9.367188 4.195312 9.367188 9.371093zm0 0" fill="#d9fcff"/><path d="m502.632812 245.917969h-76.488281c5.175781 0 9.367188 4.195312 9.367188 9.371093v20.253907c0 5.171875-4.191407 9.367187-9.367188 9.367187h-4.296875c-.1875 0-.359375 0-.546875.007813-17.277343.238281-32.328125 11.972656-36.738281 28.722656l-4.058594 15.402344c-4.453125 16.9375-19.769531 28.734375-37.273437 28.734375h76.484375c17.507812 0 32.824218-11.796875 37.277344-28.734375l4.058593-15.402344c4.410157-16.75 19.457031-28.484375 36.738281-28.722656.183594-.007813.359376-.007813.546876-.007813h4.296874c5.171876 0 9.367188-4.195312 9.367188-9.367187v-20.253907c0-5.175781-4.191406-9.371093-9.367188-9.371093zm0 0" fill="#c6f6f7"/><path d="m267.742188 142.347656c0 4.285156-3.46875 7.746094-7.746094 7.746094h-39.183594c2.992188-4.617188 4.882812-9.925781 5.441406-15.496094h33.742188c4.277344.003906 7.746094 3.472656 7.746094 7.75zm0 0" fill="#d2b393"/><path d="m512 255.289062v20.253907c0 5.171875-4.191406 9.367187-9.367188 9.367187h-4.296874c-.1875 0-.363282 0-.546876.007813h-483.742187c-.175781-.007813-.359375-.007813-.535156-.007813h-4.132813c-5.175781 0-9.378906-4.195312-9.378906-9.367187v-20.253907c0-5.175781 4.203125-9.371093 9.378906-9.371093h493.253906c5.175782 0 9.367188 4.195312 9.367188 9.371093zm0 0" fill="#b0dee2"/><path d="m502.632812 245.917969h-90.203124c5.171874 0 9.367187 4.195312 9.367187 9.371093v20.253907c0 5.171875-4.195313 9.367187-9.367187 9.367187h-4.296876c-.1875 0-.363281 0-.546874.007813h90.203124c.183594-.007813.359376-.007813.546876-.007813h4.296874c5.171876 0 9.367188-4.195312 9.367188-9.367187v-20.253907c0-5.175781-4.191406-9.371093-9.367188-9.371093zm0 0" fill="#85c9c9"/><path d="m114.769531 142.347656c0 4.285156-3.46875 7.746094-7.746093 7.746094h-39.1875c2.996093-4.617188 4.886718-9.925781 5.445312-15.496094h33.742188c4.277343.003906 7.746093 3.472656 7.746093 7.75zm0 0" fill="#d2b393"/><path d="m420.71875 142.347656c0 4.285156-3.472656 7.746094-7.746094 7.746094h-39.1875c2.996094-4.617188 4.886719-9.925781 5.441406-15.496094h33.746094c4.273438.003906 7.746094 3.472656 7.746094 7.75zm0 0" fill="#d2b393"/></svg>