<svg height="512pt" viewBox="0 -54 512 512" width="512pt" xmlns="http://www.w3.org/2000/svg"><path d="m350.855469 296.519531c-38.460938 8.707031-86.160157 15.855469-140.953125 16.144531-26.550782.144532-51.484375-1.332031-74.539063-3.863281-26.460937-2.882812-50.453125-7.136719-71.605469-11.855469-16.308593-3.636718-25.84375-20.597656-20.503906-36.417968 13.230469-39.207032 32.246094-84.964844 59.875-133.453125 26.988282-47.355469 55.898438-86.273438 82.339844-117.257813 11.234375-13.171875 31.601562-13.054687 42.800781.152344 12.578125 14.851562 25.632813 31.367188 38.742188 49.597656 13.074219 18.210938 26.210937 38.121094 38.976562 59.792969 29.996094 50.886719 50.671875 99.078125 65.109375 140.453125 5.539063 15.835938-3.871094 33-20.242187 36.707031zm0 0" fill="#ff9a2d"/><path d="m350.855469 296.519531c-38.460938 8.707031-86.160157 15.855469-140.953125 16.144531-8.972656.046876-17.761719-.085937-26.355469-.386718-24.539063-.855469-40.769531-25.808594-31.523437-48.558594 14.410156-35.464844 35.8125-83.929688 54.484374-115.421875 19.789063-33.359375 40.371094-62.890625 60.503907-88.730469 13.074219 18.210938 26.210937 38.121094 38.976562 59.792969 29.996094 50.886719 50.671875 99.078125 65.109375 140.453125 5.539063 15.835938-3.871094 33-20.242187 36.707031zm0 0" fill="#f48116"/><path d="m306.265625 62.382812c9.414063-10.65625 26.128906-10.273437 35.132813.726563 20.226562 24.722656 41.886718 54.925781 62.253906 90.894531 23.894531 42.199219 40.191406 82.046875 51.460937 116.214844 4.3125 13.082031-3.652343 27.035156-17.136719 29.84375-31.699218 6.605469-70.953124 11.792969-115.933593 11.261719-46.824219-.550781-87.375-7.15625-119.75-14.972657-13.328125-3.21875-20.917969-17.273437-16.3125-30.1875 11.421875-31.996093 27.667969-69.28125 51.039062-108.703124 22.820313-38.480469 47.109375-70.023438 69.246094-95.078126zm0 0" fill="#ff9a2d"/><g fill="#f46516"><path d="m249.34375 255.550781c0 4.277344-3.46875 7.746094-7.746094 7.746094s-7.746094-3.46875-7.746094-7.746094c0-4.277343 3.46875-7.746093 7.746094-7.746093s7.746094 3.46875 7.746094 7.746093zm0 0"/><path d="m249.585938 94.632812c0 4.277344-3.46875 7.746094-7.746094 7.746094s-7.746094-3.46875-7.746094-7.746094c0-4.277343 3.46875-7.746093 7.746094-7.746093s7.746094 3.46875 7.746094 7.746093zm0 0"/><path d="m187.171875 89.042969c0 4.277343-3.46875 7.746093-7.746094 7.746093-4.277343 0-7.746093-3.46875-7.746093-7.746093 0-4.277344 3.46875-7.746094 7.746093-7.746094 4.277344 0 7.746094 3.46875 7.746094 7.746094zm0 0"/><path d="m190.921875 151.933594c0 4.277344-3.46875 7.746094-7.746094 7.746094-4.277343 0-7.746093-3.46875-7.746093-7.746094s3.46875-7.746094 7.746093-7.746094c4.277344 0 7.746094 3.46875 7.746094 7.746094zm0 0"/><path d="m129.320312 177.335938c0 4.277343-3.46875 7.746093-7.746093 7.746093-4.277344 0-7.746094-3.46875-7.746094-7.746093 0-4.277344 3.46875-7.746094 7.746094-7.746094 4.277343 0 7.746093 3.46875 7.746093 7.746094zm0 0"/><path d="m106.941406 253.167969c0 4.277343-3.46875 7.746093-7.746094 7.746093-4.277343 0-7.746093-3.46875-7.746093-7.746093 0-4.277344 3.46875-7.746094 7.746093-7.746094 4.277344 0 7.746094 3.46875 7.746094 7.746094zm0 0"/><path d="m304.363281 202.855469c0 4.277343-3.464843 7.746093-7.746093 7.746093-4.277344 0-7.746094-3.46875-7.746094-7.746093 0-4.277344 3.46875-7.746094 7.746094-7.746094 4.28125 0 7.746093 3.46875 7.746093 7.746094zm0 0"/><path d="m329.710938 272.4375c0 4.277344-3.46875 7.746094-7.746094 7.746094s-7.746094-3.46875-7.746094-7.746094 3.46875-7.746094 7.746094-7.746094 7.746094 3.46875 7.746094 7.746094zm0 0"/><path d="m409.003906 265.324219c0 4.277343-3.46875 7.746093-7.746094 7.746093-4.28125 0-7.746093-3.46875-7.746093-7.746093 0-4.277344 3.464843-7.746094 7.746093-7.746094 4.277344 0 7.746094 3.46875 7.746094 7.746094zm0 0"/><path d="m379.394531 209.710938c0 4.28125-3.46875 7.746093-7.746093 7.746093-4.28125 0-7.746094-3.464843-7.746094-7.746093 0-4.277344 3.464844-7.742188 7.746094-7.742188 4.277343 0 7.746093 3.464844 7.746093 7.742188zm0 0"/><path d="m355.441406 140.558594c0 4.277344-3.464844 7.746094-7.746094 7.746094-4.277343 0-7.746093-3.46875-7.746093-7.746094 0-4.28125 3.46875-7.746094 7.746093-7.746094 4.28125 0 7.746094 3.464844 7.746094 7.746094zm0 0"/><path d="m297.546875 135.109375c0 4.277344-3.46875 7.746094-7.746094 7.746094-4.277343 0-7.746093-3.46875-7.746093-7.746094 0-4.28125 3.46875-7.746094 7.746093-7.746094 4.277344 0 7.746094 3.464844 7.746094 7.746094zm0 0"/></g><path d="m512 301.3125v20.253906c0 5.175782-4.191406 9.367188-9.378906 9.367188h-4.285156c-.1875 0-.363282 0-.546876.011718-17.277343.238282-32.328124 11.96875-36.738281 28.722657l-4.058593 15.398437c-4.460938 16.941406-19.769532 28.734375-37.273438 28.734375h-327.269531c-17.246094 0-32.398438-11.453125-37.097657-28.050781l-4.742187-16.753906c-2.355469-8.304688-7.3125-15.316406-13.839844-20.253906-6.40625-4.84375-14.296875-7.683594-22.722656-7.796876-.175781-.011718-.363281-.011718-.539063-.011718h-4.128906c-5.175781 0-9.378906-4.191406-9.378906-9.367188v-20.253906c0-5.175781 4.203125-9.367188 9.378906-9.367188h493.242188c5.1875 0 9.378906 4.195313 9.378906 9.367188zm0 0" fill="#d9fcff"/><path d="m502.621094 291.945312h-76.445313c5.183594 0 9.378907 4.191407 9.378907 9.367188v20.253906c0 5.175782-4.195313 9.367188-9.378907 9.367188h-4.285156c-.1875 0-.363281 0-.546875.011718-17.28125.238282-32.328125 11.96875-36.738281 28.722657l-4.058594 15.398437c-4.464844 16.941406-19.769531 28.734375-37.277344 28.734375h76.449219c17.503906 0 32.8125-11.792969 37.273438-28.734375l4.058593-15.398437c4.410157-16.753907 19.460938-28.484375 36.738281-28.722657.1875-.011718.363282-.011718.546876-.011718h4.285156c5.1875 0 9.378906-4.191406 9.378906-9.367188v-20.253906c0-5.171875-4.191406-9.367188-9.378906-9.367188zm0 0" fill="#c6f6f7"/><path d="m512 301.3125v20.253906c0 5.175782-4.191406 9.367188-9.378906 9.367188h-4.285156c-.1875 0-.363282 0-.546876.011718h-483.742187c-.175781-.011718-.359375-.011718-.535156-.011718h-4.132813c-5.175781 0-9.378906-4.191406-9.378906-9.367188v-20.253906c0-5.175781 4.203125-9.367188 9.378906-9.367188h493.242188c5.1875 0 9.378906 4.195313 9.378906 9.367188zm0 0" fill="#b0dee2"/><path d="m502.621094 291.945312h-77.378906c5.1875 0 9.378906 4.191407 9.378906 9.367188v20.253906c0 5.175782-4.191406 9.367188-9.378906 9.367188h-4.285157c-.1875 0-.363281 0-.546875.011718h77.378906c.1875-.011718.363282-.011718.546876-.011718h4.285156c5.1875 0 9.378906-4.191406 9.378906-9.367188v-20.253906c0-5.171875-4.191406-9.367188-9.378906-9.367188zm0 0" fill="#85c9c9"/></svg>