<svg height="512pt" viewBox="-35 0 512 512" width="512pt" xmlns="http://www.w3.org/2000/svg"><path d="m220.507812 49.753906c-.710937 0-1.285156-.578125-1.285156-1.285156v-.042969l1.257813-44.136719c.066406-2.347656-1.820313-4.289062-4.171875-4.289062h-23.984375c-2.355469 0-4.242188 1.949219-4.167969 4.300781l1.378906 44.125c.019532.730469-.566406 1.328125-1.296875 1.328125h-.433593c-14.925782 0-27.027344 12.101563-27.027344 27.03125v59.238282l86.761718-9.792969v-49.445313c0-14.933594-12.101562-27.03125-27.03125-27.03125zm-23.085937 71.675782c0 4.273437-3.457031 7.722656-7.722656 7.722656-4.261719 0-7.722657-3.449219-7.722657-7.722656v-18.730469c0-4.261719 3.460938-7.722657 7.722657-7.722657 4.265625 0 7.722656 3.460938 7.722656 7.722657zm28.925781 0c0 4.273437-3.460937 7.722656-7.722656 7.722656-4.273438 0-7.722656-3.449219-7.722656-7.722656v-18.730469c0-4.261719 3.449218-7.722657 7.722656-7.722657 4.261719 0 7.722656 3.460938 7.722656 7.722657zm0 0" fill="#b0dee2"/><path d="m317.089844 176.726562c-45.1875 0-81.8125 36.628907-81.8125 81.8125 0 45.183594 36.628906 81.8125 81.8125 81.8125s81.808594-36.628906 81.808594-81.8125c0-45.183593-36.628907-81.8125-81.808594-81.8125zm0 115.832032c-18.789063 0-34.023438-15.230469-34.023438-34.019532 0-18.789062 15.234375-34.019531 34.023438-34.019531 18.789062 0 34.019531 15.230469 34.019531 34.019531-.003906 18.789063-15.234375 34.019532-34.019531 34.019532zm0 0" fill="#f0dbbd"/><path d="m302.511719 227.796875c-4.421875-2.097656-9.363281-3.277344-14.578125-3.277344-18.789063 0-34.023438 15.230469-34.023438 34.019531 0 18.789063 15.234375 34.019532 34.023438 34.019532 5.214844 0 10.15625-1.175782 14.578125-3.277344-11.496094-5.457031-19.445313-17.167969-19.445313-30.742188 0-13.570312 7.949219-25.28125 19.445313-30.742187zm0 0" fill="#eac9a2"/><path d="m317.085938 176.726562c-4.976563 0-9.84375.46875-14.578126 1.320313 38.226563 6.878906 67.234376 40.289063 67.234376 80.492187 0 40.203126-29.007813 73.613282-67.234376 80.492188 4.734376.851562 9.601563 1.320312 14.578126 1.320312 45.183593 0 81.8125-36.628906 81.8125-81.8125 0-45.183593-36.628907-81.8125-81.8125-81.8125zm0 0" fill="#eac9a2"/><path d="m206.117188 115.21875c-45.183594 0-81.808594 36.628906-81.808594 81.808594 0 45.183594 36.628906 81.8125 81.808594 81.8125 45.1875 0 81.8125-36.628906 81.8125-81.8125 0-45.179688-36.625-81.808594-81.8125-81.808594zm0 115.832031c-18.789063 0-34.019532-15.234375-34.019532-34.023437 0-18.785156 15.230469-34.019532 34.019532-34.019532 18.789062 0 34.023437 15.230469 34.023437 34.019532 0 18.789062-15.234375 34.023437-34.023437 34.023437zm0 0" fill="#ff9a2d"/><path d="m206.117188 115.21875c-4.101563 0-8.128907.308594-12.070313.890625 39.460937 5.835937 69.742187 39.835937 69.742187 80.917969 0 41.082031-30.28125 75.085937-69.742187 80.921875 3.941406.582031 7.96875.890625 12.070313.890625 45.1875 0 81.8125-36.628906 81.8125-81.8125.003906-45.179688-36.625-81.808594-81.8125-81.808594zm0 0" fill="#ff8d29"/><path d="m194.046875 165.222656c-3.75-1.425781-7.816406-2.210937-12.070313-2.210937-18.789062 0-34.019531 15.230469-34.019531 34.015625 0 18.789062 15.230469 34.023437 34.019531 34.023437 4.253907 0 8.320313-.789062 12.070313-2.214843-12.828125-4.871094-21.949219-17.269532-21.949219-31.808594 0-14.535156 9.121094-26.933594 21.949219-31.804688zm0 0" fill="#ff8d29"/><path d="m99.820312 197.03125c-45.183593 0-81.8125 36.628906-81.8125 81.8125 0 45.179688 36.628907 81.808594 81.8125 81.808594 45.183594 0 81.8125-36.628906 81.8125-81.808594 0-45.183594-36.628906-81.8125-81.8125-81.8125zm0 115.832031c-18.789062 0-34.019531-15.230469-34.019531-34.019531s15.230469-34.023438 34.019531-34.023438c18.789063 0 34.019532 15.234376 34.019532 34.023438s-15.230469 34.019531-34.019532 34.019531zm0 0" fill="#876954"/><path d="m87.550781 247.113281c-3.808593-1.472656-7.941406-2.289062-12.269531-2.289062-18.789062 0-34.019531 15.230469-34.019531 34.019531s15.230469 34.019531 34.019531 34.019531c4.328125 0 8.460938-.816406 12.269531-2.289062-12.722656-4.925781-21.75-17.269531-21.75-31.730469s9.027344-26.808594 21.75-31.730469zm0 0" fill="#705245"/><path d="m99.820312 197.03125c-4.171874 0-8.265624.316406-12.269531.917969 39.363281 5.921875 69.542969 39.878906 69.542969 80.894531 0 41.011719-30.179688 74.972656-69.542969 80.894531 4.003907.601563 8.097657.917969 12.269531.917969 45.183594 0 81.8125-36.628906 81.8125-81.8125s-36.628906-81.8125-81.8125-81.8125zm0 0" fill="#705245"/><path d="m385.527344 281.449219h-136.878906c-16.597657 0-30.054688-13.453125-30.054688-30.050781 0-16.597657 13.457031-30.054688 30.054688-30.054688h136.878906c16.597656 0 30.050781 13.457031 30.050781 30.054688.003906 16.597656-13.453125 30.050781-30.050781 30.050781zm0 0" fill="#876954"/><path d="m385.527344 221.34375h-42.082032c16.597657 0 30.054688 13.457031 30.054688 30.054688 0 16.597656-13.457031 30.050781-30.054688 30.050781h42.082032c16.597656 0 30.054687-13.453125 30.054687-30.050781 0-16.601563-13.457031-30.054688-30.054687-30.054688zm0 0" fill="#705245"/><path d="m274.25 261.648438-129.34375 74.675781c-14.375 8.300781-32.753906 3.375-41.054688-11-8.296874-14.375-3.375-32.753907 11-41.054688l129.34375-74.675781c14.375-8.300781 32.757813-3.375 41.058594 11 8.296875 14.375 3.371094 32.753906-11.003906 41.054688zm0 0" fill="#f0dbbd"/><path d="m285.253906 220.59375c-8.300781-14.375-26.683594-19.300781-41.058594-11l-1.929687 1.113281c3.667969 2.472657 6.847656 5.796875 9.210937 9.886719 8.296876 14.375 3.371094 32.753906-11.003906 41.054688l-127.410156 73.5625c9.226562 6.21875 21.558594 7.050781 31.84375 1.113281l129.34375-74.675781c14.375-8.300782 19.300781-26.679688 11.003906-41.054688zm0 0" fill="#eac9a2"/><path d="m442.242188 287.984375v57.28125c0 65.992187-53.503907 119.484375-119.484376 119.484375l-98.945312 10-104.328125-10c-65.992187 0-119.484375-53.492188-119.484375-119.484375v-57.28125c0-3.617187 2.925781-6.53125 6.527344-6.53125h429.175781c3.613281 0 6.539063 2.914063 6.539063 6.53125zm0 0" fill="#d9fcff"/><path d="m329.226562 464.746094h-216.214843c-25.378907 0-45.949219 20.574218-45.949219 45.953125v1.300781h308.113281v-1.300781c0-25.378907-20.574219-45.953125-45.949219-45.953125zm0 0" fill="#85c9c9"/><path d="m442.242188 287.984375v38.117187h-442.242188v-38.117187c0-3.617187 2.925781-6.53125 6.527344-6.53125h429.175781c3.613281 0 6.539063 2.914063 6.539063 6.53125zm0 0" fill="#b0dee2"/><path d="m435.808594 281.453125h-53.121094c3.550781 0 6.433594 2.914063 6.433594 6.53125v57.28125c0 65.992187-52.714844 119.484375-117.722656 119.484375h53.121093c65.007813 0 117.722657-53.492188 117.722657-119.484375v-57.28125c0-3.617187-2.882813-6.53125-6.433594-6.53125zm0 0" fill="#b0dee2"/><path d="m330.894531 464.746094h-44.816406c25 0 45.269531 20.574218 45.269531 45.953125v1.300781h44.820313v-1.300781c0-25.378907-20.269531-45.953125-45.273438-45.953125zm0 0" fill="#6fbcba"/><path d="m435.808594 281.453125h-53.121094c3.550781 0 6.433594 2.914063 6.433594 6.53125v38.117187h53.121094v-38.117187c0-3.617187-2.882813-6.53125-6.433594-6.53125zm0 0" fill="#85c9c9"/></svg>