<svg height="511pt" viewBox="-38 0 511 511.99961" width="511pt" xmlns="http://www.w3.org/2000/svg"><path d="m213.847656 52.519531c-3.542968 0-6.714844-2.488281-7.449218-6.097656-.835938-4.117187 1.824218-8.132813 5.941406-8.96875l183.683594-37.300781c4.117187-.835938 8.132812 1.824218 8.96875 5.941406.835937 4.117188-1.824219 8.136719-5.941407 8.972656l-183.679687 37.300782c-.511719.101562-1.023438.152343-1.523438.152343zm0 0" fill="#3a4c68"/><path d="m213.855469 156.25c-4.203125 0-7.609375-3.40625-7.609375-7.609375v-103.730469c0-4.203125 3.40625-7.609375 7.609375-7.609375s7.609375 3.40625 7.609375 7.609375v103.730469c0 4.203125-3.40625 7.609375-7.609375 7.609375zm0 0" fill="#ff9a2d"/><path d="m242.863281 179.460938c-4.203125 0-7.609375-3.40625-7.609375-7.609376v-126.941406c0-4.203125 3.40625-7.609375 7.609375-7.609375 4.199219 0 7.609375 3.40625 7.609375 7.609375v126.941406c-.003906 4.203126-3.410156 7.609376-7.609375 7.609376zm0 0" fill="#ff9a2d"/><path d="m261.921875 225.632812c0 48.140626-39.023437 87.164063-87.164063 87.164063-48.140624 0-87.164062-39.023437-87.164062-87.164063 0-48.140624 39.023438-87.164062 87.164062-87.164062 48.140626 0 87.164063 39.023438 87.164063 87.164062zm0 0" fill="#ffe170"/><path d="m174.757812 320.40625c-52.257812 0-94.773437-42.511719-94.773437-94.773438 0-52.257812 42.511719-94.773437 94.773437-94.773437 52.257813 0 94.773438 42.515625 94.773438 94.773437 0 52.261719-42.515625 94.773438-94.773438 94.773438zm0-174.328125c-43.867187 0-79.558593 35.6875-79.558593 79.554687 0 43.867188 35.691406 79.558594 79.558593 79.558594 43.867188 0 79.554688-35.691406 79.554688-79.558594 0-43.867187-35.6875-79.554687-79.554688-79.554687zm0 0" fill="#ff9a2d"/><path d="m174.757812 287.023438c-33.851562 0-61.390624-27.539063-61.390624-61.390626 0-33.847656 27.539062-61.390624 61.390624-61.390624 33.847657 0 61.390626 27.542968 61.390626 61.390624 0 33.851563-27.539063 61.390626-61.390626 61.390626zm0-107.5625c-25.460937 0-46.175781 20.710937-46.175781 46.171874 0 25.460938 20.714844 46.171876 46.175781 46.171876 25.460938 0 46.171876-20.710938 46.171876-46.171876 0-25.460937-20.710938-46.171874-46.171876-46.171874zm0 0" fill="#ff9a2d"/><path d="m198.34375 282.285156c0 47.117188-38.195312 85.308594-85.3125 85.308594-47.113281 0-85.308594-38.191406-85.308594-85.308594 0-47.117187 38.195313-85.3125 85.308594-85.3125 47.117188 0 85.3125 38.195313 85.3125 85.3125zm0 0" fill="#ffe170"/><g fill="#ff9a2d"><path d="m113.03125 375.203125c-51.234375 0-92.917969-41.683594-92.917969-92.917969 0-51.238281 41.683594-92.917968 92.917969-92.917968 51.238281 0 92.921875 41.679687 92.921875 92.917968 0 51.234375-41.683594 92.917969-92.921875 92.917969zm0-170.621094c-42.84375 0-77.699219 34.855469-77.699219 77.703125 0 42.84375 34.855469 77.699219 77.699219 77.699219 42.847656 0 77.703125-34.855469 77.703125-77.699219 0-42.847656-34.855469-77.703125-77.703125-77.703125zm0 0"/><path d="m113.03125 342.53125c-33.21875 0-60.246094-27.027344-60.246094-60.246094 0-33.222656 27.027344-60.246094 60.246094-60.246094s60.246094 27.027344 60.246094 60.246094-27.023438 60.246094-60.246094 60.246094zm0-105.277344c-24.828125 0-45.027344 20.203125-45.027344 45.03125s20.199219 45.027344 45.027344 45.027344c24.832031 0 45.03125-20.199219 45.03125-45.027344 0-24.832031-20.199219-45.03125-45.03125-45.03125zm0 0"/><path d="m113.03125 309.898438c-15.222656 0-27.609375-12.390626-27.609375-27.613282 0-15.226562 12.386719-27.613281 27.609375-27.613281 15.226562 0 27.613281 12.386719 27.613281 27.613281 0 15.222656-12.386719 27.613282-27.613281 27.613282zm0-40.007813c-6.832031 0-12.394531 5.558594-12.394531 12.394531 0 6.835938 5.5625 12.394532 12.394531 12.394532 6.835938 0 12.394531-5.558594 12.394531-12.394532 0-6.835937-5.558593-12.394531-12.394531-12.394531zm0 0"/></g><path d="m318.816406 282.425781c0 47.039063-38.132812 85.167969-85.171875 85.167969-47.035156 0-85.167969-38.128906-85.167969-85.167969 0-47.039062 38.132813-85.167969 85.167969-85.167969 47.039063 0 85.171875 38.128907 85.171875 85.167969zm0 0" fill="#ffe170"/><path d="m233.644531 375.203125c-51.15625 0-92.777343-41.621094-92.777343-92.777344s41.621093-92.777343 92.777343-92.777343c51.160157 0 92.777344 41.621093 92.777344 92.777343s-41.617187 92.777344-92.777344 92.777344zm0-170.335937c-42.765625 0-77.558593 34.792968-77.558593 77.558593 0 42.769531 34.792968 77.5625 77.558593 77.5625 42.769531 0 77.5625-34.792969 77.5625-77.5625 0-42.765625-34.792969-77.558593-77.5625-77.558593zm0 0" fill="#ff9a2d"/><path d="m233.644531 342.585938c-33.171875 0-60.15625-26.988282-60.15625-60.160157s26.984375-60.160156 60.15625-60.160156 60.160157 26.988281 60.160157 60.160156-26.988282 60.160157-60.160157 60.160157zm0-105.101563c-24.78125 0-44.941406 20.160156-44.941406 44.941406s20.164063 44.941407 44.941406 44.941407c24.78125 0 44.941407-20.160157 44.941407-44.941407s-20.160157-44.941406-44.941407-44.941406zm0 0" fill="#ff9a2d"/><path d="m233.644531 310.003906c-15.207031 0-27.578125-12.371094-27.578125-27.578125s12.371094-27.578125 27.578125-27.578125 27.578125 12.371094 27.578125 27.578125c.003906 15.207031-12.371094 27.578125-27.578125 27.578125zm0-39.9375c-6.816406 0-12.359375 5.542969-12.359375 12.359375 0 6.816407 5.542969 12.359375 12.359375 12.359375 6.816407 0 12.363281-5.542968 12.363281-12.359375 0-6.816406-5.546874-12.359375-12.363281-12.359375zm0 0" fill="#ff9a2d"/><path d="m409.011719 283.902344c0 46.222656-37.46875 83.691406-83.691407 83.691406-46.222656 0-83.691406-37.46875-83.691406-83.691406s37.46875-83.691406 83.691406-83.691406c46.222657 0 83.691407 37.46875 83.691407 83.691406zm0 0" fill="#ffe170"/><path d="m325.320312 375.203125c-50.34375 0-91.300781-40.957031-91.300781-91.300781s40.957031-91.300782 91.300781-91.300782 91.300782 40.957032 91.300782 91.300782-40.957032 91.300781-91.300782 91.300781zm0-167.382813c-41.953124 0-76.082031 34.128907-76.082031 76.082032s34.128907 76.082031 76.082031 76.082031c41.953126 0 76.082032-34.128906 76.082032-76.082031s-34.128906-76.082032-76.082032-76.082032zm0 0" fill="#ff9a2d"/><path d="m325.320312 343.152344c-32.667968 0-59.246093-26.582032-59.246093-59.25 0-32.667969 26.578125-59.246094 59.246093-59.246094 32.667969 0 59.246094 26.578125 59.246094 59.246094 0 32.667968-26.578125 59.25-59.246094 59.25zm0-103.28125c-24.277343 0-44.03125 19.753906-44.03125 44.03125s19.753907 44.03125 44.03125 44.03125c24.277344 0 44.03125-19.753906 44.03125-44.03125s-19.753906-44.03125-44.03125-44.03125zm0 0" fill="#ff9a2d"/><path d="m325.320312 311.132812c-15.015624 0-27.234374-12.214843-27.234374-27.230468s12.21875-27.230469 27.234374-27.230469c15.015626 0 27.230469 12.214844 27.230469 27.230469s-12.214843 27.230468-27.230469 27.230468zm0-39.246093c-6.625 0-12.015624 5.390625-12.015624 12.015625s5.390624 12.015625 12.015624 12.015625 12.015626-5.390625 12.015626-12.015625c-.003907-6.625-5.390626-12.015625-12.015626-12.015625zm0 0" fill="#ff9a2d"/><path d="m436.210938 291.289062v56.4375c0 65.019532-52.710938 117.722657-117.71875 117.722657l-97.027344 10-103.242188-10c-65.019531 0-117.722656-52.703125-117.722656-117.722657v-56.4375c0-3.558593 2.878906-6.429687 6.433594-6.429687h422.847656c3.550781 0 6.429688 2.871094 6.429688 6.429687zm0 0" fill="#d9fcff"/><path d="m429.78125 284.859375h-53.121094c3.550782 0 6.429688 2.871094 6.429688 6.429687v56.4375c0 65.019532-52.710938 117.722657-117.71875 117.722657h53.121094c65.007812 0 117.71875-52.703125 117.71875-117.722657v-56.4375c0-3.558593-2.878907-6.429687-6.429688-6.429687zm0 0" fill="#b0dee2"/><path d="m324.863281 465.445312h-213.019531c-25.003906 0-45.273438 20.269532-45.273438 45.269532v1.285156h303.566407v-1.285156c0-25-20.269531-45.269532-45.273438-45.269532zm0 0" fill="#85c9c9"/><path d="m324.863281 465.445312h-44.816406c25.003906 0 45.273437 20.269532 45.273437 45.269532v1.285156h44.816407v-1.285156c0-25-20.269531-45.269532-45.273438-45.269532zm0 0" fill="#6fbcba"/><path d="m436.210938 291.289062v37.558594h-435.710938v-37.558594c0-3.558593 2.878906-6.429687 6.433594-6.429687h422.847656c3.550781 0 6.429688 2.871094 6.429688 6.429687zm0 0" fill="#b0dee2"/><path d="m429.78125 284.859375h-53.121094c3.550782 0 6.429688 2.871094 6.429688 6.429687v37.558594h53.121094v-37.558594c0-3.558593-2.878907-6.429687-6.429688-6.429687zm0 0" fill="#85c9c9"/><path d="m426.730469 52.519531h-212.875c-4.203125 0-7.609375-3.40625-7.609375-7.609375s3.40625-7.609375 7.609375-7.609375h212.875c4.203125 0 7.609375 3.40625 7.609375 7.609375s-3.40625 7.609375-7.609375 7.609375zm0 0" fill="#3a4c68"/></svg>