<svg height="512pt" viewBox="-79 0 512 512.00104" width="512pt" xmlns="http://www.w3.org/2000/svg"><path d="m282.417969 218.367188c0 32.355468-26.230469 58.582031-58.582031 58.582031-32.355469 0-58.582032-26.226563-58.582032-58.582031 0-32.355469 26.226563-58.582032 58.582032-58.582032 32.351562 0 58.582031 26.226563 58.582031 58.582032zm0 0" fill="#ffe170"/><path d="m223.832031 152.171875c-3.753906 0-7.429687.316406-11.011719.921875-.425781.074219-.863281.152344-1.308593.234375-.34375.0625-.699219.132813-1.066407.203125-30.097656 6.210938-52.796874 32.917969-52.796874 64.835938 0 26.679687 15.859374 49.726562 38.652343 60.199218.375.160156.75.324219 1.117188.484375 8.097656 3.542969 17.027343 5.511719 26.414062 5.511719 36.503907 0 66.195313-62.359375 66.195313-66.195312 0-36.503907-29.691406-66.195313-66.195313-66.195313zm0 117.167969c-5.460937 0-10.707031-.863282-15.636719-2.453125-20.480468-6.617188-35.328124-25.867188-35.328124-48.519531 0-26.953126 21.019531-49.085938 47.523437-50.851563 1.136719-.082031 2.285156-.121094 3.441406-.121094 28.109375 0 50.972657 22.863281 50.972657 50.972657 0 28.109374-22.863282 50.972656-50.972657 50.972656zm0 0" fill="#ff9a2d"/><path d="m225.476562 182.859375c-.550781-.03125-1.097656-.039063-1.644531-.039063-19.597656 0-35.546875 15.941407-35.546875 35.546876 0 17.210937 12.296875 31.601562 28.566406 34.859374 2.261719.457032 4.597657.6875 6.980469.6875 19.605469 0 35.546875-15.953124 35.546875-35.546874 0-19.058594-15.058594-34.644532-33.902344-35.507813zm-1.644531 55.835937c-.242187 0-.496093 0-.742187-.019531-10.855469-.386719-19.585938-9.347656-19.585938-20.308593 0-11.203126 9.125-20.324219 20.328125-20.324219 1.429688 0 2.820313.152343 4.160157.433593 9.226562 1.917969 16.167968 10.109376 16.167968 19.890626 0 11.203124-9.113281 20.328124-20.328125 20.328124zm0 0" fill="#ff9a2d"/><path d="m227.992188 198.476562c-.425782-5.335937-1.277344-10.554687-2.515626-15.617187-1.28125-5.289063-2.996093-10.421875-5.085937-15.34375-1.050781-2.492187-2.21875-4.933594-3.460937-7.3125-29.097657 3.417969-51.675782 28.148437-51.675782 58.164063 0 25.042968 15.71875 46.40625 37.828125 54.785156 1.789063-2.015625 3.503907-4.113282 5.113281-6.269532 3.238282-4.300781 6.140626-8.859374 8.65625-13.65625 2.445313-4.648437 4.535157-9.511718 6.238282-14.554687 3.402344-10.066406 5.238281-20.84375 5.238281-32.035156 0-2.75-.113281-5.46875-.335937-8.160157zm0 0" fill="#f9c758"/><path d="m208.195312 266.886719c-1.617187 2.160156-3.332031 4.261719-5.125 6.28125-1.808593 2.039062-3.695312 3.996093-5.652343 5.886719-.367188-.164063-.742188-.328126-1.117188-.488282-22.792969-10.472656-38.652343-33.519531-38.652343-60.199218 0-31.914063 22.699218-58.625 52.796874-64.835938.367188-.070312.722657-.140625 1.066407-.203125.445312-.082031.882812-.160156 1.308593-.230469 1.460938 2.300782 2.832032 4.667969 4.101563 7.089844 1.246094 2.386719 2.414063 4.832031 3.472656 7.328125-26.507812 1.765625-47.523437 23.898437-47.523437 50.851563-.003906 22.652343 14.84375 41.902343 35.324218 48.519531zm0 0" fill="#ff8d29"/><path d="m203.503906 218.367188c0 10.960937 8.730469 19.921874 19.585938 20.304687-1.703125 5.046875-3.792969 9.90625-6.238282 14.554687-16.269531-3.257812-28.570312-17.648437-28.570312-34.859374 0-19.605469 15.953125-35.546876 35.550781-35.546876.546875 0 1.09375.007813 1.644531.039063 1.234376 5.066406 2.089844 10.28125 2.515626 15.617187-1.339844-.28125-2.730469-.433593-4.160157-.433593-11.203125 0-20.328125 9.121093-20.328125 20.324219zm0 0" fill="#ff8d29"/><path d="m205.984375 206.640625c0 43.128906-34.960937 78.089844-78.089844 78.089844-43.125 0-78.085937-34.960938-78.085937-78.089844 0-43.125 34.960937-78.089844 78.085937-78.089844 43.128907 0 78.089844 34.964844 78.089844 78.089844zm0 0" fill="#ffe170"/><g fill="#ff9a2d"><path d="m127.894531 292.339844c-47.253906 0-85.699219-38.441406-85.699219-85.699219 0-47.253906 38.445313-85.699219 85.699219-85.699219 47.257813 0 85.699219 38.445313 85.699219 85.699219 0 47.257813-38.441406 85.699219-85.699219 85.699219zm0-156.175782c-38.859375 0-70.476562 31.613282-70.476562 70.476563s31.617187 70.476563 70.476562 70.476563c38.863281 0 70.480469-31.613282 70.480469-70.476563s-31.617188-70.476563-70.480469-70.476563zm0 0"/><path d="m127.894531 260.675781c-29.792969 0-54.035156-24.238281-54.035156-54.035156 0-29.792969 24.242187-54.035156 54.035156-54.035156 29.796875 0 54.035157 24.242187 54.035157 54.035156 0 29.796875-24.238282 54.035156-54.035157 54.035156zm0-92.847656c-21.402343 0-38.8125 17.410156-38.8125 38.8125s17.410157 38.8125 38.8125 38.8125c21.402344 0 38.8125-17.410156 38.8125-38.8125s-17.410156-38.8125-38.8125-38.8125zm0 0"/><path d="m127.894531 231.527344c-13.722656 0-24.886719-11.164063-24.886719-24.886719s11.164063-24.886719 24.886719-24.886719c13.722657 0 24.886719 11.164063 24.886719 24.886719s-11.164062 24.886719-24.886719 24.886719zm0-34.550782c-5.328125 0-9.664062 4.335938-9.664062 9.664063s4.335937 9.664063 9.664062 9.664063 9.664063-4.335938 9.664063-9.664063-4.332032-9.664063-9.664063-9.664063zm0 0"/></g><path d="m243.15625 512h-158.511719c-12.585937 0-22.984375-9.820312-23.707031-22.386719l-15.554688-271.4375h237.035157l-15.554688 271.4375c-.71875 12.566407-11.121093 22.386719-23.707031 22.386719zm0 0" fill="#e55045"/><path d="m229.136719 218.175781-15.554688 271.4375c-.71875 12.566407-11.121093 22.386719-23.707031 22.386719h53.28125c12.585938 0 22.988281-9.820312 23.707031-22.386719l15.554688-271.4375zm0 0" fill="#c43730"/><path d="m7.605469 298.734375c-1.292969 0-2.601563-.328125-3.800781-1.019531-3.640626-2.105469-4.886719-6.761719-2.78125-10.402344l37.769531-65.335938c2.105469-3.636718 6.761719-4.882812 10.402343-2.78125 3.636719 2.105469 4.882813 6.761719 2.777344 10.402344l-37.769531 65.335938c-1.410156 2.4375-3.96875 3.800781-6.597656 3.800781zm0 0" fill="#e55045"/><path d="m316.867188 297.859375c-2.71875 0-5.347657-1.460937-6.71875-4.023437l-34.445313-64.464844c-1.980469-3.703125-.582031-8.316406 3.128906-10.296875 3.707031-1.980469 8.316407-.582031 10.296875 3.125l34.445313 64.460937c1.980469 3.707032.582031 8.320313-3.125 10.300782-1.144531.609374-2.371094.898437-3.582031.898437zm0 0" fill="#c43730"/><path d="m162.238281 141.054688c-4.207031 0-7.613281-3.40625-7.613281-7.609376v-88.519531c0-4.203125 3.40625-7.613281 7.613281-7.613281 4.203125 0 7.609375 3.410156 7.609375 7.613281v88.515625c0 4.207032-3.40625 7.613282-7.609375 7.613282zm0 0" fill="#ff9a2d"/><path d="m191.25 167.828125c-4.203125 0-7.609375-3.40625-7.609375-7.609375v-115.292969c0-4.203125 3.40625-7.613281 7.609375-7.613281 4.207031 0 7.613281 3.410156 7.613281 7.613281v115.292969c0 4.203125-3.410156 7.609375-7.613281 7.609375zm0 0" fill="#ff9a2d"/><path d="m201.0625 357.46875c0 20.523438-16.636719 37.164062-37.160156 37.164062-20.527344 0-37.164063-16.640624-37.164063-37.164062s16.636719-37.164062 37.164063-37.164062c20.523437 0 37.160156 16.640624 37.160156 37.164062zm0 0" fill="#ffe170"/><path d="m162.230469 52.539062c-3.546875 0-6.71875-2.488281-7.453125-6.101562-.835938-4.117188 1.824218-8.132812 5.945312-8.972656l183.738282-37.308594c4.121093-.84375 8.136718 1.824219 8.972656 5.941406.835937 4.121094-1.824219 8.136719-5.945313 8.972656l-183.738281 37.3125c-.507812.105469-1.019531.15625-1.519531.15625zm0 0" fill="#3a4c68"/><path d="m345.976562 52.535156h-183.738281c-4.207031 0-7.613281-3.40625-7.613281-7.609375s3.40625-7.613281 7.613281-7.613281h183.738281c4.203126 0 7.609376 3.410156 7.609376 7.613281s-3.40625 7.609375-7.609376 7.609375zm0 0" fill="#3a4c68"/></svg>