<svg height="512pt" viewBox="-2 0 512 512" width="512pt" xmlns="http://www.w3.org/2000/svg"><path d="m469.3125 139.097656-61.613281-35.039062c-17.398438-9.898438-28.148438-28.371094-28.148438-48.390625 0-30.742188-24.921875-55.667969-55.667969-55.667969h-139.457031c-30.746093 0-55.667969 24.925781-55.667969 55.667969 0 20.019531-10.746093 38.492187-28.148437 48.390625l-61.613281 35.039062c-24.105469 13.710938-38.996094 39.308594-38.996094 67.042969v185.9375h508.308594v-185.9375c0-27.734375-14.890625-53.332031-38.996094-67.042969zm-141.875-63.164062c0 16.390625-13.285156 29.675781-29.671875 29.675781h-87.222656c-16.386719 0-29.671875-13.285156-29.671875-29.675781 0-16.386719 13.285156-29.671875 29.671875-29.671875h87.222656c16.386719 0 29.671875 13.285156 29.671875 29.671875zm0 0" fill="#f0dbbd"/><path d="m469.3125 139.097656-61.613281-35.039062c-17.398438-9.898438-28.148438-28.371094-28.148438-48.390625 0-30.742188-24.921875-55.667969-55.667969-55.667969h-68.261718c28.601562 0 52.152344 21.574219 55.300781 49.335938 9.785156 4.851562 16.515625 14.9375 16.515625 26.597656 0 5.320312-1.40625 10.304687-3.851562 14.621094 4.320312 5.375 9.660156 9.984374 15.851562 13.503906l61.613281 35.042968c24.105469 13.707032 38.996094 39.304688 38.996094 67.039063v185.9375h68.261719v-185.9375c0-27.734375-14.890625-53.332031-38.996094-67.042969zm0 0" fill="#eac9a2"/><path d="m470.070312 512h-431.832031c-21.117187 0-38.238281-17.121094-38.238281-38.238281v-277.722657h508.308594v277.722657c0 21.117187-17.121094 38.238281-38.238282 38.238281zm0 0" fill="#d2b393"/><path d="m440.046875 196.039062v277.722657c0 21.117187-17.121094 38.238281-38.238281 38.238281h68.261718c21.117188 0 38.238282-17.121094 38.238282-38.238281v-277.722657zm0 0" fill="#bf9984"/><path d="m289.976562 277.46875-35.824218-31.9375-35.820313 31.9375c-2.414062 2.152344-6.234375.4375-6.234375-2.792969v-78.636719h84.113282v78.636719c0 3.230469-3.820313 4.945313-6.234376 2.792969zm0 0" fill="#876954"/><path d="m310.789062 373.375c-2.546874 0-5.042968-1.257812-6.523437-3.558594-2.316406-3.601562-1.273437-8.398437 2.328125-10.710937l82.59375-53.097657c3.601562-2.316406 8.398438-1.277343 10.710938 2.328126 2.316406 3.597656 1.273437 8.394531-2.328126 10.707031l-82.59375 53.101562c-1.296874.832031-2.75 1.230469-4.1875 1.230469zm0 0" fill="#e55045"/><path d="m296.203125 373.375c-1.394531 0-2.804687-.375-4.078125-1.164062-3.636719-2.257813-4.757812-7.035157-2.503906-10.671876l43.089844-69.484374c2.257812-3.640626 7.035156-4.761719 10.671874-2.503907 3.636719 2.253907 4.757813 7.035157 2.503907 10.671875l-43.089844 69.484375c-1.46875 2.367188-4 3.667969-6.59375 3.667969zm0 0" fill="#e55045"/><path d="m273.042969 470.507812h-37.777344c-38.441406 0-69.609375-31.164062-69.609375-69.609374v-25.175782c0-5.578125 4.523438-10.101562 10.101562-10.101562h156.792969c5.578125 0 10.101563 4.523437 10.101563 10.101562v25.175782c0 38.445312-31.167969 69.609374-69.609375 69.609374zm0 0" fill="#fff"/></svg>