<svg height="512pt" viewBox="-64 0 511 512" width="512pt" xmlns="http://www.w3.org/2000/svg"><path d="m83.40625 35.140625 35.140625-35.140625h136.316406l35.140625 35.140625zm0 0" fill="#705245"/><path d="m118.546875 127.925781h-35.140625v-92.785156l35.140625-35.140625zm0 0" fill="#876954"/><path d="m290.003906 127.925781h-35.140625v-127.925781l35.140625 35.140625zm0 0" fill="#876954"/><path d="m384.328125 142.96875v343.378906c0 14.164063-11.488281 25.652344-25.664063 25.652344h-332.5c-14.175781 0-25.664062-11.488281-25.664062-25.652344v-343.378906c0-8.65625 7.007812-15.660156 15.660156-15.660156h352.503906c8.65625 0 15.664063 7.003906 15.664063 15.660156zm0 0" fill="#f0dbbd"/><path d="m368.667969 127.308594h-29.4375l-.003907 3.183594c-.164062 186.957031-151.769531 338.429687-338.726562 338.429687v17.421875c0 14.167969 11.488281 25.65625 25.664062 25.65625h332.496094c14.179688 0 25.667969-11.488281 25.667969-25.65625v-343.375c0-8.648438-7.011719-15.660156-15.660156-15.660156zm0 0" fill="#eac9a2"/><path d="m178.1875 330.894531c-.824219 11.835938-7.152344 23.882813-16.96875 31.886719-7.84375 6.390625-12.28125 16.023438-11.859375 26.117188l5.109375 123.101562h-38.070312l5.738281-122.246094c.484375-10.375-4.210938-20.222656-12.351563-26.683594-9.964844-7.921874-16.453125-19.9375-17.320312-31.710937-3.925782-53.722656 18.21875-88.9375 42.386718-89.058594 23.039063-.125 46.777344 39.480469 43.335938 88.59375zm0 0" fill="#876954"/><path d="m134.851562 242.300781c-3.199218.015625-6.359374.664063-9.433593 1.871094 17.800781 7.722656 25.460937 18.617187 28.546875 23.917969 12.726562 21.867187 10.132812 56.003906-5.664063 76.253906-5.785156 7.414062-15.035156 15.136719-17.429687 29.628906-1.007813 6.101563-.460938 11.363282.1875 14.925782 1.703125 41.035156 3.40625 82.070312 5.109375 123.101562h18.300781l-5.109375-123.101562c-.421875-10.09375 4.015625-19.726563 11.859375-26.117188 9.816406-8.003906 16.144531-20.050781 16.96875-31.886719 3.441406-49.113281-20.296875-88.71875-43.335938-88.59375zm0 0" fill="#705245"/><path d="m279.011719 236.03125c-4.230469.125-7.492188 3.816406-7.492188 8.046875v69.328125c0 5.542969-4.492187 10.039062-10.035156 10.039062-5.546875 0-10.039063-4.496093-10.039063-10.039062v-69.328125c0-4.230469-3.261718-7.921875-7.492187-8.046875-4.375-.132812-7.964844 3.375-7.964844 7.722656v69.652344c0 5.542969-4.492187 10.039062-10.035156 10.039062-5.546875 0-10.039063-4.496093-10.039063-10.039062v-69.328125c0-4.230469-3.261718-7.921875-7.492187-8.046875-4.375-.132812-7.960937 3.375-7.960937 7.722656v93.570313c0 8.210937 6.652343 14.867187 14.863281 14.867187h1.09375c8.488281 0 15.246093 7.085938 14.847656 15.554688l-6.777344 144.253906h38.757813l-5.996094-144.324219c-.347656-8.449219 6.398438-15.484375 14.859375-15.484375 4.109375 0 7.820313-1.667968 10.507813-4.359375 2.6875-2.6875 4.359374-6.398437 4.359374-10.507812v-93.566407c0-4.351562-3.589843-7.859374-7.964843-7.726562zm0 0" fill="#876954"/><path d="m279.011719 236.03125c-3.183594.09375-5.816407 2.207031-6.925781 5.050781.308593.835938.484374 1.730469.484374 2.671875.84375 4.164063 1.933594 10.136719 2.828126 17.367188 3.925781 31.683594 5.921874 47.800781-2.058594 61.515625-9.636719 16.5625-26.867188 17.667969-30.160156 36.085937-.664063 3.703125-.539063 6.867188-.332032 8.953125 1.996094 48.109375 3.996094 96.214844 5.996094 144.324219h14.402344l-5.996094-144.324219c-.351562-8.449219 6.398438-15.484375 14.855469-15.484375 4.113281 0 7.820312-1.667968 10.511719-4.359375 2.6875-2.6875 4.355468-6.398437 4.355468-10.507812v-93.566407c.003906-4.351562-3.585937-7.859374-7.960937-7.726562zm0 0" fill="#705245"/></svg>