<svg height="512pt" viewBox="-64 0 512 512.001" width="512pt" xmlns="http://www.w3.org/2000/svg"><path d="m281.027344 35.132812h-189.636719c-3.132813 0-4.699219-3.78125-2.484375-5.996093l28.117188-28.105469c.300781-.300781.640624-.539062 1.019531-.710938.453125-.207031.949219-.320312 1.464843-.320312h133.402344c.503906 0 1 .113281 1.453125.320312.378907.171876.730469.410157 1.027344.710938l28.136719 28.125c2.195312 2.214844.621094 5.976562-2.5 5.976562zm0 0" fill="#705245"/><path d="m118.042969.320312v128.992188h-35.132813v-92.726562c0-.925782.371094-1.824219 1.03125-2.484376l4.964844-4.964843 28.117188-28.105469c.300781-.300781.640624-.535156 1.019531-.710938zm0 0" fill="#876954"/><path d="m289.503906 36.585938v92.726562h-35.140625v-128.992188c.378907.171876.730469.410157 1.027344.710938l28.140625 28.125 4.941406 4.945312c.664063.660157 1.03125 1.558594 1.03125 2.484376zm0 0" fill="#876954"/><path d="m358.167969 512h-332.503907c-14.171874 0-25.664062-11.488281-25.664062-25.664062v-343.371094c0-8.652344 7.011719-15.664063 15.664062-15.664063h352.503907c8.652343 0 15.664062 7.011719 15.664062 15.664063v343.375c0 14.171875-11.488281 25.660156-25.664062 25.660156zm0 0" fill="#f0dbbd"/><path d="m368.167969 127.300781h-23.550781v9.023438c0 190.328125-154.289063 344.617187-344.617188 344.617187v5.398438c0 14.171875 11.492188 25.660156 25.664062 25.660156h332.503907c14.175781 0 25.664062-11.488281 25.664062-25.660156v-343.375c0-8.652344-7.011719-15.664063-15.664062-15.664063zm0 0" fill="#eac9a2"/><path d="m286.546875 302.066406v8.628906c0 3.378907-2.738281 6.117188-6.117187 6.117188h-177.023438c-3.378906 0-6.117188-2.742188-6.117188-6.117188v-8.628906c0-40.589844 32.902344-73.496094 73.492188-73.496094h42.265625c40.59375 0 73.5 32.902344 73.5 73.496094zm0 0" fill="#ff9a2d"/><path d="m272.253906 337.214844h-160.675781c-6.046875 0-10.949219 4.902344-10.949219 10.949218v30.929688c0 6.046875 4.902344 10.949219 10.949219 10.949219h160.675781c6.050782 0 10.953125-4.902344 10.953125-10.949219v-30.929688c0-6.046874-4.90625-10.949218-10.953125-10.949218zm0 0" fill="#705245"/><path d="m272.253906 337.214844h-44.878906c6.046875 0 10.949219 4.902344 10.949219 10.949218v30.929688c0 6.046875-4.902344 10.949219-10.949219 10.949219h44.878906c6.046875 0 10.953125-4.902344 10.953125-10.949219v-30.929688c0-6.046874-4.90625-10.949218-10.953125-10.949218zm0 0" fill="#60453c"/><path d="m279.050781 343.28125c-2.558593.824219-4.6875 2.574219-6.222656 4.78125-4.101563 5.898438-10.941406 9.457031-18.199219 9.199219-4.453125-.160157-8.65625-1.738281-12.089844-4.371094-4.160156-3.191406-9.992187-3.054687-14.148437.140625-3.835937 2.953125-8.515625 4.734375-13.46875 4.957031-5.914063.269531-11.617187-1.714843-16.113281-5.34375-4.144532-3.351562-9.925782-3.539062-14.308594-.503906-4.050781 2.808594-8.925781 4.390625-14.015625 4.390625-5.308594 0-10.375-1.714844-14.519531-4.746094-4.078125-2.976562-9.667969-3.046875-13.726563-.046875-4.210937 3.113281-9.40625 4.75-14.738281 4.429688-7.269531-.433594-12.339844-4.351563-15.363281-7.648438-2.210938-2.410156-4.921875-4.328125-7.980469-5.484375-1.453125-.546875-3.050781-1.441406-4.511719-2.902344-2.328125-2.332031-3.769531-5.546874-3.769531-9.101562v-1.75c0-7.109375 5.761719-12.871094 12.871094-12.871094h166.34375c7.109375 0 12.871094 5.761719 12.871094 12.871094v1.75c-.003907 5.726562-3.742188 10.578125-8.910157 12.25zm0 0" fill="#74c577"/><path d="m213.046875 228.570312h-42.265625c-.4375 0-.871094.023438-1.308594.03125 39.992188.703126 72.195313 33.308594 72.195313 73.464844v8.628906c0 3.378907-2.738281 6.117188-6.117188 6.117188h44.878907c3.378906 0 6.117187-2.742188 6.117187-6.117188v-8.628906c0-40.59375-32.90625-73.496094-73.5-73.496094zm0 0" fill="#ff8d29"/><path d="m284.089844 389.679688c1.355468 0 2.457031 1.101562 2.457031 2.457031v18.148437c0 9.78125-7.933594 17.71875-17.71875 17.71875h-153.824219c-9.785156 0-17.71875-7.9375-17.71875-17.71875v-18.148437c0-1.355469 1.101563-2.457031 2.457032-2.457031zm0 0" fill="#ff9a2d"/><path d="m275.089844 316.410156h-44.878906c7.109374 0 12.871093 5.765625 12.871093 12.871094v1.75c0 5.726562-3.742187 10.578125-8.910156 12.25-2.558594.828125-4.6875 2.574219-6.222656 4.78125-4.101563 5.898438-10.941407 9.457031-18.199219 9.199219-.9375-.03125-1.859375-.144531-2.769531-.296875 2.539062.773437 5.214843 1.148437 7.945312 1.027344 4.953125-.222657 9.628907-2.007813 13.464844-4.960938 4.15625-3.195312 9.992187-3.332031 14.152344-.140625 3.433593 2.632813 7.636719 4.214844 12.085937 4.371094 7.261719.257812 14.097656-3.300781 18.199219-9.199219 1.535156-2.207031 3.664063-3.953125 6.222656-4.78125 5.171875-1.671875 8.910157-6.523438 8.910157-12.25v-1.75c-.003907-7.105469-5.765626-12.871094-12.871094-12.871094zm0 0" fill="#5db57f"/><path d="m284.089844 389.679688h-44.878906c1.355468 0 2.457031 1.101562 2.457031 2.457031v18.148437c0 9.78125-7.933594 17.71875-17.71875 17.71875h44.878906c9.785156 0 17.71875-7.9375 17.71875-17.71875v-18.148437c0-1.355469-1.101563-2.457031-2.457031-2.457031zm0 0" fill="#ff8d29"/></svg>