<svg height="512pt" viewBox="0 0 512 512" width="512pt" xmlns="http://www.w3.org/2000/svg"><path d="m489.15625 148.804688v.003906c-3.773438-8.046875-8.730469-20.511719-11.359375-36.351563-4.535156-27.363281 2.285156-38.289062-6.332031-47.96875-8.519532-9.578125-19.792969-4.058593-46.753906-11.941406-14.734376-4.304687-25.996094-10.230469-33.046876-14.429687-7.058593-4.382813-14.339843-8.433594-21.832031-12.121094-33.816406-16.652344-71.878906-18.699219-112.121093-18.699219h-3.421876c-40.246093 0-78.304687 2.050781-112.121093 18.699219-84.222657 41.441406-142.167969 128.101562-142.167969 228.292968v3.421876c0 100.191406 57.945312 186.855468 142.167969 228.292968 33.816406 16.652344 71.875 14.222656 112.121093 14.222656h3.421876c40.242187 0 78.304687 2.429688 112.121093-14.222656 84.222657-41.441406 142.167969-128.101562 142.167969-228.292968v-3.421876c0-37.628906-8.175781-73.351562-22.84375-105.484374zm0 0" fill="#3a4c68"/><path d="m393.917969 472.46875v-433.039062c-.789063-.453126-1.550781-.894532-2.253907-1.3125-7.054687-4.382813-14.335937-8.433594-21.832031-12.121094-33.816406-16.652344-71.875-15.433594-112.121093-15.433594h-3.421876c-40.246093 0-78.304687-1.214844-112.121093 15.433594-8.296875 4.082031-16.332031 8.609375-24.085938 13.535156v432.9375c7.753907 4.929688 15.789063 9.453125 24.085938 13.535156 33.816406 16.652344 71.875 19.34375 112.121093 19.34375h3.421876c40.242187 0 78.304687-2.691406 112.121093-19.34375 8.296875-4.082031 16.332031-8.609375 24.085938-13.535156zm0 0" fill="#283449"/><path d="m259.761719 483.535156h-7.523438c-123.585937 0-223.773437-100.1875-223.773437-223.773437v-7.523438c0-123.585937 100.1875-223.773437 223.773437-223.773437h7.523438c123.585937 0 223.773437 100.1875 223.773437 223.773437v7.523438c0 123.585937-100.1875 223.773437-223.773437 223.773437zm0 0" fill="#e55045"/><path d="m252.238281 28.464844c-50.328125 0-96.773437 16.617187-134.15625 44.660156v365.746094c37.382813 28.046875 83.828125 44.664062 134.15625 44.664062h7.523438c50.328125 0 96.773437-16.617187 134.15625-44.664062v-365.742188c-37.382813-28.046875-83.828125-44.664062-134.15625-44.664062zm0 0" fill="#c43730"/><path d="m369.832031 25.996094v460.007812c-33.816406 16.652344-71.875 25.996094-112.121093 25.996094h-3.421876c-40.246093 0-78.304687-9.34375-112.121093-25.996094v-460.007812c9.910156-4.882813 20.195312-9.140625 30.796875-12.703125 25.53125-8.625 52.878906-13.292969 81.324218-13.292969h3.421876c28.449218 0 55.792968 4.667969 81.324218 13.289062 10.601563 3.566407 20.886719 7.824219 30.796875 12.707032zm0 0" fill="#d9fcff"/><path d="m339.035156 13.289062v267.261719c0 6.996094-5.675781 12.675781-12.671875 12.675781h-140.726562c-6.996094 0-12.671875-5.675781-12.671875-12.675781v-267.261719c25.53125-8.621093 52.878906-13.289062 81.324218-13.289062h3.421876c28.445312 0 55.792968 4.667969 81.324218 13.289062zm0 0" fill="#85c9c9"/><g fill="#fff"><path d="m218.507812 263.726562h-12.328124c-4.269532 0-7.730469-3.457031-7.730469-7.726562s3.460937-7.726562 7.730469-7.726562h12.328124c4.265626 0 7.726563 3.457031 7.726563 7.726562s-3.460937 7.726562-7.726563 7.726562zm0 0"/><path d="m262.164062 263.726562h-12.328124c-4.265626 0-7.726563-3.457031-7.726563-7.726562s3.460937-7.726562 7.726563-7.726562h12.328124c4.269532 0 7.726563 3.457031 7.726563 7.726562s-3.460937 7.726562-7.726563 7.726562zm0 0"/><path d="m305.820312 263.726562h-12.328124c-4.265626 0-7.726563-3.457031-7.726563-7.726562s3.460937-7.726562 7.726563-7.726562h12.328124c4.269532 0 7.730469 3.457031 7.730469 7.726562s-3.460937 7.726562-7.730469 7.726562zm0 0"/><path d="m305.820312 63.199219h-99.640624c-4.269532 0-7.730469-3.457031-7.730469-7.726563 0-4.269531 3.460937-7.730468 7.730469-7.730468h99.640624c4.269532 0 7.730469 3.460937 7.730469 7.730468 0 4.269532-3.460937 7.726563-7.730469 7.726563zm0 0"/><path d="m250.476562 94.574219h-44.296874c-4.269532 0-7.730469-3.460938-7.730469-7.726563 0-4.269531 3.460937-7.730468 7.730469-7.730468h44.296874c4.265626 0 7.726563 3.460937 7.726563 7.730468 0 4.265625-3.460937 7.726563-7.726563 7.726563zm0 0"/></g><path d="m142.167969 327.453125c0 13.867187-11.242188 25.105469-25.109375 25.105469-13.867188 0-25.109375-11.238282-25.109375-25.105469s11.242187-25.109375 25.109375-25.109375c13.867187 0 25.109375 11.242188 25.109375 25.109375zm0 0" fill="#74c577"/><path d="m118.078125 302.371094v50.164062c13.394531-.539062 24.085937-11.558594 24.085937-25.082031s-10.691406-24.546875-24.085937-25.082031zm0 0" fill="#6aba6a"/><path d="m421.695312 152.015625c0 13.863281-11.238281 25.105469-25.105468 25.105469-13.867188 0-25.109375-11.242188-25.109375-25.105469 0-13.867187 11.242187-25.109375 25.109375-25.109375 13.867187 0 25.105468 11.242188 25.105468 25.109375zm0 0" fill="#ffe170"/><path d="m393.917969 127.050781c-12.609375 1.332031-22.4375 12-22.4375 24.964844 0 12.960937 9.828125 23.628906 22.4375 24.964844zm0 0" fill="#f9c758"/><path d="m389.007812 383.253906-16.035156-16.035156c-4.1875-4.1875-4.1875-10.976562 0-15.164062l16.035156-16.035157c4.1875-4.183593 10.976563-4.183593 15.160157 0l16.035156 16.035157c4.1875 4.1875 4.1875 10.976562 0 15.164062l-16.035156 16.035156c-4.183594 4.183594-10.972657 4.183594-15.160157 0zm0 0" fill="#f0dbbd"/><path d="m393.917969 333.214844c-1.796875.460937-3.503907 1.382812-4.910157 2.792968l-16.035156 16.035157c-4.1875 4.1875-4.1875 10.972656 0 15.160156l16.035156 16.035156c1.40625 1.40625 3.113282 2.332031 4.910157 2.792969zm0 0" fill="#eac9a2"/><path d="m85.917969 212.085938-16.035157-16.035157c-4.1875-4.1875-4.1875-10.972656 0-15.160156l16.035157-16.035156c4.1875-4.1875 10.976562-4.1875 15.160156 0l16.035156 16.035156c4.1875 4.1875 4.1875 10.976563 0 15.160156l-16.035156 16.035157c-4.183594 4.1875-10.972656 4.1875-15.160156 0zm0 0" fill="#f0dbbd"/><path d="m76.597656 269.414062c0-4.351562-3.460937-7.882812-7.730468-7.882812-4.265626 0-7.726563 3.53125-7.726563 7.882812 0 4.355469 3.460937 7.886719 7.726563 7.886719 4.269531 0 7.730468-3.53125 7.730468-7.886719zm0 0" fill="#ffe170"/><path d="m117.058594 126.90625c0-4.355469-3.457032-7.886719-7.726563-7.886719s-7.726562 3.53125-7.726562 7.886719 3.457031 7.886719 7.726562 7.886719 7.726563-3.53125 7.726563-7.886719zm0 0" fill="#c43730"/><path d="m443.027344 316.019531c0-4.355469-3.460938-7.886719-7.726563-7.886719-4.269531 0-7.730469 3.53125-7.730469 7.886719s3.460938 7.882813 7.730469 7.882813c4.265625 0 7.726563-3.527344 7.726563-7.882813zm0 0" fill="#c43730"/><path d="m117.058594 389.984375c0-4.355469-3.457032-7.886719-7.726563-7.886719s-7.726562 3.53125-7.726562 7.886719 3.457031 7.886719 7.726562 7.886719 7.726563-3.53125 7.726563-7.886719zm0 0" fill="#f0dbbd"/><path d="m409.375 249.871094c0-4.355469-3.460938-7.886719-7.730469-7.886719-4.265625 0-7.726562 3.53125-7.726562 7.886719 0 4.355468 3.460937 7.886718 7.726562 7.886718 4.269531 0 7.730469-3.53125 7.730469-7.886718zm0 0" fill="#f0dbbd"/><path d="m444.871094 203.488281c0-4.355469-3.457032-7.886719-7.726563-7.886719s-7.726562 3.53125-7.726562 7.886719 3.457031 7.886719 7.726562 7.886719 7.726563-3.53125 7.726563-7.886719zm0 0" fill="#ffe170"/><path d="m456.972656 84.640625c0-4.355469-3.460937-7.886719-7.730468-7.886719-4.265626 0-7.726563 3.53125-7.726563 7.886719s3.460937 7.882813 7.726563 7.882813c4.269531 0 7.730468-3.527344 7.730468-7.882813zm0 0" fill="#283449"/></svg>