<svg height="512pt" viewBox="0 -59 512.001 512" width="512pt" xmlns="http://www.w3.org/2000/svg"><path d="m470.039062 393.960938h-60.769531l-11.5-4.363282h-283.519531l-11.519531 4.363282h-60.769531c-23.175782 0-41.960938-18.789063-41.960938-41.960938v-310.039062c0-23.171876 18.785156-41.960938 41.960938-41.960938h60.769531l8.894531 5.664062h286.800781l10.84375-5.664062h60.769531c23.175782 0 41.960938 18.789062 41.960938 41.960938v310.039062c0 23.171875-18.785156 41.960938-41.960938 41.960938zm0 0" fill="#3a4c68"/><path d="m434.964844 393.960938h-25.695313l-11.5-4.363282h-284.832031l-10.207031 4.363282h-25.695313v-393.960938h25.695313l8.894531 5.664062 292.707031 3.28125 4.9375-8.945312h25.695313zm0 0" fill="#283449"/><path d="m470.417969 366.828125h-428.835938c-7.179687 0-12.996093-5.816406-12.996093-12.996094v-313.703125c0-7.175781 5.816406-12.996094 12.996093-12.996094h428.835938c7.179687 0 12.996093 5.820313 12.996093 12.996094v313.703125c0 7.179688-5.816406 12.996094-12.996093 12.996094zm0 0" fill="#f0dbbd"/><path d="m77.035156 27.132812h357.929688v339.695313h-357.929688zm0 0" fill="#eac9a2"/><path d="m435.226562 182.382812h-358.453124c-7.402344 0-13.402344-6-13.402344-13.402343v-94.78125c0-7.402344 6-13.402344 13.402344-13.402344h358.453124c7.402344 0 13.402344 6 13.402344 13.402344v94.78125c0 7.402343-6 13.402343-13.402344 13.402343zm0 0" fill="#e55045"/><path d="m435.226562 334.96875h-358.453124c-7.402344 0-13.402344-6-13.402344-13.402344v-94.78125c0-7.402344 6-13.402344 13.402344-13.402344h358.453124c7.402344 0 13.402344 6 13.402344 13.402344v94.78125c0 7.402344-6 13.402344-13.402344 13.402344zm0 0" fill="#74c577"/><path d="m77.035156 60.796875h357.929688v121.585937h-357.929688zm0 0" fill="#c64b3f"/><path d="m77.035156 213.382812h357.929688v121.585938h-357.929688zm0 0" fill="#6aba6a"/><path d="m102.730469 0h306.539062v393.960938h-306.539062zm0 0" fill="#d9fcff"/><path d="m295.960938 234.359375h-141.296876c-7.027343 0-12.726562-5.699219-12.726562-12.726563v-221.632812h166.75v221.632812c0 7.027344-5.699219 12.726563-12.726562 12.726563zm0 0" fill="#85c9c9"/><g fill="#fff"><path d="m266.359375 43.613281h-88.957031c-4.285156 0-7.757813-3.472656-7.757813-7.757812 0-4.285157 3.472657-7.761719 7.757813-7.761719h88.957031c4.285156 0 7.761719 3.476562 7.761719 7.761719 0 4.285156-3.472656 7.757812-7.761719 7.757812zm0 0"/><path d="m221.882812 75.117188h-44.480468c-4.285156 0-7.757813-3.476563-7.757813-7.761719 0-4.285157 3.472657-7.757813 7.757813-7.757813h44.480468c4.285157 0 7.757813 3.472656 7.757813 7.757813 0 4.285156-3.472656 7.761719-7.757813 7.761719zm0 0"/><path d="m221.882812 204.742188h-44.480468c-4.285156 0-7.757813-3.476563-7.757813-7.761719 0-4.285157 3.472657-7.757813 7.757813-7.757813h44.480468c4.285157 0 7.757813 3.472656 7.757813 7.757813 0 4.285156-3.472656 7.761719-7.757813 7.761719zm0 0"/></g></svg>