<svg height="512pt" viewBox="0 -7 512 512" width="512pt" xmlns="http://www.w3.org/2000/svg"><path d="m418.007812 105.863281c0 7.019531-.679687 13.878907-2 20.515625-9.539062 48.640625-52.410156 85.339844-103.867187 85.339844-51.441406 0-94.324219-36.699219-103.863281-85.339844-1.320313-6.636718-2-13.496094-2-20.515625 0-5.324219.390625-10.570312 1.152344-15.691406 7.585937-51.03125 51.578124-90.171875 104.710937-90.171875 53.144531 0 97.128906 39.140625 104.710937 90.171875.761719 5.121094 1.15625 10.367187 1.15625 15.691406zm0 0" fill="#b0dee2"/><path d="m388.097656 497.433594h-151.574218c-10.957032 0-20.625-6.980469-21.472657-22.222656l-7.410156-345.578126h209.003906l-7.6875 346.425782c0 14.816406-9.886719 21.375-20.859375 21.375zm0 0" fill="#d9fcff"/><path d="m360.492188 129.632812-7.6875 346.425782c0 14.816406-9.890626 21.375-20.859376 21.375h56.152344c10.972656 0 20.859375-6.558594 20.859375-21.375l7.6875-346.425782zm0 0" fill="#c6f6f7"/><path d="m235.835938 497.570312h-198.09375c-14.316407 0-26.113282-11.238281-26.800782-25.539062l-10.941406-227.078125 5.039062-2.929687h261.324219l6.78125 2.929687-10.503906 227.027344c-.660156 14.320312-12.464844 25.589843-26.804687 25.589843zm0 0" fill="#85c9c9"/><path d="m202.386719 244.953125-10.503907 227.027344c-.660156 14.320312-12.464843 25.589843-26.804687 25.589843h70.761719c14.335937 0 26.140625-11.269531 26.804687-25.589843l10.5-227.027344zm0 0" fill="#6fbcba"/><path d="m463.9375 497.570312h-349.464844c-16.640625 0-30.875-11.953124-33.753906-28.339843l-14.90625-84.890625 8.070312-6.914063h430.0625l8.054688 6.914063-14.273438 84.660156c-2.777343 16.496094-17.0625 28.570312-33.789062 28.570312zm0 0" fill="#d9fcff"/><path d="m444.460938 384.339844-14.269532 84.660156c-2.78125 16.496094-17.066406 28.570312-33.792968 28.570312h67.539062c16.726562 0 31.007812-12.074218 33.789062-28.570312l14.273438-84.660156zm0 0" fill="#c6f6f7"/><path d="m497.007812 349.148438h-416.199218c-8.28125 0-14.996094 6.710937-14.996094 14.992187v20.199219h446.1875v-20.199219c0-8.28125-6.714844-14.992187-14.992188-14.992187zm0 0" fill="#b0dee2"/><path d="m497.007812 349.148438h-67.976562c8.28125 0 14.996094 6.710937 14.996094 14.992187v20.199219h67.972656v-20.199219c0-8.28125-6.714844-14.992187-14.992188-14.992187zm0 0" fill="#85c9c9"/><path d="m258.148438 209.730469h-243.15625c-8.277344 0-14.992188 6.710937-14.992188 14.992187v20.230469h273.144531v-20.230469c0-8.28125-6.714843-14.992187-14.996093-14.992187zm0 0" fill="#b0dee2"/><path d="m258.148438 209.730469h-70.757813c8.28125 0 14.992187 6.710937 14.992187 14.992187v20.230469h70.761719v-20.230469c0-8.28125-6.714843-14.992187-14.996093-14.992187zm0 0" fill="#85c9c9"/><path d="m312.144531 0c-5.03125 0-9.972656.359375-14.816406 1.039062.460937.0625.925781.132813 1.386719.203126 54.640625 8.394531 48.554687 88.933593-6.726563 88.933593h-84.554687c-.761719 5.117188-1.15625 10.363281-1.15625 15.691407 0 7.015624.679687 13.875 2 20.511718h178.09375c29.636718 0 31.632812.394532 31.632812-20.515625 0-58.464843-47.394531-105.863281-105.859375-105.863281zm0 0" fill="#85c9c9"/><path d="m426.601562 142.0625h-228.917968c-2.84375 0-5.148438-2.300781-5.148438-5.144531v-25.910157c0-2.84375 2.304688-5.144531 5.148438-5.144531h228.917968c2.84375 0 5.148438 2.300781 5.148438 5.144531v25.910157c0 2.839843-2.304688 5.144531-5.148438 5.144531zm0 0" fill="#b0dee2"/></svg>