<svg height="512pt" viewBox="0 -4 512 511" width="512pt" xmlns="http://www.w3.org/2000/svg"><path d="m175.757812 343.140625c-15.253906-13.464844-18.199218-17.96875-19.847656-20.800781-17.230468-29.585938-7.867187-73.5625 9.003906-79.042969 10.109376-3.28125 19.390626 8.40625 26.902344 3.234375 6.8125-4.6875.78125-15.414062 8.320313-27.195312 5.609375-8.777344 16.9375-15.304688 28.792969-14.511719.671874.046875 16.121093 1.316406 23.394531 13.234375 8.875 14.542968-4.347657 28.675781 3.660156 39.628906 8.1875 11.199219 25.695313 1.46875 34.082031 11.183594 13.945313 16.160156-21.5 58.128906-8.011718 73.703125 8.757812 10.113281 28.105468-2.503907 39.6875 8.945312 11.347656 11.210938 9.199218 39.546875-4.855469 51.195313-18.066407 14.96875-51.757813-.96875-76.257813-12.554688-24.992187-11.816406-41.953125-26.792968-64.871094-47.019531zm0 0" fill="#5db57f"/><path d="m275.085938 256.859375c-.722657 0-1.3125-.605469-1.289063-1.332031l6.835937-232.449219c.359376-12.363281-9.5625-22.578125-21.925781-22.578125-12.148437 0-21.929687 9.863281-21.929687 21.925781 0 .226563 0 .464844.011718.691407l7.230469 232.410156c.019531.726562-.570312 1.332031-1.300781 1.332031h-.433594c-14.976562 0-27.113281 12.136719-27.113281 27.113281v89.972656l87.039063-17.105468v-72.867188c0-14.976562-12.148438-27.113281-27.125-27.113281zm-23.15625 85.800781c0 4.273438-3.46875 7.746094-7.746094 7.746094-4.273438 0-7.746094-3.472656-7.746094-7.746094v-35.882812c0-4.273438 3.472656-7.746094 7.746094-7.746094 4.277344 0 7.746094 3.472656 7.746094 7.746094zm29.011718 0c0 4.273438-3.46875 7.746094-7.746094 7.746094-4.273437 0-7.746093-3.472656-7.746093-7.746094v-35.882812c0-4.273438 3.472656-7.746094 7.746093-7.746094 4.277344 0 7.746094 3.472656 7.746094 7.746094zm0 0" fill="#d9fcff"/><path d="m275.085938 256.859375c-.722657 0-1.3125-.605469-1.289063-1.332031l6.835937-232.449219c.359376-12.363281-9.5625-22.578125-21.925781-22.578125-10.109375 0-18.558593 6.839844-21.117187 16.085938 2.085937-.65625 4.304687-1.015626 6.609375-1.015626 12.363281 0 22.289062 10.214844 21.929687 22.578126l-6.839844 232.449218c-.019531.722656.570313 1.332032 1.292969 1.332032 14.976563 0 27.121094 12.136718 27.121094 27.113281v60.648437l14.507813-2.851562v-72.867188c0-14.976562-12.148438-27.113281-27.125-27.113281zm0 0" fill="#b0dee2"/><path d="m94.335938 399.390625c-19.761719-4.859375-24.457032-7.484375-27.230469-9.226563-28.984375-18.222656-41.082031-61.527343-28.675781-74.203124 7.433593-7.597657 21.078124-1.546876 25.332031-9.609376 3.859375-7.3125-6.453125-14.019531-5.242188-27.953124.90625-10.378907 7.910157-21.414063 18.785157-26.210938.613281-.269531 14.890624-6.308594 26.859374.875 14.613282 8.769531 9.449219 27.425781 21.621094 33.414062 12.449219 6.125 23.449219-10.613281 35.382813-5.894531 19.847656 7.847657 7.910156 61.46875 27.078125 69.011719 12.453125 4.898438 23.742187-15.25 39.3125-10.480469 15.253906 4.671875 26.492187 30.769531 19.4375 47.609375-9.0625 21.640625-46.304688 23.148438-73.382813 24.242188-27.617187 1.117187-49.59375-4.28125-79.277343-11.574219zm0 0" fill="#74c577"/><path d="m180.167969 412.488281c-.816407 0-1.644531-.128906-2.460938-.402343-15.636719-5.242188-38.398437-16.191407-58.070312-38.597657-18.949219-21.585937-26.910157-44.625-30.25-60.15625-.902344-4.183593 1.761719-8.300781 5.941406-9.203125 4.183594-.898437 8.304687 1.761719 9.203125 5.945313 2.957031 13.734375 9.996094 34.109375 26.75 53.191406 17.390625 19.8125 37.523438 29.496094 51.351562 34.128906 4.054688 1.359375 6.238282 5.75 4.882813 9.808594-1.089844 3.238281-4.109375 5.285156-7.347656 5.285156zm0 0" fill="#5db57f"/><path d="m292.121094 390.753906s-28.324219-67.894531 41.453125-127.847656c5.542969-5.09375 14.308593-4.121094 18.601562 2.066406 4.410157 6.355469 9.402344 13.929688 16.75 17.304688 9.339844 4.296875 27.605469-4.578125 38.121094 2.464844 8.902344 5.960937 7.785156 25.9375 16.765625 34.324218 8.210938 7.671875 27.414062 4.324219 33.546875 12.03125 7.191406 9.042969-.5625 27.195313 4.195313 35.394532 6.425781 11.074218 26.507812 17.203124 29.484374 24.671874zm0 0" fill="#74c577"/><path d="m417.402344 384.4375c0 34.507812-27.96875 62.476562-62.464844 62.476562-3.171875 0-6.28125-.238281-9.316406-.691406-30.089844-4.492187-53.160156-30.449218-53.160156-61.785156 0-31.324219 23.074218-57.28125 53.160156-61.773438 3.035156-.453124 6.144531-.691406 9.316406-.691406 34.496094 0 62.464844 27.96875 62.464844 62.464844zm0 0" fill="#e55045"/><path d="m373.835938 384.4375c0 24.675781-10.925782 46.789062-28.214844 61.785156-30.089844-4.492187-53.160156-30.449218-53.160156-61.785156 0-31.324219 23.074218-57.28125 53.160156-61.773438 17.289062 14.984376 28.214844 37.109376 28.214844 61.773438zm0 0" fill="#c64b3f"/><path d="m387.304688 384.441406c0 18.066406-14.644532 32.710938-32.710938 32.710938s-32.710938-14.644532-32.710938-32.710938 14.644532-32.710937 32.710938-32.710937 32.710938 14.644531 32.710938 32.710937zm0 0" fill="#ff9a2d"/><path d="m321.886719 384.441406c0 18.066406 14.644531 32.710938 32.710937 32.710938 4.878906 0 9.503906-1.078125 13.660156-2.992188 3.597657-9.210937 5.582032-19.234375 5.582032-29.722656 0-10.484375-1.980469-20.503906-5.578125-29.714844-4.160157-1.914062-8.785157-2.992187-13.664063-2.992187-18.066406 0-32.710937 14.644531-32.710937 32.710937zm0 0" fill="#ff8d29"/><path d="m354.59375 384.441406c0 34.503906-27.96875 62.472656-62.472656 62.472656s-62.472656-27.96875-62.472656-62.472656 27.96875-62.472656 62.472656-62.472656 62.472656 27.96875 62.472656 62.472656zm0 0" fill="#e55045"/><path d="m325.167969 384.441406c0 18.066406-14.644531 32.710938-32.710938 32.710938-18.066406 0-32.710937-14.644532-32.710937-32.710938s14.644531-32.710937 32.710937-32.710937c18.066407 0 32.710938 14.644531 32.710938 32.710937zm0 0" fill="#ff9a2d"/><path d="m512 400.539062v20.246094c0 5.183594-4.191406 9.375-9.378906 9.375h-4.285156c-17.515626 0-32.824219 11.796875-37.285157 28.734375l-4.058593 15.402344c-4.460938 16.925781-19.769532 28.730469-37.273438 28.730469h-327.269531c-17.25 0-32.398438-11.464844-37.097657-28.0625l-4.742187-16.75c-2.355469-8.304688-7.3125-15.308594-13.839844-20.253906-6.539062-4.9375-14.636719-7.800782-23.261719-7.800782h-4.128906c-5.1875 0-9.378906-4.191406-9.378906-9.378906v-20.242188c0-5.175781 4.191406-9.378906 9.378906-9.378906h493.242188c5.1875 0 9.378906 4.203125 9.378906 9.378906zm0 0" fill="#f0dbbd"/><path d="m502.621094 391.160156h-69.082032c5.183594 0 9.375 4.207032 9.375 9.378906v20.246094c0 5.183594-4.191406 9.375-9.375 9.375h-4.285156c-17.519531 0-32.824218 11.796875-37.285156 28.734375l-4.0625 15.402344c-4.460938 16.925781-19.765625 28.730469-37.273438 28.730469h69.085938c17.503906 0 32.8125-11.804688 37.273438-28.730469l4.058593-15.402344c4.460938-16.9375 19.769531-28.734375 37.285157-28.734375h4.285156c5.1875 0 9.378906-4.191406 9.378906-9.375v-20.246094c0-5.175781-4.191406-9.378906-9.378906-9.378906zm0 0" fill="#eac9a2"/><path d="m512 400.539062v20.246094c0 5.183594-4.191406 9.375-9.378906 9.375h-493.242188c-5.1875 0-9.378906-4.191406-9.378906-9.375v-20.246094c0-5.171874 4.191406-9.378906 9.378906-9.378906h493.242188c5.1875 0 9.378906 4.203125 9.378906 9.378906zm0 0" fill="#d2b393"/><path d="m502.621094 391.160156h-69.082032c5.183594 0 9.375 4.207032 9.375 9.378906v20.246094c0 5.183594-4.191406 9.375-9.375 9.375h69.082032c5.183594 0 9.378906-4.191406 9.378906-9.375v-20.246094c0-5.175781-4.191406-9.378906-9.378906-9.378906zm0 0" fill="#bf9984"/></svg>