<svg height="512pt" viewBox="0 -4 512 511" width="512pt" xmlns="http://www.w3.org/2000/svg"><path d="m412.316406 348.203125-72.492187 26.351563 130.492187 43.625-17.429687-50.617188c-5.734375-16.65625-24.011719-25.378906-40.570313-19.359375zm0 0" fill="#e55045"/><path d="m163.21875 445.363281-120.433594-47.683593c-12.617187-4.996094-18.792968-19.273438-13.800781-31.890626 4.996094-12.617187 19.273437-18.792968 31.890625-13.800781l120.433594 47.683594c12.617187 4.996094 18.796875 19.273437 13.800781 31.890625s-19.273437 18.792969-31.890625 13.800781zm0 0" fill="#74c577"/><path d="m212.613281 433.316406-120.433593-47.679687c-12.617188-4.996094-18.792969-19.273438-13.796876-31.890625 4.992188-12.617188 19.269532-18.792969 31.886719-13.800782l120.433594 47.683594c12.617187 4.996094 18.796875 19.273438 13.800781 31.890625-4.996094 12.617188-19.273437 18.792969-31.890625 13.796875zm0 0" fill="#e55045"/><path d="m512 400.539062v20.246094c0 5.183594-4.191406 9.375-9.378906 9.375h-4.285156c-17.515626 0-32.824219 11.796875-37.285157 28.734375l-4.058593 15.402344c-4.460938 16.925781-19.769532 28.730469-37.273438 28.730469h-327.269531c-17.25 0-32.398438-11.464844-37.101563-28.0625l-4.738281-16.75c-2.355469-8.304688-7.3125-15.308594-13.839844-20.253906-6.539062-4.9375-14.636719-7.800782-23.261719-7.800782h-4.128906c-5.1875 0-9.378906-4.191406-9.378906-9.378906v-20.242188c0-5.175781 4.191406-9.378906 9.378906-9.378906h493.242188c5.1875 0 9.378906 4.203125 9.378906 9.378906zm0 0" fill="#f0dbbd"/><path d="m286.53125 283.972656v43.800782h-21.265625v-17.804688c0-4.273438-3.46875-7.746094-7.746094-7.746094-4.277343 0-7.746093 3.472656-7.746093 7.746094v17.804688h-13.519532v-17.804688c0-4.273438-3.472656-7.746094-7.746094-7.746094-4.277343 0-7.746093 3.472656-7.746093 7.746094v17.804688h-21.265625v-43.800782c0-14.976562 12.144531-27.113281 27.109375-27.113281h.445312c.722657 0 1.3125-.605469 1.292969-1.332031l-7.230469-232.410156c-.011719-.226563-.011719-.464844-.011719-.691407 0-12.0625 9.78125-21.925781 21.925782-21.925781 12.363281 0 22.289062 10.214844 21.929687 22.578125l-6.839843 232.449219c-.019532.726562.570312 1.332031 1.292968 1.332031 14.976563 0 27.121094 12.136719 27.121094 27.113281zm0 0" fill="#d9fcff"/><path d="m259.40625 256.859375c-.722656 0-1.308594-.605469-1.289062-1.332031l6.835937-232.449219c.363281-12.363281-9.5625-22.578125-21.925781-22.578125-8.730469 0-16.214844 5.105469-19.746094 12.449219 1.679688-.414063 3.429688-.65625 5.238281-.65625 12.363281 0 22.289063 10.214843 21.929688 22.578125l-6.609375 224.652344c-.019532.722656.804687 6.863281 9.269531 10.398437 15.628906 6.519531 18.914063 10.867187 18.914063 25.84375v32.003906h14.507812v-43.796875c0-14.976562-12.144531-27.113281-27.125-27.113281zm0 0" fill="#b0dee2"/><path d="m346.925781 342.777344-65.96875 52.480468h146.546875l-35.964844-46.980468c-10.71875-13.980469-30.816406-16.457032-44.613281-5.5zm0 0" fill="#ffe170"/><path d="m277.730469 321.96875h-67.789063c-38.214844 0-69.195312 35.109375-69.195312 73.328125h206.179687c0-38.21875-30.980469-73.328125-69.195312-73.328125zm0 0" fill="#74c577"/><path d="m502.621094 391.160156h-56.503906c5.1875 0 9.378906 4.207032 9.378906 9.378906v20.246094c0 5.183594-4.191406 9.375-9.378906 9.375h-4.285157c-17.515625 0-32.824219 11.796875-37.285156 28.734375l-4.058594 15.402344c-4.460937 16.925781-19.769531 28.730469-37.273437 28.730469h56.503906c17.503906 0 32.8125-11.804688 37.273438-28.730469l4.058593-15.402344c4.460938-16.9375 19.769531-28.734375 37.285157-28.734375h4.285156c5.1875 0 9.378906-4.191406 9.378906-9.375v-20.246094c0-5.175781-4.191406-9.378906-9.378906-9.378906zm0 0" fill="#eac9a2"/><path d="m512 400.539062v20.246094c0 5.183594-4.191406 9.375-9.378906 9.375h-493.242188c-5.1875 0-9.378906-4.191406-9.378906-9.375v-20.246094c0-5.171874 4.191406-9.378906 9.378906-9.378906h493.242188c5.1875 0 9.378906 4.203125 9.378906 9.378906zm0 0" fill="#d2b393"/><path d="m502.621094 391.160156h-56.503906c5.1875 0 9.378906 4.207032 9.378906 9.378906v20.246094c0 5.183594-4.191406 9.375-9.378906 9.375h56.503906c5.1875 0 9.378906-4.191406 9.378906-9.375v-20.246094c0-5.175781-4.191406-9.378906-9.378906-9.378906zm0 0" fill="#bf9984"/><path d="m275.960938 356.566406h-64.246094c-18.359375 0-33.238282 14.878906-33.238282 33.234375 0 .753907.609376 1.363281 1.363282 1.363281h127.992187c.753907 0 1.363281-.609374 1.363281-1.363281 0-18.355469-14.878906-33.234375-33.234374-33.234375zm0 0" fill="#ffe170"/></svg>