<svg height="512pt" viewBox="-108 0 512 512.00043" width="512pt" xmlns="http://www.w3.org/2000/svg"><path d="m67.496094 229.542969c-3.257813 0-6.277344-2.109375-7.285156-5.386719l-59.875-195.234375c-1.234376-4.027344 1.027343-8.289063 5.054687-9.523437 4.019531-1.238282 8.285156 1.027343 9.519531 5.054687l59.878906 195.230469c1.234376 4.027344-1.027343 8.289062-5.054687 9.523437-.742187.226563-1.496094.335938-2.238281.335938zm0 0" fill="#3a4c68"/><path d="m103.644531 227.378906c-.1875 0-.375-.003906-.566406-.019531-4.195313-.308594-7.351563-3.960937-7.042969-8.160156l15.558594-212.136719c.308594-4.199219 3.953125-7.339844 8.160156-7.0429688 4.199219.3085938 7.351563 3.9609378 7.042969 8.1601568l-15.558594 212.136718c-.292969 4.007813-3.636719 7.0625-7.59375 7.0625zm0 0" fill="#3a4c68"/><path d="m214.929688 512h-155.644532c-12.359375 0-22.570312-9.640625-23.277344-21.980469l-15.273437-266.53125 8.707031-6.867187h211.035156l13.003907 6.867187-15.273438 266.53125c-.707031 12.339844-10.917969 21.980469-23.277343 21.980469zm0 0" fill="#d9fcff"/><path d="m228.007812 147.171875h-181.800781c-5.21875 0-9.730469 3.640625-10.835937 8.738281l-14.636719 67.578125h232.746094l-14.640625-67.578125c-1.105469-5.097656-5.617188-8.738281-10.832032-8.738281zm0 0" fill="#b0dee2"/><path d="m93.796875 185.332031c0-4.296875-3.414063-7.78125-7.621094-7.78125-4.210937 0-7.625 3.484375-7.625 7.78125 0 4.292969 3.414063 7.777344 7.625 7.777344 4.207031 0 7.621094-3.484375 7.621094-7.777344zm0 0" fill="#3a4c68"/><path d="m195.660156 185.332031c0-4.296875-3.410156-7.78125-7.621094-7.78125-4.210937 0-7.621093 3.484375-7.621093 7.78125 0 4.292969 3.410156 7.777344 7.621093 7.777344 4.210938 0 7.621094-3.484375 7.621094-7.777344zm0 0" fill="#3a4c68"/><path d="m289.253906 419.03125c-1.90625 0-3.816406-.710938-5.296875-2.140625l-159.886719-154.601563c-3.027343-2.925781-3.105468-7.753906-.179687-10.78125 2.925781-3.023437 7.746094-3.105468 10.777344-.179687l159.886719 154.601563c3.027343 2.925781 3.105468 7.75.183593 10.777343-1.496093 1.546875-3.488281 2.324219-5.484375 2.324219zm0 0" fill="#ffd062"/><g fill="#e55045"><path d="m88 446.945312h98.210938v37.640626h-98.210938zm0 0"/><path d="m103.882812 392.648438h66.449219v25.878906h-66.449219zm0 0"/><path d="m153.652344 364.234375h-33.09375l14.675781-43.808594c.601563-1.796875 3.144531-1.796875 3.746094 0zm0 0"/></g><path d="m200.390625 446.945312h-126.570313c-.953124 0-1.546874-1.03125-1.074218-1.859374l15.253906-26.558594h98.210938l15.253906 26.558594c.476562.828124-.121094 1.859374-1.074219 1.859374zm0 0" fill="#822c45"/><path d="m183.992188 392.648438h-93.773438c-.703125 0-1.144531-1.027344-.792969-1.855469l11.300781-26.558594h72.761719l11.300781 26.558594c.351563.824219-.089843 1.855469-.796874 1.855469zm0 0" fill="#822c45"/><path d="m205.027344 492.207031h-135.839844c-4.207031 0-7.621094-3.410156-7.621094-7.621093 0-4.210938 3.414063-7.621094 7.621094-7.621094h135.839844c4.207031 0 7.621094 3.410156 7.621094 7.621094 0 4.207031-3.414063 7.621093-7.621094 7.621093zm0 0" fill="#822c45"/></svg>