<svg height="512pt" viewBox="-15 0 512 512" width="512pt" xmlns="http://www.w3.org/2000/svg"><path d="m444.914062 131.867188-58.410156-33.21875c-16.496094-9.382813-26.683594-26.898438-26.683594-45.875 0-29.144532-23.628906-52.773438-52.773437-52.773438h-132.207031c-29.148438 0-52.777344 23.628906-52.777344 52.773438 0 18.976562-10.1875 36.492187-26.683594 45.875l-58.410156 33.21875c-22.855469 13-36.96875 37.265624-36.96875 63.554687v112.519531h481.882812v-112.519531c0-26.289063-14.113281-50.554687-36.96875-63.554687zm-134.5-59.878907c0 15.535157-12.59375 28.128907-28.128906 28.128907h-82.6875c-15.535156 0-28.128906-12.59375-28.128906-28.128907 0-15.535156 12.59375-28.128906 28.128906-28.128906h82.6875c15.535156 0 28.128906 12.59375 28.128906 28.128906zm0 0" fill="#f0dbbd"/><path d="m318.875 5c0 18.976562 10.1875 36.492188 26.683594 45.875l14.664062 8.339844c-.261718-2.121094-.402344-4.273438-.402344-6.441406 0-25.128907-17.566406-46.140626-41.089843-51.460938.085937 1.21875.144531 2.445312.144531 3.6875zm0 0" fill="#eac9a2"/><path d="m444.914062 131.867188-6.644531-3.777344c1.746094 6.285156 2.667969 12.855468 2.667969 19.558594 0 62.144531-50.375 112.519531-112.519531 112.519531h-328.417969v49.984375h481.882812v-114.730469c0-26.289063-14.113281-50.558594-36.96875-63.554687zm0 0" fill="#eac9a2"/><path d="m131.117188 288.695312c-.378907 0-.761719-.027343-1.148438-.085937-4.226562-.628906-7.140625-4.5625-6.511719-8.789063l19.652344-131.84375c.566406-3.789062 3.820313-6.59375 7.652344-6.59375h41.5c4.269531 0 7.734375 3.460938 7.734375 7.734376 0 4.273437-3.464844 7.734374-7.734375 7.734374h-34.835938l-18.671875 125.25c-.570312 3.839844-3.871094 6.59375-7.636718 6.59375zm0 0" fill="#fff"/><path d="m209.828125 280.964844c0 43.472656-35.246094 78.71875-78.722656 78.71875-43.472657 0-78.71875-35.246094-78.71875-78.71875 0-43.476563 35.246093-78.722656 78.71875-78.722656 43.476562 0 78.722656 35.246093 78.722656 78.722656zm0 0" fill="#d9fcff"/><path d="m216.40625 307.882812h-170.597656c-2.011719 0-3.644532-1.628906-3.644532-3.644531v-19.632812c0-2.011719 1.632813-3.640625 3.644532-3.640625h170.597656c2.011719 0 3.644531 1.628906 3.644531 3.640625v19.632812c0 2.015625-1.632812 3.644531-3.644531 3.644531zm0 0" fill="#d9fcff"/><path d="m150.011719 204.542969c.167969.144531.332031.289062.496093.4375 23.234376 20.542969 8.457032 58.976562-22.554687 58.976562h-73.703125c-1.207031 5.476563-1.863281 11.164063-1.863281 17.007813h157.441406c0-36.957032-25.472656-67.953125-59.816406-76.421875zm0 0" fill="#b0dee2"/><path d="m211.785156 307.882812-7.21875 81.457032-2.769531 31.25-6.183594 69.726562c-1.09375 12.273438-11.375 21.683594-23.699219 21.683594h-81.613281c-12.324219 0-22.605469-9.410156-23.691406-21.679688l-6.183594-69.730468-2.773437-31.25-7.222656-81.457032zm0 0" fill="#5cd1a0"/><path d="m50.429688 307.882812 7.222656 81.457032.242187 2.710937h21.683594c43.949219 0 78.4375 37.683594 74.558594 81.460938l-2.769531 31.246093-.644532 7.242188h21.191406c12.324219 0 22.605469-9.410156 23.699219-21.683594l6.183594-69.726562 2.769531-31.25 7.21875-81.457032zm0 0" fill="#49be9c"/><path d="m430.691406 280.964844c0 43.472656-35.246094 78.71875-78.71875 78.71875-43.476562 0-78.722656-35.246094-78.722656-78.71875 0-43.476563 35.246094-78.722656 78.722656-78.722656 43.472656 0 78.71875 35.246093 78.71875 78.722656zm0 0" fill="#d9fcff"/><path d="m437.269531 307.882812h-170.597656c-2.011719 0-3.644531-1.628906-3.644531-3.644531v-19.632812c0-2.011719 1.632812-3.640625 3.644531-3.640625h170.597656c2.011719 0 3.644531 1.628906 3.644531 3.640625v19.632812c0 2.015625-1.632812 3.644531-3.644531 3.644531zm0 0" fill="#d9fcff"/><path d="m432.648438 307.882812-7.21875 81.457032-2.773438 31.25-6.179688 69.726562c-1.09375 12.273438-11.375 21.683594-23.699218 21.683594h-81.613282c-12.324218 0-22.605468-9.410156-23.691406-21.679688l-6.183594-69.730468-2.773437-31.25-7.222656-81.457032zm0 0" fill="#5cd1a0"/><path d="m370.875 204.542969c.167969.144531.332031.289062.496094.4375 23.234375 20.542969 8.457031 58.976562-22.554688 58.976562h-73.703125c-1.207031 5.476563-1.863281 11.164063-1.863281 17.007813h157.441406c0-36.957032-25.472656-67.953125-59.816406-76.421875zm0 0" fill="#b0dee2"/><path d="m271.292969 307.882812 7.222656 81.457032.242187 2.710937h21.683594c43.949219 0 78.4375 37.683594 74.558594 81.460938l-2.769531 31.246093-.644531 7.242188h21.191406c12.324218 0 22.605468-9.410156 23.699218-21.683594l6.179688-69.726562 2.773438-31.25 7.21875-81.457032zm0 0" fill="#49be9c"/><path d="m462.113281 366.523438h-442.339843c-10.921876 0-19.773438-8.851563-19.773438-19.773438v-39.804688h481.882812v39.804688c0 10.921875-8.851562 19.773438-19.769531 19.773438zm0 0" fill="#d2b393"/></svg>