<svg height="512pt" viewBox="-2 0 512 512" width="512pt" xmlns="http://www.w3.org/2000/svg"><path d="m469.3125 139.097656-61.613281-35.039062c-17.398438-9.898438-28.148438-28.375-28.148438-48.390625 0-30.742188-24.921875-55.667969-55.667969-55.667969h-139.457031c-30.746093 0-55.667969 24.925781-55.667969 55.667969 0 20.015625-10.75 38.492187-28.148437 48.390625l-61.613281 35.039062c-24.105469 13.710938-38.996094 39.308594-38.996094 67.042969v185.9375h508.308594v-185.9375c0-27.734375-14.890625-53.332031-38.996094-67.042969zm-141.875-63.164062c0 16.390625-13.285156 29.675781-29.671875 29.675781h-87.222656c-16.390625 0-29.675781-13.285156-29.675781-29.675781 0-16.386719 13.285156-29.671875 29.675781-29.671875h87.222656c16.386719 0 29.671875 13.285156 29.671875 29.671875zm0 0" fill="#f0dbbd"/><path d="m469.3125 139.097656-61.613281-35.039062c-17.398438-9.898438-28.148438-28.375-28.148438-48.390625 0-30.742188-24.921875-55.667969-55.667969-55.667969h-10.378906c15.4375 9.894531 25.675782 27.191406 25.675782 46.886719v37.847656c0 20.019531 10.75 38.496094 28.148437 48.390625l61.613281 35.039062c24.105469 13.710938 38.996094 39.308594 38.996094 67.042969v156.871094h40.371094v-185.9375c0-27.734375-14.890625-53.332031-38.996094-67.042969zm0 0" fill="#eac9a2"/><path d="m160.652344 330.289062h-120.28125v-48.476562c0-10.09375 4.953125-19.34375 12.847656-23.992188l20.546875-12.097656h53.496094l20.546875 12.097656c7.894531 4.648438 12.847656 13.898438 12.847656 23.992188v48.476562zm0 0" fill="#4c7eed"/><path d="m127.261719 245.722656h-53.496094v-25.582031c0-6.644531 5.382813-12.027344 12.027344-12.027344h29.441406c6.640625 0 12.027344 5.382813 12.027344 12.027344zm0 0" fill="#3a4c68"/><path d="m314.296875 330.289062h-120.285156v-48.476562c0-10.09375 4.953125-19.34375 12.847656-23.992188l20.546875-12.097656h53.496094l20.546875 12.097656c7.894531 4.648438 12.847656 13.898438 12.847656 23.992188zm0 0" fill="#4c7eed"/><path d="m280.902344 245.722656h-53.496094v-25.582031c0-6.644531 5.382812-12.027344 12.027344-12.027344h29.441406c6.640625 0 12.027344 5.382813 12.027344 12.027344zm0 0" fill="#3a4c68"/><path d="m467.9375 330.289062h-120.285156v-48.476562c0-10.09375 4.957031-19.34375 12.847656-23.992188l20.546875-12.097656h53.5l20.546875 12.097656c7.890625 4.648438 12.84375 13.898438 12.84375 23.992188zm0 0" fill="#4c7eed"/><g fill="#466be0"><path d="m147.808594 257.820312-18.648438-10.976562c3.019532 4.589844 4.746094 10.226562 4.746094 16.164062 0 26.773438-21.703125 48.476563-48.476562 48.476563h-45.058594v18.804687h120.28125v-48.476562c0-10.09375-4.953125-19.34375-12.84375-23.992188zm0 0"/><path d="m301.449219 257.820312-18.644531-10.976562c3.015624 4.585938 4.742187 10.226562 4.742187 16.164062 0 26.769532-21.703125 48.472657-48.472656 48.472657h-45.0625v18.804687h120.285156v-48.472656c0-10.09375-4.953125-19.34375-12.847656-23.992188zm0 0"/><path d="m455.089844 257.820312-18.644532-10.976562c3.019532 4.589844 4.742188 10.226562 4.742188 16.164062 0 26.773438-21.703125 48.476563-48.472656 48.476563h-45.0625v18.804687h120.285156v-48.476562c0-10.09375-4.953125-19.34375-12.847656-23.992188zm0 0"/></g><path d="m434.542969 245.722656h-53.496094v-25.582031c0-6.644531 5.386719-12.027344 12.027344-12.027344h29.441406c6.644531 0 12.027344 5.382813 12.027344 12.027344zm0 0" fill="#3a4c68"/><path d="m464.101562 512h-419.894531c-24.414062 0-44.207031-19.792969-44.207031-44.207031v-137.503907h508.308594v137.503907c0 24.414062-19.792969 44.207031-44.207032 44.207031zm0 0" fill="#d2b393"/><path d="m466.757812 330.289062c0 77.40625-62.753906 140.160157-140.164062 140.160157h-323.9375c-.867188 0-1.722656-.03125-2.578125-.082031 1.335937 23.21875 20.578125 41.632812 44.128906 41.632812h419.894531c24.414063 0 44.207032-19.792969 44.207032-44.207031v-137.503907zm0 0" fill="#bf9984"/></svg>