<svg height="512pt" viewBox="-62 0 511 512" width="512pt" xmlns="http://www.w3.org/2000/svg"><path d="m387.8125 217.792969-34.066406-204.019531c-1.324219-7.949219-8.203125-13.773438-16.261719-13.773438h-286.117187c-8.058594 0-14.9375 5.824219-16.265626 13.773438l-34.066406 204.019531c-.355468 2.140625-.535156 4.308593-.535156 6.476562v253.789063c0 18.746094 15.195312 33.941406 33.941406 33.941406h319.964844c18.746094 0 33.945312-15.195312 33.945312-33.941406v-253.789063c0-2.167969-.179687-4.335937-.539062-6.476562zm-90.316406-142.652344c0 16.773437-13.601563 30.371094-30.375 30.371094h-145.390625c-16.773438 0-30.371094-13.597657-30.371094-30.371094 0-16.777344 13.597656-30.375 30.371094-30.375h145.390625c16.773437 0 30.375 13.597656 30.375 30.375zm0 0" fill="#f0dbbd"/><path d="m387.8125 217.792969-34.066406-204.019531c-1.324219-7.949219-8.203125-13.773438-16.261719-13.773438h-37.269531l30.269531 181.289062c.359375 2.140626.539063 4.308594.539063 6.476563 0 158.910156-128.820313 287.730469-287.730469 287.730469h-42.792969v2.558594c0 18.746093 15.195312 33.941406 33.941406 33.941406h319.96875c18.746094 0 33.941406-15.195313 33.941406-33.941406v-253.785157c0-2.167969-.179687-4.335937-.539062-6.476562zm0 0" fill="#eac9a2"/><path d="m218.425781 288.230469c-1.546875 15.207031-8.945312 31.074219-21.804687 43.933593-10.164063 10.164063-22.210938 16.910157-34.324219 20.058594-15.589844 4.050782-31.300781 2.128906-43.292969-6.15625-2.128906-1.464844-4.132812-3.128906-6-5-2.066406-2.0625-3.875-4.296875-5.445312-6.660156-14.171875-21.332031-8.636719-53.953125 14.355468-76.945312 23.121094-23.121094 55.96875-28.582032 77.289063-14.144532 2.242187 1.519532 4.367187 3.265625 6.332031 5.226563 2.375 2.378906 4.429688 4.980469 6.15625 7.769531 5.722656 9.203125 7.914063 20.371094 6.734375 31.917969zm0 0" fill="#876954"/><path d="m211.691406 256.3125c-1.09375.828125-2.414062 1.375-3.882812 1.519531-19.242188 1.941407-31.9375 7.675781-37.746094 17.054688-2.757812 4.441406-3.210938 8.410156-3.839844 13.894531-.609375 5.296875-1.292968 11.300781-4.269531 18.539062-6.578125 16.085938-21.019531 29.101563-42.949219 38.75-2.125-1.46875-4.132812-3.132812-6-5-2.066406-2.066406-3.875-4.296874-5.445312-6.664062.570312-.464844 1.207031-.835938 1.910156-1.125 20.007812-8.160156 32.839844-18.863281 38.148438-31.835938 2.160156-5.257812 2.675781-9.722656 3.210937-14.441406.734375-6.332031 1.480469-12.882812 6.054687-20.277344 7.632813-12.324218 21.847657-20.175781 42.320313-23.40625 2.242187 1.519532 4.367187 3.261719 6.332031 5.226563 2.375 2.375 4.433594 4.976563 6.15625 7.765625zm0 0" fill="#705245"/><path d="m218.425781 288.230469c-1.546875 15.207031-8.945312 31.074219-21.804687 43.933593-10.164063 10.164063-22.210938 16.910157-34.324219 20.058594-1.976563-16.144531 1.484375-31.730468 10.546875-43.671875 1.898438-2.519531 4.046875-4.875 6.453125-7.035156 2.925781-2.625 6.085937-4.84375 9.433594-6.664063 8.882812-4.894531 19.097656-7.054687 29.695312-6.621093zm0 0" fill="#705245"/><path d="m279.289062 401.167969c-1.570312 2.042969-3.347656 3.953125-5.308593 5.722656-2.167969 1.953125-4.492188 3.644531-6.953125 5.082031-22.054688 13.003906-54.332032 5.742188-76.066406-18.449218-21.859376-24.316407-25.566407-57.421876-9.988282-77.9375 1.628906-2.160157 3.480469-4.183594 5.546875-6.035157 2.507813-2.25 5.214844-4.160156 8.085938-5.722656 22.023437-12.117187 53.570312-4.699219 74.933593 19.078125 21.972657 24.453125 25.609376 57.765625 9.75 78.261719zm0 0" fill="#876954"/><path d="m279.289062 401.167969c-1.570312 2.042969-3.347656 3.953125-5.308593 5.722656-2.167969 1.953125-4.492188 3.644531-6.953125 5.082031-.421875-.589844-.773438-1.25-1.019532-1.972656-7.078124-20.402344-17.085937-33.789062-29.75-39.78125-5.144531-2.449219-9.566406-3.191406-14.246093-3.988281-6.292969-1.0625-12.789063-2.167969-19.925781-7.125-11.890626-8.277344-18.988282-22.902344-21.113282-43.519531 1.628906-2.160157 3.480469-4.183594 5.546875-6.035157 2.507813-2.25 5.214844-4.160156 8.085938-5.722656.777343 1.136719 1.238281 2.492187 1.3125 3.957031.910156 19.316406 5.960937 32.300782 15.007812 38.59375 4.296875 2.984375 8.222657 3.65625 13.667969 4.574219 5.265625.886719 11.226562 1.902344 18.304688 5.257813 15.703124 7.429687 27.929687 22.539062 36.390624 44.957031zm0 0" fill="#705245"/></svg>