<svg height="512pt" viewBox="-62 0 512 512" width="512pt" xmlns="http://www.w3.org/2000/svg"><path d="m387.3125 217.792969-34.066406-204.019531c-1.324219-7.949219-8.203125-13.773438-16.261719-13.773438h-286.117187c-8.058594 0-14.9375 5.824219-16.265626 13.773438l-34.066406 204.019531c-.355468 2.140625-.535156 4.308593-.535156 6.476562v253.789063c0 18.746094 15.195312 33.941406 33.941406 33.941406h319.964844c18.746094 0 33.945312-15.195312 33.945312-33.941406v-253.789063c0-2.167969-.179687-4.335937-.539062-6.476562zm-90.320312-142.652344c0 16.773437-13.597657 30.371094-30.375 30.371094h-145.386719c-16.777344 0-30.375-13.597657-30.375-30.371094 0-16.777344 13.597656-30.375 30.375-30.375h145.386719c16.777343 0 30.375 13.597656 30.375 30.375zm0 0" fill="#f0dbbd"/><path d="m387.3125 217.792969-34.066406-204.019531c-1.324219-7.949219-8.203125-13.773438-16.261719-13.773438h-36.449219l28.785156 172.398438c.359376 2.140624.539063 4.304687.539063 6.476562 0 158.90625-128.820313 287.730469-287.730469 287.730469h-42.128906v11.453125c0 18.746094 15.195312 33.941406 33.941406 33.941406h319.964844c18.746094 0 33.945312-15.195312 33.945312-33.941406v-253.789063c0-2.167969-.179687-4.335937-.539062-6.476562zm0 0" fill="#eac9a2"/><path d="m264.613281 276.480469h-141.375c-1.992187 0-3.609375-1.617188-3.609375-3.609375v-24.390625c0-1.996094 1.617188-3.609375 3.609375-3.609375h141.375c1.992188 0 3.609375 1.613281 3.609375 3.609375v24.390625c0 1.992187-1.617187 3.609375-3.609375 3.609375zm0 0" fill="#876954"/><path d="m246.617188 235.894531c4.476562 5.667969 11.304687 8.976563 18.527343 8.976563h.03125-142.503906c7.242187 0 14.085937-3.328125 18.558594-9.023438l16.066406-20.449218c2.378906-3.027344 6.015625-4.792969 9.863281-4.792969h53.417969c3.835937 0 7.464844 1.757812 9.84375 4.769531zm0 0" fill="#876954"/><path d="m246.617188 235.894531-16.195313-20.519531c-2.378906-3.011719-6.003906-4.769531-9.84375-4.769531h-19.253906l4.144531 5.25c5.527344 7.003906 1.414062 17.390625-7.417969 18.652343-21.105469 3.015626-56.183593.535157-56.183593.535157l-.636719.808593c-4.472657 5.695313-11.316407 9.019532-18.558594 9.019532h142.472656c-7.222656 0-14.050781-3.308594-18.527343-8.976563zm0 0" fill="#705245"/><path d="m261.316406 276.476562-6.03125 68.042969-2.316406 26.105469-5.164062 58.246094c-.914063 10.25-9.5 18.109375-19.792969 18.109375h-68.175781c-10.292969 0-18.882813-7.859375-19.789063-18.109375l-5.164063-58.246094-2.316406-26.105469-6.035156-68.042969zm0 0" fill="#d2b393"/></svg>