<svg height="512pt" viewBox="0 -16 512 512" width="512pt" xmlns="http://www.w3.org/2000/svg"><path d="m429.980469 75.128906h-338.835938v-32.269531c0-23.671875 19.191407-42.859375 42.859375-42.859375h253.117188c23.667968 0 42.859375 19.1875 42.859375 42.859375zm0 0" fill="#ff71bf"/><path d="m91.226562 153.40625h338.835938v45.003906c0 23.667969-19.1875 41.601563-42.859375 41.601563h-253.117187c-23.671876 0-42.859376-17.933594-42.859376-41.601563zm0 0" fill="#ff71bf"/><path d="m387.121094 0h-80.480469c23.667969 0 42.855469 19.1875 42.855469 42.855469v32.273437h80.484375v-32.269531c0-23.671875-19.1875-42.859375-42.859375-42.859375zm0 0" fill="#f75c9b"/><path d="m349.496094 163.40625v35.003906c0 23.671875-19.1875 41.601563-42.855469 41.601563h80.480469c23.671875 0 42.859375-17.929688 42.859375-41.601563v-35.003906zm0 0" fill="#f75c9b"/><path d="m448 91.503906v54.71875c0 4.636719-1.742188 8.859375-4.613281 12.058594-3.304688 3.683594-8.105469 5.996094-13.441407 5.996094h-338.601562c-9.972656 0-18.054688-8.082032-18.054688-18.054688v-54.71875c0-5.066406 2.097657-9.660156 5.464844-12.933594 3.25-3.179687 7.6875-5.128906 12.589844-5.128906h338.601562c9.972657-.003906 18.054688 8.089844 18.054688 18.0625zm0 0" fill="#ffe9f6"/><g fill="#ffd2ef"><path d="m157.65625 164.277344h-30.132812c-4.375-4.65625-8.101563-10.21875-10.960938-16.535156l-23.226562-51.386719c-3.375-7.445313-8.484376-13.65625-14.585938-17.785157 3.253906-3.179687 7.691406-5.132812 12.59375-5.132812h5.121094c4.425781 4.6875 8.132812 10.25 10.972656 16.539062l23.222656 51.386719c5.648438 12.46875 15.683594 20.859375 26.996094 22.914063zm0 0"/><path d="m217.527344 164.277344h-30.140625c-4.378907-4.65625-8.105469-10.21875-10.953125-16.535156l-23.226563-51.375c-5.644531-12.480469-15.679687-20.875-26.992187-22.929688h30.132812c4.386719 4.65625 8.101563 10.230469 10.960938 16.546875l23.226562 51.378906c5.644532 12.46875 15.679688 20.859375 26.992188 22.914063zm0 0"/><path d="m277.398438 164.277344h-30.140626c-4.378906-4.65625-8.105468-10.21875-10.953124-16.535156l-23.226563-51.375c-5.644531-12.480469-15.679687-20.875-26.992187-22.929688h30.132812c4.386719 4.65625 8.101562 10.230469 10.960938 16.546875l23.226562 51.378906c5.644531 12.46875 15.679688 20.859375 26.992188 22.914063zm0 0"/><path d="m337.269531 164.277344h-30.140625c-4.378906-4.65625-8.105468-10.21875-10.953125-16.535156l-23.226562-51.375c-5.644531-12.480469-15.679688-20.875-26.992188-22.929688h30.132813c4.386718 4.65625 8.101562 10.230469 10.960937 16.546875l23.226563 51.378906c5.644531 12.46875 15.679687 20.859375 26.992187 22.914063zm0 0"/><path d="m397.140625 164.277344h-30.140625c-4.378906-4.65625-8.105469-10.21875-10.953125-16.535156l-23.226563-51.375c-5.644531-12.480469-15.679687-20.875-26.992187-22.929688h30.132813c4.386718 4.65625 8.101562 10.230469 10.960937 16.546875l23.226563 51.378906c5.644531 12.46875 15.679687 20.859375 26.992187 22.914063zm0 0"/><path d="m443.386719 158.28125c-3.304688 3.683594-8.105469 5.996094-13.441407 5.996094h-3.066406c-4.417968-4.695313-8.121094-10.261719-10.960937-16.523438l-23.226563-51.398437c-5.644531-12.46875-15.679687-20.863281-26.992187-22.914063h30.140625c4.378906 4.652344 8.101562 10.21875 10.953125 16.535156l23.226562 51.386719c3.1875 7.039063 7.769531 12.839844 13.367188 16.917969zm0 0"/></g><path d="m356.6875 315.714844h-338.832031v-32.269532c0-23.671874 19.1875-42.859374 42.855469-42.859374l253.121093-.574219c23.667969 0 42.855469 19.761719 42.855469 43.433593zm0 0" fill="#ffe170"/><path d="m17.855469 403.992188h338.832031v32.269531c0 23.667969-19.1875 42.855469-42.855469 42.855469h-253.117187c-23.671875 0-42.859375-19.1875-42.859375-42.855469zm0 0" fill="#ffe170"/><path d="m441.027344 314.683594h-338.832032v-32.273438c0-23.667968 19.1875-42.398437 42.855469-42.398437h253.121094c23.667969 0 42.855469 18.730469 42.855469 42.398437zm0 0" fill="#ffd071"/><path d="m102.195312 402.960938h338.832032v32.269531c0 23.667969-19.1875 43.890625-42.855469 43.890625h-253.121094c-23.667969 0-42.855469-20.222656-42.855469-43.890625zm0 0" fill="#ffd071"/><path d="m374.710938 332.09375v54.71875c0 9.972656-8.082032 18.054688-18.054688 18.054688h-338.601562c-9.972657 0-18.054688-8.082032-18.054688-18.054688v-54.71875c0-5.121094 2.128906-9.734375 5.542969-13.027344 3.242187-3.117187 7.648437-5.039062 12.511719-5.039062h338.601562c9.972656 0 18.054688 8.082031 18.054688 18.066406zm0 0" fill="#fff8e3"/><path d="m83.457031 404.867188h-29.367187c-4.324219-4.644532-8-10.179688-10.828125-16.453126l-23.226563-51.574218c-3.34375-7.441406-8.433594-13.644532-14.492187-17.773438 3.238281-3.117187 7.648437-5.039062 12.511719-5.039062h5.253906c4.375 4.675781 8.03125 10.210937 10.847656 16.457031l23.226562 51.570313c5.492188 12.179687 15.132813 20.480468 26.074219 22.8125zm0 0" fill="#ffefc7"/><path d="m143.328125 404.867188h-29.367187c-4.324219-4.644532-8-10.179688-10.828126-16.453126l-23.226562-51.5625c-5.492188-12.191406-15.132812-20.488281-26.074219-22.824218h29.359375c4.324219 4.648437 8.007813 10.191406 10.835938 16.464844l23.226562 51.550781c5.492188 12.191406 15.132813 20.492187 26.074219 22.824219zm0 0" fill="#ffefc7"/><path d="m203.199219 404.867188h-29.367188c-4.324219-4.644532-8-10.179688-10.828125-16.453126l-23.226562-51.5625c-5.492188-12.191406-15.132813-20.488281-26.074219-22.824218h29.355469c4.324218 4.648437 8.011718 10.191406 10.839844 16.464844l23.226562 51.550781c5.492188 12.191406 15.132812 20.492187 26.074219 22.824219zm0 0" fill="#ffefc7"/><path d="m451.121094 239.554688c23.667968 0 42.859375 19.1875 42.859375 42.855468v32.273438h-338.835938v-32.273438c0-23.667968 19.191407-42.398437 42.859375-42.398437" fill="#b971ff"/><path d="m155.144531 402.960938h338.835938v32.269531c0 23.667969-19.1875 43.890625-42.859375 43.890625h-253.117188c-23.667968 0-42.859375-20.222656-42.859375-43.890625zm0 0" fill="#b971ff"/><path d="m451.121094 239.554688-73.074219.457031c23.671875 0 42.859375 18.730469 42.859375 42.398437v32.273438h73.074219v-32.273438c0-23.667968-19.1875-42.855468-42.859375-42.855468zm0 0" fill="#a066e2"/><path d="m420.90625 402.960938v32.269531c0 23.667969-19.1875 43.890625-42.855469 43.890625h73.070313c23.671875 0 42.859375-20.222656 42.859375-43.890625v-32.269531zm0 0" fill="#a066e2"/><path d="m512 331.058594v54.722656c0 4.707031-1.804688 9-4.746094 12.210938-3.316406 3.59375-8.042968 5.84375-13.308594 5.84375h-338.601562c-9.972656 0-18.054688-8.082032-18.054688-18.054688v-54.722656c0-5.148438 2.148438-9.792969 5.605469-13.085938 3.242188-3.078125 7.621094-4.976562 12.449219-4.976562h338.601562c9.972657 0 18.054688 8.082031 18.054688 18.0625zm0 0" fill="#efe1ff"/><path d="m220.253906 403.835938h-28.933594c-4.304687-4.636719-7.960937-10.160157-10.769531-16.40625l-23.226562-51.683594c-3.34375-7.421875-8.398438-13.625-14.429688-17.773438 3.242188-3.078125 7.617188-4.976562 12.449219-4.976562h5.335938c4.347656 4.664062 7.96875 10.175781 10.769531 16.402344l23.226562 51.683593c5.40625 12.015625 14.851563 20.273438 25.578125 22.753907zm0 0" fill="#ddc5ff"/><path d="m280.125 403.835938h-28.933594c-4.304687-4.636719-7.960937-10.160157-10.769531-16.414063l-23.226563-51.664063c-5.40625-12.027343-14.851562-20.285156-25.578124-22.761718h28.933593c4.304688 4.636718 7.960938 10.15625 10.769531 16.414062l23.226563 51.664063c5.40625 12.023437 14.851563 20.28125 25.578125 22.761719zm0 0" fill="#ddc5ff"/><path d="m339.996094 403.835938h-28.933594c-4.304688-4.636719-7.960938-10.160157-10.769531-16.414063l-23.226563-51.664063c-5.40625-12.027343-14.851562-20.285156-25.578125-22.761718h28.933594c4.304687 4.636718 7.960937 10.15625 10.769531 16.414062l23.222656 51.664063c5.410157 12.023437 14.855469 20.28125 25.582032 22.761719zm0 0" fill="#ddc5ff"/><path d="m399.867188 403.835938h-28.933594c-4.304688-4.636719-7.960938-10.160157-10.769532-16.414063l-23.226562-51.664063c-5.40625-12.027343-14.851562-20.285156-25.578125-22.761718h28.933594c4.304687 4.636718 7.960937 10.15625 10.769531 16.414062l23.222656 51.664063c5.410156 12.023437 14.855469 20.28125 25.582032 22.761719zm0 0" fill="#ddc5ff"/><path d="m459.738281 403.835938h-28.933593c-4.308594-4.636719-7.960938-10.160157-10.769532-16.414063l-23.226562-51.664063c-5.40625-12.027343-14.851563-20.285156-25.578125-22.761718h28.933593c4.304688 4.636718 7.960938 10.15625 10.769532 16.414062l23.222656 51.664063c5.410156 12.023437 14.855469 20.28125 25.582031 22.761719zm0 0" fill="#ddc5ff"/><path d="m507.253906 397.992188c-3.316406 3.59375-8.042968 5.84375-13.308594 5.84375h-3.269531c-4.335937-4.667969-7.972656-10.1875-10.769531-16.402344l-23.226562-51.6875c-5.40625-12.015625-14.851563-20.273438-25.578126-22.75h28.933594c4.304688 4.636718 7.960938 10.15625 10.769532 16.402344l23.222656 51.6875c3.167968 7.015624 7.703125 12.808593 13.226562 16.90625zm0 0" fill="#ddc5ff"/></svg>