<svg id="Layer_1" enable-background="new 0 0 512 512" height="512" viewBox="0 0 512 512" width="512" xmlns="http://www.w3.org/2000/svg"><g><g><path clip-rule="evenodd" d="m53.539 157.175-44.25 99.862s243.331 46.963 246.711 46.963l207.744-46.281-44.676-100.544c-178.305 0-172.597 0-365.529 0z" fill="#fde588" fill-rule="evenodd"/></g><g><path clip-rule="evenodd" d="m455.11 252.719h-437.613c-3.38 0-6.419 1.705-8.208 4.318-1.136 1.619-1.789 3.58-1.789 5.682v131.255c0 5.512 4.487 10.029 9.997 10.029h340.45c-1.079-5.029-1.647-10.256-1.647-15.597 0-40.939 33.173-74.122 74.1-74.122 12.525 0 24.34 3.097 34.707 8.608v-60.173c0-1.818-.511-3.523-1.363-5-1.733-2.983-4.971-5-8.634-5z" fill="#ffbc85" fill-rule="evenodd"/></g><g><path clip-rule="evenodd" d="m256.099 217.916c-46.493-16.421-93.385-73.27-93.896-137.506l-39.933 7.728c0 29.433 7.555 55.116 20.222 75.685.54.909 1.108 1.79 1.676 2.671 6.192 9.517 13.519 17.898 21.67 24.944 19.626 16.989 44.165 26.478 69.982 26.478z" fill="#d9eeff" fill-rule="evenodd"/></g><g><path clip-rule="evenodd" d="m276.265 163.823c-14.258-30.854-17.751-79.804-5.226-109.635l-105.399-4.688c-2.414 10.398-3.493 20.739-3.437 30.91.511 64.236 47.402 121.085 93.896 137.506h79.013c19.938 0 19.938-26.478 0-26.478h-31.98c-10.991-2.557-20.136-13.069-26.867-27.615z" fill="#eff6ff" fill-rule="evenodd"/></g><g><path clip-rule="evenodd" d="m235.821 217.916c-25.817 0-50.356-9.489-69.982-26.478h-20.648-8.691c-18.092 0-18.092 26.478 0 26.478z" fill="#7e707d" fill-rule="evenodd"/></g><g><path clip-rule="evenodd" d="m430.4 462.5c40.813 0 74.1-33.268 74.1-74.094s-33.287-74.122-74.1-74.122-74.1 33.297-74.1 74.122 33.287 74.094 74.1 74.094z" fill="#eff6ff" fill-rule="evenodd"/></g><g><path clip-rule="evenodd" d="m465.107 400.594v-24.404c0-2.358-1.931-4.29-4.289-4.29h-13.945v-13.921c0-2.386-1.931-4.29-4.289-4.29h-24.369c-2.357 0-4.289 1.904-4.289 4.29v13.921h-13.945c-2.357 0-4.289 1.932-4.289 4.29v24.404c0 2.358 1.931 4.29 4.289 4.29h13.945v13.949c0 2.358 1.931 4.29 4.289 4.29h24.369c2.357 0 4.289-1.932 4.289-4.29v-13.949h13.945c2.358 0 4.289-1.932 4.289-4.29z" fill="#fe8d94" fill-rule="evenodd"/></g><g><path clip-rule="evenodd" d="m371.694 157.175 42.46 95.544h40.955c3.664 0 6.902 2.017 8.634 5l-44.676-100.544z" fill="#fdd76f" fill-rule="evenodd"/></g><g><path clip-rule="evenodd" d="m414.154 322.719s11.929-4.435 16.246-4.435c12.525 0 24.34 3.097 34.707 8.608v-64.173c0-1.818-.511-3.523-1.363-5-1.733-2.983-4.97-5-8.634-5h-40.955v70z" fill="#f5a96c" fill-rule="evenodd"/></g><g><path clip-rule="evenodd" d="m446.873 371.9h13.945c2.357 0 4.289 1.932 4.289 4.29v24.404c0 2.358-1.931 4.29-4.289 4.29h-13.945v13.949c0 2.358-1.931 4.29-4.289 4.29h-3.891c-7.697 15.057-20.392 27.16-35.9 34.064 8.52 3.438 17.836 5.313 27.606 5.313 40.927 0 74.1-33.183 74.1-74.094 0-28.41-15.962-53.07-39.393-65.514-10.367-5.512-22.182-8.608-34.707-8.608-4.317 0-8.549.369-12.667 1.08-6.106 1.051-11.985 2.841-17.495 5.313 15.905 6.392 29.083 18.126 37.32 33.013h5.027c2.357 0 4.289 1.904 4.289 4.29z" fill="#d9eeff" fill-rule="evenodd"/></g><g><path d="m97.448 339.398h-44.278c-4.142 0-7.5 3.358-7.5 7.5s3.358 7.5 7.5 7.5h44.278c4.142 0 7.5-3.358 7.5-7.5s-3.358-7.5-7.5-7.5z"/><path d="m97.448 309.369h-44.278c-4.142 0-7.5 3.358-7.5 7.5s3.358 7.5 7.5 7.5h44.278c4.142 0 7.5-3.358 7.5-7.5s-3.358-7.5-7.5-7.5z"/><path d="m460.818 364.4h-6.445v-6.421c0-6.501-5.288-11.79-11.788-11.79h-24.369c-6.501 0-11.789 5.289-11.789 11.79v6.421h-6.444c-6.501 0-11.789 5.289-11.789 11.79v24.405c0 6.501 5.288 11.79 11.789 11.79h6.444v6.45c0 6.501 5.288 11.79 11.789 11.79h24.369c6.5 0 11.788-5.289 11.788-11.79v-6.45h6.445c6.501 0 11.789-5.289 11.789-11.79v-24.405c0-6.501-5.288-11.79-11.789-11.79zm-3.211 32.984h-10.734c-4.143 0-7.5 3.358-7.5 7.5v10.74h-17.946v-10.74c0-4.142-3.357-7.5-7.5-7.5h-10.733v-17.984h10.733c4.143 0 7.5-3.358 7.5-7.5v-10.711h17.946v10.711c0 4.142 3.357 7.5 7.5 7.5h10.734z"/><path d="m472.607 318.575v-55.856c0-3.075-.803-5.963-2.201-8.476l-44.484-100.114c-1.203-2.709-3.89-4.455-6.854-4.455h-140.346c-10.001-29.55-10.776-68.734-.766-92.585.948-2.261.732-4.843-.579-6.915-1.313-2.071-3.554-3.371-6.004-3.48l-105.399-4.688c-3.594-.159-6.815 2.271-7.637 5.787-2.026 8.677-3.18 17.51-3.501 26.403l-33.989 6.578c-3.527.683-6.075 3.771-6.075 7.363 0 22.023 4.134 42.906 12.041 61.537h-73.274c-2.967 0-5.655 1.749-6.857 4.461l-44.028 99.363c-1.672 2.681-2.654 5.835-2.654 9.221v131.255c0 9.666 7.85 17.529 17.498 17.529h191.625c4.142 0 7.5-3.358 7.5-7.5s-3.358-7.5-7.5-7.5h-191.625c-1.354 0-2.498-1.158-2.498-2.529v-131.255c0-1.379 1.121-2.5 2.498-2.5h191.625c4.142 0 7.5-3.358 7.5-7.5s-3.358-7.5-7.5-7.5h-186.394l35.69-80.544h75.863c1.157 2.001 2.345 3.98 3.601 5.911 3.074 4.722 6.426 9.171 10.008 13.352h-11.391c-13.685 0-21.069 10.686-21.069 20.739s7.384 20.739 21.069 20.739h119.553c.016 0 .031.002.047.002.008 0 .017-.002.025-.002h78.987c14.741 0 22.454-10.433 22.454-20.739s-7.713-20.739-22.454-20.739h-30.954c-8.527-2.386-14.997-11.514-19.09-19.263h129.126l35.789 80.544h-206.182c-4.142 0-7.5 3.358-7.5 7.5s3.358 7.5 7.5 7.5h211.308c1.354 0 2.498 1.145 2.498 2.5v48.747c-8.515-3.022-17.669-4.683-27.207-4.683-44.994 0-81.6 36.616-81.6 81.623 0 2.733.141 5.433.404 8.097h-105.403c-4.142 0-7.5 3.358-7.5 7.5s3.358 7.5 7.5 7.5h108.35c9.989 33.775 41.278 58.497 78.249 58.497 44.994 0 81.6-36.603 81.6-81.594 0-29.566-15.798-55.509-39.393-69.831zm-336.107-108.159c-5.631 0-6.069-4.393-6.069-5.739s.438-5.739 6.069-5.739h26.674c5.255 4.321 10.826 8.157 16.651 11.479h-43.325zm13.955-48.013c-12.525-19.249-19.584-42.684-20.565-68.101l25.209-4.879c1.689 23.757 9.283 47.548 22.477 69.564 12.258 20.453 28.745 38.123 46.834 50.734-29.535-3.535-56.599-20.657-73.955-47.318zm150.422 36.188c.722.226 1.499.346 2.256.346h31.979c5.496 0 7.454 2.965 7.454 5.739s-1.958 5.739-7.454 5.739h-77.676c-25.376-9.348-50.346-31.36-66.994-59.139-17.803-29.705-24.371-62.843-18.754-94.001l88.978 3.957c-9.17 32.221-5.069 78.722 10.512 109.248 7.908 15.495 18.169 25.191 29.699 28.111zm129.523 256.409c-36.724 0-66.6-29.874-66.6-66.594 0-36.736 29.876-66.623 66.6-66.623s66.6 29.887 66.6 66.623c0 36.72-29.876 66.594-66.6 66.594z"/></g></g></svg>