<svg id="Layer_1" enable-background="new 0 0 512 512" height="512" viewBox="0 0 512 512" width="512" xmlns="http://www.w3.org/2000/svg"><g><g><path clip-rule="evenodd" d="m248.711 489.987c0 9.836 6.889 14.513 17.124 14.513h80.631c0-65.679-24.07-114.804-73.175-131.358v45.355c0 21.288 1.361 22.876-24.581 32.967z" fill="#fe8d94" fill-rule="evenodd"/></g><g><path clip-rule="evenodd" d="m60.514 7.499v150.946l42.783 13.238v-161.689z" fill="#fe8d94" fill-rule="evenodd"/></g><g><path clip-rule="evenodd" d="m236.888 214.117c0 5.528 1.701 51.052-20.385 66.983s48.311 30.246 69.064-15.931c-6.152-20.891-21.716-38.494-48.679-51.052z" fill="#7e707d" fill-rule="evenodd"/></g><g><path clip-rule="evenodd" d="m236.265 233.62c21.377 11.934 34.22 27.61 39.834 45.78 3.714-3.94 6.946-8.646 9.469-14.23-6.152-20.891-21.717-38.495-48.679-51.052-.001 2.097.255 9.807-.624 19.502z" fill="#6a5c69" fill-rule="evenodd"/></g><g><path clip-rule="evenodd" d="m387.066 90.583 27.217 105.251 24.382-14.513c11.511-6.86 16.614-10.602 9.753-29.225l-32.122-104.94c-4.338-14.145-4.848-19.219-20.271-20.126l-45.787-2.665 14.884 54.482c1.588 5.159.255 5.017 5.132 6.576z" fill="#7e707d" fill-rule="evenodd"/></g><g><path clip-rule="evenodd" d="m103.297 9.994v161.689l122.875 37.956c3.742 1.417 7.315 2.92 10.717 4.479 26.962 12.558 42.527 30.161 48.679 51.052 4.961 16.866 3.771 35.887-2.495 56.07-2.75 8.844-9.781 21.373-9.781 42.917v8.986c49.105 16.554 73.175 65.679 73.175 131.358h48.481c11.312 0 19.336-7.909 19.336-18.709v-29.707c9.072-76.904 11.766-167.16 0-260.25l-27.218-105.252-16.812-5.159c-4.876-1.559-3.544-1.417-5.132-6.576l-14.884-54.482zm197.552 161.49-122.279-36.454c-4.735-1.417-9.016-4.054-9.016-9.014v-58.819c0-4.961 4.083-9.439 9.016-9.043l122.28 10.148c4.961.397 9.044 4.054 9.044 9.043v85.096c-.001 4.961-4.282 10.46-9.045 9.043z" fill="#eff6ff" fill-rule="evenodd"/></g><g><path clip-rule="evenodd" d="m386.073 456.084v29.707c0 10.8-8.023 18.709-19.336 18.709h28.21c11.312 0 19.336-7.909 19.336-18.709v-29.707c9.072-76.904 11.766-167.16 0-260.25l-4.593-17.802-22.624-87.449-16.812-5.159c-4.876-1.559-3.544-1.417-5.132-6.576l-14.884-54.482-26.027-1.502 20.044 80.334c1.588 5.131.255 4.989 5.132 6.548l16.841 5.159c37.934 134.249 36.232 202.111 19.845 341.179z" fill="#d9eeff" fill-rule="evenodd"/></g><g><path clip-rule="evenodd" d="m388.37 26.576 50.295 154.744c11.511-6.86 16.614-10.602 9.753-29.225l-32.122-104.939c-4.338-14.145-4.848-19.219-20.271-20.126z" fill="#6a5c69" fill-rule="evenodd"/></g><g><path clip-rule="evenodd" d="m169.554 126.016c0 4.961 4.281 7.597 9.016 9.014l122.28 36.454c4.763 1.417 9.044-4.082 9.044-9.043v-85.096c0-4.989-4.083-8.646-9.044-9.043l-122.28-10.148c-4.933-.397-9.016 4.082-9.016 9.043z" fill="#a1d4ff" fill-rule="evenodd"/></g><g><g><path d="m320.645 220.314c1.4 0 2.817-.392 4.079-1.212l25.619-16.646c2.99-1.943 4.44-5.716 3.159-9.044-1.784-4.632-7.199-6.218-11.121-3.67l-25.517 16.579c-3.871 2.515-4.906 7.957-1.868 11.434 1.453 1.665 3.533 2.559 5.649 2.559z"/><path d="m337.316 246.053c1.403 0 2.822-.393 4.084-1.215l25.537-16.62c3.458-2.25 4.753-6.886 2.591-10.401-2.218-3.607-6.958-4.656-10.482-2.361l-25.519 16.608c-3.868 2.517-4.897 7.957-1.859 11.432 1.454 1.664 3.533 2.557 5.648 2.557z"/><path d="m317.393 77.345c0-8.69-6.855-15.792-15.924-16.517l-122.298-10.15c-4.971-.395-9.797 1.649-13.216 5.734-2.61 3.118-3.901 7.134-3.901 11.2v58.404c0 4.444 1.866 12.457 14.373 16.202l122.283 36.455c1.198.356 2.424.532 3.647.532 2.838 0 5.663-.944 8.1-2.762 4.213-3.142 6.936-8.638 6.936-14.002zm-15 85.097c0 .487.04 1.658-.663 1.453-.009.014-121.008-36.049-121.008-36.049-2.659-.796-3.667-.958-3.667-1.809 0-.006 0-.013 0-.021v-59.335c0-.794.383-1.089.889-1.051.556.042 122.309 10.148 122.309 10.148 1.263.084 2.142.727 2.142 1.567v85.097z"/><path d="m455.53 149.703s-32.589-106.474-32.834-107.286c-4.186-13.87-7.468-21.771-26.224-22.875l-335.522-19.53c-3.071-.171-6.042 1.531-7.363 4.585-.413.955-.572 2.001-.572 3.041v150.808c0 3.289 2.144 6.194 5.285 7.166l165.439 51.126c.001 0 .001 0 .002.001 1.934.731 3.803 1.494 5.64 2.271.013.006.022.019.022.033-.207 27.856-6.439 48.152-17.286 55.976-8.447 6.093-7.643 12.817-6.904 15.425 2.116 7.479 11.026 12.333 24.444 13.319 1.537.113 3.097.17 4.679.169 16.014-.001 33.987-5.866 46.802-19.058.022-.022.06-.009.061.023.295 10.443-1.462 21.819-5.288 34.116-.522 1.683-1.258 3.611-2.108 5.844-3.381 8.871-8.011 21.021-8.011 39.3v54.34c0 1.065.003 2.081.007 3.052.026 7.926-.025 11.818-1.463 13.681-1.943 2.519-8.191 5.295-18.326 9.238-2.893 1.125-4.798 3.916-4.798 7.021v38.499c0 13.373 9.665 22.014 24.624 22.014h129.113c15.299 0 26.835-11.267 26.835-26.208v-29.263c0-.001 0-.003 0-.004 3.919-33.189 6.398-66.917 7.369-100.257.12-4.141-3.139-7.595-7.279-7.715-4.115-.134-7.595 3.138-7.715 7.278-.962 33.046-3.426 66.479-7.323 99.371-.034.292-.052.587-.052.882v29.708c0 6.704-4.756 11.208-11.835 11.208h-41.06c-.019 0-.035-.015-.035-.034-.871-31.429-7.23-58.36-18.957-80.124-12.569-23.328-30.75-39.761-54.082-48.929-.013-.005-.022-.018-.022-.033v-3.724c0-15.518 3.896-25.743 7.027-33.959.901-2.366 1.753-4.6 2.415-6.73 17.553-56.421-4.261-99.34-61.42-120.848-.142-.049-.286-.098-.428-.146l-117.564-36.331c-.015-.005-.025-.018-.025-.034v-61.854c0-4.126-3.179-7.739-7.303-7.845-4.233-.108-7.697 3.29-7.697 7.498v57.544c0 .024-.023.041-.046.034l-27.711-8.564c-.015-.005-.025-.018-.025-.034v-137.404c0-.02.017-.037.037-.035l27.711 1.612c.019.001.033.017.033.035v51.822c0 4.125 3.179 7.739 7.303 7.844 4.233.109 7.697-3.29 7.697-7.497v-51.292c0-.02.017-.037.037-.035l233.569 13.587c.015.001.026.003.03.018.283 1.036 13.97 51.142 14.117 51.766 1.359 5.78 4.005 7.527 9.503 9.285l12.783 3.922c.012.004.021.013.024.025l26.038 100.689c0 .002.001.003.001.005 5.077 40.221 7.681 82.2 7.738 124.78.006 4.139 3.362 7.49 7.5 7.49h.01c4.143-.005 7.496-3.368 7.49-7.51-.056-41.635-2.513-82.721-7.305-122.199-.001-.014.005-.027.017-.035l20.157-11.998c13.357-7.961 21.487-14.92 13.024-38.061zm-174.732 271.795-.004-37.176c0-.026.028-.044.052-.032 35.985 17.077 56.339 56.491 57.998 112.673 0 .02-.016.037-.036.037h-72.972c-9.624 0-9.624-4.737-9.624-7.014v-33.403c0-.014.009-.028.022-.033 10.615-4.301 16.323-7.422 19.977-12.156 4.643-6.017 4.62-12.732 4.587-22.896zm-36.523-195.059c16.882 9.944 27.985 22.638 33.296 38.002.003.01.003.021-.002.029-9.027 17.394-25.726 22.406-35.135 23.835-9.857 1.495-17.397.02-21.001-1.455-.025-.01-.027-.043-.005-.06 13.728-10.283 21.522-31.007 22.794-60.322 0-.027.03-.043.053-.029zm199.318-58.401c-.924 2.049-4.216 4.127-8.764 6.838l-15.749 9.375c-.02.012-.046.001-.052-.021l-24.701-95.523c-.652-2.524-2.568-4.528-5.061-5.292l-16.469-5.053c-.012-.004-.032-.033-.024-.024.024.024-12.531-45.842-12.531-45.842-.006-.023.012-.046.036-.045l26.284 1.529 9.022.539c7.102.417 8.359 1.749 8.773 2.187 1.389 1.47 2.531 5.255 3.978 10.048.252.832.514 1.699.789 2.6 0 0 32.208 105.205 32.256 105.336 2.457 6.664 3.201 11.156 2.213 13.348z"/></g></g></g></svg>