<svg id="Layer_1" enable-background="new 0 0 512 512" height="512" viewBox="0 0 512 512" width="512" xmlns="http://www.w3.org/2000/svg"><g><g><path clip-rule="evenodd" d="m211.379 268.366c-.51-34.415 30.558-79.29 23.018-115.632-13.21-63.897-60.55-92.443-108.343-90.317-55.023 2.438-110.583 45.527-115.317 122.067-2.722 43.968-9.412 129.777 11.225 191.406 19.305 57.688 60.635 72.061 99.329 73.733 42.89 1.871 92.299-29.765 91.505-84.591z" fill="#a7e9a6" fill-rule="evenodd"/></g><g><path clip-rule="evenodd" d="m61.535 335.636c7.399 87.709 115.685 96.554 115.685-5.868 0-16.215-4.139-29.142-10.885-38.95-11.736-17.094-31.324-24.606-50.43-23.217-29.566 2.182-57.97 25.683-54.37 68.035z" fill="#7e707d" fill-rule="evenodd"/></g><g><path clip-rule="evenodd" d="m173.224 235.425-6.35 54.4c.085 5.074 10.347 21.176 10.347 39.942 0 68.291-48.134 87.114-82.434 66.079-22.054 3.912-33.677 28.15-69.451-10.829 20.467 50.091 59.416 63.018 95.956 64.605 42.89 1.871 92.299-29.765 91.505-84.591l-1.417-96.667c-.51-34.415 30.558-79.29 23.018-115.632-4.621-22.423-13.465-40.509-25.059-54.428 10.884 71.665-30.049 85.159-36.115 137.121z" fill="#7fdbae" fill-rule="evenodd"/></g><g><path clip-rule="evenodd" d="m79.479 382.495c32.741 39.177 97.742 26.647 97.742-52.727 0-16.215-4.139-29.142-10.885-38.95-9.014-13.154-22.678-20.609-37.192-22.735 7.512 9.979 12.218 23.529 12.218 40.765-.001 55.334-31.636 78.183-61.883 73.647z" fill="#6a5c69" fill-rule="evenodd"/></g><g><path clip-rule="evenodd" d="m300.616 268.366c.51-34.415-30.53-79.29-23.018-115.632 13.21-63.897 60.578-92.443 108.343-90.317 55.022 2.438 110.611 45.527 115.345 122.067 2.721 43.968 9.383 129.778-11.226 191.406-19.305 57.688-60.663 72.061-99.357 73.733-42.861 1.871-92.299-29.765-91.505-84.591zm149.873 67.27" fill="#a7e9a6" fill-rule="evenodd"/></g><g><path clip-rule="evenodd" d="m450.489 335.636c-7.399 87.709-115.714 96.554-115.714-5.868 0-16.215 4.139-29.142 10.885-38.95 11.736-17.094 31.324-24.606 50.43-23.217 29.566 2.182 57.97 25.683 54.399 68.035z" fill="#7e707d" fill-rule="evenodd"/></g><g><path clip-rule="evenodd" d="m390.704 449.623c38.694-1.673 80.053-16.045 99.357-73.733 4.224-12.615 7.285-26.222 9.496-40.283 8.561-54.683 3.884-116.142 1.729-151.124-.34-5.386-.935-10.574-1.729-15.62-5.358-33.139-20.779-59.021-41.189-76.993 5.528 13.635 9.099 29 10.148 46.037 2.721 43.94 9.383 129.749-11.226 191.378-2.693 8.023-5.811 15.195-9.27 21.601-10.148 41.672-45.497 60.211-74.043 50.658-5.358.794-10.715 1.276-16.045 1.502-19.163.822-39.63-5.018-56.326-16.64 10.321 41.559 52.162 64.833 89.098 63.217z" fill="#7fdbae" fill-rule="evenodd"/></g><g><path clip-rule="evenodd" d="m373.976 401.541c28.545 9.553 63.893-8.986 74.041-50.657 1.162-4.762 2.013-9.865 2.466-15.251 2.381-28.319-9.524-48.219-26.504-58.934-8.419-5.301-18.085-8.362-27.893-9.1-1.474-.113-2.948-.17-4.422-.17 17.121 10.687 29.169 30.644 26.759 59.133-3.543 42.209-30.501 66.163-57.515 68.204 4.111 3.005 8.505 5.245 13.068 6.775z" fill="#6a5c69" fill-rule="evenodd"/></g><g><path d="m54.061 336.266c1.937 22.961 10.412 42.434 24.508 56.311 12.3 12.109 28.316 18.927 44.277 18.927.781 0 1.564-.017 2.343-.049 16.376-.689 31.241-8.42 41.855-21.768 11.564-14.543 17.676-35.263 17.676-59.919 0-25.751-9.659-46.258-27.365-58.516l3.838-12.338c1.23-3.955-.979-8.159-4.934-9.39-3.952-1.227-8.159.979-9.39 4.934l-3.021 9.711c-6.543-2.477-13.459-3.866-20.444-4.177v-11.526c0-4.142-3.358-7.5-7.5-7.5s-7.5 3.358-7.5 7.5v12.507c-5.947 1.05-11.781 2.884-17.305 5.497l-6.544-12.427c-1.93-3.665-6.465-5.071-10.131-3.142-3.665 1.93-5.071 6.466-3.142 10.131l7.043 13.375c-17.635 14-26.433 36.201-24.264 61.859zm37.254-52.766c8.724-5.714 18.919-8.609 29.036-8.609 8.339 0 16.626 1.968 23.989 5.947 16.367 8.845 25.38 26.222 25.38 48.929 0 47.828-24.328 65.823-45.161 66.7-12.587.529-25.516-4.784-35.466-14.58-8.025-7.901-18.023-22.447-20.085-46.885-1.906-22.541 6.016-40.832 22.307-51.502z"/><path d="m196.418 75.853c-20.709-15.305-46.956-22.681-73.892-20.758-29.729 2.117-57.936 15.034-79.425 36.37-23.787 23.619-37.567 55.624-39.85 92.543l-.296 4.628c-.643 10.007-1.444 22.461-2.036 35.886-.183 4.138 3.024 7.641 7.162 7.823 4.166.19 7.641-3.024 7.823-7.162.585-13.274 1.347-25.127 2.02-35.584l.298-4.651c2.575-41.641 20.516-71.691 44.175-90.629.025 15.031 3.832 33.496 13.461 50.054 1.393 2.395 3.906 3.731 6.49 3.731 1.28 0 2.578-.328 3.764-1.018 3.581-2.083 4.796-6.674 2.713-10.254-11.479-19.738-12.668-41.368-10.577-53.127 12.19-6.752 25.203-11.02 38.009-12.854-3.859 19.496-3.899 43.844.207 64.018.723 3.554 3.85 6.006 7.341 6.006.496 0 .999-.049 1.503-.152 4.059-.826 6.68-4.786 5.854-8.845-3.97-19.509-3.618-44.111.667-62.052 12.557.161 25.892 2.705 38.571 8.32-6.788 15.08-10.234 33.775-10.234 55.738 0 4.142 3.358 7.5 7.5 7.5s7.5-3.358 7.5-7.5c0-19.324 2.847-35.599 8.453-48.545 19.786 12.977 36.402 34.924 43.432 68.92 3.809 18.354-3.769 40.46-11.096 61.838-6.336 18.485-12.321 35.945-12.077 52.38l1.417 96.665c.379 26.199-11.698 43.507-21.896 53.412-16.209 15.744-39.288 24.563-61.786 23.577-48.165-2.082-77.571-23.887-92.54-68.621-9.643-28.812-14.245-65.94-14.069-113.507.015-4.142-3.33-7.513-7.472-7.528-.01 0-.019 0-.028 0-4.129 0-7.485 3.34-7.5 7.472-.182 49.231 4.674 87.935 14.845 118.323 9.364 27.984 24.681 48.793 45.525 61.849 16.592 10.392 36.412 15.953 60.59 16.997 1.339.059 2.677.087 4.019.087 25.234 0 50.719-10.261 68.869-27.89 17.661-17.154 26.805-39.419 26.443-64.391l-1.417-96.668c-.205-13.822 5.368-30.081 11.268-47.295 7.983-23.289 16.237-47.372 11.595-69.745-6.685-32.33-22.358-58.389-45.323-75.361z"/><path d="m327.275 329.768c0 24.656 6.114 45.377 17.681 59.92 10.616 13.348 25.483 21.078 41.862 21.768.781.033 1.563.049 2.345.049 15.963 0 31.984-6.819 44.286-18.926 14.1-13.878 22.577-33.351 24.514-56.313 2.162-25.662-6.646-47.865-24.291-61.864l7.04-13.369c1.93-3.665.523-8.201-3.142-10.131s-8.201-.524-10.131 3.142l-6.543 12.424c-5.525-2.612-11.359-4.445-17.306-5.495v-12.506c0-4.142-3.358-7.5-7.5-7.5s-7.5 3.358-7.5 7.5v11.527c-6.985.311-13.901 1.7-20.444 4.177l-3.021-9.711c-1.23-3.955-5.434-6.161-9.39-4.934-3.955 1.23-6.164 5.435-4.934 9.39l3.839 12.338c-17.706 12.256-27.365 32.762-27.365 58.514zm40.376-48.927c7.366-3.982 15.653-5.95 23.997-5.95 10.115 0 20.313 2.896 29.038 8.607 16.299 10.67 24.229 28.963 22.329 51.508-2.061 24.435-12.062 38.982-20.089 46.882-9.953 9.796-22.884 15.103-35.477 14.58-20.839-.877-45.174-18.873-45.174-66.7 0-22.705 9.012-40.081 25.376-48.927z"/><path d="m511.99 259.029c-.021-4.143-3.426-7.453-7.539-7.462-4.142.021-7.483 3.397-7.462 7.539.247 48.014-4.346 85.436-14.041 114.404-14.969 44.733-44.384 66.537-92.572 68.621-22.152.953-45.809-8.071-61.78-23.584-10.199-9.906-22.277-27.213-21.898-53.404l1.417-96.665c.244-16.44-5.739-33.906-12.073-52.398-7.321-21.374-14.892-43.475-11.099-61.825 7.035-33.986 23.651-55.931 43.435-68.909 5.604 12.945 8.45 29.218 8.45 48.538 0 4.142 3.358 7.5 7.5 7.5s7.5-3.358 7.5-7.5c0-21.96-3.445-40.654-10.231-55.733 12.68-5.618 26.017-8.164 38.575-8.326 4.29 17.899 4.64 42.499.661 62.053-.826 4.059 1.794 8.019 5.854 8.845.505.103 1.007.152 1.503.152 3.491 0 6.618-2.452 7.341-6.006 4.114-20.214 4.077-44.559.215-64.021 12.802 1.831 25.811 6.095 37.998 12.841 2.1 11.77.92 33.42-10.571 53.137-2.086 3.579-.875 8.171 2.704 10.257 1.188.692 2.487 1.021 3.77 1.021 2.581 0 5.093-1.334 6.487-3.725 9.644-16.549 13.451-35.029 13.469-50.077 23.671 18.938 41.624 48.994 44.199 90.65l.344 5.475c.632 9.995 1.349 21.323 1.917 33.886.187 4.138 3.7 7.344 7.831 7.154 4.138-.187 7.341-3.693 7.154-7.831-.574-12.698-1.294-24.098-1.931-34.156l-.343-5.457c-2.284-36.93-16.062-68.934-39.847-92.552-21.486-21.336-49.692-34.253-79.419-36.373-26.951-1.92-53.193 5.448-73.908 20.752-22.972 16.971-38.652 43.032-45.345 75.367-4.624 22.369 3.623 46.443 11.598 69.725 5.899 17.221 11.47 33.486 11.265 47.316l-1.417 96.668c-.362 24.964 8.783 47.227 26.446 64.383 18.156 17.635 43.637 27.898 68.864 27.897 1.339 0 2.682-.029 4.018-.087 24.185-1.046 44.009-6.606 60.606-16.997 20.854-13.057 36.176-33.867 45.54-61.849 10.224-30.555 15.07-69.559 14.815-119.244z"/></g></g></svg>