<svg id="Layer_1" enable-background="new 0 0 512 512" height="512" viewBox="0 0 512 512" width="512" xmlns="http://www.w3.org/2000/svg"><g><g><path clip-rule="evenodd" d="m256 88.925c32.04 0 73-21.925 62.098-74.563-40.509 9.331-81.879 9.474-124.225-.172-11.54 68.81 62.127 74.735 62.127 74.735z" fill="#7e707d" fill-rule="evenodd"/></g><g><path clip-rule="evenodd" d="m159.881 7.5h33.59c0 32.241 27.992 58.425 62.529 58.425 34.509 0 62.5-26.184 62.5-58.425h33.619 49.667l60.778 56.042 35.772 113.778-6.373 257.041h-61.524l-29.714-264.535h-29.515v128.65l19.12 206.023h-134.33-134.331l19.092-206.023v-128.65h-29.513l-29.714 264.535h-61.496l-6.373-257.041 35.772-113.778 60.749-56.042z" fill="#a1d4ff" fill-rule="evenodd"/></g><g><path clip-rule="evenodd" d="m491.962 434.361 1.062-42.806h-42.432-24.949l4.795 42.806h15.905z" fill="#eff6ff" fill-rule="evenodd"/></g><g><path clip-rule="evenodd" d="m81.534 434.361 4.823-42.806h-25.207-42.174l1.062 42.806h45.533z" fill="#eff6ff" fill-rule="evenodd"/></g><g><path clip-rule="evenodd" d="m462.563 63.542-59.772-55.152-1.005-.89h-49.667-33.619v.89c-.029 2.038-.172 4.019-.402 5.972-.603 4.622-1.751 9.101-3.416 13.321h8.326 59.801l60.778 56.042 32.068 107.347-11.254 200.482h28.623l5.311-214.235z" fill="#86beec" fill-rule="evenodd"/></g><g><path clip-rule="evenodd" d="m491.962 434.361 1.062-42.806h-28.623l-1.062 42.806z" fill="#d9eeff" fill-rule="evenodd"/></g><g><path clip-rule="evenodd" d="m100.597 264.742 10.651-94.915c-6.373-13.264-9.79-27.217-10.45-41.802l-8.527 28.165c-3.244 10.766-3.847 15.044-5.053 26.356l-6.345 60.262c6.173 8.641 13.006 15.819 19.724 21.934z" fill="#86beec" fill-rule="evenodd"/></g><g><path clip-rule="evenodd" d="m86.357 391.555 14.24-126.812c-6.718-6.115-13.551-13.293-19.723-21.935l-16.709 148.747z" fill="#86beec" fill-rule="evenodd"/></g><g><path clip-rule="evenodd" d="m81.534 434.361 4.823-42.806h-22.192l-4.795 42.806h6.201z" fill="#d9eeff" fill-rule="evenodd"/></g><g><path clip-rule="evenodd" d="m371.21 298.477v-128.65c.574-15.963-1.206-31.524-6-46.625-11.857 0-15.101 17.542-16.163 36.749v138.526z" fill="#86beec" fill-rule="evenodd"/></g><g><path clip-rule="evenodd" d="m390.331 504.5-19.121-206.023h-22.163l19.092 206.023z" fill="#86beec" fill-rule="evenodd"/></g><g><path d="m502.359 316.979c.102-4.141-3.172-7.581-7.313-7.683-.063-.001-.126-.002-.188-.002-4.056 0-7.394 3.237-7.494 7.315l-1.664 67.446h-53.366l-23.917-212.926c8.557-17.96 11.741-36.236 9.699-55.797-.43-4.12-4.122-7.118-8.238-6.681-4.12.43-7.111 4.119-6.681 8.238 1.658 15.878-.72 30.788-7.237 45.438h-17.313c-.559-22.963-4.876-40.471-13.162-53.324-2.246-3.482-6.887-4.483-10.368-2.24-3.481 2.245-4.484 6.886-2.24 10.368 7.536 11.689 11.08 28.9 10.833 52.618 0 .013.002.025.002.038s-.002.026-.002.04v121.15h-100.21v-170.072c0-4.142-3.358-7.5-7.5-7.5s-7.5 3.358-7.5 7.5v170.072h-100.239v-121.15c0-.013-.002-.026-.002-.04 0-.013.002-.025.002-.038-.246-23.721 3.305-40.929 10.857-52.61 2.249-3.479 1.252-8.122-2.227-10.37-3.479-2.25-8.122-1.252-10.37 2.227-8.307 12.849-12.636 30.36-13.196 53.332h-17.313c-6.518-14.652-8.887-29.559-7.21-45.428.435-4.119-2.551-7.812-6.67-8.247-4.123-.433-7.812 2.551-8.247 6.67-2.066 19.558 1.108 37.837 9.669 55.806l-23.917 212.926h-53.344c-.073-2.951-1.173-47.515-1.657-66.846-.104-4.141-3.526-7.407-7.685-7.31-4.141.104-7.414 3.544-7.31 7.685.484 19.33.96 38.659 1.438 57.988.485 19.659.97 39.318 1.462 58.977.102 4.067 3.429 7.312 7.498 7.312h61.495c3.818 0 7.027-2.869 7.453-6.663l4.773-42.498c.032-.206.056-.414.07-.625l24.121-214.748h15.309v120.803l-19.059 205.678c-.195 2.1.504 4.186 1.925 5.745s3.433 2.447 5.542 2.447h268.661c2.11 0 4.122-.889 5.543-2.448s2.12-3.645 1.925-5.745l-19.087-205.678v-120.802h15.309l28.965 257.872c.426 3.794 3.635 6.663 7.453 6.663h61.524c4.07 0 7.397-3.246 7.498-7.315zm-475.005 109.882c-.231-9.269-.459-18.538-.689-27.807h51.288l-3.123 27.807zm221.146 70.139h-118.604l17.701-191.023h100.903zm133.603 0h-118.603v-191.023h57.749c-.017.493-.033.981-.05 1.468-2.389 37.752-16.799 52.941-27.802 61.163-3.318 2.479-3.998 7.179-1.519 10.497 1.473 1.971 3.729 3.011 6.014 3.011 1.562 0 3.137-.486 4.483-1.493 7.73-5.776 14.122-12.726 19.204-20.908 2.062 25.766 7.75 35.755 16.871 51.768.931 1.634 1.899 3.334 2.906 5.129 1.375 2.452 3.923 3.832 6.548 3.832 1.242 0 2.502-.31 3.663-.96 3.612-2.026 4.898-6.598 2.872-10.21-1.023-1.824-2.008-3.553-2.954-5.214-12.48-21.91-17.499-30.728-15.31-95.756.049-.771.095-1.545.134-2.327h28.065zm55.039-70.139-3.123-27.807h51.311l-.686 27.807z"/><path d="m505.49 175.071-35.772-113.779c-.393-1.25-1.107-2.375-2.071-3.264l-60.777-56.042c-1.385-1.277-3.201-1.986-5.084-1.986h-83.286c-4.142 0-7.5 3.358-7.5 7.5 0 .251-.017.498-.021.749-36.127 7.522-73.069 7.448-109.994-.209-.002-.18-.015-.358-.015-.539 0-4.142-3.358-7.5-7.5-7.5h-83.286c-1.885 0-3.7.709-5.085 1.987l-60.748 56.041c-.963.889-1.676 2.014-2.069 3.263l-35.772 113.779c-.247.787-.363 1.608-.343 2.432.425 17.452.857 34.904 1.29 52.36.443 17.893.887 35.791 1.323 53.695.101 4.141 3.523 7.407 7.68 7.315 4.141-.101 7.416-3.539 7.315-7.68-.436-17.906-.879-35.806-1.322-53.701-.422-17.039-.844-34.074-1.259-51.109l34.798-110.684 57.125-52.699h73.305c3.967 32.832 33.658 58.425 69.578 58.425 35.905 0 65.583-25.593 69.55-58.425h73.306l57.153 52.7 34.797 110.681-2.61 105.096c-.103 4.141 3.17 7.581 7.312 7.684.063.002.126.002.189.002 4.056 0 7.393-3.236 7.494-7.314l2.641-106.342c.021-.826-.095-1.649-.342-2.436zm-249.49-116.646c-24.133 0-44.673-14.458-52.075-34.5 17.644 3.288 35.286 4.934 52.848 4.934 17.169 0 34.262-1.576 51.197-4.719-7.466 19.931-27.935 34.285-51.97 34.285z"/></g></g></svg>