<svg id="Layer_1" enable-background="new 0 0 512 512" height="512" viewBox="0 0 512 512" width="512" xmlns="http://www.w3.org/2000/svg"><g><g><path clip-rule="evenodd" d="m109.539 72h236.256v61.852h-236.256z" fill="#eff6ff" fill-rule="evenodd"/></g><g><path clip-rule="evenodd" d="m72.001 173.742 168.987 30.591 148.313-30.591c.938 0 1.819.114 2.671.313v-10.713c0-22.137-18.073-40.211-40.181-40.211h-5.996-236.256c-22.108 0-40.21 18.073-40.21 40.211v10.713c.882-.199 1.763-.313 2.672-.313z" fill="#a1d4ff" fill-rule="evenodd"/></g><g><path clip-rule="evenodd" d="m400.583 353.511v-168.487c0-5.286-3.694-9.747-8.61-10.969-.853-.199-1.733-.313-2.671-.313h-317.301c-.909 0-1.79.114-2.671.313-4.916 1.222-8.582 5.683-8.582 10.969v240.866c0 5.286 3.666 9.747 8.582 10.941.881.199 248.938 45.067 248.938 45.067 1.677-2.586 82.315-128.387 82.315-128.387z" fill="#eff6ff" fill-rule="evenodd"/></g><g><path clip-rule="evenodd" d="m171.999 378.348c32.452 0 58.794-26.343 58.794-58.796 0-15.829-6.991-32.708-17.562-43.479-11.111-11.339-26.2-15.914-41.233-5.399-32.026-14.095-58.794 16.397-58.794 48.878.001 32.453 26.315 58.796 58.795 58.796z" fill="#fe8d94" fill-rule="evenodd"/></g><g><path clip-rule="evenodd" d="m213.232 276.073c16.226-3.41 24.836-21.143 24.836-33.504-13.867-9.122-46.461-9.207-66.069 11.594v16.511c15.033-10.514 30.122-5.939 41.233 5.399z" fill="#a7e9a6" fill-rule="evenodd"/></g><g><path clip-rule="evenodd" d="m109.539 82.721h236.256 14.038c6.394 0 11.622-5.229 11.622-11.623v-51.975c0-6.394-5.229-11.623-11.622-11.623h-264.303c-6.394 0-11.622 5.229-11.622 11.623v51.976c0 6.394 5.229 11.623 11.622 11.623h14.009z" fill="#fe8d94" fill-rule="evenodd"/></g><g><path clip-rule="evenodd" d="m333.968 487.783c-11.509-14.692-12.276-35.152-2.387-50.64h-259.58c-.909 0-1.79-.114-2.671-.313v10.742c0 22.109 18.101 40.211 40.21 40.211z" fill="#a1d4ff" fill-rule="evenodd"/></g><g><path clip-rule="evenodd" d="m312.463 491.733c17.022 17.022 44.87 17.022 61.892 0l32.054-32.055-14.436-14.436-8.07-8.099-39.357-39.358-32.082 32.055c-2.245 2.273-4.206 4.717-5.882 7.303-9.889 15.488-9.122 35.948 2.387 50.64 1.079 1.364 2.244 2.672 3.494 3.95z" fill="#fe8d94" fill-rule="evenodd"/></g><g><path clip-rule="evenodd" d="m406.409 459.679 32.054-32.083c17.022-17.022 17.022-44.843 0-61.865-10.258-10.287-24.467-14.351-37.879-12.22-2.927.455-5.797 1.222-8.61 2.273-5.598 2.131-10.884 5.428-15.373 9.946l-32.054 32.055 39.357 39.358 8.07 8.099z" fill="#a7e9a6" fill-rule="evenodd"/></g><g><path clip-rule="evenodd" d="m312.463 491.733c17.022 17.022 44.87 17.022 61.892 0l32.054-32.055-14.436-14.436-8.07-8.099-32.082 32.083c-13.043 13.044-32.452 16.084-48.479 9.122 1.449 3.325 3.325 6.479 5.626 9.435 1.08 1.364 2.245 2.672 3.495 3.95z" fill="#ff6d75" fill-rule="evenodd"/></g><g><path clip-rule="evenodd" d="m406.409 459.679 32.054-32.083c17.022-17.022 17.022-44.843 0-61.865-3.95-3.978-8.497-7.019-13.384-9.122 6.991 15.999 3.922 35.437-9.122 48.48l-32.054 32.055 8.07 8.099z" fill="#7fdbae" fill-rule="evenodd"/></g><g><path clip-rule="evenodd" d="m272.31 487.783h36.658c-2.302-2.955-4.177-6.11-5.626-9.435-5.769-13.243-4.689-28.815 3.24-41.205h-36.629c-7.928 12.39-9.008 27.963-3.268 41.205 1.448 3.326 3.323 6.48 5.625 9.435z" fill="#86beec" fill-rule="evenodd"/></g><g><path clip-rule="evenodd" d="m391.973 163.341c0-22.137-18.073-40.211-40.181-40.211h-5.996-30.662c22.108 0 40.181 18.073 40.181 40.211v10.401h33.986c.938 0 1.819.114 2.671.313v-10.714z" fill="#86beec" fill-rule="evenodd"/></g><g><path clip-rule="evenodd" d="m312.463 429.84 32.082-32.055 32.054-32.055c4.49-4.518 9.775-7.815 15.373-9.946 2.813-1.051 5.683-1.819 8.61-2.273v-168.487c0-5.286-3.694-9.747-8.61-10.969-.853-.199-1.733-.313-2.671-.313h-33.986v.313c4.945 1.222 8.61 5.683 8.61 10.969v143.224c.369 16.113-21.114 34.612-23.984 37.483l-32.054 32.055-32.082 32.083c-2.245 2.245-4.206 4.689-5.854 7.275h36.629c1.677-2.586 3.638-5.03 5.883-7.304z" fill="#d9eeff" fill-rule="evenodd"/></g><g><path clip-rule="evenodd" d="m171.999 378.348c32.452 0 58.794-26.343 58.794-58.796 0-15.829-6.991-32.708-17.562-43.479-7.928-8.071-17.846-12.703-28.331-10.912 10.003 10.799 16.567 27.11 16.567 42.427 0 32.481-26.314 58.796-58.794 58.796-2.245 0-4.49-.114-6.706-.369 9.974 7.729 22.449 12.333 36.032 12.333z" fill="#ff6d75" fill-rule="evenodd"/></g><g><path clip-rule="evenodd" d="m315.134 123.131h30.662v-40.41h-60.812v40.41z" fill="#d9eeff" fill-rule="evenodd"/></g><g><path clip-rule="evenodd" d="m359.834 82.721c6.394 0 11.622-5.229 11.622-11.623v-51.975c0-6.394-5.229-11.623-11.622-11.623h-71.241c6.394 0 11.622 5.229 11.622 11.623v51.976c0 6.394-5.229 11.623-11.622 11.623h57.203 14.038z" fill="#ff6d75" fill-rule="evenodd"/></g><g><path d="m334.685 257.093h-53.707c-4.143 0-7.5 3.358-7.5 7.5s3.357 7.5 7.5 7.5h53.707c4.143 0 7.5-3.358 7.5-7.5s-3.358-7.5-7.5-7.5z"/><path d="m334.685 298.838h-53.707c-4.143 0-7.5 3.358-7.5 7.5s3.357 7.5 7.5 7.5h53.707c4.143 0 7.5-3.358 7.5-7.5s-3.358-7.5-7.5-7.5z"/><path d="m334.685 340.583h-53.707c-4.143 0-7.5 3.358-7.5 7.5s3.357 7.5 7.5 7.5h53.707c4.143 0 7.5-3.358 7.5-7.5s-3.358-7.5-7.5-7.5z"/><path d="m245.568 242.569c0-2.524-1.27-4.879-3.379-6.266-13.534-8.904-40.884-10.708-62.69 2.338v-15.765c0-4.142-3.357-7.5-7.5-7.5s-7.5 3.358-7.5 7.5v37.62c-11.253-2.195-22.422-.049-32.271 6.377-16.111 10.512-26.522 31.19-26.522 52.68 0 36.556 29.739 66.295 66.294 66.295s66.294-29.74 66.294-66.295c0-14.168-4.979-28.829-12.911-40.334 12.811-7.711 20.185-23.136 20.185-36.65zm-73.569 128.279c-28.283 0-51.294-23.011-51.294-51.295 0-16.3 7.925-32.422 19.719-40.117 3.791-2.473 9.086-4.784 15.633-4.784 3.884 0 8.208.813 12.921 2.887 2.381 1.034 5.179.764 7.314-.715 7.614-5.314 15.386-5.969 23.1-1.946 13.402 6.99 23.901 26.613 23.901 44.675 0 28.283-23.011 51.295-51.294 51.295zm43.131-103.206c-2.778-2.404-5.724-4.459-8.803-6.064-8.735-4.556-17.951-5.473-26.828-2.832v-1.449c15.146-14.084 38.169-15.533 50.659-10.424-1.426 7.872-6.556 17.198-15.028 20.769z"/><path d="m443.771 360.432c-9.509-9.525-22.165-14.816-35.688-14.955v-160.453c0-6.608-3.438-12.417-8.61-15.766v-5.917c0-25.803-20.581-46.873-46.177-47.672v-25.448h6.538c10.544 0 19.122-8.579 19.122-19.123v-51.975c0-10.545-8.578-19.123-19.122-19.123h-264.304c-10.545 0-19.123 8.578-19.123 19.123v51.976c0 10.544 8.578 19.123 19.123 19.123h6.509v26.004c-22.756 3.609-40.209 23.36-40.209 47.116v5.926c-5.156 3.35-8.582 9.155-8.582 15.757v240.865c0 6.591 3.426 12.388 8.582 15.733v5.95c0 26.308 21.402 47.71 47.709 47.71h195.954c.541.594 1.093 1.18 1.667 1.753 9.649 9.649 22.522 14.963 36.25 14.963 13.727 0 26.6-5.314 36.25-14.964l64.107-64.137c19.979-19.98 19.979-52.49.004-72.466zm-348.241-285.211c-2.235 0-4.123-1.888-4.123-4.123v-51.975c0-2.235 1.888-4.123 4.123-4.123h264.304c2.234 0 4.122 1.888 4.122 4.123v51.976c0 2.235-1.888 4.123-4.122 4.123h-264.304zm-18.7 88.12c0-18.037 14.673-32.71 32.709-32.71h102.499c4.143 0 7.5-3.358 7.5-7.5s-3.357-7.5-7.5-7.5h-94.999v-25.41h221.257v25.41h-93.294c-4.143 0-7.5 3.358-7.5 7.5s3.357 7.5 7.5 7.5h106.79c18.021 0 32.681 14.674 32.681 32.71v2.901h-307.643zm230.329 261.196c-1.622 1.622-3.097 3.333-4.456 5.106h-55.94c-4.143 0-7.5 3.358-7.5 7.5s3.357 7.5 7.5 7.5h48.009c-3.826 11.593-3.423 24.285 1.229 35.64h-186.462c-18.036 0-32.709-14.674-32.709-32.71v-2.929h135.208c4.143 0 7.5-3.358 7.5-7.5s-3.357-7.5-7.5-7.5h-140.037c-.266 0-.53-.039-.791-.087-1.69-.365-2.962-1.868-2.962-3.666v-240.867c0-2.05 1.719-3.782 3.753-3.782h317.301c2.05 0 3.781 1.732 3.781 3.782v162.494c-8.162 2.373-15.631 6.754-21.785 12.909l-64.137 64.11c-.001-.001-.001 0-.002 0zm61.892 61.893c-6.815 6.816-15.922 10.57-25.642 10.57-9.721 0-18.827-3.754-25.643-10.57-14.14-14.14-14.14-37.147 0-51.287l-.002.001 26.771-26.759 51.261 51.286zm64.107-64.137-26.757 26.769-51.257-51.282 26.759-26.747c6.815-6.816 15.921-10.57 25.639-10.57 9.715 0 18.812 3.752 25.617 10.57 14.132 14.133 14.132 37.127-.001 51.26z"/><path d="m124.998 62.656c4.143 0 7.5-3.358 7.5-7.5v-20.091c0-4.142-3.357-7.5-7.5-7.5s-7.5 3.358-7.5 7.5v20.091c0 4.142 3.358 7.5 7.5 7.5z"/><path d="m176.318 62.656c4.143 0 7.5-3.358 7.5-7.5v-20.091c0-4.142-3.357-7.5-7.5-7.5s-7.5 3.358-7.5 7.5v20.091c0 4.142 3.358 7.5 7.5 7.5z"/><path d="m227.668 62.656c4.143 0 7.5-3.358 7.5-7.5v-20.091c0-4.142-3.357-7.5-7.5-7.5s-7.5 3.358-7.5 7.5v20.091c0 4.142 3.358 7.5 7.5 7.5z"/><path d="m279.017 62.656c4.143 0 7.5-3.358 7.5-7.5v-20.091c0-4.142-3.357-7.5-7.5-7.5s-7.5 3.358-7.5 7.5v20.091c0 4.142 3.357 7.5 7.5 7.5z"/><path d="m330.337 62.656c4.143 0 7.5-3.358 7.5-7.5v-20.091c0-4.142-3.357-7.5-7.5-7.5s-7.5 3.358-7.5 7.5v20.091c0 4.142 3.357 7.5 7.5 7.5z"/></g></g></svg>