<svg id="Layer_1" enable-background="new 0 0 512 512" height="512" viewBox="0 0 512 512" width="512" xmlns="http://www.w3.org/2000/svg"><g><g><path clip-rule="evenodd" d="m66.381 48.971v442.234 13.295h379.238v-13.295-442.234l-185.952-15.971z" fill="#eff6ff" fill-rule="evenodd"/></g><g><path clip-rule="evenodd" d="m107.114 87.04c-10.431 11.14-9.836 28.602 1.304 39.033l37.728-40.365c-11.14-10.403-28.629-9.836-39.032 1.332z" fill="#d3cfd2" fill-rule="evenodd"/></g><g><path clip-rule="evenodd" d="m108.418 414.103c-11.14 10.432-11.735 27.893-1.304 39.033 10.403 11.14 27.892 11.735 39.032 1.332z" fill="#d3cfd2" fill-rule="evenodd"/></g><g><path clip-rule="evenodd" d="m172.791 234.839v36.794l34.95 54.114 43.142 30.529 53.347-30.529 34.95-54.114v-36.794c0-17.461-14.286-31.776-31.747-31.776h-26.843l-24.604 36.992-24.604-36.992h-26.815c-17.49 0-31.776 14.315-31.776 31.776z" fill="#fe8d94" fill-rule="evenodd"/></g><g><path clip-rule="evenodd" d="m304.23 271.633v54.114 7.767c0 9.609 7.88 17.461 17.489 17.461s17.461-7.852 17.461-17.461v-60.52-1.361z" fill="#ffeee6" fill-rule="evenodd"/></g><g><path clip-rule="evenodd" d="m208.705 477.968c-13.861 3.572-30.075 11.906-27.751 26.532h75.031v-43.399l-18.935-11.991-19.7 11.991c.001 8.448-.198 14.684-8.645 16.867z" fill="#ffeee6" fill-rule="evenodd"/></g><g><path clip-rule="evenodd" d="m255.986 461.101-9.921 23.301 9.921 20.098h75.06c2.296-14.627-13.889-22.961-27.779-26.532-8.447-2.183-8.645-8.419-8.645-16.866l-22.535-15.307z" fill="#ffeee6" fill-rule="evenodd"/></g><g><path clip-rule="evenodd" d="m172.791 291.476v42.038c0 9.609 7.852 17.461 17.461 17.461 9.638 0 17.489-7.852 17.489-17.461v-7.767-54.114h-34.95z" fill="#ffeee6" fill-rule="evenodd"/></g><g><path clip-rule="evenodd" d="m66.381 48.971h379.238v-26.306c0-8.334-6.831-15.165-15.193-15.165h-348.88c-8.334 0-15.165 6.832-15.165 15.165z" fill="#7e707d" fill-rule="evenodd"/></g><g><path clip-rule="evenodd" d="m396.694 22.665v26.306h48.925v-26.306c0-8.334-6.831-15.165-15.193-15.165h-48.925c8.362 0 15.193 6.832 15.193 15.165z" fill="#6a5c69" fill-rule="evenodd"/></g><g><path clip-rule="evenodd" d="m396.694 504.5h48.925v-13.295-442.234h-48.925z" fill="#d9eeff" fill-rule="evenodd"/></g><g><path clip-rule="evenodd" d="m365.854 85.708 37.7 40.365c11.14-10.432 11.735-27.893 1.332-39.033-10.431-11.168-27.892-11.735-39.032-1.332z" fill="#d3cfd2" fill-rule="evenodd"/></g><g><path clip-rule="evenodd" d="m403.554 414.103-37.7 40.365c11.14 10.403 28.601 9.808 39.032-1.332 10.403-11.14 9.808-28.602-1.332-39.033z" fill="#d3cfd2" fill-rule="evenodd"/></g><g><path clip-rule="evenodd" d="m192.123 301.567v24.18 7.767c0 6.803-3.94 12.728-9.666 15.619 2.353 1.191 5.017 1.842 7.795 1.842 9.638 0 17.489-7.852 17.489-17.461v-7.767-54.114h-15.619v29.934z" fill="#ffdfcf" fill-rule="evenodd"/></g><g><path clip-rule="evenodd" d="m323.562 301.567v24.18 7.767c0 6.803-3.94 12.728-9.666 15.619 2.353 1.191 5.017 1.842 7.823 1.842 9.609 0 17.461-7.852 17.461-17.461v-7.767-54.114h-15.618z" fill="#ffdfcf" fill-rule="evenodd"/></g><g><path clip-rule="evenodd" d="m339.181 271.633v-36.794c0-17.461-14.286-31.776-31.747-31.776h-15.618c17.461 0 31.747 14.315 31.747 31.776v36.794z" fill="#ff6d75" fill-rule="evenodd"/></g><g><path clip-rule="evenodd" d="m286.372 487.35c13.861 3.572 20.806 10.29 21.996 17.15h22.677c2.296-14.627-13.889-22.961-27.779-26.532-8.447-2.183-8.645-8.419-8.645-16.866h-9.297-7.625c0 8.447.198 24.066 8.673 26.248z" fill="#ffdfcf" fill-rule="evenodd"/></g><g><path clip-rule="evenodd" d="m239.347 461.101h16.639v43.399h-16.639z" fill="#ffdfcf" fill-rule="evenodd"/></g><g><path clip-rule="evenodd" d="m231.382 212.984c0 14.882 11.083 27.071 24.604 27.071s24.604-12.189 24.604-27.071v-9.921c-16.752 0-32.456 0-49.208 0z" fill="#ffdfcf" fill-rule="evenodd"/></g><g><path clip-rule="evenodd" d="m305.846 141.381-49.86-32.117-49.86 32.117v15.25c0 17.887 16.809 40.337 37.388 47.962 4.507 1.672 8.504 2.523 12.472 2.523 3.997 0 7.965-.85 12.501-2.523 20.551-7.625 37.36-30.076 37.36-47.962v-15.25z" fill="#ffeee6" fill-rule="evenodd"/></g><g><path clip-rule="evenodd" d="m255.986 132.31c-3.997 0-7.994-1.389-18.765-4.167-13.918-3.6-10.913 11.82-31.095 13.238 0-37.049 24.944-55.814 49.86-56.24 24.944.425 49.86 19.191 49.86 56.24-20.182-1.417-17.178-16.838-31.095-13.238-10.772 2.778-14.768 4.167-18.765 4.167z" fill="#7e707d" fill-rule="evenodd"/></g><g><path clip-rule="evenodd" d="m251.536 85.425c18.425 5.216 34.327 21.118 36.623 47.651 3.458 3.543 7.795 7.597 17.688 8.306 0-37.049-24.916-55.814-49.86-56.24-1.475.028-2.977.113-4.451.283z" fill="#6a5c69" fill-rule="evenodd"/></g><g><path clip-rule="evenodd" d="m231.042 197.904c2.806 2.013 5.754 3.742 8.816 5.159 1.191.567 2.409 1.077 3.657 1.531 3.231 1.191 6.208 1.984 9.099 2.324 1.105.113 2.239.198 3.373.198 2.239 0 4.507-.283 6.916-.822.028 0 .057-.028.085-.028 1.474-.34 2.976-.794 4.564-1.332 1.389-.51 2.778-1.106 4.564-1.871h.028c18.85-8.759 33.703-29.622 33.703-46.432v-15.25c-9.893-.709-14.23-4.762-17.688-8.306v15.25c0 17.887-16.837 40.337-37.388 47.962-4.507 1.672-8.504 2.523-12.5 2.523-2.382.001-4.735-.311-7.229-.906z" fill="#ffdfcf" fill-rule="evenodd"/></g><g><path clip-rule="evenodd" d="m238.1 216.244c.737.312 1.474.595 2.239.879 5.669 2.098 10.658 3.146 15.647 3.146 3.345 0 6.803-.51 10.29-1.417 1.729-.454 3.515-1.049 5.386-1.729.227-.085 1.247-.51 2.268-.935 1.134-.482 2.268-.964 2.296-.964 1.474-.709 2.92-1.446 4.365-2.239v-9.921h-8.447-.028l-1.332.567c-.935.397-2.069.879-2.296.964-1.474.539-2.891 1.02-4.309 1.389-.425.113-.85.227-1.276.312-1.616.369-3.175.595-4.734.737-.737.057-1.446.085-2.183.085-3.543 0-7.086-.68-10.998-1.984-.51-.17-.992-.368-1.474-.539-1.247-.454-2.466-.964-3.657-1.531h-8.475v9.921c1.446.794 2.891 1.531 4.365 2.239.794.34 1.559.708 2.353 1.02z" fill="#ffcebf" fill-rule="evenodd"/></g><g><path clip-rule="evenodd" d="m207.741 333.514v122.769c0 2.636 2.183 4.819 4.819 4.819h43.426 43.426c2.665 0 4.819-2.183 4.819-4.819v-122.769-7.767h-96.489v7.767z" fill="#7e707d" fill-rule="evenodd"/></g><g><path clip-rule="evenodd" d="m282.489 333.514v122.769c0 2.636-2.154 4.791-4.79 4.819h9.297 12.415c2.665 0 4.819-2.183 4.819-4.819v-122.769-7.767h-21.741z" fill="#6a5c69" fill-rule="evenodd"/></g><g><path d="m135.545 156.988h.478c4.143 0 7.5-3.358 7.5-7.5s-3.357-7.5-7.5-7.5h-.478c-4.143 0-7.5 3.358-7.5 7.5s3.357 7.5 7.5 7.5z"/><path d="m149.459 177.308h-.139c-4.143 0-7.5 3.358-7.5 7.5s3.357 7.5 7.5 7.5h.139c4.143 0 7.5-3.358 7.5-7.5s-3.357-7.5-7.5-7.5z"/><path d="m177.06 126.074v-.028c0-4.142-3.357-7.486-7.5-7.486s-7.5 3.372-7.5 7.514 3.357 7.5 7.5 7.5 7.5-3.358 7.5-7.5z"/><path d="m135.545 398.188h.046c4.143 0 7.478-3.358 7.478-7.5s-3.381-7.5-7.523-7.5-7.5 3.358-7.5 7.5 3.356 7.5 7.499 7.5z"/><path d="m149.32 362.869h.066c4.143 0 7.467-3.358 7.467-7.5s-3.391-7.5-7.533-7.5-7.5 3.358-7.5 7.5 3.358 7.5 7.5 7.5z"/><path d="m169.56 421.603h.034c4.143 0 7.482-3.358 7.482-7.5s-3.374-7.5-7.517-7.5-7.5 3.358-7.5 7.5 3.358 7.5 7.501 7.5z"/><path d="m376.427 141.988c-4.143 0-7.5 3.358-7.5 7.5s3.357 7.5 7.5 7.5h.028c4.143 0 7.486-3.358 7.486-7.5s-3.372-7.5-7.514-7.5z"/><path d="m362.651 192.308h.107c4.143 0 7.5-3.358 7.5-7.5s-3.357-7.5-7.5-7.5h-.107c-4.143 0-7.5 3.358-7.5 7.5s3.358 7.5 7.5 7.5z"/><path d="m349.912 126.045c0-4.142-3.357-7.486-7.5-7.486s-7.5 3.372-7.5 7.514 3.357 7.5 7.5 7.5 7.5-3.358 7.5-7.5z"/><path d="m376.427 398.188h.028c4.143 0 7.486-3.358 7.486-7.5s-3.372-7.5-7.515-7.5-7.5 3.358-7.5 7.5 3.358 7.5 7.501 7.5z"/><path d="m362.651 362.869h.121c4.143 0 7.5-3.358 7.5-7.5s-3.357-7.5-7.5-7.5h-.121c-4.143 0-7.5 3.358-7.5 7.5s3.358 7.5 7.5 7.5z"/><path d="m334.912 414.103c0 4.142 3.357 7.5 7.5 7.5h.089c4.143 0 7.456-3.358 7.456-7.5s-3.402-7.5-7.545-7.5-7.5 3.358-7.5 7.5z"/><path d="m430.426 0h-348.88c-12.498 0-22.665 10.167-22.665 22.666v481.834c0 4.142 3.357 7.5 7.5 7.5h379.238c4.143 0 7.5-3.358 7.5-7.5v-224.703c0-4.142-3.357-7.5-7.5-7.5s-7.5 3.358-7.5 7.5v194.133l-23.243-21.723c8.24-13.86 6.056-32.106-6.196-43.579-1.453-1.36-3.376-2.085-5.376-2.021-1.989.066-3.87.92-5.229 2.375l-37.728 40.365c-1.359 1.455-2.085 3.391-2.016 5.38.068 1.99.926 3.871 2.383 5.229 6.765 6.302 15.375 9.419 23.963 9.419 7.01 0 14.004-2.08 19.966-6.201l33.476 31.287v2.539h-99.824c-2.438-11.902-14.209-21.423-33.153-26.294-1.475-.381-2.257-.598-2.654-2.509 5.306-1.372 9.242-6.186 9.242-11.914v-99.895c3.062 1.339 6.439 2.088 9.989 2.088 13.764 0 24.961-11.198 24.961-24.961v-60.52-1.36-36.794c0-21.657-17.606-39.276-39.247-39.276h-12.379c10.965-11.255 18.291-25.823 18.291-38.932v-15.25c0-19.188-6.143-35.492-17.765-47.149-10.41-10.441-24.427-16.333-39.468-16.59-.086-.001-.17-.001-.256 0-15.03.257-29.043 6.148-39.455 16.589-11.63 11.661-17.776 27.965-17.776 47.15v15.25c0 13.111 7.33 27.678 18.3 38.932h-12.359c-21.656 0-39.275 17.619-39.275 39.276v36.794 61.88c0 13.764 11.197 24.961 24.961 24.961 3.551 0 6.928-.748 9.989-2.088v99.895c0 5.729 3.936 10.542 9.243 11.914-.396 1.911-1.178 2.128-2.65 2.508-18.948 4.882-30.711 14.402-33.138 26.295h-99.815v-2.538l33.464-31.276c5.477 3.795 11.929 5.958 18.752 6.19.41.014.819.021 1.229.021 8.927 0 17.387-3.329 23.938-9.448 1.454-1.358 2.309-3.238 2.377-5.227.067-1.989-.658-3.922-2.017-5.376l-37.728-40.365c-1.359-1.454-3.24-2.309-5.229-2.375-2.003-.079-3.924.661-5.376 2.021-6.851 6.414-10.797 15.105-11.111 24.473-.229 6.823 1.496 13.409 4.918 19.129l-23.218 21.7v-407.683l23.219 21.7c-3.423 5.722-5.148 12.307-4.919 19.128.314 9.368 4.261 18.06 11.111 24.474 1.392 1.303 3.226 2.025 5.126 2.025.083 0 .166-.001.25-.004 1.989-.066 3.87-.92 5.229-2.375l37.728-40.366c1.358-1.454 2.084-3.387 2.017-5.376-.068-1.988-.923-3.869-2.377-5.227-6.867-6.412-15.822-9.766-25.207-9.436-6.814.237-13.257 2.403-18.719 6.194l-21.948-20.512h155.828c4.143 0 7.5-3.358 7.5-7.5s-3.357-7.5-7.5-7.5h-167.337v-18.805c0-4.227 3.438-7.666 7.665-7.666h348.88c4.242 0 7.693 3.439 7.693 7.666v18.806h-162.291c-4.143 0-7.5 3.358-7.5 7.5s3.357 7.5 7.5 7.5h150.782l-21.962 20.525c-5.479-3.809-11.937-5.978-18.768-6.207-9.367-.302-18.3 3.035-25.167 9.431-1.457 1.357-2.314 3.238-2.383 5.228s.656 3.926 2.016 5.381l37.728 40.366c1.359 1.454 3.24 2.309 5.229 2.375.084.003.167.004.25.004 1.901 0 3.734-.722 5.127-2.025 12.255-11.477 14.437-29.73 6.198-43.581l23.241-21.721v178.939c0 4.142 3.357 7.5 7.5 7.5s7.5-3.358 7.5-7.5v-222.521c0-12.499-10.181-22.666-22.693-22.666zm-31.05 448.018c-5.751 6.158-14.511 7.882-21.949 5.023l25.49-27.272c3.36 7.226 2.229 16.085-3.541 22.249zm-150.891 5.584h-33.244v-120.088-.267h81.489v.267 120.088h-33.245v-82.512h2.279c4.143 0 7.5-3.358 7.5-7.5s-3.357-7.5-7.5-7.5h-19.559c-4.143 0-7.5 3.358-7.5 7.5s3.357 7.5 7.5 7.5h2.279v82.512zm73.774 43.398h-58.774v-28.398h23.946c.8 6.828 3.67 13.969 13.968 16.63 3.19.82 16.397 4.597 20.86 11.768zm9.422-163.486c0 5.493-4.469 9.961-9.961 9.961-5.508 0-9.989-4.469-9.989-9.961v-54.38h19.95zm-75.696-240.871c18.233.366 37.667 12.683 41.631 38.736-1.704-1.086-3.034-2.445-4.504-3.946-2.973-3.035-7.176-7.328-14.532-7.328-1.72 0-3.612.235-5.702.775-2.522.65-4.677 1.225-6.548 1.725-5.499 1.467-8.259 2.204-10.345 2.204-2.085 0-4.845-.737-10.343-2.204-1.872-.5-4.026-1.075-6.544-1.724-11.033-2.853-16.572 2.807-20.239 6.551-1.47 1.501-2.8 2.859-4.504 3.946 3.964-26.052 23.397-38.369 41.63-38.735zm-42.359 63.988v-8.867c8.393-2.135 12.819-6.638 15.95-9.836 3.08-3.145 3.14-3.202 5.771-2.523 2.476.639 4.59 1.203 6.427 1.693 6.55 1.749 10.158 2.711 14.211 2.711 4.054 0 7.662-.963 14.213-2.712 1.837-.49 3.95-1.054 6.431-1.694 2.629-.68 2.688-.62 5.767 2.524 3.131 3.198 7.557 7.701 15.95 9.836v8.867c0 12.775-12.191 31.49-29.001 39.466-4.351 1.732-8.583 3.52-13.359 3.519-4.689-.001-8.982-1.696-13.237-3.474-16.88-7.953-29.123-26.71-29.123-39.51zm59.464 54.206v2.147c0 10.792-7.673 19.571-17.104 19.571s-17.104-8.78-17.104-19.571v-2.157c.671.28 1.345.548 2.022.799 5.499 2.041 10.291 2.991 15.081 2.991 4.775 0 9.572-.949 15.11-2.991.669-.248 1.333-.514 1.995-.789zm-72.849 122.677c0 5.493-4.481 9.961-9.989 9.961-5.492 0-9.961-4.469-9.961-9.961v-54.38h19.95zm7.5-90.386c-4.143 0-7.5 3.358-7.5 7.5v13.505h-19.95v-29.294c0-13.386 10.89-24.276 24.275-24.276h19.315v2.421c0 19.063 14.401 34.571 32.104 34.571s32.104-15.509 32.104-34.571v-2.421h19.344c13.37 0 24.247 10.89 24.247 24.276v29.294h-19.95v-13.505c0-4.142-3.357-7.5-7.5-7.5s-7.5 3.358-7.5 7.5v67.618h-81.489v-67.618c0-4.142-3.357-7.5-7.5-7.5zm2.84 242.101c10.292-2.659 13.16-9.8 13.96-16.628h23.945v28.399h-58.758c4.451-7.164 17.659-10.948 20.853-11.771zm-101.536-59.471 25.513 27.296c-2.497.965-5.199 1.424-7.948 1.331-5.373-.183-10.35-2.444-14.021-6.375-3.673-3.923-5.597-9.039-5.417-14.404.093-2.76.736-5.418 1.873-7.848zm3.558-333.606c3.652-3.921 8.616-6.184 13.978-6.371.24-.008.479-.013.719-.013 2.519 0 4.972.462 7.262 1.35l-25.516 27.3c-1.137-2.431-1.78-5.088-1.873-7.848-.181-5.365 1.743-10.481 5.43-14.418zm290.314 22.257-25.503-27.286c2.506-.972 5.211-1.431 7.963-1.342 5.364.18 10.333 2.443 14.006 6.386 5.765 6.157 6.895 15.015 3.534 22.242z"/></g></g></svg>