<svg id="Layer_1" enable-background="new 0 0 512 512" height="512" viewBox="0 0 512 512" width="512" xmlns="http://www.w3.org/2000/svg"><g><g><path clip-rule="evenodd" d="m224.054 395.593c0 8.05 6.576 14.627 14.655 14.627h37.728c8.05 0 14.626-6.576 14.626-14.627v-14.655l-33.504-18.438-33.505 18.437z" fill="#eff6ff" fill-rule="evenodd"/></g><g><path clip-rule="evenodd" d="m254.129 440.437c-6.264 9.439-21.231 29.764-21.231 41.386 0 15.109 11.537 22.677 23.102 22.677s23.102-7.569 23.102-22.677c0-11.622-14.967-31.947-21.231-41.386-1.474-2.211-2.268-2.211-3.742 0z" fill="#a1d4ff" fill-rule="evenodd"/></g><g><path clip-rule="evenodd" d="m367.314 380.937c7.738 0 14.031-6.321 14.031-14.032v-234.057c0-68.938-56.408-125.348-125.345-125.348s-125.345 56.41-125.345 125.348v234.057c0 7.71 6.321 14.032 14.031 14.032zm-131.525-276.775h-13.833c-2.353 0-4.252-1.899-4.252-4.252v-24.18c0-2.353 1.899-4.252 4.252-4.252h13.833v-13.833c0-2.353 1.928-4.252 4.252-4.252h24.207c2.324 0 4.252 1.899 4.252 4.252v13.833h13.833c2.324 0 4.252 1.899 4.252 4.252v24.18c0 2.353-1.928 4.252-4.252 4.252h-13.833v13.833c0 2.353-1.928 4.252-4.252 4.252h-24.207c-2.324 0-4.252-1.899-4.252-4.252z" fill="#eff6ff" fill-rule="evenodd"/></g><g><path clip-rule="evenodd" d="m161.495 253.69v127.248h62.559 67.009 59.441v-127.248c0-51.988-42.519-94.507-94.505-94.507-51.957-.001-94.504 42.519-94.504 94.507z" fill="#a7e9a6" fill-rule="evenodd"/></g><g><path clip-rule="evenodd" d="m221.957 104.162h13.833v13.833c0 2.353 1.928 4.252 4.252 4.252h24.207c2.324 0 4.252-1.899 4.252-4.252v-13.833h13.833c2.324 0 4.252-1.899 4.252-4.252v-24.18c0-2.353-1.928-4.252-4.252-4.252h-13.834v-13.833c0-2.353-1.928-4.252-4.252-4.252h-24.207c-2.324 0-4.252 1.899-4.252 4.252v13.833h-13.833c-2.353 0-4.252 1.899-4.252 4.252v24.18c.001 2.353 1.9 4.252 4.253 4.252z" fill="#fe8d94" fill-rule="evenodd"/></g><g><path clip-rule="evenodd" d="m199.989 274.411c0 36.567 25.086 66.246 56.011 66.246s56.011-29.679 56.011-66.246c0-12.047-2.721-23.358-7.455-33.08 0 0-19.36 18.879-52.525 10.715s-42.462-6.236-48.811.113c-2.097 6.945-3.231 14.428-3.231 22.252z" fill="#a1d4ff" fill-rule="evenodd"/></g><g><path clip-rule="evenodd" d="m256 208.137c-24.349 0-45.07 18.369-52.78 44.022 6.349-6.35 15.647-8.277 48.811-.113 33.165 8.164 52.525-10.715 52.525-10.715-9.694-19.843-27.807-33.194-48.556-33.194z" fill="#eff6ff" fill-rule="evenodd"/></g><g><path clip-rule="evenodd" d="m243.726 209.753c17.149 3.061 31.776 15.335 40.109 32.428 1.389 2.806 2.579 5.754 3.6 8.787 11.083-3.77 17.121-9.638 17.121-9.638-9.694-19.843-27.807-33.194-48.556-33.194-4.224.001-8.334.568-12.274 1.617z" fill="#d9eeff" fill-rule="evenodd"/></g><g><path clip-rule="evenodd" d="m287.435 250.968c2.494 7.54 3.883 15.704 3.883 24.293 0 31.578-18.708 58.025-43.738 64.658 2.75.482 5.556.737 8.419.737 30.925 0 56.011-29.679 56.011-66.246 0-12.047-2.721-23.358-7.455-33.08.001.001-6.036 5.868-17.12 9.638z" fill="#86beec" fill-rule="evenodd"/></g><g><path clip-rule="evenodd" d="m243.726 159.976c46.232 6.066 82.231 45.893 82.231 93.714v127.248h24.547v-127.248c0-51.988-42.519-94.507-94.505-94.507-4.166-.001-8.248.283-12.273.793z" fill="#7fdbae" fill-rule="evenodd"/></g><g><path clip-rule="evenodd" d="m342.313 132.848v82.488c5.272 11.735 8.192 24.718 8.192 38.353v127.248h16.809c7.738 0 14.031-6.321 14.031-14.032v-234.057c0-68.938-56.408-125.348-125.345-125.348-6.633 0-13.152.51-19.53 1.531 59.781 9.439 105.843 61.512 105.843 123.817z" fill="#d9eeff" fill-rule="evenodd"/></g><g><path clip-rule="evenodd" d="m266.46 395.593c0 8.05-6.576 14.627-14.626 14.627h24.604c8.05 0 14.626-6.576 14.626-14.627v-14.655h-24.604z" fill="#d9eeff" fill-rule="evenodd"/></g><g><path clip-rule="evenodd" d="m244.123 455.46c6.888 10.261 15.477 24.066 15.477 32.882 0 6.945-2.438 12.274-6.179 16.016.85.085 1.729.142 2.579.142 11.565 0 23.102-7.569 23.102-22.677 0-11.622-14.967-31.947-21.231-41.386-1.474-2.211-2.268-2.211-3.742 0-2.466 3.713-6.293 9.127-10.006 15.023z" fill="#86beec" fill-rule="evenodd"/></g><g><path d="m232.898 270.625c-4.142 0-7.5 3.358-7.5 7.5s3.358 7.5 7.5 7.5h.023c4.142 0 7.488-3.358 7.488-7.5s-3.369-7.5-7.511-7.5z"/><path d="m261.417 303.438c0-4.142-3.401-7.5-7.543-7.5s-7.5 3.358-7.5 7.5 3.358 7.5 7.5 7.5h.086c4.143 0 7.457-3.358 7.457-7.5z"/><path d="m278.733 288.063h.133c4.142 0 7.5-3.358 7.5-7.5s-3.358-7.5-7.5-7.5h-.133c-4.142 0-7.5 3.358-7.5 7.5s3.358 7.5 7.5 7.5z"/><path d="m264.12 436.29c-.002-.004-.005-.008-.008-.012-.824-1.236-3.332-5-8.112-5s-7.288 3.763-8.12 5.011c-.769 1.158-1.67 2.482-2.661 3.937-10.03 14.732-19.822 30.08-19.822 41.596.001 19.812 15.396 30.178 30.603 30.178s30.602-10.366 30.602-30.177c0-11.517-9.792-26.864-19.822-41.596-.99-1.455-1.892-2.779-2.66-3.937zm-8.12 60.71c-5.795 0-15.602-3.197-15.602-15.177 0-7.161 9.658-21.983 15.602-30.771 5.944 8.788 15.602 23.61 15.602 30.771 0 11.98-9.807 15.177-15.602 15.177z"/><path d="m319.511 274.411c0-40.679-28.491-73.774-63.511-73.774s-63.511 33.095-63.511 73.774c0 40.664 28.491 73.746 63.511 73.746s63.511-33.082 63.511-73.746zm-63.511-58.774c15.882 0 30.006 9.295 38.861 23.631-6.73 4.232-20.876 10.457-41.036 5.495-16.364-4.028-27.94-5.912-36.63-5.582 8.858-14.285 22.955-23.544 38.805-23.544zm-48.511 58.774c0-6.308.834-12.383 2.359-18.083 3.832-2.75 11.842-4.027 40.391 3.001 6.554 1.613 12.631 2.279 18.203 2.279 14.59-.001 25.693-4.567 32.708-8.65 2.161 6.652 3.361 13.884 3.361 21.454 0 32.393-21.762 58.746-48.511 58.746s-48.511-26.354-48.511-58.747z"/><path d="m240.042 129.747h24.207c6.48 0 11.752-5.272 11.752-11.752v-6.333h6.333c6.48 0 11.752-5.272 11.752-11.752v-24.18c0-6.48-5.272-11.752-11.752-11.752h-6.334v-6.333c0-6.48-5.272-11.752-11.752-11.752h-24.207c-6.48 0-11.752 5.272-11.752 11.752v6.333h-6.333c-6.48 0-11.751 5.272-11.751 11.752v24.18c0 6.48 5.271 11.752 11.751 11.752h6.333v6.333c.001 6.48 5.273 11.752 11.753 11.752zm-14.837-33.085v-17.684h10.584c4.142 0 7.5-3.358 7.5-7.5v-10.585h17.711v10.585c0 4.142 3.358 7.5 7.5 7.5h10.584v17.684h-10.584c-4.142 0-7.5 3.358-7.5 7.5v10.585h-17.71v-10.585c0-4.142-3.358-7.5-7.5-7.5z"/><path d="m381.345 296.765c4.142 0 7.5-3.358 7.5-7.5v-156.416c0-73.253-59.594-132.849-132.845-132.849s-132.845 59.596-132.845 132.849v234.057c0 11.873 9.659 21.532 21.531 21.532h71.868v7.155c0 12.201 9.938 22.126 22.155 22.126h37.729c12.201 0 22.126-9.926 22.126-22.126v-7.155h51.941 16.809c11.873 0 21.531-9.659 21.531-21.532v-43.03c0-4.142-3.358-7.5-7.5-7.5s-7.5 3.358-7.5 7.5v43.03c0 3.602-2.93 6.532-6.531 6.532h-9.309v-119.748c0-56.247-45.759-102.007-102.005-102.007s-102.005 45.76-102.005 102.007v35.575c0 4.142 3.358 7.5 7.5 7.5s7.5-3.358 7.5-7.5v-35.575c0-47.976 39.03-87.007 87.005-87.007s87.005 39.031 87.005 87.007v119.748h-174.01v-49.562c0-4.142-3.358-7.5-7.5-7.5s-7.5 3.358-7.5 7.5v49.562h-9.309c-3.541 0-6.531-2.991-6.531-6.532v-234.057c0-64.982 52.865-117.849 117.845-117.849s117.845 52.867 117.845 117.849v156.416c0 4.142 3.358 7.5 7.5 7.5zm-149.791 91.673h52.01v7.155c0 3.93-3.197 7.126-7.126 7.126h-37.729c-3.945 0-7.155-3.197-7.155-7.126z"/></g></g></svg>