<svg id="Layer_1" enable-background="new 0 0 512 512" height="512" viewBox="0 0 512 512" width="512" xmlns="http://www.w3.org/2000/svg"><g><g><path clip-rule="evenodd" d="m18.887 306.543v155.088h115.646v-101.241l-50.867-50.723c-29.612 0-64.779-3.124-64.779-3.124z" fill="#7e707d" fill-rule="evenodd"/></g><g><path clip-rule="evenodd" d="m237.337 459.631h88.831v-24.679-128.409l-55.168 15.861-33.663 37.986z" fill="#7e707d" fill-rule="evenodd"/></g><g><path clip-rule="evenodd" d="m414.318 72.47v38.225l19.684 14.971 19.684-14.971v-38.225h50.814v-34.362h-50.813-19.684c-10.815 0-19.684 8.841-19.684 19.685v14.677z" fill="#7e707d" fill-rule="evenodd"/></g><g><path clip-rule="evenodd" d="m114.533 428.972v21.659l63.402 19.869 63.402-19.869v-21.659c12.961 0 23.461-10.529 23.461-23.49 0-12.99-10.5-23.49-23.461-23.49v-21.602l-63.402-25.121-63.402 25.121v21.602c-12.961 0-23.49 10.5-23.49 23.49.001 12.961 10.53 23.49 23.49 23.49z" fill="#eff6ff" fill-rule="evenodd"/></g><g><path clip-rule="evenodd" d="m363.505 364.939-14.505 17.561 14.505 21.809h50.813 19.684c10.815 0 19.684-8.87 19.684-19.685v-19.685-98.71l-19.683-25.729-19.684 25.729v98.71z" fill="#7e707d" fill-rule="evenodd"/></g><g><path clip-rule="evenodd" d="m363.505 404.309v-39.37c0-10.272-8.383-18.683-18.654-18.683h-18.683v76.708h18.683c10.271-.001 18.654-8.412 18.654-18.655z" fill="#a7e9a6" fill-rule="evenodd"/></g><g><path clip-rule="evenodd" d="m18.887 203.655v102.888c0 29.613 24.233 53.847 53.846 53.847h41.801 63.402 63.402 30.986c29.612 0 53.846-24.234 53.846-53.847v-102.888-103.717c0-14.077-11.502-25.607-25.607-25.607h-5.722l-122.313 139.681-122.312-139.682h-5.722c-14.077 0-25.607 11.531-25.607 25.607z" fill="#a7e9a6" fill-rule="evenodd"/></g><g><path clip-rule="evenodd" d="m92.932 214.012h79.596 79.624c11.559 0 27.466-5.465 29.641-24.72l13.046-114.962h-36.965-85.346-85.347-36.965l13.047 114.962c2.174 19.256 18.11 24.72 29.669 24.72z" fill="#eff6ff" fill-rule="evenodd"/></g><g><path clip-rule="evenodd" d="m396.894 181.338v72.073c0 7.067 5.779 12.818 12.846 12.818h4.578 39.369 4.578 13.819c7.038 0 12.818-5.751 12.818-12.818v-64.491c0-7.897 0-12.618-13.79-25.035v-40.371c0-7.039-5.779-12.818-12.846-12.818h-4.578-39.369-4.578c-7.067 0-12.846 5.78-12.846 12.818v57.824z" fill="#a7e9a6" fill-rule="evenodd"/></g><g><path d="m241.337 306.689h-126.804c-4.142 0-7.5-3.358-7.5-7.5s3.358-7.5 7.5-7.5h126.804c4.142 0 7.5 3.358 7.5 7.5s-3.358 7.5-7.5 7.5zm0-31.959h-126.804c-4.142 0-7.5-3.358-7.5-7.5s3.358-7.5 7.5-7.5h126.804c4.142 0 7.5 3.358 7.5 7.5s-3.358 7.5-7.5 7.5z"/></g><g><path clip-rule="evenodd" d="m289.89 357.443v93.188h36.279v-15.679-98.195-30.214c-.001 23.49-15.222 43.575-36.279 50.9z" fill="#6a5c69" fill-rule="evenodd"/></g><g><path clip-rule="evenodd" d="m289.89 118.077v239.365c21.058-7.325 36.279-27.41 36.279-50.9v-102.887-103.717c0-14.077-11.502-25.607-25.607-25.607h-5.722z" fill="#7fdbae" fill-rule="evenodd"/></g><g><path clip-rule="evenodd" d="m264.397 74.33-13.047 114.962c-2.203 19.256-18.111 24.72-29.67 24.72h30.471c11.559 0 27.466-5.465 29.641-24.72l8.097-71.214 4.95-43.747h-30.442z" fill="#d9eeff" fill-rule="evenodd"/></g><g><path clip-rule="evenodd" d="m14.538 482.132h315.979c3.891 0 7.038-3.176 7.038-7.038v-17.424c0-3.863-3.147-7.038-7.038-7.038h-315.979c-3.891 0-7.038 3.176-7.038 7.038v17.424c0 3.863 3.147 7.038 7.038 7.038z" fill="#a7e9a6" fill-rule="evenodd"/></g><g><path clip-rule="evenodd" d="m296.928 457.669v17.424c0 3.863-3.147 7.01-6.981 7.038h40.57c3.891 0 7.038-3.176 7.038-7.038v-17.424c0-3.863-3.147-7.038-7.038-7.038h-4.349-36.278c3.862 0 7.038 3.176 7.038 7.038z" fill="#7fdbae" fill-rule="evenodd"/></g><g><path clip-rule="evenodd" d="m453.058 188.92v64.491c0 7.067-5.779 12.818-12.818 12.818h13.447 4.578 13.819c7.038 0 12.818-5.751 12.818-12.818v-64.491c0-7.897 0-12.618-13.79-25.035v-40.371c0-7.039-5.779-12.818-12.846-12.818h-4.578-27.266c7.067 0 12.846 5.78 12.846 12.818v40.371c13.79 12.417 13.79 17.138 13.79 25.035z" fill="#7fdbae" fill-rule="evenodd"/></g><g><path clip-rule="evenodd" d="m434.003 266.229v98.71 19.685c0 10.815-8.869 19.685-19.684 19.685h19.684c10.815 0 19.684-8.87 19.684-19.685v-19.685-98.71h-13.447z" fill="#6a5c69" fill-rule="evenodd"/></g><g><path clip-rule="evenodd" d="m434.003 70.096v40.6h19.684v-38.226h50.813v-17.195l-52.873.257c-10.729-.257-17.624 5.522-17.624 14.564z" fill="#6a5c69" fill-rule="evenodd"/></g><g><path clip-rule="evenodd" d="m133.445 141.854c0 21.573 17.51 39.084 39.083 39.084s39.082-17.51 39.082-39.084-17.51-39.084-39.082-39.084-39.083 17.511-39.083 39.084z" fill="#a1d4ff" fill-rule="evenodd"/></g><g><path d="m115.479 397.982h-.174c-4.142 0-7.5 3.358-7.5 7.5s3.358 7.5 7.5 7.5h.174c4.142 0 7.5-3.358 7.5-7.5s-3.357-7.5-7.5-7.5z"/><path d="m240.564 412.982h.197c4.142 0 7.5-3.358 7.5-7.5s-3.358-7.5-7.5-7.5h-.197c-4.142 0-7.5 3.358-7.5 7.5s3.358 7.5 7.5 7.5z"/><path d="m504.5 30.608h-70.497c-14.989 0-27.185 12.195-27.185 27.185v45.638c-9.836 1.423-17.424 9.874-17.424 20.084v45.006c0 4.142 3.357 7.5 7.5 7.5s7.5-3.358 7.5-7.5v-45.006c0-2.882 2.448-5.318 5.346-5.318h48.524c2.898 0 5.347 2.436 5.347 5.318v40.371c0 2.125.901 4.151 2.481 5.573 11.309 10.183 11.309 12.899 11.309 19.462v64.491c0 2.932-2.386 5.318-5.317 5.318h-62.344c-2.947 0-5.346-2.386-5.346-5.318v-49.155c0-4.142-3.357-7.5-7.5-7.5s-7.5 3.358-7.5 7.5v49.155c0 10.21 7.588 18.661 17.424 20.084v83.945h-36.911c-3.23-10.793-13.237-18.684-25.055-18.684h-11.184v-32.213-206.606c0-18.255-14.852-33.107-33.106-33.107h-37.373l-10.338-29.424c-3.878-11.087-14.21-15.038-22.586-15.038h-115.446c-8.006 0-18.732 3.938-22.612 15.028l-10.34 29.433h-37.373c-18.255 0-33.107 14.852-33.107 33.107v206.605 136.942c-6.505 1.445-11.387 7.252-11.387 14.185v17.424c0 8.017 6.522 14.539 14.538 14.539h315.979c8.017 0 14.538-6.522 14.538-14.539v-17.424c0-6.934-4.882-12.74-11.388-14.185v-13.021h11.184c11.816 0 21.821-7.878 25.053-18.655h64.098c14.989 0 27.185-12.195 27.185-27.185v-110.894h10.896c11.203 0 20.317-9.115 20.317-20.318v-64.491c0-9.335-.701-15.892-13.79-28.317v-37.089c0-10.21-7.588-18.661-17.424-20.084v-23.46h43.314c4.143 0 7.5-3.358 7.5-7.5v-34.362c0-4.142-3.357-7.5-7.5-7.5zm-398.137 11.75c1.62-4.631 6.882-4.991 8.456-4.991h115.445c1.567 0 6.808.36 8.431 5l8.594 24.462h-149.523zm-79.976 57.58c0-9.657 7.605-17.55 17.138-18.058l12.285 108.254c2.615 23.161 21.632 31.378 37.122 31.378h61.17c4.142 0 7.5-3.358 7.5-7.5s-3.358-7.5-7.5-7.5h-61.17c-6.067 0-20.376-1.76-22.217-18.066l-12.099-106.616h227.824l-12.099 106.62c-1.842 16.302-16.131 18.062-22.189 18.062h-64.747c-4.142 0-7.5 3.358-7.5 7.5s3.358 7.5 7.5 7.5h64.747c15.477 0 34.478-8.218 37.093-31.375l12.285-108.258c9.533.508 17.138 8.401 17.138 18.058v206.605c0 25.556-20.791 46.347-46.346 46.347h-30.985-126.804-41.8c-25.555 0-46.346-20.791-46.346-46.347zm88.146 321.534c-8.816 0-15.989-7.173-15.989-15.99s7.173-15.99 15.989-15.99c4.142 0 7.5-3.358 7.5-7.5v-14.102h111.804v14.102c0 4.142 3.358 7.5 7.5 7.5 8.801 0 15.961 7.173 15.961 15.99s-7.16 15.99-15.961 15.99c-4.142 0-7.5 3.358-7.5 7.5v14.159h-111.804v-14.159c0-4.142-3.358-7.5-7.5-7.5zm134.304 14.08c13.46-3.364 23.461-15.57 23.461-30.07s-10.001-26.707-23.461-30.071v-7.521h23.485c18.494 0 35.089-8.238 46.346-21.223v96.464h-69.831zm-222.45-88.885c11.257 12.985 27.852 21.223 46.346 21.223h34.3v7.52c-13.476 3.362-23.489 15.57-23.489 30.073s10.014 26.71 23.489 30.072v7.577h-80.646zm303.669 127.965h-315.056v-16.501h315.056zm25.95-70.323c0 6.151-5.004 11.155-11.154 11.155h-11.184v-61.708h11.184c6.15 0 11.154 5.017 11.154 11.184zm90.182-19.685c0 6.719-5.466 12.185-12.185 12.185h-62.997v-24.37h43.313c4.143 0 7.5-3.358 7.5-7.5v-91.21h24.369zm50.812-319.654h-43.313c-4.143 0-7.5 3.358-7.5 7.5v30.726h-24.369v-45.404c0-6.719 5.466-12.185 12.185-12.185h62.997z"/><path d="m219.11 141.854c0-25.686-20.897-46.583-46.583-46.583s-46.583 20.897-46.583 46.583c0 25.687 20.897 46.584 46.583 46.584s46.583-20.898 46.583-46.584zm-54.082 21.859v8.817c-11.399-2.788-20.388-11.777-23.175-23.177h8.816c4.142 0 7.5-3.358 7.5-7.5s-3.358-7.5-7.5-7.5h-8.816c2.788-11.4 11.776-20.388 23.175-23.176v8.817c0 4.142 3.358 7.5 7.5 7.5s7.5-3.358 7.5-7.5v-8.817c11.399 2.788 20.388 11.776 23.175 23.176h-8.817c-4.142 0-7.5 3.358-7.5 7.5s3.358 7.5 7.5 7.5h8.817c-2.788 11.4-11.776 20.389-23.175 23.177v-8.817c0-4.142-3.358-7.5-7.5-7.5s-7.5 3.358-7.5 7.5z"/></g></g></svg>