<svg id="Layer_1" enable-background="new 0 0 512 512" height="512" viewBox="0 0 512 512" width="512" xmlns="http://www.w3.org/2000/svg"><g><g><path clip-rule="evenodd" d="m92.611 29.702c-88.177 45.81-64.377 128.785-56.472 204.082 88.766 160.546 104.625 182.436 206.835 267.096 46.69 9.725 94.347-2.303 164.837-8.161 81.295-6.768 93.608-118.435 58.064-161.458-35.544-42.995-52.69-37.677-63.893-159.609-13.193-171.41-220.057-188.357-309.371-141.95z" fill="#a1d4ff" fill-rule="evenodd"/></g><g><path clip-rule="evenodd" d="m38.215 270.694c1.535 90.966 76.49 207.211 172.657 219.751 34.518-95.119-54.508-228.619-136.003-240.846-8.985-1.337-31.792 9.664-36.654 21.095z" fill="#eff6ff" fill-rule="evenodd"/></g><g><path clip-rule="evenodd" d="m85.133 33.825c98.157-31.45 271.155-3.583 283.183 152.7 11.203 121.932 28.35 116.615 63.893 159.609 28.264 34.208 26.274 111.809-16.578 145.562 74.243-13.024 84.622-118.833 50.244-160.434-35.544-42.995-52.69-37.677-63.893-159.609-13.193-171.411-220.057-188.358-309.371-141.951-2.588 1.336-5.09 2.73-7.478 4.123z" fill="#86beec" fill-rule="evenodd"/></g><g><path clip-rule="evenodd" d="m64.688 258.097c81.494 12.227 155.027 143.458 146.184 232.348 10.834 4.834 21.44 8.218 32.103 10.436 22.037-138.027-111.522-311.911-206.836-267.097 1.223 11.602 2.076 23.033 2.076 34.094v2.815c4.862-11.43 17.488-13.933 26.473-12.596z" fill="#fde588" fill-rule="evenodd"/></g><g><path clip-rule="evenodd" d="m39.921 292.533c71.485-.626 126.734 108.766 138.137 189.467 10.578 4.095 21.554 6.995 32.814 8.445 8.843-88.89-64.689-220.12-146.184-232.348-8.985-1.336-21.611 1.166-26.473 12.597.142 7.137.711 14.445 1.706 21.839z" fill="#d9eeff" fill-rule="evenodd"/></g><g><path d="m265.31 92.439c-29.455-23.792-59.918-27.744-68.553-28.389-4.149-.304-7.73 2.79-8.039 6.921-.308 4.131 2.79 7.73 6.922 8.038 7.54.563 34.167 4.037 60.244 25.099 29.744 24.025 48.097 61.86 54.547 112.453.482 3.788 3.71 6.553 7.43 6.553.316 0 .637-.02.958-.061 4.11-.524 7.016-4.28 6.492-8.39-6.954-54.561-27.142-95.683-60.001-122.224z"/><path d="m471.657 326.482c-6.439-7.787-12.326-14.065-17.519-19.604-20.691-22.066-32.087-34.221-40.795-100.319-.541-4.108-4.323-6.994-8.416-6.457-4.107.541-6.998 4.309-6.457 8.416 9.338 70.881 23.415 85.894 44.724 108.621 5.043 5.379 10.76 11.476 16.899 18.901 19.129 23.154 22.776 68.211 8.302 102.577-8.27 19.636-25.602 43.665-61.204 46.629-20.703 1.719-39.817 4.013-56.681 6.036-38.431 4.611-69.357 8.309-99.115 3.495 2.439-20.024 1.872-40.447-1.138-60.659 43.798-10.164 69.958-5.795 97.257 4.564.876.333 1.776.49 2.66.49 3.026 0 5.877-1.844 7.013-4.842 1.47-3.873-.479-8.204-4.351-9.674-28.963-10.991-58.272-16.061-105.212-5.324-3.327-16.017-8.124-31.8-14.09-47.045 38.304-30.828 56.177-35.241 84.589-37.269 4.131-.295 7.242-3.884 6.948-8.015-.295-4.133-3.902-7.251-8.016-6.948-31.186 2.226-52.196 8.407-89.556 37.863-8.925-19.855-19.777-38.565-31.871-55.394 10.379-34.041 31.529-59.634 48.629-80.324l2.201-2.666c2.636-3.196 2.183-7.923-1.013-10.559-3.195-2.636-7.923-2.183-10.559 1.013l-2.194 2.655c-16.307 19.731-36.115 43.707-48.032 75.545-12.922-15.854-26.904-29.558-41.232-40.334-4.773-3.589-9.559-6.846-14.343-9.769 2.62-17.019 8.289-35.707 16.877-55.613 1.641-3.804-.112-8.218-3.916-9.858-3.805-1.64-8.218.113-9.858 3.916-8.349 19.356-13.951 37.11-17.034 53.989-25.32-12.059-50.228-14.63-72.648-7.311-.724-6.084-1.507-12.158-2.284-18.172-8.7-67.292-16.914-130.852 55.847-168.678 52.202-27.123 147.7-32.105 217.156 6.507 48.745 27.099 76.85 71.832 81.28 129.363.317 4.13 3.911 7.214 8.054 6.903 4.131-.318 7.221-3.924 6.903-8.055-4.833-62.792-35.59-111.66-88.947-141.323-43.623-24.251-90.439-29.563-122.031-29.748-.567-.003-1.135-.005-1.703-.005-40.242 0-79.385 8.37-107.63 23.047-36.818 19.14-58.435 46.348-66.086 83.178-6.623 31.882-2.099 66.884 2.277 100.734 2.763 21.378 5.373 41.571 5.373 60.92 0 95.231 77.711 215.992 178.099 229.858 24.4 10.709 48.004 14.264 72.951 14.264 21.986 0 45.014-2.763 70.532-5.824 17.554-2.106 35.706-4.284 56.137-5.981 33.618-2.799 59.821-22.6 73.787-55.756 16.725-39.713 12.184-90.422-10.564-117.958zm-377.495 77.784c-29.307-40.292-47.201-89.245-48.38-131.92 3.875-6.853 12.855-7.56 17.791-6.832 31.248 4.696 64.854 29.951 92.203 69.29 1.457 2.096 3.792 3.22 6.166 3.22 1.477 0 2.97-.435 4.275-1.342 3.401-2.364 4.242-7.039 1.877-10.44-30.131-43.342-66.459-70.176-102.306-75.564-6.64-.984-14.051-.213-20.496 2.789-.272-4.938-.663-9.923-1.135-14.928 26.625-10.065 58.443-2.617 90.254 21.306 59.411 44.68 112.57 142.395 102.257 231.805-5.953-1.581-11.902-3.56-17.897-5.998 2.423-38.717-9.133-85.291-32.118-128.829-1.935-3.663-6.469-5.067-10.136-3.131-3.662 1.934-5.065 6.471-3.131 10.135 21.14 40.042 32.076 82.485 30.574 117.902-40.224-7.811-78.948-35.051-109.798-77.463z"/></g></g></svg>