<svg id="Layer_1" enable-background="new 0 0 512 512" height="512" viewBox="0 0 512 512" width="512" xmlns="http://www.w3.org/2000/svg"><g><g><path clip-rule="evenodd" d="m19.133 446.804c-33.476 33.477 12.585 79.541 46.062 46.063l21.231-21.232-13.935-34.115-32.127-11.949z" fill="#e0dfe1" fill-rule="evenodd"/></g><g><path clip-rule="evenodd" d="m44.219 471.891c-11.48 11.48-24.434 13.606-35.177 10.091 6.746 20.551 34.156 32.882 56.153 10.885l21.231-21.232-20.976-20.976z" fill="#d3cfd2" fill-rule="evenodd"/></g><g><path clip-rule="evenodd" d="m353.668 16.727 60.525 82.559 81.061 59.062c12.302-12.331 12.302-32.485 0-44.788l-96.829-96.832c-12.301-12.303-32.455-12.303-44.757-.001z" fill="#fe8d94" fill-rule="evenodd"/></g><g><path clip-rule="evenodd" d="m353.668 16.727-191.787 191.794c-43.369 43.399-25.936 77.075-44.077 122.656 0 25.669 4.404 34.545 14.199 45.507 9.055 10.133 23.805 11.64 46.744 18.358 46.657-19.531 80.7-.879 124.721-44.93l191.786-191.766z" fill="#eff6ff" fill-rule="evenodd"/></g><g><path clip-rule="evenodd" d="m378.045 109.421c-6.803 6.803-6.803 17.83 0 24.633 6.831 6.803 17.858 6.803 24.661 0s6.803-17.83 0-24.633-17.83-6.803-24.661 0z" fill="#7e707d" fill-rule="evenodd"/></g><g><path clip-rule="evenodd" d="m287.311 161.692-59.044 59.046c-17.319 17.32-17.319 45.667 0 62.986 17.348 17.32 45.693 17.32 63.012 0l59.016-59.046c17.319-17.32 17.319-45.667 0-62.986-17.319-17.32-45.665-17.32-62.984 0z" fill="#a1d4ff" fill-rule="evenodd"/></g><g><path clip-rule="evenodd" d="m117.804 331.177c-6.661 16.753-18.141 35.065-39.145 56.07l-1.049 1.077 12.926 37.248 33.136 8.816 1.077-1.049c20.154-20.155 37.841-31.522 53.998-38.296-11.083-31.494-27.297-50.571-60.943-63.866z" fill="#e0dfe1" fill-rule="evenodd"/></g><g><path clip-rule="evenodd" d="m55.68 397.409h52.675v65.142h-52.675z" fill="#fe8d94" fill-rule="evenodd" transform="matrix(.707 -.707 .707 .707 -280.024 183.941)"/></g><g><path clip-rule="evenodd" d="m167.409 370.494c4.422 7.228 8.107 15.364 11.338 24.548 46.657-19.531 80.7-.879 124.721-44.93l191.786-191.766-21.004-21.005-191.758 191.795c-40.959 40.933-73.245 27.695-115.083 41.358z" fill="#d9eeff" fill-rule="evenodd"/></g><g><path clip-rule="evenodd" d="m68.223 427.691h52.675v29.665h-52.675z" fill="#ff6d75" fill-rule="evenodd" transform="matrix(.707 -.707 .707 .707 -285.22 196.484)"/></g><g><path clip-rule="evenodd" d="m157.771 374.066c-16.185 6.775-33.873 18.142-54.027 38.268l-1.049 1.077 20.976 20.977 1.077-1.049c20.154-20.155 37.841-31.522 53.998-38.296-3.231-9.184-6.916-17.32-11.338-24.577-3.146 1.049-6.377 2.239-9.637 3.6z" fill="#d3cfd2" fill-rule="evenodd"/></g><g><path clip-rule="evenodd" d="m267.242 261.614c-12.784 12.813-31.605 16.158-47.536 10.035 2.098 4.365 4.96 8.476 8.56 12.076 17.348 17.32 45.693 17.32 63.012 0l59.016-59.046c17.319-17.32 17.319-45.667 0-62.986-4.535-4.535-9.808-7.88-15.448-10.035 7.993 16.583 5.131 37.219-8.589 50.939z" fill="#86beec" fill-rule="evenodd"/></g><g><path clip-rule="evenodd" d="m474.307 92.611c12.274 12.302 12.245 32.429-.057 44.731l21.004 21.005c12.302-12.331 12.302-32.485 0-44.788l-20.947-20.92z" fill="#ff6d75" fill-rule="evenodd"/></g><g><path d="m296.584 289.026 59.014-59.044c20.289-20.29 20.289-53.304 0-73.594-9.793-9.793-22.86-15.186-36.795-15.186s-27.003 5.393-36.792 15.183l-20.352 20.325c-2.931 2.927-2.934 7.676-.007 10.607 2.928 2.931 7.675 2.934 10.607.007l20.356-20.327c6.96-6.96 16.261-10.793 26.189-10.793s19.229 3.833 26.189 10.793c14.44 14.441 14.44 37.938-.001 52.381l-59.015 59.045c-14.436 14.438-37.947 14.437-52.405-.001-14.441-14.441-14.441-37.938 0-52.379l14.23-14.23c2.929-2.93 2.929-7.678 0-10.608-2.929-2.928-7.678-2.928-10.606 0l-14.23 14.23c-9.793 9.793-15.187 22.862-15.187 36.797 0 13.936 5.394 27.004 15.19 36.801 10.156 10.14 23.485 15.209 36.816 15.208 13.328-.001 26.658-5.073 36.799-15.215z"/><path d="m182.52 292.821c-2.929-2.928-7.678-2.928-10.606 0-2.929 2.93-2.929 7.678 0 10.608l38.493 38.495c1.464 1.464 3.384 2.196 5.303 2.196s3.839-.732 5.303-2.196c2.929-2.93 2.929-7.678 0-10.608z"/><path d="m408.009 139.358c9.716-9.716 9.716-25.525 0-35.241-9.703-9.703-25.519-9.708-35.267 0-4.707 4.707-7.299 10.965-7.299 17.62s2.592 12.913 7.31 17.631c4.867 4.847 11.252 7.27 17.633 7.27 6.387 0 12.77-2.428 17.623-7.28zm-24.661-10.608c-3.867-3.866-3.867-10.159-.011-14.015 1.947-1.939 4.5-2.908 7.049-2.908 2.544 0 5.085.966 7.016 2.898 3.867 3.866 3.867 10.159 0 14.026-3.866 3.867-10.175 3.863-14.054-.001z"/><path d="m500.557 108.256-96.829-96.833c-7.366-7.366-17.197-11.423-27.682-11.423-10.479 0-20.306 4.053-27.671 11.414-.003.003-.007.006-.01.009-.002.002-.003.003-.005.005l-191.782 191.79c-29.41 29.41-32.71 55.601-35.901 80.929-3.578 28.399-7.278 57.766-47.323 97.798l-59.525 59.556c-11.752 11.752-16.317 26.611-12.524 40.765 3.65 13.621 14.81 24.781 28.43 28.43 3.265.874 6.564 1.305 9.857 1.304 10.983 0 21.864-4.788 30.905-13.828l59.556-59.53c40.028-40.045 69.393-43.745 97.791-47.323 25.327-3.191 51.517-6.491 80.927-35.902l56.492-56.494c2.929-2.93 2.929-7.678 0-10.608-2.929-2.928-7.678-2.928-10.606 0l-56.492 56.494c-25.776 25.778-47.288 28.489-72.196 31.628-13.296 1.675-27.392 3.453-42.871 8.91-11.476-28.415-28.265-45.951-55.812-58.302 4.962-14.754 6.666-28.257 8.274-41.022 3.139-24.909 5.849-46.421 31.625-72.199l186.483-186.49 130.978 131.01c-30.011 29.989-67.624 67.603-104.183 104.163l-3.866 3.866c-2.929 2.93-2.929 7.678 0 10.608 2.929 2.928 7.678 2.928 10.607 0l3.867-3.867c38.739-38.74 78.674-78.675 109.487-109.463.002-.002.005-.005.007-.007 15.25-15.287 15.247-40.134-.008-55.388zm-440.666 379.308c-7.976 7.976-17.306 11.045-26.274 8.643-8.539-2.288-15.535-9.284-17.823-17.824-2.403-8.968.666-18.3 8.644-26.278l15.922-15.93 35.463 35.464zm26.535-26.536-35.456-35.456 26.64-26.641 35.455 35.457zm82.828-69.908c-13.925 6.734-28.978 16.901-45.52 32.722l-35.578-35.579c16.487-17.24 26.834-32.862 33.554-47.277 23.628 10.729 37.633 25.508 47.544 50.134zm325.142-244.238-129.269-129.301c9.063-4.589 20.432-3.115 27.995 4.449l96.829 96.834c7.562 7.562 9.033 18.943 4.445 28.018z"/></g></g></svg>