<svg id="Layer_1" enable-background="new 0 0 512 512" height="512" viewBox="0 0 512 512" width="512" xmlns="http://www.w3.org/2000/svg"><g><g><path clip-rule="evenodd" d="m53.5 39.673v432.625l154.496 16.101 142.916-16.101c0-159.109 0-250.045 0-432.625 0-17.688-14.475-32.173-32.152-32.173h-53.483l-63.057 34.044-63.086-34.044h-53.482c-17.677 0-32.152 14.485-32.152 32.173z" fill="#eff6ff" fill-rule="evenodd"/></g><g><path clip-rule="evenodd" d="m139.134 7.5v21.288c0 7.002 5.751 12.756 12.747 12.756h100.649c7.025 0 12.747-5.754 12.747-12.756v-21.288z" fill="#7e707d" fill-rule="evenodd"/></g><g><path clip-rule="evenodd" d="m113.101 231.92 76.258 165.771c8.725 18.964 31.359 27.326 50.31 18.595l30.141-13.89c3.428-1.587 4.957-5.669 3.371-9.099l-26.486-57.572c-1.586-3.43-5.326-3.6-9.093-3.345l-20.056 1.389-37.591-81.723 14.107-14.343c2.634-2.693 4.929-5.669 3.343-9.099l-26.486-57.572c-1.558-3.43-5.666-4.932-9.093-3.345l-30.141 13.89c-18.952 8.73-27.309 31.379-18.584 50.343z" fill="#7e707d" fill-rule="evenodd"/></g><g><path clip-rule="evenodd" d="m281.169 287.422c0 11.622 4.901 22.139 12.719 29.622l-2.096 29.055 30.622-17.717h28.498 66.683c22.492 0 40.905-18.425 40.905-40.961v-95.556c0-22.507-18.413-40.932-40.905-40.932h-66.683-28.809c-22.52 0-40.933 18.425-40.933 40.932v95.557z" fill="#fde588" fill-rule="evenodd"/></g><g><path clip-rule="evenodd" d="m328.25 223.472v29.225c0 2.835 2.323 5.131 5.156 5.131h16.685v16.724c0 1.02.312 1.984.822 2.778.935 1.417 2.521 2.353 4.334 2.353h29.206c2.804 0 5.127-2.296 5.127-5.131v-16.724h16.713c2.804 0 5.127-2.296 5.127-5.131v-29.225c0-2.835-2.323-5.131-5.127-5.131h-16.713v-16.725c0-2.835-2.323-5.131-5.127-5.131h-29.206c-1.813 0-3.399.935-4.334 2.353-.51.794-.822 1.757-.822 2.778v16.725h-16.685c-2.834.001-5.156 2.297-5.156 5.131z" fill="#fe8d94" fill-rule="evenodd"/></g><g><path clip-rule="evenodd" d="m53.5 472.298c0 17.717 14.475 32.202 32.152 32.202h233.108c17.676 0 32.152-14.485 32.152-32.202z" fill="#7e707d" fill-rule="evenodd"/></g><g><path clip-rule="evenodd" d="m430.994 191.866v95.556c0 22.535-18.413 40.961-40.905 40.961h27.506c22.492 0 40.905-18.425 40.905-40.961v-95.556c0-22.507-18.413-40.932-40.905-40.932h-27.506c22.492 0 40.905 18.425 40.905 40.932z" fill="#fdd76f" fill-rule="evenodd"/></g><g><path clip-rule="evenodd" d="m317.372 39.673v111.515c1.558-.17 3.116-.255 4.731-.255h28.809v-111.26c0-17.688-14.475-32.173-32.152-32.173h-33.54c17.676 0 32.152 14.485 32.152 32.173z" fill="#d9eeff" fill-rule="evenodd"/></g><g><path clip-rule="evenodd" d="m317.372 331.303v140.995h33.54v-143.915h-28.498z" fill="#d9eeff" fill-rule="evenodd"/></g><g><path clip-rule="evenodd" d="m317.372 472.298c0 17.717-14.475 32.202-32.152 32.202h33.54c17.676 0 32.152-14.485 32.152-32.202z" fill="#6a5c69" fill-rule="evenodd"/></g><g><path clip-rule="evenodd" d="m151.91 179.79 21.444 46.602c1.586 3.43-.708 6.406-3.343 9.099l-14.107 14.343 48.469 105.364 20.056-1.389c3.768-.255 7.535-.057 9.093 3.345l20.651 44.901c1.586 3.402.085 7.483-3.343 9.071l18.98-8.731c3.428-1.587 4.957-5.669 3.371-9.099l-26.486-57.572c-1.586-3.43-5.326-3.6-9.093-3.345l-20.056 1.389-37.591-81.723 14.107-14.343c2.634-2.693 4.929-5.669 3.343-9.099l-26.486-57.572c-1.558-3.43-5.666-4.932-9.093-3.345l-18.98 8.731c-3.428 1.587 7.506-.057 9.064 3.373z" fill="#6a5c69" fill-rule="evenodd"/></g><g><path clip-rule="evenodd" d="m233.069 28.788c0 7.002-5.722 12.756-12.719 12.756h32.18c7.025 0 12.747-5.754 12.747-12.756v-21.288h-32.209v17.376 3.912z" fill="#6a5c69" fill-rule="evenodd"/></g><g><path d="m106.288 235.055 76.258 165.771c5.057 10.992 14.125 19.367 25.533 23.583 5.159 1.906 10.505 2.855 15.832 2.855 6.454 0 12.877-1.394 18.896-4.167l30.153-13.896c7.194-3.33 10.346-11.878 7.034-19.039l-26.493-57.586c-3.942-8.522-13.322-7.885-16.418-7.679l-14.888 1.031-33.263-72.314 10.49-10.666c2.164-2.211 8.747-8.938 4.796-17.479l-26.472-57.54c-1.582-3.482-4.438-6.138-8.043-7.475-3.62-1.343-7.537-1.19-11.018.421l-30.14 13.89c-22.746 10.478-32.731 37.524-22.257 60.29zm58.093-60.288 25.783 56.044c-.262.348-.705.871-1.45 1.633l-14.107 14.344c-2.185 2.222-2.769 5.563-1.466 8.393l37.59 81.723c1.303 2.833 4.236 4.563 7.332 4.349l20.044-1.389c1.08-.072 1.774-.071 2.214-.046l25.777 56.031-29.568 13.626c-7.346 3.383-15.604 3.689-23.252.865-7.649-2.827-13.724-8.433-17.106-15.783l-76.258-165.771c-7.018-15.255-.331-33.377 14.909-40.397z"/><path d="m417.595 143.434h-59.183v-103.761c0-21.876-17.788-39.673-39.652-39.673h-53.482-126.144-53.482c-21.864 0-39.652 17.797-39.652 39.673v196.329c0 4.143 3.358 7.5 7.5 7.5s7.5-3.357 7.5-7.5v-196.329c0-13.605 11.059-24.673 24.652-24.673h45.982v13.788c0 11.169 9.083 20.256 20.248 20.256h100.648c11.165 0 20.248-9.087 20.248-20.256v-13.788h45.982c13.593 0 24.652 11.068 24.652 24.673v103.761h-21.309c-26.707 0-48.434 21.727-48.434 48.433v95.556c0 12.105 4.412 23.49 12.497 32.432l-1.854 25.706c-.2 2.771 1.147 5.425 3.502 6.897 1.215.761 2.596 1.143 3.979 1.143 1.296 0 2.593-.335 3.756-1.008l28.879-16.709h18.984v128.915h-282.412v-194.158c0-4.143-3.358-7.5-7.5-7.5s-7.5 3.357-7.5 7.5v201.657c0 21.891 17.788 39.702 39.652 39.702h233.108c21.864 0 39.652-17.811 39.652-39.702v-136.415h19.156c4.142 0 7.5-3.357 7.5-7.5s-3.358-7.5-7.5-7.5h-55.154c-1.319 0-2.614.348-3.756 1.008l-18.367 10.627 1.077-14.934c.161-2.229-.68-4.413-2.294-5.958-6.71-6.423-10.405-15.019-10.405-24.204v-95.556c0-18.435 14.998-33.433 33.434-33.433h95.492c18.42 0 33.405 14.998 33.405 33.433v95.556c0 18.45-14.985 33.461-33.405 33.461h-5.438c-4.142 0-7.5 3.357-7.5 7.5s3.358 7.5 7.5 7.5h5.438c26.691 0 48.405-21.739 48.405-48.461v-95.556c0-26.706-21.714-48.432-48.405-48.432zm-159.818-114.646c0 2.898-2.354 5.256-5.248 5.256h-100.647c-2.844 0-5.248-2.407-5.248-5.256v-13.788h111.143zm60.983 468.212h-233.108c-10.984 0-20.31-7.237-23.487-17.202h280.081c-3.176 9.965-12.502 17.202-23.486 17.202z"/><path d="m418.919 252.697v-29.225c0-6.965-5.665-12.631-12.627-12.631h-9.213v-9.225c0-6.965-5.665-12.631-12.627-12.631h-29.206c-6.978 0-12.655 5.666-12.655 12.631v9.225h-9.185c-6.979 0-12.656 5.666-12.656 12.631v29.225c0 6.965 5.677 12.631 12.656 12.631h9.185v9.225c0 6.965 5.677 12.631 12.655 12.631h29.206c6.963 0 12.627-5.666 12.627-12.631v-9.225h9.213c6.963 0 12.627-5.666 12.627-12.631zm-15-2.369h-14.34c-4.142 0-7.5 3.357-7.5 7.5v14.355h-24.489v-14.355c0-4.143-3.358-7.5-7.5-7.5h-14.34v-24.486h14.341c4.142 0 7.5-3.357 7.5-7.5v-14.355h24.489v14.355c0 4.143 3.358 7.5 7.5 7.5h14.34v24.486z"/><path d="m132.768 117.314c0 4.143 3.358 7.5 7.5 7.5h121.752c4.142 0 7.5-3.357 7.5-7.5s-3.358-7.5-7.5-7.5h-121.752c-4.143 0-7.5 3.358-7.5 7.5z"/><path d="m244.768 89.637c4.142 0 7.5-3.357 7.5-7.5s-3.358-7.5-7.5-7.5h-87.221c-4.142 0-7.5 3.357-7.5 7.5s3.358 7.5 7.5 7.5z"/></g></g></svg>