<svg id="Layer_1" enable-background="new 0 0 512 512" height="512" viewBox="0 0 512 512" width="512" xmlns="http://www.w3.org/2000/svg"><g><g><path clip-rule="evenodd" d="m253.496 78.062c-67.133.589-152.622 101.152-177.179 179.906-4.519 14.51-6.988 28.291-6.876 40.556.168 19.59 6.848 40.051 18.018 59.726 15.296 33.848 67.723 69.059 81.868 83.077 28.459 17.738 59.163 28.712 86.667 28.487 27.533-.253 58.18-11.704 86.414-29.863 14.742-11.433 64.804-65.121 79.51-82.095 11.535-20.376 18.299-41.595 18.131-61.802-.14-17.036-5.22-36.907-13.893-57.564-31.461-75.134-110.354-160.961-172.66-160.428z" fill="#e0dfe1" fill-rule="evenodd"/></g><g><path clip-rule="evenodd" d="m171.993 355.78c-17.934-17.963-44.204-20.797-58.657-6.371l-8.56 8.56c14.959 1.965 63.064 50.071 65.028 65.03l8.56-8.56c14.426-14.454 11.591-40.724-6.371-58.659z" fill="#6a5c69" fill-rule="evenodd"/></g><g><path clip-rule="evenodd" d="m147.773 380.001c-12.602-12.63-28.038-20.068-42.997-22.032-5.922-.786-11.76-.674-17.317.281-9.346 1.656-17.878 5.782-24.642 12.546l-26.185 26.186c21.926 29.572 72.235 76.713 94.161 94.163l26.185-26.186c6.511-6.511 10.581-14.679 12.349-23.632 1.151-5.866 1.291-12.069.477-18.327-1.964-14.96-9.402-30.397-22.031-42.999z" fill="#7e707d" fill-rule="evenodd"/></g><g><path clip-rule="evenodd" d="m102.755 392.098c-23.238-12.518-49.845-11.367-66.123 4.884-1.544 1.572-2.975 3.228-4.238 4.94-15.941 21.583-10.637 55.965 13.443 80.018 25.989 26.018 64.018 30.115 84.955 9.206 17.12-17.149 17.457-45.748 2.75-69.829-3.256-5.305-7.241-10.413-11.956-15.128-5.78-5.783-12.179-10.498-18.831-14.091z" fill="#e0dfe1" fill-rule="evenodd"/></g><g><path clip-rule="evenodd" d="m398.652 349.409c-14.426-14.426-40.695-11.591-58.657 6.371-17.962 17.935-20.797 44.205-6.343 58.659l8.532 8.56c1.965-14.959 50.069-63.065 65.028-65.03z" fill="#6a5c69" fill-rule="evenodd"/></g><g><path clip-rule="evenodd" d="m364.216 380.001c-12.602 12.602-20.067 28.038-22.032 42.998-.758 5.782-.674 11.507.225 16.952 1.6 9.486 5.782 18.159 12.602 25.007l26.213 26.186c32.233-21.327 76.1-72.237 94.132-94.163l-26.185-26.186c-7.381-7.382-16.896-11.648-27.252-12.939-4.771-.589-9.711-.533-14.706.112-14.96 1.966-30.396 9.404-42.997 22.033z" fill="#7e707d" fill-rule="evenodd"/></g><g><path clip-rule="evenodd" d="m390.401 406.188c-4.715 4.715-8.7 9.823-11.956 15.128-14.706 24.081-14.37 52.681 2.779 69.829 20.909 20.91 58.938 16.812 84.927-9.206 24.08-24.053 29.385-58.434 13.472-80.018-1.291-1.712-2.694-3.368-4.266-4.94-16.25-16.251-42.856-17.401-66.123-4.884-6.652 3.594-13.051 8.309-18.833 14.091z" fill="#e0dfe1" fill-rule="evenodd"/></g><g><path clip-rule="evenodd" d="m254.843 155.638c-52.539 0-95.115 42.577-95.115 95.089 0 6.68.702 13.191 1.993 19.478 8.981 43.194 47.263 75.639 93.122 75.639 45.13 0 82.906-31.434 92.645-73.59 1.6-6.904 2.442-14.117 2.442-21.527 0-52.512-42.576-95.089-95.087-95.089z" fill="#7e707d" fill-rule="evenodd"/></g><g><path clip-rule="evenodd" d="m254.843 315.954c35.896 0 65.197-29.301 65.197-65.227 0-35.897-29.301-65.198-65.197-65.198-35.924 0-65.225 29.301-65.225 65.198.001 35.925 29.301 65.227 65.225 65.227z" fill="#6a5c69" fill-rule="evenodd"/></g><g><path clip-rule="evenodd" d="m347.488 272.254c-6.708 28.993-26.662 52.905-53.128 65.03-5.164 49.79-18.215 95.145-36.991 132.502 27.196-.589 57.282-11.984 85.039-29.835-.898-5.445-.982-11.17-.225-16.952l-8.532-8.56c-14.454-14.454-11.619-40.724 6.343-58.659 17.962-17.963 44.232-20.797 58.657-6.371l8.56 8.56c4.996-.646 9.935-.702 14.706-.112 11.535-20.376 18.299-41.595 18.131-61.802-.14-15.212-4.182-32.641-11.226-50.913-.842-2.217-1.74-4.434-2.666-6.652-31.462-75.134-110.354-160.961-172.66-160.428-4.434.028-8.953.505-13.528 1.403 15.043 22.369 27.701 49.032 37.187 78.811 41.762 10.048 72.774 47.629 72.774 92.451.001 7.41-.841 14.623-2.441 21.527z" fill="#d3cfd2" fill-rule="evenodd"/></g><g><path clip-rule="evenodd" d="m64.109 424.459c-8.7 8.729-6.988 24.558 3.845 35.364 10.805 10.834 26.634 12.546 35.363 3.845 8.7-8.729 6.988-24.558-3.845-35.364-10.806-10.834-26.635-12.546-35.363-3.845z" fill="#7e707d" fill-rule="evenodd"/></g><g><path clip-rule="evenodd" d="m412.517 428.304c-10.833 10.806-12.545 26.635-3.817 35.364 8.7 8.701 24.529 6.989 35.363-3.845 10.805-10.806 12.517-26.635 3.817-35.364-8.701-8.701-24.53-6.989-35.363 3.845z" fill="#7e707d" fill-rule="evenodd"/></g><g><path clip-rule="evenodd" d="m475.356 396.982c-16.25-16.251-42.856-17.401-66.123-4.884-.505.281-1.01.561-1.544.87 5.585 2.217 10.693 5.473 15.043 9.823 4.631 4.659 8.055 10.132 10.244 16.138 5.669-.168 11.002 1.628 14.903 5.529 8.7 8.729 6.988 24.558-3.817 35.364-4.827 4.827-10.637 7.831-16.362 8.925-3.592 6.736-8.336 13.163-14.173 19.001-5.332 5.361-11.17 9.767-17.288 13.219 21.218 8.42 49.34 1.572 69.912-19.029 24.08-24.053 29.385-58.434 13.472-80.018-1.292-1.711-2.695-3.367-4.267-4.938z" fill="#d3cfd2" fill-rule="evenodd"/></g><g><path clip-rule="evenodd" d="m102.755 392.098c-16.334-8.785-34.352-10.834-49.255-5.641 14.454 7.213 25.877 19.085 31.939 33.455 4.968 1.403 9.879 4.21 14.033 8.392 10.833 10.806 12.545 26.635 3.845 35.364-4.687 4.687-11.451 6.343-18.355 5.192-4.687 10.469-12.209 19.562-21.667 26.411 23.575 13.303 50.911 12.461 67.498-4.126 17.12-17.149 17.457-45.748 2.75-69.829-3.256-5.305-7.241-10.413-11.956-15.128-5.781-5.782-12.18-10.497-18.832-14.09z" fill="#d3cfd2" fill-rule="evenodd"/></g><g><g><path d="m349.165 265.118c-4.028-.94-8.067 1.564-9.009 5.599-9.297 39.818-44.379 67.628-85.313 67.628-48.311 0-87.615-39.305-87.615-87.618 0-48.297 39.304-87.589 87.615-87.589 43.877 0 81.221 32.761 86.864 76.206.534 4.108 4.307 7.008 8.403 6.472 4.107-.533 7.005-4.296 6.472-8.403-6.61-50.895-50.349-89.274-101.738-89.274-56.582 0-102.614 46.022-102.614 102.589 0 56.583 46.032 102.617 102.614 102.617 23.286 0 46.091-8.022 64.215-22.588 17.847-14.344 30.528-34.454 35.705-56.629.941-4.034-1.565-8.067-5.599-9.01z"/><path d="m254.844 178.029c-40.1 0-72.724 32.612-72.724 72.698 0 40.102 32.624 72.726 72.724 72.726 40.085 0 72.697-32.624 72.697-72.726 0-40.086-32.612-72.698-72.697-72.698zm-7.5 129.921c-25.84-3.37-46.352-23.883-49.722-49.723h49.722zm0-64.723h-49.721c3.371-25.826 23.883-46.327 49.721-49.695zm14.999 64.723v-49.723h49.694c-3.367 25.839-23.868 46.352-49.694 49.723zm0-64.723v-49.695c25.824 3.369 46.325 23.87 49.694 49.695z"/></g><g><path d="m407.22 422.995c-7.361 7.343-11.587 16.976-11.593 26.43-.005 7.59 2.755 14.531 7.769 19.547 5.172 5.171 12.126 7.696 19.465 7.696 9.144 0 18.885-3.924 26.504-11.542 13.707-13.708 15.423-34.326 3.816-45.971-11.612-11.611-32.233-9.888-45.961 3.84zm31.539 31.524c-7.751 7.752-19.088 9.514-24.755 3.846-2.794-2.793-3.379-6.397-3.377-8.93.003-5.502 2.623-11.268 7.193-15.827 4.679-4.68 10.662-7.176 15.917-7.176 3.451 0 6.587 1.078 8.831 3.321 5.671 5.69 3.927 17.031-3.809 24.766z"/><path d="m480.66 391.678-26.19-26.189c-6.062-6.054-13.362-10.278-21.343-12.766 9.722-19.585 14.573-38.632 14.425-56.725-.08-9.17-1.44-19.09-4.09-29.69 31.479-25.24 48.519-56.079 48.519-88.718 0-27.839-12.62-54.849-36.479-78.099-34.149-33.259-30.359-47.209-27.32-58.409 3.59-13.18 4.51-24.49-18.43-39.819-3.45-2.3-8.1-1.37-10.4 2.07-2.31 3.45-1.38 8.1 2.06 10.41 7.66 5.12 12.17 9.56 13.39 13.2.89 2.65.24 5.32-1.09 10.2-4.82 17.74-6.06 36.689 31.32 73.099 20.9 20.36 31.949 43.639 31.949 67.349 0 26.3-13.35 51.559-38.159 73.079-1.67-4.91-3.59-9.94-5.75-15.08-16.1-38.439-44.669-79.949-76.429-111.048-35.589-34.839-71.989-53.979-102.588-53.979h-.62c-41.529.36-82.269 35.029-102.858 55.669-2.93 2.93-2.92 7.68.01 10.61 2.93 2.92 7.68 2.92 10.61-.01 18.96-19.02 56.189-50.959 92.359-51.269 26.72-.27 59.619 17.42 92.588 49.699 30.41 29.759 57.729 69.439 73.099 106.128 2.76 6.56 5.1 12.97 7.01 19.16 1.66 5.33 3 10.49 4.01 15.45 1.46 7.19 2.24 13.95 2.29 20.12.14 16.675-5.022 35.254-14.94 53.986-2.489-.096-5.004-.067-7.539.121l-6.118-6.12c-8.617-8.617-20.735-12.56-34.115-11.113-12.777 1.385-25.26 7.595-35.145 17.48-9.895 9.879-16.104 22.357-17.486 35.136-1.446 13.383 2.51 25.504 11.129 34.125l6.114 6.134c-.256 3.443-.236 6.854.034 10.205-27.177 16.729-54.923 26.022-78.551 26.242h-.76c-23.332 0-50.768-8.796-77.789-24.866.391-3.793.453-7.669.161-11.586l6.125-6.126c17.336-17.371 14.473-48.443-6.372-69.256-20.823-20.856-51.892-23.716-69.268-6.376l-6.121 6.121c-3.468-.258-6.904-.252-10.279.026-9.484-17.931-14.555-35.755-14.694-51.795-.06-6.86.75-14.38 2.43-22.48 1.01-4.94 2.35-10.1 4.01-15.46.03-.11.07-.21.1-.32 9.68-31.04 29.66-66.699 54.829-97.858 2.61-3.22 2.1-7.94-1.12-10.54-3.22-2.61-7.94-2.11-10.55 1.12-24.96 30.889-45.089 66.199-55.819 97.728-24.8-21.51-38.139-46.769-38.139-73.059 0-23.71 11.05-46.989 31.95-67.349 37.389-36.409 36.159-55.359 31.339-73.099-1.32-4.88-1.97-7.55-1.09-10.2 1.23-3.64 5.73-8.08 13.39-13.2 3.44-2.31 4.37-6.96 2.07-10.41-2.3-3.44-6.96-4.37-10.4-2.07-22.94 15.33-22.02 26.63-18.44 39.809 3.04 11.21 6.83 25.15-27.34 58.419-23.859 23.252-36.479 50.261-36.479 78.101 0 32.639 17.04 63.479 48.519 88.718-2.92 11.67-4.34 22.49-4.26 32.279.157 17.556 5.032 36 14.504 54.942-7.037 2.561-13.483 6.524-18.929 11.962l-28.346 28.349c-.028.027-.056.057-.084.085-1.263 1.304-2.271 2.645-3.092 4.078-17.598 24.549-11.943 62.782 14.54 89.237 16.249 16.266 36.937 24.682 56.172 24.682 14.924 0 28.974-5.069 39.389-15.47.002-.002.005-.005.007-.007l26.185-26.186c5.088-5.095 8.893-11.061 11.455-17.573 28.054 15.947 56.644 24.629 81.456 24.629h.87c24.983-.227 53.715-9.319 81.775-25.761 2.557 6.953 6.487 13.323 11.868 18.711l26.186 26.158c.003.003.007.006.01.009.005.005.01.011.015.016 10.155 10.155 23.907 15.552 39.292 15.552 2.421 0 4.883-.134 7.377-.403 17.741-1.92 35.096-10.57 48.862-24.352 28.885-28.854 33.018-71.724 9.209-95.567zm-355.171 94.164c-17.988 17.958-51.337 13.831-74.35-9.209-23.029-23.006-27.159-56.349-9.219-74.332l.027-.027c7.533-7.514 17.762-11.154 28.801-11.154 15.304 0 32.164 6.998 45.535 20.371 23.023 23.023 27.152 56.375 9.206 74.351zm26.185-26.186-.183.183c.852-19.999-7.561-41.915-24.6-58.955-17.04-17.041-38.955-25.455-58.954-24.602l.181-.181c17.986-17.962 51.34-13.836 74.355 9.205 23.033 23.012 27.16 56.366 9.201 74.35zm1.405-84.955c-9.939-9.95-21.541-16.961-33.456-20.907 11.729-10.4 32.501-7.299 47.072 7.294 14.585 14.563 17.683 35.342 7.286 47.064-3.946-11.914-10.955-23.514-20.902-33.451zm179.044 12.519c1.015-9.385 5.692-18.666 13.176-26.137 7.479-7.48 16.77-12.16 26.159-13.178 8.253-.896 15.621 1.192 20.911 5.886-11.915 3.945-23.518 10.956-33.457 20.907-9.939 9.939-16.944 21.537-20.888 33.446-4.701-5.301-6.792-12.672-5.901-20.924zm28.193 72.439c-17.949-17.974-13.821-51.33 9.206-74.357 15.074-15.091 34.586-22.064 51.308-20.031.088.013.175.025.263.035 8.7 1.109 16.633 4.662 22.773 10.794l.092.092c-3.255-.13-6.588-.018-9.984.349-17.745 1.924-35.103 10.569-48.878 24.344-17.044 17.044-25.454 38.962-24.594 58.961zm100.528 16.979c-11.36 11.374-25.519 18.493-39.868 20.046-13.743 1.484-25.971-2.364-34.449-10.842-17.967-17.968-13.851-51.322 9.178-74.352 11.364-11.365 25.53-18.481 39.887-20.037 1.937-.21 3.845-.313 5.716-.313 11.397 0 21.448 3.858 28.724 11.124l.022.022c.001.002.003.003.005.004 17.951 17.988 13.822 51.335-9.215 74.348z"/><path d="m58.796 419.165c-11.606 11.645-9.875 32.267 3.847 45.953 7.605 7.625 17.341 11.551 26.491 11.551 7.336 0 14.297-2.524 19.478-7.689.006-.005.012-.011.017-.017 11.608-11.646 9.877-32.267-3.847-45.954-13.7-13.738-34.322-15.47-45.986-3.844zm39.217 39.199c-5.695 5.665-17.026 3.905-24.763-3.852-7.749-7.729-9.502-19.068-3.847-24.743 2.259-2.252 5.408-3.333 8.869-3.333 5.257 0 11.233 2.496 15.903 7.178 7.745 7.726 9.502 19.056 3.838 24.75z"/></g></g></g></svg>